<?xml version="1.0" encoding="utf-8"?>
<!-- Generator: Adobe Illustrator 25.4.1, SVG Export Plug-In . SVG Version: 6.00 Build 0)  -->
<svg version="1.1" xmlns="http://www.w3.org/2000/svg" xmlns:xlink="http://www.w3.org/1999/xlink" x="0px" y="0px"
	 viewBox="0 0 281 375.94" style="enable-background:new 0 0 281 375.94;" xml:space="preserve">
<style type="text/css">
	.st0{display:none;}
	.st1{display:inline;fill:#191919;}
	.st2{display:inline;}
	.st3{fill:#FFFFFF;}
	.st4{fill:#AAAAAA;}
	.st5{clip-path:url(#SVGID_00000005246804497282280670000007589723026909967545_);}
	.st6{fill:#DF1837;}
	.st7{fill:#DD3354;}
	.st8{fill:#DB5272;}
	.st9{fill:#D87C94;}
	.st10{clip-path:url(#SVGID_00000116945808839515007440000007165159794507648697_);}
	.st11{fill:#009678;}
	.st12{fill:#04B290;}
	.st13{fill:#20C9A9;}
	.st14{fill:#5CE5CB;}
	.st15{clip-path:url(#SVGID_00000068637427704193429640000010827386298350842259_);}
	.st16{fill:#CEC911;}
	.st17{fill:#DBD731;}
	.st18{fill:#D6CE49;}
	.st19{fill:#D3CD84;}
	.st20{clip-path:url(#SVGID_00000109018783550077667620000004730620736394898342_);}
	.st21{fill:#6D1F1D;}
	.st22{fill:#902D27;}
	.st23{fill:#D87675;}
	.st24{fill:#E3A7A5;}
	.st25{clip-path:url(#SVGID_00000127727712277743322120000007871902183773411246_);}
	.st26{fill:#A57C16;}
	.st27{fill:#C48726;}
	.st28{fill:#D89223;}
	.st29{fill:#E0C552;}
	.st30{clip-path:url(#SVGID_00000180366696252575966440000008122533765010961336_);}
	.st31{fill:#006790;}
	.st32{fill:#0176AB;}
	.st33{fill:#018ECB;}
	.st34{fill:#00B3DB;}
	.st35{fill:#7A7A7A;stroke:#B3B3B3;stroke-miterlimit:10;}
</style>
<g id="Capa_2" class="st0">
	<rect y="-0.14" class="st1" width="281.12" height="376.09"/>
</g>
<g id="Capa_7">
	<g id="Capa_8_copia_2" class="st0">
		<g class="st2">
			<g>
				<path class="st3" d="M104.13,374.91c-1.93,0-3.82-0.55-5.45-1.6l-83.08-53.23c-2.28-1.46-3.85-3.71-4.43-6.35
					c-0.58-2.64-0.09-5.35,1.36-7.62L177.48,48.64c1.87-2.92,5.06-4.66,8.53-4.66c1.93,0,3.82,0.55,5.45,1.6l83.08,53.23
					c2.28,1.46,3.85,3.71,4.43,6.35c0.58,2.64,0.09,5.35-1.36,7.62L112.65,370.25C110.78,373.16,107.6,374.91,104.13,374.91z"/>
				<path class="st4" d="M186.01,44.48c1.78,0,3.57,0.49,5.18,1.52l83.08,53.23c4.47,2.87,5.78,8.81,2.91,13.29L112.23,369.98
					c-1.84,2.87-4.94,4.43-8.11,4.43c-1.78,0-3.57-0.49-5.18-1.52l-83.08-53.23c-4.47-2.87-5.78-8.81-2.91-13.29L177.9,48.91
					C179.74,46.05,182.84,44.48,186.01,44.48 M186.01,43.48c-3.64,0-6.99,1.83-8.95,4.89L12.11,305.83
					c-3.16,4.93-1.72,11.51,3.21,14.67l83.08,53.23c1.71,1.1,3.69,1.68,5.72,1.68c3.64,0,6.99-1.83,8.95-4.89l164.95-257.46
					c1.53-2.39,2.04-5.23,1.43-8c-0.61-2.77-2.26-5.14-4.64-6.67l-83.08-53.23C190.01,44.06,188.04,43.48,186.01,43.48L186.01,43.48
					z"/>
			</g>
			<g>
				<defs>
					<path id="SVGID_1_" d="M98.95,372.89l-83.08-53.23c-4.47-2.87-5.78-8.81-2.91-13.29L177.9,48.91
						c2.87-4.47,8.81-5.78,13.29-2.91l83.08,53.23c4.47,2.87,5.78,8.81,2.91,13.29L112.23,369.98
						C109.37,374.45,103.42,375.75,98.95,372.89z"/>
				</defs>
				<clipPath id="SVGID_00000025432924117390148250000006933996091266184375_">
					<use xlink:href="#SVGID_1_"  style="overflow:visible;"/>
				</clipPath>
				<g style="clip-path:url(#SVGID_00000025432924117390148250000006933996091266184375_);">
					
						<rect x="143.44" y="63.54" transform="matrix(0.842 0.5395 -0.5395 0.842 84.9121 -99.8569)" class="st6" width="139" height="63"/>
					
						<rect x="106.76" y="120.8" transform="matrix(0.842 0.5395 -0.5395 0.842 110.0043 -71.0219)" class="st7" width="139" height="63"/>
					
						<rect x="70.07" y="178.05" transform="matrix(0.842 0.5395 -0.5395 0.842 135.0965 -42.1869)" class="st8" width="139" height="63"/>
					
						<rect x="33.39" y="235.31" transform="matrix(0.842 0.5395 -0.5395 0.842 160.1886 -13.352)" class="st9" width="139" height="63"/>
				</g>
			</g>
			<g>
				<path class="st3" d="M186.01,48.48L186.01,48.48c1.07,0,2.11,0.31,3.02,0.89l83.08,53.23c1.26,0.81,2.14,2.06,2.46,3.53
					c0.32,1.47,0.05,2.97-0.76,4.23L108.86,367.82c-1.04,1.62-2.81,2.59-4.74,2.59c-1.07,0-2.11-0.31-3.02-0.89l-83.08-53.23
					c-2.61-1.67-3.37-5.15-1.7-7.76L181.27,51.07C182.31,49.45,184.08,48.48,186.01,48.48 M186.01,44.48
					c-3.17,0-6.27,1.56-8.11,4.43L12.95,306.37c-2.87,4.47-1.56,10.42,2.91,13.29l83.08,53.23c1.61,1.03,3.4,1.52,5.18,1.52
					c3.17,0,6.27-1.56,8.11-4.43l164.95-257.46c2.87-4.47,1.56-10.42-2.91-13.29L191.19,46C189.58,44.97,187.78,44.48,186.01,44.48
					L186.01,44.48z"/>
			</g>
		</g>
	</g>
	<g id="Capa_8_copia" class="st0">
		<g class="st2">
			<g>
				<path class="st3" d="M108.63,370.3c-1.69,0-3.37-0.43-4.87-1.25L17.3,321.51c-2.37-1.3-4.09-3.45-4.84-6.04
					c-0.75-2.6-0.45-5.33,0.85-7.7L160.63,39.83c1.78-3.24,5.18-5.24,8.87-5.24c1.69,0,3.37,0.43,4.87,1.25l86.46,47.54
					c4.89,2.69,6.68,8.85,3.99,13.74L117.51,365.06C115.73,368.29,112.33,370.3,108.63,370.3z"/>
				<path class="st4" d="M169.5,35.09c1.57,0,3.16,0.38,4.63,1.19l86.46,47.54c4.65,2.56,6.35,8.41,3.79,13.06L117.07,364.82
					c-1.75,3.18-5.04,4.99-8.44,4.99c-1.57,0-3.16-0.38-4.63-1.19l-86.46-47.54c-4.65-2.56-6.35-8.41-3.79-13.06L161.06,40.07
					C162.82,36.89,166.11,35.09,169.5,35.09 M169.5,34.09L169.5,34.09c-3.88,0-7.45,2.11-9.31,5.5L12.87,307.53
					c-1.37,2.49-1.68,5.35-0.89,8.08c0.79,2.72,2.6,4.98,5.08,6.34l86.46,47.54c1.57,0.86,3.33,1.32,5.11,1.32
					c3.88,0,7.45-2.11,9.31-5.5L265.26,97.36c1.37-2.49,1.68-5.35,0.89-8.08c-0.79-2.72-2.6-4.98-5.08-6.34L174.61,35.4
					C173.04,34.54,171.28,34.09,169.5,34.09L169.5,34.09z"/>
			</g>
			<g>
				<defs>
					<path id="SVGID_00000175324977641791782540000010176933541670662816_" d="M104.01,368.61l-86.46-47.54
						c-4.65-2.56-6.35-8.41-3.79-13.06L161.06,40.07c2.56-4.65,8.41-6.35,13.06-3.79l86.46,47.54c4.65,2.56,6.35,8.41,3.79,13.06
						L117.07,364.82C114.51,369.47,108.66,371.17,104.01,368.61z"/>
				</defs>
				<clipPath id="SVGID_00000096032700199231503050000014902130510051406502_">
					<use xlink:href="#SVGID_00000175324977641791782540000010176933541670662816_"  style="overflow:visible;"/>
				</clipPath>
				<g style="clip-path:url(#SVGID_00000096032700199231503050000014902130510051406502_);">
					
						<rect x="129.62" y="52.25" transform="matrix(0.8763 0.4818 -0.4818 0.8763 64.9826 -85.5724)" class="st11" width="139" height="63"/>
					
						<rect x="96.85" y="111.83" transform="matrix(0.8763 0.4818 -0.4818 0.8763 89.6382 -62.416)" class="st12" width="139" height="63"/>
					
						<rect x="64.09" y="171.42" transform="matrix(0.8763 0.4818 -0.4818 0.8763 114.2939 -39.2596)" class="st13" width="139" height="63"/>
					
						<rect x="31.33" y="231.01" transform="matrix(0.8763 0.4818 -0.4818 0.8763 138.9496 -16.1032)" class="st14" width="139" height="63"/>
				</g>
			</g>
			<g>
				<path class="st3" d="M169.5,39.09L169.5,39.09c0.95,0,1.86,0.23,2.7,0.7l86.46,47.54c2.71,1.49,3.71,4.91,2.22,7.63
					L113.56,362.89c-0.99,1.8-2.88,2.91-4.93,2.91c-0.95,0-1.86-0.23-2.7-0.7l-86.46-47.54c-2.71-1.49-3.71-4.91-2.22-7.63
					L164.57,42C165.56,40.2,167.45,39.09,169.5,39.09 M169.5,35.09c-3.39,0-6.69,1.8-8.44,4.99L13.75,308.01
					c-2.56,4.65-0.86,10.5,3.79,13.06l86.46,47.54c1.47,0.81,3.06,1.19,4.63,1.19c3.39,0,6.69-1.8,8.44-4.99L264.38,96.88
					c2.56-4.65,0.86-10.5-3.79-13.06l-86.46-47.54C172.66,35.47,171.07,35.09,169.5,35.09L169.5,35.09z"/>
			</g>
		</g>
	</g>
	<g id="Capa_8" class="st0">
		<g class="st2">
			<g>
				<path class="st3" d="M109,367.55c-1.55,0-3.05-0.35-4.45-1.04l-88.58-43.47c-2.43-1.19-4.24-3.25-5.12-5.81
					c-0.87-2.56-0.7-5.3,0.49-7.73L146.04,35c1.71-3.49,5.2-5.66,9.09-5.66c1.55,0,3.05,0.35,4.45,1.04l88.58,43.47
					c5.01,2.46,7.08,8.53,4.63,13.54l-134.69,274.5C116.38,365.38,112.9,367.55,109,367.55z"/>
				<path class="st4" d="M155.13,29.84c1.42,0,2.87,0.32,4.23,0.99l88.58,43.47c4.77,2.34,6.74,8.1,4.4,12.87l-134.69,274.5
					c-1.67,3.41-5.09,5.38-8.64,5.38c-1.42,0-2.87-0.32-4.23-0.99l-88.58-43.47c-4.77-2.34-6.74-8.1-4.4-12.87l134.69-274.5
					C148.16,31.82,151.58,29.84,155.13,29.84 M155.13,28.84L155.13,28.84c-4.09,0-7.74,2.28-9.54,5.94L10.9,309.28
					c-2.58,5.26-0.4,11.63,4.85,14.21l88.58,43.47c1.47,0.72,3.04,1.09,4.67,1.09c4.09,0,7.74-2.28,9.54-5.94L253.24,87.6
					c1.25-2.55,1.43-5.43,0.52-8.11c-0.92-2.68-2.82-4.85-5.37-6.1L159.8,29.93C158.33,29.21,156.76,28.84,155.13,28.84
					L155.13,28.84z"/>
			</g>
			<g>
				<defs>
					<path id="SVGID_00000144299842063873431570000011298524919072809106_" d="M104.77,366.06l-88.58-43.47
						c-4.77-2.34-6.74-8.1-4.4-12.87l134.69-274.5c2.34-4.77,8.1-6.74,12.87-4.4l88.58,43.47c4.77,2.34,6.74,8.1,4.4,12.87
						l-134.69,274.5C115.31,366.43,109.54,368.4,104.77,366.06z"/>
				</defs>
				<clipPath id="SVGID_00000179609607774653081020000009132790870835046079_">
					<use xlink:href="#SVGID_00000144299842063873431570000011298524919072809106_"  style="overflow:visible;"/>
				</clipPath>
				<g style="clip-path:url(#SVGID_00000179609607774653081020000009132790870835046079_);">
					
						<rect x="117.03" y="45.58" transform="matrix(0.8977 0.4405 -0.4405 0.8977 53.0294 -74.2873)" class="st16" width="139" height="63"/>
					
						<rect x="87.08" y="106.63" transform="matrix(0.8977 0.4405 -0.4405 0.8977 76.8582 -54.8495)" class="st17" width="139" height="63"/>
					
						<rect x="57.12" y="167.68" transform="matrix(0.8977 0.4405 -0.4405 0.8977 100.6871 -35.4117)" class="st18" width="139" height="63"/>
					
						<rect x="27.17" y="228.72" transform="matrix(0.8977 0.4405 -0.4405 0.8977 124.516 -15.9739)" class="st19" width="139" height="63"/>
				</g>
			</g>
			<g>
				<path class="st3" d="M155.13,33.84L155.13,33.84c0.86,0,1.69,0.19,2.47,0.58l88.58,43.47c1.35,0.66,2.36,1.81,2.84,3.23
					c0.49,1.42,0.39,2.94-0.27,4.29L114.05,359.9c-0.95,1.94-2.89,3.15-5.05,3.15c-0.86,0-1.69-0.19-2.47-0.58L17.95,319
					c-2.78-1.36-3.93-4.74-2.57-7.52l134.69-274.5C151.03,35.05,152.97,33.84,155.13,33.84 M155.13,29.84
					c-3.55,0-6.97,1.98-8.64,5.38L11.8,309.72c-2.34,4.77-0.37,10.53,4.4,12.87l88.58,43.47c1.36,0.67,2.81,0.99,4.23,0.99
					c3.55,0,6.97-1.98,8.64-5.38l134.69-274.5c2.34-4.77,0.37-10.53-4.4-12.87l-88.58-43.47C158,30.16,156.55,29.84,155.13,29.84
					L155.13,29.84z"/>
			</g>
		</g>
	</g>
	<g id="Capa_2_copia_5" class="st0">
		<g class="st2">
			<path class="st3" d="M115.04,358.1c-1.18,0-2.35-0.21-3.47-0.62l-92.7-33.8c-2.54-0.93-4.57-2.79-5.71-5.23
				c-1.14-2.45-1.26-5.2-0.33-7.74L117.59,23.45c1.45-3.98,5.27-6.65,9.51-6.65c1.18,0,2.35,0.21,3.47,0.61l92.7,33.8
				c5.24,1.91,7.95,7.73,6.04,12.97L124.55,351.44C123.09,355.42,119.28,358.1,115.04,358.1z"/>
			<path class="st4" d="M127.09,17.29c1.09,0,2.21,0.19,3.29,0.58l92.7,33.8c4.99,1.82,7.56,7.34,5.74,12.33L124.08,351.27
				c-1.42,3.9-5.11,6.33-9.04,6.33c-1.09,0-2.21-0.19-3.29-0.58l-92.7-33.8c-4.99-1.82-7.56-7.34-5.74-12.33L118.06,23.62
				C119.48,19.71,123.17,17.29,127.09,17.29 M127.09,16.29L127.09,16.29c-4.44,0-8.45,2.81-9.98,6.98L12.37,310.54
				c-2.01,5.5,0.84,11.61,6.34,13.61l92.7,33.8c1.17,0.43,2.4,0.65,3.64,0.65c4.44,0,8.45-2.81,9.98-6.98L229.77,64.35
				c2.01-5.5-0.84-11.61-6.34-13.61l-92.7-33.8C129.56,16.51,128.33,16.29,127.09,16.29L127.09,16.29z"/>
		</g>
		<g class="st2">
			<defs>
				<path id="SVGID_00000174586662385755043280000008121919320310417803_" d="M111.75,357.01l-92.7-33.8
					c-4.99-1.82-7.56-7.34-5.74-12.33L118.06,23.62c1.82-4.99,7.34-7.56,12.33-5.74l92.7,33.8c4.99,1.82,7.56,7.34,5.74,12.33
					L124.08,351.27C122.26,356.26,116.74,358.83,111.75,357.01z"/>
			</defs>
			<clipPath id="SVGID_00000014634572265129383560000015964841386135564720_">
				<use xlink:href="#SVGID_00000174586662385755043280000008121919320310417803_"  style="overflow:visible;"/>
			</clipPath>
			<g style="clip-path:url(#SVGID_00000014634572265129383560000015964841386135564720_);">
				
					<rect x="92.82" y="29.48" transform="matrix(0.9395 0.3426 -0.3426 0.9395 30.7143 -51.9197)" class="st21" width="139" height="63"/>
				
					<rect x="69.53" y="93.37" transform="matrix(0.9395 0.3426 -0.3426 0.9395 51.1909 -40.0726)" class="st22" width="139" height="63"/>
				
					<rect x="46.23" y="157.25" transform="matrix(0.9395 0.3426 -0.3426 0.9395 71.6676 -28.2256)" class="st23" width="139" height="63"/>
				
					<rect x="22.93" y="221.14" transform="matrix(0.9395 0.3426 -0.3426 0.9395 92.1442 -16.3785)" class="st24" width="139" height="63"/>
			</g>
		</g>
		<g class="st2">
			<path class="st3" d="M127.09,21.29L127.09,21.29c0.65,0,1.3,0.12,1.92,0.34l92.7,33.8c2.91,1.06,4.41,4.29,3.35,7.2L120.32,349.9
				c-0.81,2.21-2.93,3.7-5.28,3.7c-0.65,0-1.3-0.12-1.92-0.34l-92.7-33.8c-2.91-1.06-4.41-4.29-3.35-7.2L121.82,24.99
				C122.62,22.78,124.74,21.29,127.09,21.29 M127.09,17.29c-3.93,0-7.61,2.42-9.04,6.33L13.31,310.88
				c-1.82,4.99,0.75,10.51,5.74,12.33l92.7,33.8c1.09,0.4,2.2,0.58,3.29,0.58c3.93,0,7.61-2.42,9.04-6.33L228.83,64.01
				c1.82-4.99-0.75-10.51-5.74-12.33l-92.7-33.8C129.3,17.48,128.19,17.29,127.09,17.29L127.09,17.29z"/>
		</g>
	</g>
	<g id="Capa_2_copia_4">
		<g>
			<path class="st3" d="M120.04,344.31c-0.7,0-1.4-0.07-2.08-0.22l-96.58-20.22c-2.65-0.55-4.92-2.1-6.4-4.37
				c-1.48-2.26-1.99-4.96-1.43-7.61L76.2,12.62c0.98-4.66,5.14-8.05,9.89-8.05c0.7,0,1.4,0.07,2.08,0.22l96.58,20.22
				c2.65,0.55,4.92,2.1,6.4,4.37c1.48,2.26,1.99,4.96,1.43,7.61l-62.66,299.28C128.95,340.93,124.79,344.31,120.04,344.31z"/>
			<path class="st4" d="M86.1,5.08c0.65,0,1.32,0.07,1.98,0.21l96.58,20.22c5.2,1.09,8.53,6.19,7.44,11.38l-62.66,299.28
				c-0.95,4.53-4.95,7.65-9.4,7.65c-0.65,0-1.32-0.07-1.98-0.21l-96.58-20.22c-5.2-1.09-8.53-6.19-7.44-11.38L76.69,12.73
				C77.64,8.19,81.64,5.08,86.1,5.08 M86.1,4.08L86.1,4.08c-4.99,0-9.36,3.55-10.38,8.44L13.06,311.8
				c-0.58,2.78-0.05,5.61,1.51,7.99c1.55,2.37,3.94,4,6.71,4.58l96.58,20.22c0.72,0.15,1.46,0.23,2.19,0.23
				c4.99,0,9.36-3.55,10.38-8.44l62.66-299.28c0.58-2.78,0.05-5.61-1.51-7.99c-1.55-2.37-3.94-4-6.71-4.58L88.28,4.3
				C87.56,4.15,86.83,4.08,86.1,4.08L86.1,4.08z"/>
		</g>
		<g>
			<defs>
				<path id="SVGID_00000116195432167590460960000017049661683118591366_" d="M118.06,343.61l-96.58-20.22
					c-5.2-1.09-8.53-6.19-7.44-11.38L76.69,12.73c1.09-5.2,6.19-8.53,11.38-7.44l96.58,20.22c5.2,1.09,8.53,6.19,7.44,11.38
					l-62.66,299.28C128.35,341.36,123.25,344.69,118.06,343.61z"/>
			</defs>
			<clipPath id="SVGID_00000073687168266080914030000011737199916413369535_">
				<use xlink:href="#SVGID_00000116195432167590460960000017049661683118591366_"  style="overflow:visible;"/>
			</clipPath>
			<g style="clip-path:url(#SVGID_00000073687168266080914030000011737199916413369535_);">
				
					<rect x="56.34" y="11.89" transform="matrix(0.9788 0.2049 -0.2049 0.9788 11.5613 -24.8669)" class="st26" width="139" height="63"/>
				
					<rect x="42.41" y="78.44" transform="matrix(0.9788 0.2049 -0.2049 0.9788 24.9046 -20.5988)" class="st27" width="139" height="63"/>
				
					<rect x="28.47" y="145" transform="matrix(0.9788 0.2049 -0.2049 0.9788 38.2479 -16.3308)" class="st28" width="139" height="63"/>
				
					<rect x="14.54" y="211.56" transform="matrix(0.9788 0.2049 -0.2049 0.9788 51.5913 -12.0628)" class="st29" width="139" height="63"/>
			</g>
		</g>
		<g>
			<path class="st3" d="M86.1,9.08L86.1,9.08c0.39,0,0.78,0.04,1.16,0.12l96.58,20.22c3.03,0.63,4.98,3.62,4.35,6.65l-62.66,299.28
				c-0.54,2.59-2.85,4.47-5.49,4.47c-0.39,0-0.78-0.04-1.16-0.12L22.3,319.47c-1.47-0.31-2.73-1.17-3.55-2.42
				c-0.82-1.26-1.1-2.76-0.8-4.23L80.61,13.54C81.15,10.96,83.46,9.08,86.1,9.08 M86.1,5.08c-4.46,0-8.45,3.11-9.4,7.65L14.04,312
				c-1.09,5.2,2.24,10.3,7.44,11.38l96.58,20.22c0.66,0.14,1.33,0.21,1.98,0.21c4.46,0,8.45-3.11,9.4-7.65L192.1,36.89
				c1.09-5.2-2.24-10.3-7.44-11.38L88.08,5.28C87.41,5.14,86.75,5.08,86.1,5.08L86.1,5.08z"/>
		</g>
	</g>
	<g id="Capa_2_copia_3" class="st0">
		<g class="st2">
			<path class="st3" d="M24.73,327.44c-5.58,0-10.12-4.54-10.12-10.12l0-305.77c0-5.58,4.54-10.12,10.12-10.12l98.67,0
				c5.58,0,10.12,4.54,10.12,10.12v305.76c0,5.58-4.54,10.12-10.12,10.12H24.73z"/>
			<path class="st4" d="M24.73,1.94l98.67,0c5.31,0,9.62,4.31,9.62,9.62l0,305.76c0,5.31-4.31,9.62-9.62,9.62l-98.67,0
				c-5.31,0-9.62-4.31-9.62-9.62l0-305.76C15.11,6.25,19.42,1.94,24.73,1.94 M24.73,0.94c-5.85,0-10.62,4.76-10.62,10.62l0,305.76
				c0,5.85,4.76,10.62,10.62,10.62l98.67,0c5.85,0,10.62-4.76,10.62-10.62l0-305.76c0-5.85-4.76-10.62-10.62-10.62L24.73,0.94
				L24.73,0.94z"/>
		</g>
		<g class="st2">
			<defs>
				<path id="SVGID_00000032611837376875139540000014663413330063051392_" d="M123.4,326.94l-98.67,0c-5.31,0-9.62-4.31-9.62-9.62
					l0-305.76c0-5.31,4.31-9.62,9.62-9.62l98.67,0c5.31,0,9.62,4.31,9.62,9.62l0,305.76C133.02,322.64,128.71,326.94,123.4,326.94z"
					/>
			</defs>
			<clipPath id="SVGID_00000043443781983317447750000008960395696045688247_">
				<use xlink:href="#SVGID_00000032611837376875139540000014663413330063051392_"  style="overflow:visible;"/>
			</clipPath>
			<g style="clip-path:url(#SVGID_00000043443781983317447750000008960395696045688247_);">
				<rect x="0" y="0" class="st31" width="139" height="63"/>
				<rect x="0" y="68" class="st32" width="139" height="63"/>
				<rect x="0" y="136" class="st33" width="139" height="63"/>
				<rect x="0" y="204" class="st34" width="139" height="63"/>
			</g>
		</g>
		<g class="st2">
			<path class="st3" d="M24.73,1.94v4l98.67,0c3.1,0,5.62,2.52,5.62,5.62l0,305.76c0,3.1-2.52,5.62-5.62,5.62l-98.67,0
				c-3.1,0-5.62-2.52-5.62-5.62l0-305.76c0-3.1,2.52-5.62,5.62-5.62V1.94 M24.73,1.94c-5.31,0-9.62,4.31-9.62,9.62l0,305.76
				c0,5.31,4.31,9.62,9.62,9.62l98.67,0c5.31,0,9.62-4.31,9.62-9.62l0-305.76c0-5.31-4.31-9.62-9.62-9.62L24.73,1.94L24.73,1.94z"/>
		</g>
	</g>
	<circle class="st35" cx="27.84" cy="311.77" r="7"/>
</g>
</svg>
