<svg id="Capa_7" data-name="Capa 7" xmlns="http://www.w3.org/2000/svg" xmlns:xlink="http://www.w3.org/1999/xlink" viewBox="0 0 288.45 377.09"><defs><style>.cls-1{fill:none;}.cls-2{fill:#fff;}.cls-3{fill:#aaa;}.cls-4{clip-path:url(#clip-path);}.cls-5{fill:#df1837;}.cls-6{fill:#dd3354;}.cls-7{fill:#db5272;}.cls-8{fill:#d87c94;}.cls-9{clip-path:url(#clip-path-2);}.cls-10{fill:#009678;}.cls-11{fill:#04b290;}.cls-12{fill:#20c9a9;}.cls-13{fill:#5ce5cb;}.cls-14{clip-path:url(#clip-path-3);}.cls-15{fill:#cec911;}.cls-16{fill:#dbd731;}.cls-17{fill:#d6ce49;}.cls-18{fill:#d3cd84;}.cls-19{clip-path:url(#clip-path-4);}.cls-20{fill:#6d1f1d;}.cls-21{fill:#902d27;}.cls-22{fill:#d87675;}.cls-23{fill:#e3a7a5;}.cls-24{clip-path:url(#clip-path-5);}.cls-25{fill:#a57c16;}.cls-26{fill:#c48726;}.cls-27{fill:#d89223;}.cls-28{fill:#e0c552;}.cls-29{clip-path:url(#clip-path-6);}.cls-30{fill:#006790;}.cls-31{fill:#0176ab;}.cls-32{fill:#018ecb;}.cls-33{fill:#00b3db;}.cls-34{fill:#7a7a7a;stroke:#b3b3b3;stroke-miterlimit:10;}</style><clipPath id="clip-path" transform="translate(0 1.69)"><rect class="cls-1" x="86.11" y="46.94" width="117.91" height="325" rx="9.62" transform="matrix(0.84, 0.54, -0.54, 0.84, 135.91, -45.17)"/></clipPath><clipPath id="clip-path-2" transform="translate(0 1.69)"><rect class="cls-1" x="80.11" y="39.94" width="117.91" height="325" rx="9.62" transform="translate(114.74 -41.96) rotate(28.8)"/></clipPath><clipPath id="clip-path-3" transform="translate(0 1.69)"><rect class="cls-1" x="73.11" y="35.94" width="117.91" height="325" rx="9.62" transform="translate(100.92 -37.89) rotate(26.14)"/></clipPath><clipPath id="clip-path-4" transform="translate(0 1.69)"><rect class="cls-1" x="62.11" y="24.94" width="117.91" height="325" rx="9.62" transform="translate(71.54 -30.13) rotate(20.03)"/></clipPath><clipPath id="clip-path-5" transform="translate(0 1.69)"><rect class="cls-1" x="44.11" y="11.94" width="117.91" height="325" rx="9.62" transform="translate(37.93 -17.42) rotate(11.82)"/></clipPath><clipPath id="clip-path-6" transform="translate(0 1.69)"><rect class="cls-1" x="15.11" y="1.94" width="117.91" height="325" rx="9.62"/></clipPath></defs><g id="Capa_8_copia_2" data-name="Capa 8 copia 2"><path class="cls-2" d="M104.13,374.91a10.11,10.11,0,0,1-5.45-1.6L15.59,320.08a10.13,10.13,0,0,1-3.06-14l165-257.46a10.12,10.12,0,0,1,14-3.06l83.08,53.23a10.11,10.11,0,0,1,3.06,14l-165,257.46A10.09,10.09,0,0,1,104.13,374.91Z" transform="translate(0 1.69)"/><path class="cls-3" d="M186,44.48A9.59,9.59,0,0,1,191.19,46l83.08,53.23a9.62,9.62,0,0,1,2.91,13.29L112.23,370A9.61,9.61,0,0,1,99,372.89L15.86,319.66A9.63,9.63,0,0,1,13,306.37l165-257.46A9.63,9.63,0,0,1,186,44.48m0-1a10.59,10.59,0,0,0-8.95,4.89L12.11,305.83a10.63,10.63,0,0,0,3.21,14.67l83.09,53.23a10.6,10.6,0,0,0,14.66-3.21L278,113.06a10.63,10.63,0,0,0-3.21-14.67L191.73,45.16A10.58,10.58,0,0,0,186,43.48Z" transform="translate(0 1.69)"/><g class="cls-4"><rect class="cls-5" x="143.44" y="63.54" width="139" height="63" transform="translate(84.91 -98.17) rotate(32.65)"/><rect class="cls-6" x="106.76" y="120.8" width="139" height="63" transform="translate(110 -69.33) rotate(32.65)"/><rect class="cls-7" x="70.07" y="178.05" width="139" height="63" transform="translate(135.1 -40.5) rotate(32.65)"/><rect class="cls-8" x="33.39" y="235.31" width="139" height="63" transform="translate(160.19 -11.66) rotate(32.65)"/></g><path class="cls-2" d="M186,48.48h0a5.61,5.61,0,0,1,3,.89l83.08,53.23a5.61,5.61,0,0,1,1.7,7.76L108.86,367.82a5.61,5.61,0,0,1-7.76,1.7L18,316.29a5.62,5.62,0,0,1-1.7-7.76l165-257.46A5.61,5.61,0,0,1,186,48.48m0-4a9.63,9.63,0,0,0-8.11,4.43L13,306.37a9.63,9.63,0,0,0,2.91,13.29L99,372.89A9.61,9.61,0,0,0,112.23,370l165-257.46a9.62,9.62,0,0,0-2.91-13.29L191.19,46A9.59,9.59,0,0,0,186,44.48Z" transform="translate(0 1.69)"/></g><g id="Capa_8_copia" data-name="Capa 8 copia"><path class="cls-2" d="M108.63,370.3a10.1,10.1,0,0,1-4.86-1.25L17.3,321.51a10.12,10.12,0,0,1-4-13.74L160.63,39.83a10.12,10.12,0,0,1,13.74-4l86.46,47.54a10.13,10.13,0,0,1,4,13.74L117.51,365.06A10.14,10.14,0,0,1,108.63,370.3Z" transform="translate(0 1.69)"/><path class="cls-3" d="M169.5,35.09a9.56,9.56,0,0,1,4.63,1.19l86.46,47.54a9.62,9.62,0,0,1,3.79,13.06L117.07,364.82A9.62,9.62,0,0,1,104,368.61L17.54,321.07A9.62,9.62,0,0,1,13.75,308L161.06,40.07a9.64,9.64,0,0,1,8.44-5m0-1h0a10.63,10.63,0,0,0-9.31,5.5L12.87,307.53A10.63,10.63,0,0,0,17.06,322l86.47,47.54A10.63,10.63,0,0,0,118,365.3L265.26,97.36a10.62,10.62,0,0,0-4.19-14.42L174.61,35.4a10.64,10.64,0,0,0-5.11-1.31Z" transform="translate(0 1.69)"/><g class="cls-9"><rect class="cls-10" x="129.62" y="52.25" width="139" height="63" transform="translate(64.98 -83.88) rotate(28.8)"/><rect class="cls-11" x="96.85" y="111.83" width="139" height="63" transform="translate(89.64 -60.73) rotate(28.8)"/><rect class="cls-12" x="64.09" y="171.42" width="139" height="63" transform="translate(114.29 -37.57) rotate(28.8)"/><rect class="cls-13" x="31.33" y="231.01" width="139" height="63" transform="translate(138.95 -14.42) rotate(28.8)"/></g><path class="cls-2" d="M169.5,39.09h0a5.56,5.56,0,0,1,2.7.69l86.46,47.54A5.62,5.62,0,0,1,260.88,95L113.56,362.89a5.6,5.6,0,0,1-4.93,2.91,5.49,5.49,0,0,1-2.7-.7L19.47,317.57a5.64,5.64,0,0,1-2.22-7.63L164.57,42a5.62,5.62,0,0,1,4.93-2.91m0-4a9.64,9.64,0,0,0-8.44,5L13.75,308a9.62,9.62,0,0,0,3.79,13.06L104,368.61a9.62,9.62,0,0,0,13.06-3.79L264.38,96.88a9.62,9.62,0,0,0-3.79-13.06L174.13,36.28a9.56,9.56,0,0,0-4.63-1.19Z" transform="translate(0 1.69)"/></g><g id="Capa_8" data-name="Capa 8"><path class="cls-2" d="M109,367.55a10,10,0,0,1-4.45-1L16,323a10.12,10.12,0,0,1-4.62-13.54L146,35a10.11,10.11,0,0,1,13.54-4.62l88.58,43.46a10.15,10.15,0,0,1,4.63,13.55L118.09,361.88A10,10,0,0,1,109,367.55Z" transform="translate(0 1.69)"/><path class="cls-3" d="M155.13,29.84a9.57,9.57,0,0,1,4.23,1l88.58,43.46a9.62,9.62,0,0,1,4.4,12.87L117.65,361.66a9.61,9.61,0,0,1-12.88,4.4L16.19,322.59a9.61,9.61,0,0,1-4.39-12.87L146.49,35.22a9.63,9.63,0,0,1,8.64-5.38m0-1h0a10.56,10.56,0,0,0-9.54,5.94L10.9,309.28a10.63,10.63,0,0,0,4.85,14.21L104.33,367a10.6,10.6,0,0,0,14.21-4.86L253.24,87.6a10.61,10.61,0,0,0-4.86-14.2L159.8,29.93a10.53,10.53,0,0,0-4.67-1.09Z" transform="translate(0 1.69)"/><g class="cls-14"><rect class="cls-15" x="117.03" y="45.58" width="139" height="63" transform="translate(53.03 -72.6) rotate(26.14)"/><rect class="cls-16" x="87.08" y="106.63" width="139" height="63" transform="translate(76.86 -53.16) rotate(26.14)"/><rect class="cls-17" x="57.12" y="167.68" width="139" height="63" transform="translate(100.69 -33.72) rotate(26.14)"/><rect class="cls-18" x="27.17" y="228.72" width="139" height="63" transform="translate(124.52 -14.29) rotate(26.14)"/></g><path class="cls-2" d="M155.13,33.84h0a5.6,5.6,0,0,1,2.47.58l88.58,43.46a5.63,5.63,0,0,1,2.57,7.52L114.05,359.9a5.59,5.59,0,0,1-7.51,2.57L18,319a5.61,5.61,0,0,1-2.56-7.51L150.08,37a5.59,5.59,0,0,1,5-3.15m0-4a9.63,9.63,0,0,0-8.64,5.38L11.8,309.72a9.61,9.61,0,0,0,4.39,12.87l88.58,43.47a9.61,9.61,0,0,0,12.88-4.4L252.34,87.16a9.62,9.62,0,0,0-4.4-12.87L159.36,30.83a9.57,9.57,0,0,0-4.23-1Z" transform="translate(0 1.69)"/></g><g id="Capa_2_copia_5" data-name="Capa 2 copia 5"><path class="cls-2" d="M115,358.1a10.08,10.08,0,0,1-3.47-.62l-92.7-33.8a10.12,10.12,0,0,1-6-13L117.59,23.45a10.09,10.09,0,0,1,13-6l92.7,33.8a10.13,10.13,0,0,1,6,13L124.55,351.44A10.17,10.17,0,0,1,115,358.1Z" transform="translate(0 1.69)"/><path class="cls-3" d="M127.09,17.29a9.54,9.54,0,0,1,3.3.59l92.7,33.8A9.62,9.62,0,0,1,228.83,64L124.08,351.27a9.64,9.64,0,0,1-9,6.33,9.49,9.49,0,0,1-3.29-.59l-92.7-33.8a9.62,9.62,0,0,1-5.74-12.33L118.06,23.62a9.61,9.61,0,0,1,9-6.33m0-1h0a10.65,10.65,0,0,0-10,7L12.37,310.54a10.62,10.62,0,0,0,6.33,13.61L111.4,358A10.6,10.6,0,0,0,125,351.61L229.77,64.35a10.63,10.63,0,0,0-6.34-13.61l-92.7-33.8a10.54,10.54,0,0,0-3.64-.65Z" transform="translate(0 1.69)"/><g class="cls-19"><rect class="cls-20" x="92.82" y="29.48" width="139" height="63" transform="translate(30.71 -50.23) rotate(20.03)"/><rect class="cls-21" x="69.53" y="93.37" width="139" height="63" transform="translate(51.19 -38.38) rotate(20.03)"/><rect class="cls-22" x="46.23" y="157.25" width="139" height="63" transform="translate(71.67 -26.54) rotate(20.03)"/><rect class="cls-23" x="22.93" y="221.14" width="139" height="63" transform="translate(92.14 -14.69) rotate(20.03)"/></g><path class="cls-2" d="M127.09,21.29h0a5.81,5.81,0,0,1,1.93.34l92.7,33.81a5.62,5.62,0,0,1,3.35,7.2L120.32,349.9a5.65,5.65,0,0,1-5.28,3.7,5.52,5.52,0,0,1-1.92-.35l-92.7-33.8a5.63,5.63,0,0,1-3.36-7.2L121.82,25a5.63,5.63,0,0,1,5.27-3.7m0-4a9.61,9.61,0,0,0-9,6.33L13.31,310.88a9.62,9.62,0,0,0,5.74,12.33l92.7,33.8a9.49,9.49,0,0,0,3.29.59,9.64,9.64,0,0,0,9-6.33L228.83,64a9.62,9.62,0,0,0-5.74-12.33l-92.7-33.8a9.54,9.54,0,0,0-3.3-.59Z" transform="translate(0 1.69)"/></g><g id="Capa_2_copia_4" data-name="Capa 2 copia 4"><path class="cls-2" d="M120,344.31a10.51,10.51,0,0,1-2.09-.21L21.38,323.87a10.1,10.1,0,0,1-7.83-12L76.2,12.62a10.16,10.16,0,0,1,9.9-8,10.48,10.48,0,0,1,2.08.21L184.76,25a10.13,10.13,0,0,1,7.83,12L129.93,336.27A10.16,10.16,0,0,1,120,344.31Z" transform="translate(0 1.69)"/><path class="cls-3" d="M86.1,5.08a9.64,9.64,0,0,1,2,.2L184.66,25.5a9.63,9.63,0,0,1,7.44,11.39L129.44,336.16a9.62,9.62,0,0,1-9.4,7.65,10.23,10.23,0,0,1-2-.2L21.48,323.39A9.62,9.62,0,0,1,14,312L76.69,12.73A9.62,9.62,0,0,1,86.1,5.08m0-1h0a10.65,10.65,0,0,0-10.38,8.44L13.06,311.8a10.6,10.6,0,0,0,8.21,12.56l96.58,20.22a10.12,10.12,0,0,0,2.19.23,10.66,10.66,0,0,0,10.38-8.44L193.08,37.09a10.64,10.64,0,0,0-8.22-12.57L88.28,4.3a10.68,10.68,0,0,0-2.18-.22Z" transform="translate(0 1.69)"/><g class="cls-24"><rect class="cls-25" x="56.34" y="11.89" width="139" height="63" transform="translate(11.56 -23.18) rotate(11.82)"/><rect class="cls-26" x="42.41" y="78.44" width="139" height="63" transform="translate(24.9 -18.91) rotate(11.82)"/><rect class="cls-27" x="28.47" y="145" width="139" height="63" transform="translate(38.25 -14.64) rotate(11.82)"/><rect class="cls-28" x="14.54" y="211.56" width="139" height="63" transform="translate(51.59 -10.37) rotate(11.82)"/></g><path class="cls-2" d="M86.1,9.08h0a5.79,5.79,0,0,1,1.16.12l96.58,20.22a5.62,5.62,0,0,1,4.34,6.65L125.52,335.34a5.6,5.6,0,0,1-6.64,4.35L22.3,319.47A5.62,5.62,0,0,1,18,312.82L80.61,13.54A5.64,5.64,0,0,1,86.1,9.08m0-4a9.62,9.62,0,0,0-9.41,7.65L14,312a9.62,9.62,0,0,0,7.44,11.39l96.58,20.22a10.23,10.23,0,0,0,2,.2,9.62,9.62,0,0,0,9.4-7.65L192.1,36.89a9.63,9.63,0,0,0-7.44-11.39L88.08,5.28a9.64,9.64,0,0,0-2-.2Z" transform="translate(0 1.69)"/></g><g id="Capa_2_copia_3" data-name="Capa 2 copia 3"><rect class="cls-2" x="14.61" y="3.13" width="118.91" height="326" rx="10.12"/><path class="cls-3" d="M24.73,1.94H123.4A9.62,9.62,0,0,1,133,11.56V317.33a9.62,9.62,0,0,1-9.62,9.61H24.73a9.62,9.62,0,0,1-9.62-9.61V11.56a9.62,9.62,0,0,1,9.62-9.62m0-1A10.64,10.64,0,0,0,14.11,11.56V317.33a10.63,10.63,0,0,0,10.62,10.61H123.4A10.62,10.62,0,0,0,134,317.33V11.56A10.63,10.63,0,0,0,123.4.94Z" transform="translate(0 1.69)"/><g class="cls-29"><rect class="cls-30" y="1.69" width="139" height="63"/><rect class="cls-31" y="69.69" width="139" height="63"/><rect class="cls-32" y="137.69" width="139" height="63"/><rect class="cls-33" y="205.69" width="139" height="63"/></g><path class="cls-2" d="M24.73,1.94v4H123.4A5.62,5.62,0,0,1,129,11.56V317.33a5.62,5.62,0,0,1-5.62,5.61H24.73a5.62,5.62,0,0,1-5.62-5.61V11.56a5.62,5.62,0,0,1,5.62-5.62v-4m0,0a9.62,9.62,0,0,0-9.62,9.62V317.33a9.62,9.62,0,0,0,9.62,9.61H123.4a9.62,9.62,0,0,0,9.62-9.61V11.56a9.62,9.62,0,0,0-9.62-9.62Z" transform="translate(0 1.69)"/></g><circle class="cls-34" cx="27.84" cy="313.46" r="7"/></svg>