<?xml version="1.0" encoding="utf-8"?>
<!-- Generator: Adobe Illustrator 25.4.1, SVG Export Plug-In . SVG Version: 6.00 Build 0)  -->
<svg version="1.1" id="Capa_1" xmlns="http://www.w3.org/2000/svg" xmlns:xlink="http://www.w3.org/1999/xlink" x="0px" y="0px"
	 viewBox="0 0 357.2 390.2" style="enable-background:new 0 0 357.2 390.2;" xml:space="preserve">
<style type="text/css">
	.st0{fill:url(#SVGID_1_);}
	.st1{fill:url(#SVGID_00000013166825739838595440000009889275957621705394_);}
</style>
<linearGradient id="SVGID_1_" gradientUnits="userSpaceOnUse" x1="-337.8176" y1="-554.937" x2="-241.7302" y2="-464.429" gradientTransform="matrix(0.7071 -0.7071 -0.7071 -0.7071 21.6182 -254.4974)">
	<stop  offset="0" style="stop-color:#F08339"/>
	<stop  offset="0.9964" style="stop-color:#FFD054"/>
</linearGradient>
<path class="st0" d="M177.1,241.4c0,0-58.7,25-26.3,72.5l7.2-10.1c0,0,1.6,21.3,20.9,46.4c18.4-25.7,19.3-47,19.3-47l7.6,9.9
	C236.6,264.7,177.1,241.4,177.1,241.4z"/>
<linearGradient id="SVGID_00000113351488069246959980000003162092242806847365_" gradientUnits="userSpaceOnUse" x1="-293.9153" y1="-513.9188" x2="-234.6867" y2="-455.6453" gradientTransform="matrix(0.7071 -0.7071 -0.7071 -0.7071 21.6182 -254.4974)">
	<stop  offset="3.558720e-03" style="stop-color:#FFD054"/>
	<stop  offset="1" style="stop-color:#FFE9B7"/>
</linearGradient>
<path style="fill:url(#SVGID_00000113351488069246959980000003162092242806847365_);" d="M177.1,241.4c0,0-36.6,15.6-16.4,45.2
	l4.5-6.3c0,0,1,13.3,13,29c11.5-16,12.1-29.3,12.1-29.3l4.7,6.2C214.2,255.9,177.1,241.4,177.1,241.4z"/>
</svg>
