<?xml version="1.0" encoding="utf-8"?>
<!-- Generator: Adobe Illustrator 25.4.1, SVG Export Plug-In . SVG Version: 6.00 Build 0)  -->
<svg version="1.1" id="Capa_1" xmlns="http://www.w3.org/2000/svg" xmlns:xlink="http://www.w3.org/1999/xlink" x="0px" y="0px"
	 viewBox="0 0 496.23 496.86" style="enable-background:new 0 0 496.23 496.86;" xml:space="preserve">
<style type="text/css">
	.st0{fill:#FFFFFF;}
</style>
<g>
	<g>
		<path class="st0" d="M170.67,165.35c35.45,0,70.76,0,106.35,0c0,15.19,0,30.32,0,45.45l0.46,0.15c1.8-2.46,3.59-4.93,5.4-7.37
			c9.23-12.43,19.87-23.37,33.23-31.43c14.72-8.88,30.82-13.27,47.83-14.3c19.62-1.18,38.84,0.97,57.29,8.19
			c24.28,9.5,42.51,25.9,55.15,48.6c10.22,18.35,15.77,38.19,17.9,58.94c1.19,11.61,1.81,23.34,1.84,35.01
			c0.18,61.56,0.08,123.12,0.08,184.68c0,1,0,1.99,0,3.16c-35.55,0-70.92,0-106.54,0c0-1.06,0-2.05,0-3.04
			c0-59.7,0.03-119.4-0.03-179.1c-0.01-13.71-1.5-27.24-6.57-40.13c-5.45-13.86-14.38-24.5-29.02-29.01
			c-25.73-7.93-52.75,0.37-68.26,26.25c-6.54,10.92-8.73,22.67-8.73,35.12c0.03,62.26,0.01,124.52,0.01,186.77c0,0.99,0,1.99,0,3.14
			c-35.57,0-70.94,0-106.41,0C170.67,386.04,170.67,275.75,170.67,165.35z"/>
		<path class="st0" d="M0.28,165.36c35.37,0,70.68,0,106.12,0c0,110.36,0,220.57,0,331c-35.3,0-70.6,0-106.12,0
			C0.28,386.13,0.28,275.81,0.28,165.36z"/>
		<path class="st0" d="M0,58.93c0.2-16.74,4.72-30.4,15.43-41.64C22.44,9.92,31.01,5.12,40.85,2.62C53.4-0.57,65.92-0.36,78.18,3.84
			c13.38,4.57,23.41,13.27,29.58,26c8.2,16.9,9.28,34.37,1.91,51.74c-8.58,20.23-24.69,30.55-46.2,32.82
			c-11.46,1.21-22.64-0.14-33.05-5.34C13.14,100.44,3.78,86.02,0.76,67.23C0.24,64.03,0.16,60.76,0,58.93z"/>
	</g>
</g>
</svg>
