<?xml version="1.0" encoding="utf-8"?>
<!-- Generator: Adobe Illustrator 25.4.1, SVG Export Plug-In . SVG Version: 6.00 Build 0)  -->
<svg version="1.1" xmlns="http://www.w3.org/2000/svg" xmlns:xlink="http://www.w3.org/1999/xlink" x="0px" y="0px"
	 viewBox="0 0 496.23 496.86" style="enable-background:new 0 0 496.23 496.86;" xml:space="preserve">
<style type="text/css">
	.st0{display:none;}
	.st1{display:inline;}
	.st2{fill:#FFFFFF;}
</style>
<g id="Capa_1" class="st0">
	<g class="st1">
		<g>
			<path class="st2" d="M170.67,165.35c35.45,0,70.76,0,106.35,0c0,15.19,0,30.32,0,45.45l0.46,0.15c1.8-2.46,3.59-4.93,5.4-7.37
				c9.23-12.43,19.87-23.37,33.23-31.43c14.72-8.88,30.82-13.27,47.83-14.3c19.62-1.18,38.84,0.97,57.29,8.19
				c24.28,9.5,42.51,25.9,55.15,48.6c10.22,18.35,15.77,38.19,17.9,58.94c1.19,11.61,1.81,23.34,1.84,35.01
				c0.18,61.56,0.08,123.12,0.08,184.68c0,1,0,1.99,0,3.16c-35.55,0-70.92,0-106.54,0c0-1.06,0-2.05,0-3.04
				c0-59.7,0.03-119.4-0.03-179.1c-0.01-13.71-1.5-27.24-6.57-40.13c-5.45-13.86-14.38-24.5-29.02-29.01
				c-25.73-7.93-52.75,0.37-68.26,26.25c-6.54,10.92-8.73,22.67-8.73,35.12c0.03,62.26,0.01,124.52,0.01,186.77
				c0,0.99,0,1.99,0,3.14c-35.57,0-70.94,0-106.41,0C170.67,386.04,170.67,275.75,170.67,165.35z"/>
			<path class="st2" d="M0.28,165.36c35.37,0,70.68,0,106.12,0c0,110.36,0,220.57,0,331c-35.3,0-70.6,0-106.12,0
				C0.28,386.13,0.28,275.81,0.28,165.36z"/>
			<path class="st2" d="M0,58.93c0.2-16.74,4.72-30.4,15.43-41.64C22.44,9.92,31.01,5.12,40.85,2.62
				C53.4-0.57,65.92-0.36,78.18,3.84c13.38,4.57,23.41,13.27,29.58,26c8.2,16.9,9.28,34.37,1.91,51.74
				c-8.58,20.23-24.69,30.55-46.2,32.82c-11.46,1.21-22.64-0.14-33.05-5.34C13.14,100.44,3.78,86.02,0.76,67.23
				C0.24,64.03,0.16,60.76,0,58.93z"/>
		</g>
	</g>
</g>
<g id="Capa_2">
	<g>
		<path class="st2" d="M0,316.39c0-44.05,0-88.1,0-132.15c0.15-3.84,0.32-7.67,0.46-11.51c0.7-20.26,0.83-40.57,4.89-60.56
			c3.99-19.64,10.88-38.08,22.71-54.41c21.43-29.6,50.89-46.1,86.43-52.63c17.91-3.29,36.05-3.6,54.16-4.28
			c5.1-0.19,10.19-0.36,15.29-0.54c44.05,0,88.1,0,132.15,0c0.43,0.1,0.86,0.28,1.29,0.3c8.16,0.27,16.33,0.52,24.49,0.78
			c20.04,0.64,39.86,2.53,59.17,8.51c26.18,8.12,47.77,22.76,64.54,44.41c17.19,22.19,25.22,47.91,27.85,75.41
			c1.42,14.9,1.57,29.92,2.32,44.89c0.12,2.49,0.33,4.98,0.5,7.47c0,44.05,0,88.1,0,132.15c-0.13,0.78-0.35,1.56-0.37,2.35
			c-0.25,7.98-0.44,15.97-0.68,23.95c-0.57,18.67-2.06,37.21-6.97,55.37c-8.3,30.73-25.08,55.57-51.22,73.77
			c-22.79,15.88-48.76,22.62-76.06,24.66c-13.24,0.99-26.53,1.18-39.8,1.76c-2.23,0.1-4.45,0.3-6.67,0.45c-44.23,0-88.46,0-132.69,0
			c-0.43-0.1-0.86-0.28-1.29-0.3c-12.2-0.45-24.4-0.8-36.6-1.33c-18.27-0.79-36.16-3.63-53.55-9.61
			c-25.5-8.78-46.12-24.11-61.95-45.81c-14.74-20.19-22.39-43.25-25.02-67.83c-1.76-16.39-1.99-32.95-2.92-49.43
			C0.33,320.3,0.15,318.35,0,316.39z M44.9,248.12c-0.18,0-0.36,0-0.55,0.01c0.48,30.27,0.87,60.54,1.48,90.8
			c0.3,14.64,1.31,29.22,4.93,43.52c5.92,23.4,18.68,41.81,39.68,53.98c14.23,8.24,30,11.97,46.24,13.04
			c17.73,1.17,35.51,1.69,53.27,2.11c14.73,0.35,29.47,0.19,44.21,0.16c37.73-0.07,75.46,0.5,113.17-1.39
			c15.3-0.77,30.39-2.51,44.9-7.74c19.38-6.99,34.22-19.43,44.28-37.37c8.99-16.02,12.27-33.65,13.17-51.7
			c0.93-18.74,1.59-37.52,1.58-56.29c-0.01-45.29-0.35-90.58-0.81-135.87c-0.16-15.62-1.14-31.2-4.92-46.5
			c-5.43-21.95-16.94-39.68-35.93-52.12c-15.09-9.88-32.17-14.13-49.89-15.34c-18.26-1.25-36.59-2.15-54.89-2.15
			c-49.77,0-99.55,0.44-149.32,0.96c-15.81,0.17-31.51,1.71-46.8,6.36c-19.2,5.85-34.56,16.9-45.75,33.5
			c-9.44,14.01-14.06,29.88-15.37,46.5C46.15,151.02,45.4,169.52,45,188C44.57,208.03,44.9,228.08,44.9,248.12z"/>
		<path class="st2" d="M120.73,248.29c-0.33-70.11,57.55-127.88,128.33-127.31c68.79,0.56,123.71,55.56,126.42,121.93
			c3.03,74.32-57,133.26-127.77,132.99C177.64,375.63,120.31,318.3,120.73,248.29z M165.53,248.47c0,45.79,36.84,82.53,82.75,82.55
			c45.56,0.01,82.45-37,82.43-82.68c-0.03-45.55-36.86-82.48-82.27-82.49C202.31,165.84,165.53,202.5,165.53,248.47z"/>
		<path class="st2" d="M380.84,86.1c16.27,0.11,29.71,13.79,29.57,30.1c-0.14,16.53-13.63,29.7-30.3,29.59
			c-16.17-0.11-29.58-13.73-29.45-29.91C350.8,99.31,364.29,85.99,380.84,86.1z"/>
	</g>
</g>
</svg>
