<?xml version="1.0" encoding="utf-8"?>
<!-- Generator: Adobe Illustrator 25.4.1, SVG Export Plug-In . SVG Version: 6.00 Build 0)  -->
<svg version="1.1" id="Capa_1" xmlns="http://www.w3.org/2000/svg" xmlns:xlink="http://www.w3.org/1999/xlink" x="0px" y="0px"
	 viewBox="0 0 184.1 164.2" style="enable-background:new 0 0 184.1 164.2;" xml:space="preserve">
<style type="text/css">
	.st0{fill:none;}
	.st1{fill:#FFFFFF;}
	.st2{fill:#0F0F0F;}
	.st3{fill:none;stroke:#0F0F0F;stroke-width:0;stroke-linecap:round;stroke-linejoin:round;}
</style>
<g>
	<path class="st0" d="M142.4,100c-0.4,0.4-0.9,0.7-1.5,1C141.5,100.7,142,100.4,142.4,100z"/>
	<path class="st0" d="M62.1,117.1c0.2-0.6,0.4-1.2,0.7-1.8C62.5,115.9,62.3,116.5,62.1,117.1c-0.4,1.5-0.9,3-1.2,4.5
		c0,0.2,0,0.3,0,0.5c0-0.2,0-0.3,0-0.5C61.2,120.1,61.7,118.6,62.1,117.1z"/>
	<path class="st0" d="M48.5,43.7c1.4-1.9,2.9-3.7,4.6-5.4C51.4,40,49.9,41.8,48.5,43.7z"/>
	<path class="st0" d="M144.5,96c-0.1,0.7-0.3,1.3-0.5,1.8C144.2,97.3,144.4,96.7,144.5,96z"/>
	<path class="st0" d="M86.4,130.1c0.2,0,0.5,0.1,0.7,0.1c0.2,0,0.5,0,0.7,0c-0.2,0-0.5,0-0.7,0C86.9,130.2,86.6,130.2,86.4,130.1z"
		/>
	<path class="st0" d="M40.3,65.6c0.2-3.5,0.9-6.9,2.1-10.4C41.2,58.7,40.5,62.2,40.3,65.6z"/>
	<path class="st0" d="M129.6,102.8c-1.3-0.1-2.6-0.2-3.9-0.3C126.9,102.6,128.2,102.7,129.6,102.8z"/>
	<path class="st0" d="M141.3,91.1c-0.3-0.2-0.6-0.4-0.9-0.5c-0.7-0.4-1.3-0.8-2-1.2c0.7,0.4,1.4,0.8,2,1.2
		C140.7,90.8,141,91,141.3,91.1z"/>
	<path class="st0" d="M134.4,102.7c1.9-0.2,3.9-0.5,5.7-1.3c0.3-0.1,0.6-0.3,0.9-0.4c-0.3,0.1-0.6,0.3-0.9,0.4
		C138.3,102.2,136.4,102.5,134.4,102.7z"/>
	<path class="st0" d="M56.5,133.1c-0.8,0.8-1.7,1.7-2.6,2.6C54.8,134.8,55.7,133.9,56.5,133.1c1.6-1.5,3.2-3,4.8-4.5h0
		C59.7,130.1,58.1,131.6,56.5,133.1z"/>
	<path class="st0" d="M125.2,102.6c0.1-0.1,0.3-0.1,0.4-0.1h0C125.5,102.5,125.3,102.6,125.2,102.6z"/>
	<path class="st0" d="M46.5,46.6c-1.3,2-2.4,4.2-3.4,6.5c-0.3,0.7-0.5,1.4-0.8,2.1c0.2-0.7,0.5-1.4,0.8-2.1
		C44.1,50.8,45.2,48.7,46.5,46.6z"/>
	<path class="st0" d="M129.6,102.8c0.4,0,0.9,0,1.3,0c1.2,0,2.3,0,3.5-0.1c-1.2,0.1-2.3,0.1-3.5,0.1
		C130.5,102.8,130,102.8,129.6,102.8z"/>
	<path class="st0" d="M144,97.8c-0.4,0.8-0.9,1.5-1.5,2.1C143.1,99.4,143.6,98.7,144,97.8z"/>
	<path class="st0" d="M30.7,146.1c-0.5-0.1-1-0.1-1.5-0.1C29.7,146,30.2,146.1,30.7,146.1z"/>
	<path class="st0" d="M51.3,138.3c-0.3,0.3-0.6,0.7-0.8,1C50.7,138.9,51,138.6,51.3,138.3z"/>
	<path class="st0" d="M41,157.8c-0.4-0.1-0.7-0.3-1.1-0.6C40.3,157.5,40.7,157.7,41,157.8z"/>
	<path class="st0" d="M54,151c0,0.8-0.3,1.7-0.7,2.4C53.8,152.7,54,151.8,54,151z"/>
	<path class="st0" d="M140.6,51.4c0.7-0.7,1.4-1.4,2.2-2.1c1.9-1.8,3.7-3.6,5.6-5.4c-1.9,1.8-3.7,3.6-5.6,5.4
		C142,50,141.3,50.7,140.6,51.4z"/>
	<path class="st0" d="M143.2,30.1c0.4-0.7,0.6-1.3,0.8-2.1C143.8,28.8,143.5,29.5,143.2,30.1z"/>
	<path class="st0" d="M23.2,144.6c1.1,0.9,2.6,1.4,4.4,1.4c0.2,0,0.5,0,0.8,0c-0.3,0-0.5,0-0.8,0C25.8,146,24.3,145.5,23.2,144.6z"
		/>
	<path class="st0" d="M21.9,143c-0.2-0.4-0.4-0.8-0.6-1.3C21.4,142.2,21.6,142.6,21.9,143z"/>
	<path class="st0" d="M33.7,147.4c0.3,0.3,0.5,0.6,0.7,0.9c0.4,0.7,0.7,1.5,1,2.3c-0.3-0.8-0.6-1.6-1-2.3
		C34.2,147.9,34,147.6,33.7,147.4z"/>
	<path class="st0" d="M47.9,156.9c0.4-0.1,0.9-0.3,1.3-0.4c0.5-0.2,1-0.5,1.5-0.8c-0.5,0.3-1,0.6-1.5,0.8
		C48.8,156.7,48.3,156.8,47.9,156.9z"/>
	<path class="st0" d="M49.6,141.8c0-0.5,0.1-0.9,0.3-1.4c0.2-0.4,0.3-0.7,0.6-1.1c-0.2,0.4-0.4,0.7-0.6,1.1
		C49.7,140.9,49.6,141.3,49.6,141.8z"/>
	<path class="st0" d="M21.9,143c0.4,0.6,0.8,1.1,1.4,1.6C22.7,144.2,22.2,143.6,21.9,143z"/>
	<path class="st0" d="M21.1,141.1c-0.1-0.5-0.1-0.9-0.2-1.4C21,140.1,21,140.6,21.1,141.1z"/>
	<path class="st0" d="M36.6,153.2c-0.3-0.5-0.6-1.1-0.9-1.7C36,152.1,36.3,152.6,36.6,153.2z"/>
	<path class="st0" d="M138.2,113.2c0.1-0.4,0.2-0.8,0.3-1.2C138.4,112.4,138.3,112.8,138.2,113.2z"/>
	<path class="st0" d="M136.5,116.1c0.5-0.5,0.8-1.1,1.1-1.7C137.4,115,137,115.6,136.5,116.1z"/>
	<path class="st0" d="M166.2,102c0.2-0.1,0.4-0.2,0.5-0.3C166.6,101.8,166.4,101.9,166.2,102z"/>
	<path class="st0" d="M170.3,100.6c0.3,0,0.5,0,0.8,0C170.8,100.6,170.6,100.6,170.3,100.6z"/>
	<path class="st0" d="M135.3,117.3c0.2,0,0.3,0.1,0.4,0.1C135.6,117.4,135.5,117.3,135.3,117.3L135.3,117.3z"/>
	<path class="st0" d="M156.3,133.6c-0.2-0.2-0.3-0.5-0.5-0.8C156,133.1,156.1,133.3,156.3,133.6z"/>
	<path class="st0" d="M155.5,129.2c0,0.9,0,1.8,0.1,2.6c0,0.3,0.1,0.7,0.2,1c-0.1-0.3-0.2-0.6-0.2-1
		C155.5,131,155.6,130.1,155.5,129.2z"/>
	<path class="st0" d="M157.9,134.6c-0.5-0.1-1-0.4-1.3-0.7C156.9,134.2,157.4,134.4,157.9,134.6c1,0.3,2.1,0.5,3.1,0.5
		c0.3,0,0.7,0,1,0c-0.3,0-0.7,0-1,0C160,135.1,158.9,134.9,157.9,134.6z"/>
	<path class="st0" d="M164.6,134.5c-0.5,0.2-1,0.4-1.6,0.5C163.6,134.8,164.1,134.7,164.6,134.5z"/>
	<path class="st0" d="M153.5,123.6c0.5,0.3,0.9,0.8,1.2,1.3C154.4,124.3,154,123.9,153.5,123.6z"/>
	<path class="st0" d="M138.5,109.8c0,0.3,0,0.5,0,0.7C138.5,110.3,138.5,110.1,138.5,109.8z"/>
	<path class="st0" d="M155.2,126c0.1,0.2,0.1,0.4,0.1,0.6c0.1,0.5,0.2,1.1,0.2,1.7c0-0.6-0.1-1.2-0.2-1.7
		C155.3,126.4,155.2,126.2,155.2,126z"/>
	<path class="st0" d="M127.6,114.8c-0.8-0.3-1.5-0.7-2.1-1.3C126.2,114,126.9,114.5,127.6,114.8z"/>
	<path class="st0" d="M172.8,114.2c-0.5,0.6-0.9,1.2-1.2,1.8C171.9,115.3,172.3,114.7,172.8,114.2z"/>
	<path class="st0" d="M123.9,109.6c-0.4,0.4-0.9,0.8-1.3,1.3c0.5,0.4,0.9,0.8,1.3,1.2c-0.4-0.4-0.9-0.8-1.3-1.2
		C123.1,110.4,123.5,110,123.9,109.6z"/>
	<path class="st0" d="M171.5,115.9c-0.3,0.6-0.6,1.1-0.8,1.7C171,117.1,171.2,116.5,171.5,115.9z"/>
	<path class="st0" d="M125.2,108.4c0.3-0.3,0.7-0.7,0.9-1C125.9,107.7,125.5,108.1,125.2,108.4z"/>
	<path class="st0" d="M128.1,106.2c-0.4,0-0.7,0-1,0.1C127.4,106.2,127.7,106.2,128.1,106.2L128.1,106.2z"/>
	<path class="st0" d="M170.9,127.7c0,0.5-0.1,0.9-0.2,1.4C170.8,128.6,170.9,128.2,170.9,127.7z"/>
	<path class="st0" d="M170.7,129.1c-0.3,1.1-0.9,2-1.7,2.8C169.9,131,170.5,130.1,170.7,129.1z"/>
	<path class="st1" d="M61.3,128.6c-1.2-0.7-2.1-1.6-2.8-2.5c-1.1-1.6-1.4-3.6-1-5.9c-0.2,0.2-0.4,0.3-0.5,0.4
		c-3.1,2.9-6.1,5.9-9.1,8.8c-0.6,0.6-1.2,1-1.9,1.4c-0.4,0.3-0.9,0.5-1.4,0.6c-0.2,0.1-0.5,0.2-0.7,0.2c-0.5,0.1-1,0.2-1.6,0.2
		c-1.9,0.1-3.7-0.6-5.4-1.4c-3.3-1.6-6.6-1.7-9.9,0c-0.4,0.2-0.8,0.4-1.1,0.7c-2.5,1.7-4.2,4-4.8,7c-0.1,0.5-0.1,1-0.1,1.5
		c0,0.5,0.1,1,0.2,1.4c0,0.2,0.1,0.5,0.2,0.7c0.1,0.4,0.3,0.9,0.6,1.3c0.4,0.6,0.8,1.1,1.4,1.6c1.1,0.9,2.6,1.4,4.4,1.4
		c0.2,0,0.5,0,0.8,0c0.3,0,0.5,0,0.8,0c0.5,0,1,0.1,1.5,0.1c1.2,0.1,2.2,0.5,3,1.3c0.3,0.3,0.5,0.6,0.7,0.9c0.4,0.7,0.7,1.5,1,2.3
		c0.1,0.3,0.3,0.6,0.4,0.9c0.3,0.6,0.5,1.1,0.9,1.7c0.8,1.4,1.7,2.6,2.9,3.7c0.2,0.1,0.3,0.3,0.5,0.4c0.3,0.2,0.7,0.4,1.1,0.6
		c0.9,0.4,2,0.4,3,0.3c1.3-0.3,2.6-0.7,3.9-1.2c0.4-0.1,0.9-0.3,1.3-0.4c0.5-0.2,1-0.5,1.5-0.8c0.5-0.3,1-0.7,1.5-1
		c0.5-0.4,0.8-0.8,1.1-1.3c0.4-0.7,0.7-1.6,0.7-2.4s-0.2-1.7-0.6-2.4c-0.2-0.3-0.3-0.5-0.5-0.8c-0.5-0.8-1.2-1.5-1.9-2.3
		c-1-1.1-1.6-2.4-1.4-3.7c0-0.5,0.1-0.9,0.3-1.4c0.2-0.3,0.3-0.7,0.6-1.1c0.2-0.4,0.5-0.7,0.8-1c0.9-0.9,1.7-1.8,2.6-2.6
		c0.9-0.9,1.8-1.7,2.6-2.6C58.1,131.6,59.7,130.1,61.3,128.6z"/>
	<path class="st1" d="M89.1,122.5c-2.3,0.1-4.5-0.2-6.7-0.8c-0.6-0.2-1.4,0.5-1.2,1c0.6,1.6,1.1,3.2,1.8,4.8
		c0.7,1.6,1.9,2.4,3.4,2.6c0.2,0,0.5,0.1,0.7,0.1c0.2,0,0.5,0,0.7,0c0.5,0,0.9-0.1,1.3-0.2c0.2-0.1,0.4-0.1,0.6-0.2
		c0.4-0.2,0.7-0.4,1.1-0.7c0.3-0.3,0.6-0.7,0.9-1.1c1-1.7,1.3-3.6,1.8-5.7c-0.3,0-0.5,0-0.7,0C91.5,122.4,90.3,122.5,89.1,122.5z"/>
	<path class="st1" d="M137.4,50.4c0.2,1.2,0.4,2.3,0.6,3.5c0.2-0.1,0.3-0.2,0.4-0.3c0.8-0.8,1.5-1.5,2.2-2.2
		c0.7-0.7,1.4-1.4,2.2-2.1c1.9-1.8,3.7-3.6,5.6-5.4c1.8-1.8,3.7-3.6,5.5-5.3c1.5-1.5,3.3-2.5,5.6-2.4c1.5,0.1,2.8,0.7,4.1,1.5
		c1.9,1.1,3.8,1.2,5.7,0c1.3-0.8,2-2.1,2.6-3.4c1.1-2.7,1-5.5,0.1-8.3c-0.6-1.9-1.9-3.3-3.8-4c-0.2-0.1-0.5-0.1-0.7-0.2
		c-0.5-0.1-1-0.3-1.4-0.4c-0.2,0-0.5-0.1-0.7-0.1c-3.9-0.7-6.5-3-8-6.6c-1-2.4-2.1-4.7-3.3-7c-0.6-1.2-1.7-1.8-3-1.7
		c-0.8,0-1.6,0.2-2.3,0.5c-4,1.4-6.4,4.7-6.4,8.7c0,1.7,0.4,3.3,0.7,4.9c0.3,1.5,0.9,3,1.1,4.5c0.2,1.2,0.1,2.4-0.2,3.5
		c-0.2,0.7-0.5,1.4-0.8,2.1c-0.5,1-1.2,1.9-2.1,2.8c-2.1,2.3-4.4,4.6-6.6,6.8c-0.5,0.5-0.5,0.8-0.1,1.2
		C135.8,44,136.8,47.1,137.4,50.4z"/>
	<path class="st1" d="M37.5,80.7c-0.5-1.7-1.3-2.5-3-3c-1.3-0.4-2.5-0.9-3.6-1.7c-0.7-0.5-1.3-1.1-1.8-1.8c-0.8-1-1.3-2.2-1.7-3.6
		c-0.1-0.5-0.3-1.1-0.4-1.6c-0.4-1.6-1-3.2-1.6-4.8c-1.7-4.2-5.1-6.2-9.8-6.3c-2.1,0-3.5,1.1-4,3.1c-0.3,1.2-0.4,2.4-0.3,3.6
		c0,1.6,0.3,3.1,0.4,4.7c0.2,2.9-0.4,5.5-2.5,7.6c-1.4,1.3-2.3,2.9-3,4.5c-1,2.3-1.3,4.6,0.1,6.8c1.2,1.9,2.9,3.3,4.9,4.3
		c1.8,0.9,3.6,0.8,5.2-0.5c0.9-0.8,1.5-1.9,1.9-3.1c0.3-0.9,0.6-1.8,1.1-2.6c0.9-1.7,2.9-2.7,4.8-2.5c0.8,0,1.6,0.2,2.4,0.4
		c3.9,1.2,7.7,2.4,11.6,3.6c1,0.3,2,0.6,3.3,0.8c-0.2-0.3-0.3-0.5-0.4-0.7C39.7,85.6,38.4,83.3,37.5,80.7z"/>
	<path class="st1" d="M95.4,122.3c2.5,3,5.1,3.8,8.2,2.6c2.5-0.9,4.5-4,4.2-6.1C103.6,120,99.5,121.2,95.4,122.3z"/>
	<path class="st1" d="M177.4,103.7c-1.6-2-3.9-3.1-6.3-3.1c-0.3,0-0.5,0-0.8,0c-0.5,0-1.1,0.1-1.6,0.3c-0.3,0.1-0.5,0.1-0.8,0.2
		c-0.4,0.2-0.8,0.4-1.2,0.6c-0.2,0.1-0.4,0.2-0.5,0.3c-0.1,0.1-0.3,0.2-0.4,0.3c-0.6,0.5-1.2,1.2-1.8,1.8c-0.5,0.6-1.1,1.3-1.6,1.9
		c-2.7,3.4-6,4.6-10.2,3.6c-1.9-0.5-3.8-1-5.8-1.5c-1.9-0.5-3.9-1-5.8-1.5c-1-0.3-2-0.5-3.1-0.8c0.5,1.3,0.9,2.6,1,3.9
		c0,0.3,0,0.5,0,0.7s0,0.5,0,0.7s0,0.5-0.1,0.7c-0.1,0.4-0.2,0.8-0.3,1.2c-0.1,0.4-0.3,0.8-0.5,1.2c-0.3,0.6-0.7,1.1-1.1,1.7
		c-0.4,0.4-0.8,0.8-1.2,1.2c0.2,0,0.3,0.1,0.4,0.1c0.1,0,0.2,0,0.3,0.1c3.6,1.2,7.2,2.2,10.8,3.4c1.9,0.6,3.8,1.3,5.6,2.1
		c0.4,0.1,0.8,0.3,1.1,0.6c0.5,0.3,0.9,0.8,1.2,1.3c0.2,0.3,0.4,0.7,0.5,1.1c0.1,0.2,0.1,0.4,0.1,0.6c0.1,0.5,0.2,1.1,0.2,1.7
		c0,0.3,0,0.6,0,0.9c0,0.9,0,1.8,0.1,2.6c0,0.3,0.1,0.7,0.2,1c0.1,0.3,0.3,0.6,0.5,0.8c0.1,0.1,0.2,0.2,0.3,0.3
		c0.3,0.3,0.8,0.5,1.3,0.7c1,0.3,2.1,0.5,3.1,0.5c0.4,0,0.7,0,1,0c0.3,0,0.7-0.1,1-0.1c0.5-0.1,1.1-0.3,1.6-0.5
		c0.7-0.3,1.5-0.6,2.2-1c0.6-0.3,1.2-0.7,1.7-1.1c0.2-0.2,0.4-0.3,0.5-0.5c0.8-0.8,1.4-1.7,1.7-2.8c0.1-0.4,0.2-0.9,0.2-1.4
		c0-1.2-0.1-2.3-0.4-3.4c-0.4-1.5-0.5-3-0.3-4.4c0.1-0.8,0.3-1.5,0.6-2.3c0.2-0.6,0.5-1.2,0.8-1.7c0.3-0.6,0.8-1.2,1.2-1.8
		c0.2-0.2,0.3-0.4,0.5-0.7c1.6-1.8,3.1-3.6,4.5-5.5c0.4-0.5,0.6-1,0.7-1.6c0-0.2,0-0.4,0-0.6c0-0.6-0.3-1.1-0.6-1.6
		C177.7,104,177.6,103.9,177.4,103.7z"/>
	<path class="st1" d="M125.2,102.6c0.1-0.1,0.3-0.1,0.4-0.1h0l0,0c0,0,0.1,0,0.1,0c1.2,0.1,2.5,0.2,3.9,0.3c0.4,0,0.9,0,1.3,0
		c1.2,0,2.3,0,3.5-0.1c1.9-0.2,3.9-0.5,5.7-1.3c0.3-0.1,0.6-0.3,0.9-0.4c0.5-0.3,1-0.6,1.5-1c0.7-0.6,1.2-1.3,1.5-2.1
		c0.2-0.6,0.4-1.2,0.5-1.8c0.2-1.1-0.1-2-0.8-2.8c-0.7-0.8-1.5-1.5-2.4-2.1c-0.3-0.2-0.6-0.4-0.9-0.5c-0.6-0.4-1.3-0.8-2-1.2
		c-0.7-0.4-1.4-0.8-2.1-1.3c3.2-6,2.7-11.4-2.3-16.2c-0.2,0.3-0.4,0.7-0.6,1c-0.4,0.6-0.8,1.3-1.2,1.9c-0.2,0.3-0.4,0.6-0.6,0.9
		c1-3.1,1.7-6.1,2.1-9.3c1.1-9.4-0.7-18.1-5.9-26c-4.7-7.1-11.2-11.9-19.1-14.9c-11.1-4.2-22.4-4.1-33.6-0.6
		c-4.9,1.5-9.5,3.7-13.8,6.6c-3,2-5.8,4.3-8.2,6.8c-1.7,1.7-3.2,3.5-4.6,5.4c-0.7,1-1.4,1.9-2,3c-1.3,2-2.4,4.2-3.4,6.5
		c-0.3,0.7-0.5,1.4-0.8,2.1c-1.2,3.5-1.9,7-2.1,10.4c-0.1,1.4-0.1,2.8,0,4.1c0.1,1.4,0.2,2.7,0.5,4.1C41.5,78,43,82,45.2,86
		c3.3,5.9,7.9,10.6,13.6,14.3c0.2,0.1,0.3,0.2,0.5,0.3v0.1c-1.3-0.5-2.7-1-4-1.5c-0.4,1.3-0.3,4,0.1,5.6c0.9,3.3,2.9,5.7,5.9,7.4
		c0.7,0.4,1.5,0.8,2.2,1.2c-0.2,0.6-0.5,1.3-0.7,1.9s-0.5,1.2-0.7,1.8c-0.4,1.5-0.9,3-1.2,4.5c0,0.2,0,0.3,0,0.5
		c0,0.3,0,0.6,0.1,0.9c0.2,0.7,0.6,1.4,1.3,1.9c0.4,0.3,0.7,0.6,1.1,0.8c0.8,0.4,1.6,0.7,2.5,0.8c0.4,0,0.9,0,1.3,0
		c2-0.2,3.7-0.9,5.4-1.9c3.1-1.7,5.7-4.1,8.2-6.5c0.3-0.4,0.6-0.4,1-0.2c1.1,0.4,2.3,0.9,3.5,1.1c0.6,0.1,1.1,0.2,1.7,0.2
		c1.1,0.1,2.3,0.1,3.4,0.1c2.8-0.1,5.6-0.6,8.4-1.3c3.8-0.9,7.4-2.2,11-3.7c3.7-1.6,7.2-3.4,10.3-6c1.8-1.6,3.6-3.2,4.7-5.2
		C124.9,102.8,125,102.7,125.2,102.6z M88.4,86.8c-1.3,6-4.5,10.6-9.9,13.6c-3,1.7-6.2,1.9-9.4,1c-5.4-1.4-9.5-4.5-12.2-9.4
		c-2-3.7-2-7.5-0.5-11.3c1.9-5,5.6-8.4,10.4-10.3c4.3-1.4,8.3-1,12.2,0.6c1.9,0.8,3.7,1.9,5.2,3.3C87.9,77.7,89.3,81.9,88.4,86.8z
		 M93.3,107.3c0.6-3.5,1.1-6.9,1.6-10.4c1,0.7,1.9,1.4,2.8,2.1c0.4-1.7,0.7-3.4,1.1-5.1c3.3,2.7,6.6,5.4,9.9,8.1L93.3,107.3z
		 M120.5,84.2c-0.8-0.3-1.5-0.6-2.2-1c-0.8-0.4-1-0.4-1.3,0.3c-1.5,3.4-3.1,6.8-4.6,10.1c-0.3,0.8-0.5,0.8-1.3,0.5
		c-2.7-1.1-5.3-2.1-8-3.2c-1.8-0.7-1.9-1.2-1.1-3c0.9-2,1.7-4,2.6-5.9c0.3-0.6-0.1-0.9-0.5-1.1c-4.3-2.3-8.6-4.7-12.9-7.1
		c-1.7-1-1.8-1.2-0.9-3c1.3-2.5,2.5-5,3.8-7.5c0.2-0.4,0.4-0.7,0.7-1c0.3,0.1,0.6,0.1,0.9,0.2c3.1,1.4,6.2,2.8,9.3,4.2
		c0.1,0.1,0.2,0.1,0.4,0.2c0.7,0.2,0.9,0.1,1-0.6c0.4-3.8,0.9-7.5,1.2-11.3c0.1-1.1,0.2-2.3,0.2-3.5c0-1.1,0.4-1.4,1.4-1.3
		c3.8,0.6,7.7,1.1,11.5,1.6c1.4,0.2,1.7,0.5,1.6,1.9c-0.3,6-0.7,12-1,18c-0.1,0.9,0,0.9,0.8,1.2c2.2,0.7,4.3,1.4,6.5,2.1
		c1.1,0.3,1.3,0.6,1.1,1.7c-0.4,3.1-0.9,6.1-1.3,9.2c0,0.3,0,0.6-0.1,0.8c-0.2,0.6-0.5,0.8-1.2,0.5
		C124.9,86.2,122.7,85.2,120.5,84.2z"/>
	<path class="st1" d="M134.3,106.4c-2.2-0.1-4.2-0.1-6.2-0.2c-0.4,0-0.7,0-1,0.1c-0.3,0.1-0.5,0.3-0.7,0.7c-0.1,0.1-0.2,0.2-0.3,0.4
		c-0.3,0.4-0.6,0.7-0.9,1c-0.4,0.4-0.8,0.8-1.3,1.2c-0.4,0.4-0.9,0.8-1.3,1.3c0.5,0.4,0.9,0.8,1.3,1.2c0.5,0.5,1,0.9,1.6,1.4
		c0.7,0.5,1.4,1,2.1,1.3c0.5,0.2,1,0.4,1.6,0.5c0.8,0.2,1.6,0.2,2.3,0c1.1-0.3,2.1-0.9,2.8-1.8s1.1-1.9,1-3.1
		C135.2,109,134.6,107.7,134.3,106.4z"/>
	<path class="st2" d="M181.5,100.2c-2.7-3.7-7.1-5.7-12.4-5c-3.6,0.4-6.5,2.3-8.8,5.1c-0.6,0.7-1.2,1.5-1.9,2.2
		c-1.6,1.5-3.5,2.1-5.6,1.7c-2.5-0.5-5-1.3-7.4-1.9c0.6-1,1.3-2,1.8-3c1-2.1,1.2-4.3,0.2-6.6c-0.7-1.5-1.8-2.7-3.1-3.6
		c-1.1-0.8-2.3-1.6-3.5-2.3c0.2-1,0.6-2.1,0.8-3.1c0.9-5.2-0.8-9.6-4.4-13.4c-0.4-0.4-0.4-0.7-0.3-1.2c0.4-2.3,0.8-4.6,1.2-6.9
		c0.1-0.3,0.2-0.6,0.4-0.8c6.1-6,12.1-12,18.2-17.9c1.5-1.4,2.8-1.6,4.6-0.6c6.1,3.2,13.1,0.4,15.6-6c1.4-3.8,1.8-7.6,0.6-11.5
		c0-0.1,0-0.2,0-0.3c-0.1-0.4-0.3-0.8-0.4-1.1c-0.4-0.8-0.9-1.7-1.4-2.5c-1.7-2.7-4.1-4.2-7.2-4.9c-1.2-0.2-2.4-0.6-3.4-1.2
		c-2-1-3-2.8-3.5-4.9c-0.7-2.5-1.8-4.7-3.5-6.6c-2.8-3.3-6.3-4.1-10.4-2.4c-2.9,1.2-5.4,3-7.4,5.2c-2.7,3-3.5,6.5-3.1,10.5
		c0.2,2.1,0.8,4.1,1.5,6.2c0.6,1.9,0.5,3.6-0.8,5.2c-1.3,1.6-2.5,3.3-3.8,4.9c-0.7,0.8-1.6,1.5-2.4,2.2c-0.8-1.1-1.4-2.1-2.1-3
		c-4.4-5.9-9.9-10.4-16.4-13.7c-10.7-5.4-22-6.9-33.8-4.9c-1.8,0.3-3.6,0.8-5.3,1.2c-0.3,0.1-0.7,0.1-1,0.2L68.2,17
		c-0.5,0.2-0.9,0.3-1.3,0.5c-0.4,0.2-0.8,0.4-1.3,0.6C54.8,23,46.3,30.6,40.4,41c-4.1,7.4-6.3,15.3-6.2,23.7c0,2.4,0.4,4.8,0.6,7.2
		c0,0.2,0.1,0.4,0,0.7c-0.5-0.9-1.1-1.7-1.6-2.6c-0.9-1.4-1.2-3-1.7-4.6c-1-3.7-2.6-7.1-5.7-9.5c-3.9-3.1-8.3-4.1-13.2-2.9
		c-3.8,1-5.9,3.7-6.7,7.4c-0.5,2.3-0.2,4.5,0.1,6.8c0.3,1.7,0.4,3.5-0.5,5.1c-0.3,0.6-0.7,1.1-1.1,1.6c-2,2.4-3.4,5-4.2,8
		c-0.9,3.4-0.3,6.6,1.6,9.5C3.6,94.2,6,96.3,9,97.6c4.5,1.9,8.9,0.8,11.9-3c1.2-1.5,2.3-3.2,3.4-4.8c0.3-0.4,0.5-0.4,0.9-0.3
		c6.8,2.1,13.5,4.2,20.3,6.2c0.6,0.2,1.3,0.3,1.9,0.5c0.2,0.1,0.3,0.1,0.5,0.2c1,0.9,2.1,1.7,3.1,2.6c0.2,0.2,0.4,0.5,0.3,0.8
		c-0.4,5.3,1.2,9.8,5.3,13.4c0,0,0,0,0,0c0,0,0,0,0,0c-4,3.8-8.1,7.7-12.1,11.5c-1.5,1.4-3.2,1.6-5,0.8c-2.2-1.1-4.5-1.8-7-1.9
		c-8-0.4-15.3,5.2-17.1,12.9c-0.4,1.7-0.4,3.4-0.1,5.2c0,0.1,0,0.2,0,0.4c0.3,0.9,0.6,1.8,0.9,2.7c0.5,0.7,0.9,1.4,1.4,2
		c2,2.5,4.5,3.9,7.7,4.1c0.2,0,0.4,0,0.5,0c2.6,0.2,4.3,1.5,5.3,4c1.1,2.8,2.9,5.1,5.4,6.8c2.6,1.7,5.4,2.1,8.4,1.5
		c3.7-0.7,7.2-2.2,10.2-4.4c3.5-2.6,4.8-6.8,3.4-11c-0.7-2.1-1.9-4-3.3-5.7c-0.1-0.1-0.2-0.3-0.4-0.5c1.2-1.2,2.4-2.3,3.5-3.4
		c2.8-2.7,5.6-5.4,8.3-8.1c0.3-0.3,0.7-0.5,1.2-0.6c3-0.5,5.6-1.9,8-3.6c0.5-0.4,1.1-0.8,1.7-1.2c0.4,1,0.7,2,1,2.9
		c0.5,1.4,1.3,2.6,2.4,3.7c3.7,3.6,11.2,3,13.7-2.9c0.2-0.4,0.3-0.8,0.5-1.3c0.5,0.2,1,0.5,1.4,0.7c4.7,2.2,12.3-0.1,13.7-7.3
		c0.2-1,0.3-2.1,0.5-3.1c0-0.3,0.2-0.5,0.5-0.7c0.8-0.3,1.6-0.8,2.4-1.1c0.2-0.1,0.5-0.1,0.8,0c6.1,2,12.2,4.1,18.3,6.1
		c4.7,1.6,9.4,3.1,14.1,4.6c0.4,0.1,0.8,0.3,1.2,0.5c0.9,0.5,1.4,1.4,1.5,2.4c0,1,0,2,0.1,3c0.6,4.3,3.6,7.2,8,7.8
		c2.3,0.3,4.6,0.2,6.8-0.4c0.1,0,0.3,0,0.5-0.1l2.2-0.8c0.8-0.4,1.7-0.8,2.5-1.3c4.8-2.9,6.8-7.2,5.9-12.8c-0.2-1-0.2-2.1-0.2-3.1
		c0.1-2,0.7-3.9,2.1-5.4c1.1-1.3,2.3-2.6,3.4-4c1-1.2,1.8-2.5,2.2-3.9C183.9,105.3,183.5,102.5,181.5,100.2z M134.5,39.7
		c2.2-2.2,4.5-4.5,6.6-6.8c0.8-0.9,1.5-1.8,2.1-2.8c0.4-0.7,0.6-1.3,0.8-2.1c0.3-1.1,0.4-2.2,0.2-3.5c-0.2-1.5-0.8-3-1.1-4.5
		c-0.3-1.6-0.7-3.2-0.7-4.9c0-4,2.4-7.3,6.4-8.7c0.7-0.3,1.5-0.5,2.3-0.5c1.3-0.1,2.4,0.5,3,1.7c1.2,2.3,2.3,4.6,3.3,7
		c1.5,3.6,4.1,5.9,8,6.6c0.2,0,0.5,0.1,0.7,0.1c0.5,0.1,1,0.2,1.4,0.4c0.2,0.1,0.5,0.1,0.7,0.2c1.9,0.7,3.2,2.1,3.8,4
		c0.9,2.8,1,5.6-0.1,8.3c-0.6,1.3-1.3,2.6-2.6,3.4c-1.9,1.2-3.8,1.1-5.7,0c-1.3-0.8-2.6-1.4-4.1-1.5c-2.3-0.1-4.1,0.9-5.6,2.4
		c-1.8,1.8-3.7,3.5-5.5,5.3c-1.9,1.8-3.7,3.6-5.6,5.4c-0.8,0.7-1.5,1.4-2.2,2.1c-0.7,0.7-1.5,1.4-2.2,2.2c-0.1,0.1-0.2,0.2-0.4,0.3
		c-0.2-1.2-0.4-2.3-0.6-3.5c-0.6-3.3-1.6-6.4-3-9.5C134,40.5,134,40.2,134.5,39.7z M38.3,87.8c-3.9-1.2-7.7-2.4-11.6-3.6
		c-0.8-0.2-1.6-0.4-2.4-0.4c-1.9-0.2-3.9,0.8-4.8,2.5c-0.5,0.8-0.8,1.7-1.1,2.6c-0.4,1.2-1,2.3-1.9,3.1c-1.6,1.3-3.4,1.4-5.2,0.5
		c-2-1-3.7-2.4-4.9-4.3C5,86,5.3,83.7,6.3,81.4c0.7-1.6,1.6-3.2,3-4.5c2.1-2.1,2.7-4.7,2.5-7.6c-0.1-1.6-0.4-3.1-0.4-4.7
		c-0.1-1.2,0-2.4,0.3-3.6c0.5-2,1.9-3.1,4-3.1c4.7,0.1,8.1,2.1,9.8,6.3c0.6,1.6,1.1,3.1,1.6,4.8c0.1,0.5,0.3,1.1,0.4,1.6
		c0.3,1.4,0.9,2.6,1.7,3.6c0.5,0.7,1.1,1.3,1.8,1.8c1,0.8,2.2,1.3,3.6,1.7c1.7,0.5,2.5,1.3,3,3c0.9,2.6,2.2,4.9,3.7,7.2
		c0.1,0.2,0.2,0.4,0.4,0.7C40.3,88.4,39.3,88.1,38.3,87.8z M56.5,133.1c-0.8,0.8-1.7,1.7-2.6,2.6c-0.9,0.9-1.8,1.7-2.6,2.6
		c-0.3,0.3-0.6,0.7-0.8,1c-0.2,0.4-0.4,0.7-0.6,1.1c-0.2,0.5-0.3,0.9-0.3,1.4c-0.1,1.3,0.5,2.6,1.4,3.7c0.7,0.8,1.4,1.5,1.9,2.3
		c0.2,0.3,0.4,0.5,0.5,0.8c0.5,0.8,0.6,1.6,0.6,2.4s-0.3,1.7-0.7,2.4c-0.3,0.5-0.7,0.9-1.1,1.3c-0.5,0.3-1,0.7-1.5,1
		c-0.5,0.3-1,0.6-1.5,0.8c-0.4,0.1-0.9,0.3-1.3,0.4c-1.3,0.4-2.6,0.9-3.9,1.2c-1,0.2-2,0.1-3-0.3c-0.4-0.1-0.7-0.3-1.1-0.6
		c-0.2-0.1-0.3-0.2-0.5-0.4c-1.2-1.1-2.1-2.4-2.9-3.7c-0.3-0.5-0.6-1.1-0.9-1.7c-0.1-0.3-0.3-0.6-0.4-0.9c-0.3-0.8-0.6-1.6-1-2.3
		c-0.2-0.4-0.4-0.7-0.7-0.9c-0.8-0.8-1.8-1.2-3-1.3c-0.5,0-1-0.1-1.5-0.1c-0.3,0-0.5,0-0.8,0c-0.3,0-0.5,0-0.8,0
		c-1.8,0-3.3-0.5-4.4-1.4c-0.6-0.4-1-1-1.4-1.6c-0.2-0.4-0.4-0.8-0.6-1.3c-0.1-0.2-0.1-0.4-0.2-0.7c-0.1-0.5-0.1-0.9-0.2-1.4
		c0-0.5,0-1,0.1-1.5c0.6-3.1,2.3-5.4,4.8-7c0.4-0.2,0.7-0.5,1.1-0.7c3.3-1.7,6.6-1.6,9.9,0c1.7,0.8,3.5,1.5,5.4,1.4
		c0.5,0,1.1-0.1,1.6-0.2c0.3-0.1,0.5-0.1,0.7-0.2c0.5-0.2,0.9-0.4,1.4-0.6c0.7-0.4,1.3-0.9,1.9-1.4c3-2.9,6-5.9,9.1-8.8
		c0.1-0.1,0.3-0.2,0.5-0.4c-0.4,2.3,0,4.3,1,5.9c0.6,1,1.6,1.8,2.8,2.5h0C59.7,130.1,58.1,131.6,56.5,133.1z M91.7,128
		c-0.2,0.4-0.5,0.8-0.9,1.1c-0.3,0.3-0.7,0.5-1.1,0.7c-0.2,0.1-0.4,0.2-0.6,0.2c-0.4,0.1-0.9,0.2-1.3,0.2c-0.2,0-0.5,0-0.7,0
		c-0.2,0-0.5,0-0.7-0.1c-1.6-0.2-2.7-1.1-3.4-2.6c-0.7-1.6-1.2-3.2-1.8-4.8c-0.2-0.5,0.6-1.2,1.2-1c2.2,0.6,4.4,0.9,6.7,0.8
		c1.2,0,2.4-0.1,3.7-0.2c0.2,0,0.4,0,0.7,0C93,124.4,92.7,126.3,91.7,128z M103.6,124.9c-3.1,1.2-5.7,0.4-8.2-2.6
		c4.1-1.1,8.2-2.3,12.4-3.5C108.1,120.9,106.1,124,103.6,124.9z M120.1,108.2c-3.1,2.6-6.6,4.4-10.3,6c-3.6,1.5-7.2,2.8-11,3.7
		c-2.8,0.7-5.5,1.2-8.4,1.3c-1.1,0-2.3,0-3.4-0.1c-0.6,0-1.1-0.1-1.7-0.2c-1.2-0.2-2.4-0.7-3.5-1.1c-0.4-0.2-0.7-0.2-1,0.2
		c-2.5,2.4-5.1,4.8-8.2,6.5c-1.7,1-3.4,1.7-5.4,1.9c-0.5,0-0.9,0.1-1.3,0c-0.9-0.1-1.7-0.3-2.5-0.8c-0.4-0.2-0.8-0.5-1.1-0.8
		c-0.7-0.6-1.1-1.2-1.3-1.9c-0.1-0.3-0.1-0.6-0.1-0.9c0-0.2,0-0.3,0-0.5c0.3-1.5,0.8-3,1.2-4.5c0.2-0.6,0.4-1.2,0.7-1.8
		s0.5-1.2,0.7-1.9c-0.7-0.4-1.5-0.8-2.2-1.2c-3-1.7-5-4.1-5.9-7.4c-0.4-1.6-0.5-4.3-0.1-5.6c1.3,0.5,2.7,1,4,1.5v-0.1
		c-0.2-0.1-0.3-0.2-0.5-0.3c-5.7-3.7-10.3-8.4-13.6-14.3c-2.2-4-3.7-8-4.4-12.1c-0.2-1.4-0.4-2.7-0.5-4.1c-0.1-1.4-0.1-2.8,0-4.1
		c0.2-3.5,0.9-6.9,2.1-10.4c0.2-0.7,0.5-1.4,0.8-2.1c1-2.3,2.1-4.4,3.4-6.5c0.6-1,1.3-2,2-3c1.4-1.9,2.9-3.7,4.6-5.4
		c2.5-2.5,5.2-4.8,8.2-6.8c4.3-2.9,8.9-5.1,13.8-6.6c11.2-3.5,22.5-3.6,33.6,0.6c7.9,3,14.4,7.8,19.1,14.9c5.2,7.9,7,16.6,5.9,26
		c-0.4,3.2-1.1,6.2-2.1,9.3c0.2-0.3,0.4-0.6,0.6-0.9c0.4-0.6,0.8-1.3,1.2-1.9c0.2-0.3,0.4-0.6,0.6-1c5,4.8,5.5,10.2,2.3,16.2
		c0.7,0.4,1.4,0.9,2.1,1.3c0.7,0.4,1.4,0.8,2,1.2c0.3,0.2,0.6,0.4,0.9,0.5c0.9,0.6,1.7,1.2,2.4,2.1c0.7,0.8,1,1.7,0.8,2.8
		c-0.1,0.7-0.3,1.3-0.5,1.8c-0.4,0.8-0.9,1.5-1.5,2.1c-0.4,0.4-0.9,0.7-1.5,1c-0.3,0.1-0.6,0.3-0.9,0.4c-1.8,0.8-3.7,1.1-5.7,1.3
		c-1.2,0.1-2.3,0.1-3.5,0.1c-0.5,0-0.9,0-1.3,0c-1.3-0.1-2.6-0.2-3.9-0.3c0,0-0.1,0-0.1,0l0,0c-0.2,0-0.3,0.1-0.4,0.1
		c-0.1,0.1-0.3,0.2-0.4,0.4C123.7,105,121.9,106.6,120.1,108.2z M134.3,113.5c-0.7,0.9-1.7,1.5-2.8,1.8c-0.7,0.2-1.5,0.2-2.3,0
		c-0.6-0.1-1.1-0.3-1.6-0.5c-0.8-0.3-1.5-0.7-2.1-1.3c-0.5-0.4-1.1-0.9-1.6-1.4c-0.4-0.4-0.9-0.8-1.3-1.2c0.5-0.5,0.9-0.9,1.3-1.3
		c0.4-0.4,0.9-0.8,1.3-1.2c0.3-0.3,0.7-0.7,0.9-1c0.1-0.1,0.2-0.2,0.3-0.4c0.2-0.4,0.4-0.5,0.7-0.7c0.3-0.1,0.6-0.1,1-0.1h0
		c2,0.1,4,0.1,6.2,0.2c0.3,1.3,0.9,2.6,1,4C135.4,111.6,135,112.6,134.3,113.5z M178.5,106.4c-0.1,0.6-0.3,1.1-0.7,1.6
		c-1.4,1.9-2.9,3.7-4.5,5.5c-0.2,0.2-0.4,0.4-0.5,0.7c-0.5,0.6-0.9,1.2-1.2,1.8c-0.3,0.6-0.6,1.1-0.8,1.7c-0.3,0.7-0.5,1.5-0.6,2.3
		c-0.2,1.4-0.1,2.9,0.3,4.4c0.3,1.1,0.4,2.2,0.4,3.4c0,0.5-0.1,0.9-0.2,1.4c-0.3,1.1-0.9,2-1.7,2.8c-0.2,0.2-0.3,0.3-0.5,0.5
		c-0.5,0.4-1.1,0.8-1.7,1.1c-0.7,0.4-1.4,0.8-2.2,1c-0.5,0.2-1,0.4-1.6,0.5c-0.3,0.1-0.7,0.1-1,0.1c-0.3,0-0.7,0-1,0
		c-1,0-2.1-0.2-3.1-0.5c-0.5-0.2-1-0.4-1.3-0.7c-0.1-0.1-0.2-0.2-0.3-0.3c-0.2-0.2-0.3-0.5-0.5-0.8c-0.1-0.3-0.2-0.6-0.2-1
		c-0.1-0.8,0-1.7-0.1-2.6c0-0.3,0-0.6,0-0.9c0-0.6-0.1-1.2-0.2-1.7c0-0.2-0.1-0.4-0.1-0.6c-0.1-0.4-0.3-0.8-0.5-1.1
		c-0.3-0.5-0.7-0.9-1.2-1.3c-0.3-0.2-0.7-0.4-1.1-0.6c-1.8-0.8-3.7-1.5-5.6-2.1c-3.6-1.2-7.2-2.2-10.8-3.4c-0.1,0-0.2-0.1-0.3-0.1
		c-0.1,0-0.2,0-0.4-0.1l0,0c0.5-0.4,0.9-0.8,1.2-1.2c0.5-0.5,0.8-1.1,1.1-1.7c0.2-0.4,0.4-0.8,0.5-1.2c0.1-0.4,0.2-0.8,0.3-1.2
		c0-0.2,0.1-0.5,0.1-0.7s0-0.5,0-0.7s0-0.5,0-0.7c-0.1-1.3-0.5-2.6-1-3.9c1.1,0.3,2.1,0.5,3.1,0.8c2,0.5,3.9,1,5.8,1.5
		c1.9,0.5,3.9,1,5.8,1.5c4.2,1,7.5-0.2,10.2-3.6c0.5-0.7,1.1-1.3,1.6-1.9c0.5-0.6,1.1-1.2,1.8-1.8c0.1-0.1,0.3-0.2,0.4-0.3
		c0.2-0.1,0.4-0.2,0.5-0.3c0.4-0.2,0.8-0.4,1.2-0.6c0.3-0.1,0.5-0.2,0.8-0.2c0.5-0.1,1-0.2,1.6-0.3c0.3,0,0.5,0,0.8,0
		c2.4,0.1,4.7,1.2,6.3,3.1c0.2,0.2,0.3,0.3,0.4,0.5c0.4,0.5,0.6,1.1,0.6,1.6C178.5,106,178.5,106.2,178.5,106.4z"/>
	<path class="st3" d="M56.6,113.2C56.6,113.2,56.6,113.2,56.6,113.2"/>
	<path class="st2" d="M128.3,86.7c0.1-0.2,0.1-0.5,0.1-0.8c0.4-3.1,0.9-6.1,1.3-9.2c0.2-1.1,0-1.4-1.1-1.7c-2.2-0.7-4.3-1.4-6.5-2.1
		c-0.8-0.3-0.9-0.3-0.8-1.2c0.3-6,0.7-12,1-18c0.1-1.4-0.2-1.7-1.6-1.9c-3.8-0.5-7.7-1-11.5-1.6c-1-0.1-1.4,0.2-1.4,1.3
		c0,1.2-0.1,2.4-0.2,3.5c-0.3,3.8-0.8,7.5-1.2,11.3c-0.1,0.7-0.3,0.8-1,0.6c-0.2-0.1-0.3-0.1-0.4-0.2c-3.1-1.4-6.2-2.8-9.3-4.2
		c-0.3-0.1-0.6-0.1-0.9-0.2c-0.3,0.3-0.5,0.6-0.7,1c-1.3,2.5-2.5,5-3.8,7.5c-0.9,1.8-0.8,2,0.9,3c4.3,2.4,8.6,4.8,12.9,7.1
		c0.4,0.2,0.8,0.5,0.5,1.1c-0.9,1.9-1.7,3.9-2.6,5.9c-0.8,1.8-0.7,2.3,1.1,3c2.7,1.1,5.3,2.1,8,3.2c0.8,0.3,1,0.3,1.3-0.5
		c1.5-3.3,3.1-6.7,4.6-10.1c0.3-0.7,0.5-0.7,1.3-0.3c0.7,0.4,1.4,0.7,2.2,1c2.2,1,4.4,2,6.6,3C127.8,87.5,128.1,87.3,128.3,86.7z"/>
	<path class="st2" d="M79,71c-3.9-1.6-7.9-2-12.2-0.6c-4.8,1.9-8.5,5.3-10.4,10.3c-1.5,3.8-1.5,7.6,0.5,11.3c2.7,4.9,6.8,8,12.2,9.4
		c3.2,0.9,6.4,0.7,9.4-1c5.4-3,8.6-7.6,9.9-13.6c0.9-4.9-0.5-9.1-4.2-12.5C82.7,72.9,80.9,71.8,79,71z"/>
	<path class="st2" d="M97.7,99c-0.9-0.7-1.8-1.4-2.8-2.1c-0.5,3.5-1,6.9-1.6,10.4l15.4-5.3c-3.3-2.7-6.6-5.4-9.9-8.1
		C98.4,95.6,98.1,97.3,97.7,99z"/>
</g>
</svg>
