<?xml version="1.0" encoding="utf-8"?>
<!-- Generator: Adobe Illustrator 25.4.1, SVG Export Plug-In . SVG Version: 6.00 Build 0)  -->
<svg version="1.1" id="Capa_1" xmlns="http://www.w3.org/2000/svg" xmlns:xlink="http://www.w3.org/1999/xlink" x="0px" y="0px"
	 viewBox="0 0 184.1 165" style="enable-background:new 0 0 184.1 165;" xml:space="preserve">
<style type="text/css">
	.st0{fill:#141B1E;}
	.st1{display:none;}
	.st2{display:inline;fill:#FFFFFF;}
	.st3{display:inline;fill:#0F0F0F;}
	.st4{display:inline;}
	.st5{fill:#ED6D47;}
	.st6{fill:#FFCD04;}
	.st7{fill:#3DBCD3;}
	.st8{fill:#51B36E;}
	.st9{display:none;fill:#FFFFFF;}
	.st10{display:none;fill:#0F0F0F;}
	.st11{display:inline;fill:none;}
	.st12{fill:#FFFFFF;}
	.st13{fill:#0F0F0F;}
</style>
<g id="Capa_2_00000113350151088880920640000014491011629935413156_">
	<g>
		<path class="st0" d="M0,0.9v163.2h184.1V0.9H0z M88.3,87.2c-1.2,6-4.5,10.6-9.9,13.6c-3,1.6-6.2,1.8-9.4,1
			c-5.3-1.4-9.5-4.5-12.2-9.4c-2-3.6-2-7.5-0.5-11.3c2-5.1,5.6-8.5,10.4-10.3c4.3-1.4,8.3-1,12.2,0.6c1.9,0.8,3.7,1.9,5.2,3.3
			C87.9,78.1,89.3,82.3,88.3,87.2z M129.8,77.2c-0.4,3.1-0.9,6.1-1.3,9.2c0,0.3-0.1,0.5-0.1,0.8c-0.1,0.6-0.4,0.8-1,0.5
			c-2.2-1-4.4-2-6.6-3c-0.7-0.3-1.5-0.7-2.2-1c-0.8-0.4-1-0.4-1.3,0.3c-1.5,3.3-3.1,6.7-4.6,10.1c-0.4,0.8-0.5,0.8-1.3,0.5
			c-2.7-1.1-5.3-2.1-8-3.2c-1.8-0.7-1.9-1.2-1.1-3c0.9-1.9,1.8-3.9,2.6-5.9c0.3-0.6-0.1-0.8-0.5-1.1c-4.3-2.4-8.6-4.8-12.9-7.1
			c-1.8-1-1.8-1.2-0.9-3c1.3-2.5,2.5-5,3.8-7.5c0.2-0.3,0.4-0.6,0.7-1c0.4,0.1,0.7,0.1,0.9,0.2c3.1,1.4,6.2,2.8,9.3,4.2
			c0.2,0.1,0.3,0.1,0.4,0.2c0.7,0.3,0.9,0.2,1-0.6c0.4-3.8,0.9-7.5,1.2-11.3c0.1-1.2,0.1-2.4,0.2-3.5c0-1.1,0.4-1.5,1.4-1.3
			c3.8,0.5,7.7,1,11.5,1.6c1.4,0.2,1.6,0.5,1.6,1.9c-0.3,6-0.7,12-1,18c-0.1,0.9,0,0.9,0.8,1.2c2.2,0.7,4.3,1.4,6.5,2.1
			C129.8,75.8,129.9,76.1,129.8,77.2z"/>
		<rect class="st0" width="184.1" height="7.7"/>
		<rect y="157.3" class="st0" width="184.1" height="7.7"/>
	</g>
</g>
<g id="Capa_1_00000020359951484005695920000008984851391750417296_">
	<g class="st1">
		<path class="st2" d="M95.4,122.7c2.6,3,5.1,3.8,8.2,2.6c2.4-0.9,4.4-3.9,4.1-6C103.6,120.4,99.5,121.6,95.4,122.7z"/>
		<path class="st2" d="M89.1,123c-2.3,0-4.5-0.2-6.7-0.8c-0.6-0.2-1.4,0.4-1.2,1c0.6,1.6,1.1,3.3,1.8,4.8c0.8,1.7,2.2,2.6,4.1,2.7
			c1.9,0.1,3.5-0.6,4.6-2.2c1.1-1.7,1.3-3.7,1.8-5.6c-0.3,0-0.5,0-0.7,0C91.5,122.9,90.3,123,89.1,123z"/>
		<path class="st2" d="M37.3,81.2c-0.5-1.6-1.3-2.5-3-3c-3.6-1.1-6-3.5-7-7.1c-0.5-2.2-1.2-4.3-2-6.5c-1.7-4.2-5.1-6.2-9.8-6.3
			c-2,0-3.5,1.1-4,3.1c-0.3,1.2-0.3,2.4-0.3,3.6c0.1,1.6,0.4,3.1,0.4,4.7c0.1,2.8-0.4,5.5-2.5,7.6c-1.3,1.3-2.2,2.8-3,4.5
			c-1,2.3-1.3,4.6,0.1,6.8c1.2,1.9,2.8,3.4,4.9,4.3c1.8,0.9,3.6,0.8,5.2-0.5c1-0.8,1.5-1.9,1.9-3.1c0.3-0.9,0.6-1.8,1.1-2.6
			c0.9-1.7,2.8-2.7,4.8-2.5c0.8,0.1,1.6,0.2,2.4,0.4c3.9,1.2,7.7,2.4,11.6,3.6c1,0.3,2,0.6,3.1,0.9c-0.2-0.3-0.3-0.5-0.4-0.7
			C39.5,86.2,38.2,83.8,37.3,81.2z"/>
		<path class="st2" d="M57.5,120.5c-0.2,0.2-0.3,0.3-0.5,0.4c-3,2.9-6,5.9-9.1,8.8c-1.5,1.5-3.4,2.4-5.6,2.5c-2,0.1-3.7-0.6-5.4-1.4
			c-3.3-1.6-6.6-1.7-9.9,0c-3.1,1.6-5.2,4.2-5.9,7.7c-0.8,3.9,1.7,8,6.5,7.8c1,0,2.1,0,3.1,0.1c1.6,0.1,2.9,0.8,3.7,2.2
			c0.4,0.7,0.7,1.5,1,2.3c0.9,2.4,2.2,4.5,4.1,6.3c1.2,1.1,2.9,1.6,4.5,1.2c1.8-0.4,3.5-0.9,5.2-1.6c1.1-0.4,2.1-1.1,3-1.8
			c1.8-1.5,2.4-4,1.2-6.1c-0.7-1.1-1.6-2.1-2.4-3.1c-1.3-1.5-2-3.2-1.1-5.1c0.3-0.8,0.8-1.5,1.4-2.1c1.7-1.8,3.4-3.5,5.2-5.2
			c1.6-1.5,3.2-3.1,4.8-4.7C58.1,127,56.9,124.2,57.5,120.5z"/>
		<path class="st2" d="M137.3,50.9c0.2,1.1,0.4,2.3,0.6,3.5c0.2-0.1,0.3-0.2,0.4-0.3c1.5-1.4,2.9-2.9,4.4-4.3
			c3.7-3.6,7.4-7.1,11.1-10.7c1.6-1.5,3.4-2.5,5.6-2.4c1.5,0.1,2.8,0.7,4.1,1.5c1.9,1.1,3.8,1.2,5.7,0c1.3-0.8,2-2,2.6-3.4
			c1.2-2.8,1-5.5,0.1-8.3c-0.6-1.9-1.9-3.3-3.8-4c-0.9-0.4-1.8-0.6-2.8-0.7c-4-0.6-6.5-3-8-6.6c-1-2.4-2.2-4.7-3.3-7
			c-0.6-1.2-1.6-1.8-3-1.7c-0.8,0.1-1.6,0.3-2.3,0.5c-3.9,1.4-6.4,4.7-6.4,8.7c0,1.6,0.4,3.2,0.7,4.9c0.3,1.5,0.9,3,1.1,4.5
			c0.4,3.3-0.9,6-3.1,8.3c-2.2,2.3-4.4,4.5-6.6,6.8c-0.5,0.5-0.5,0.8-0.2,1.3C135.7,44.5,136.7,47.6,137.3,50.9z"/>
		<path class="st2" d="M134.2,106.7c-2.2-0.1-4.2,0-6.2-0.2c-0.8-0.1-1.3,0.1-1.7,0.8c-0.3,0.5-0.8,1-1.2,1.4
			c-0.8,0.8-1.7,1.6-2.6,2.5c1,0.9,1.9,1.8,2.9,2.6c1.1,0.9,2.3,1.5,3.7,1.8c3.2,0.7,6.3-1.7,6-4.9
			C135.1,109.3,134.5,108,134.2,106.7z"/>
		<path class="st2" d="M166.1,102.7c-1.3,1-2.4,2.4-3.4,3.7c-2.7,3.3-6,4.6-10.2,3.6c-3.9-1-7.8-1.9-11.6-2.9c-1-0.2-2-0.5-3.1-0.8
			c1.7,4.3,1.6,8.2-2.2,11.4c0.3,0.1,0.5,0.2,0.7,0.2c3.6,1.1,7.2,2.2,10.8,3.4c1.9,0.6,3.8,1.3,5.6,2.1c1.6,0.7,2.6,1.9,2.9,3.6
			c0.1,0.6,0.1,1.1,0.2,1.7c0,1.2,0,2.3,0.1,3.5c0.1,1.4,0.9,2.4,2.3,2.8c1,0.3,2.1,0.5,3.1,0.5c2.8,0,5.3-1.1,7.5-2.8
			c1.5-1.1,2.4-2.7,2.4-4.6c0-1.1-0.1-2.3-0.4-3.4c-1.1-4.1-0.1-7.6,2.8-10.8c1.6-1.8,3-3.6,4.5-5.5c1-1.3,0.9-3.1-0.1-4.3
			C174.8,100.6,169.6,99.9,166.1,102.7z"/>
		<path class="st2" d="M125.5,102.8c1.8,0.2,3.6,0.3,5.3,0.3c3.1,0.1,6.2-0.1,9.2-1.4c2.4-1,4-2.7,4.4-5.4c0.2-1.1-0.1-2-0.8-2.8
			c-0.9-1.1-2.1-1.8-3.3-2.6c-1.4-0.8-2.7-1.7-4.1-2.5c3.2-5.9,2.8-11.3-2.3-16.2c-0.8,1.3-1.6,2.5-2.4,3.8c0.9-3.1,1.7-6.1,2.1-9.3
			c1.1-9.4-0.7-18.1-5.9-26c-4.7-7.1-11.2-12-19.1-14.9c-11.1-4.2-22.3-4.1-33.6-0.6c-4.9,1.5-9.5,3.8-13.8,6.6
			c-8,5.5-14.3,12.5-17.9,21.6c-4.5,11.3-3.8,22.3,2,32.9c3.3,5.9,7.9,10.6,13.6,14.3c0.2,0.1,0.3,0.2,0.5,0.3l0,0.1
			c-1.3-0.5-2.7-1-4-1.5c-0.4,1.3-0.3,3.9,0.1,5.6c0.9,3.3,2.9,5.7,5.9,7.4c0.7,0.4,1.4,0.8,2.2,1.2c-0.5,1.3-1,2.5-1.4,3.7
			c-0.5,1.5-0.9,3-1.2,4.5c-0.2,1.3,0.3,2.5,1.4,3.3c1.5,1.2,3.1,1.7,4.9,1.5c1.9-0.2,3.7-1,5.4-1.9c3.1-1.8,5.7-4.1,8.2-6.5
			c0.3-0.3,0.6-0.3,1-0.2c1.2,0.4,2.3,0.9,3.5,1.1c4.6,0.7,9.1,0.1,13.5-1c3.8-0.9,7.4-2.2,11-3.7c3.7-1.5,7.2-3.4,10.3-6
			c1.8-1.5,3.6-3.1,4.6-5.3C124.9,102.9,125.2,102.8,125.5,102.8z M88.3,87.2c-1.2,6-4.5,10.6-9.9,13.6c-3,1.6-6.2,1.8-9.4,1
			c-5.3-1.4-9.5-4.5-12.2-9.4c-2-3.6-2-7.5-0.5-11.3c2-5.1,5.6-8.5,10.4-10.3c4.3-1.4,8.3-1,12.2,0.6c1.9,0.8,3.7,1.9,5.2,3.3
			C87.9,78.1,89.3,82.3,88.3,87.2z M93.3,107.7c0.5-3.5,1-6.9,1.6-10.4c1,0.7,1.8,1.4,2.8,2.1c0.4-1.7,0.8-3.4,1.2-5.2
			c3.3,2.7,6.6,5.4,9.9,8.1L93.3,107.7z M120.7,84.6c-0.7-0.3-1.5-0.7-2.2-1c-0.8-0.4-1-0.4-1.3,0.3c-1.5,3.3-3.1,6.7-4.6,10.1
			c-0.4,0.8-0.5,0.8-1.3,0.5c-2.7-1.1-5.3-2.1-8-3.2c-1.8-0.7-1.9-1.2-1.1-3c0.9-1.9,1.8-3.9,2.6-5.9c0.3-0.6-0.1-0.8-0.5-1.1
			c-4.3-2.4-8.6-4.8-12.9-7.1c-1.8-1-1.8-1.2-0.9-3c1.3-2.5,2.5-5,3.8-7.5c0.2-0.3,0.4-0.6,0.7-1c0.4,0.1,0.7,0.1,0.9,0.2
			c3.1,1.4,6.2,2.8,9.3,4.2c0.2,0.1,0.3,0.1,0.4,0.2c0.7,0.3,0.9,0.2,1-0.6c0.4-3.8,0.9-7.5,1.2-11.3c0.1-1.2,0.1-2.4,0.2-3.5
			c0-1.1,0.4-1.5,1.4-1.3c3.8,0.5,7.7,1,11.5,1.6c1.4,0.2,1.6,0.5,1.6,1.9c-0.3,6-0.7,12-1,18c-0.1,0.9,0,0.9,0.8,1.2
			c2.2,0.7,4.3,1.4,6.5,2.1c1.1,0.3,1.2,0.6,1.1,1.7c-0.4,3.1-0.9,6.1-1.3,9.2c0,0.3-0.1,0.5-0.1,0.8c-0.1,0.6-0.4,0.8-1,0.5
			C125.1,86.6,122.9,85.6,120.7,84.6z"/>
		<path class="st3" d="M169.1,95.6c-3.6,0.4-6.5,2.3-8.8,5.1c-0.6,0.7-1.2,1.5-1.9,2.2c-1.6,1.5-3.5,2.1-5.6,1.7
			c-2.5-0.5-5-1.3-7.4-1.9c0.6-1,1.3-2,1.8-3c1-2.1,1.2-4.3,0.2-6.6c-0.7-1.5-1.8-2.7-3.1-3.6c-1.1-0.8-2.3-1.6-3.5-2.3
			c0.2-1,0.6-2.1,0.8-3.1c0.9-5.2-0.8-9.6-4.4-13.4c-0.4-0.4-0.4-0.7-0.3-1.2c0.4-2.3,0.8-4.6,1.2-6.9c0.1-0.3,0.2-0.6,0.4-0.8
			c6.1-6,12.1-12,18.2-17.9c1.5-1.4,2.8-1.6,4.6-0.6c6.1,3.2,13.1,0.4,15.6-6c1.4-3.8,1.8-7.6,0.6-11.5c0-0.1,0-0.2,0-0.3
			c-0.1-0.4-0.3-0.8-0.4-1.1c-0.4-0.8-0.9-1.7-1.4-2.5c-1.7-2.7-4.1-4.2-7.2-4.9c-1.2-0.2-2.4-0.6-3.4-1.2c-2-1-3-2.8-3.5-4.9
			c-0.7-2.5-1.8-4.7-3.5-6.6c-2.8-3.3-6.3-4.1-10.4-2.4c-2.9,1.2-5.4,2.9-7.4,5.2c-2.7,3-3.5,6.5-3.1,10.5c0.2,2.1,0.8,4.1,1.5,6.2
			c0.6,1.9,0.5,3.6-0.8,5.2c-1.3,1.6-2.5,3.3-3.8,4.9c-0.7,0.8-1.6,1.5-2.4,2.2c-0.8-1.1-1.4-2.1-2.1-3c-4.4-5.9-9.9-10.4-16.4-13.8
			c-10.7-5.4-22-6.9-33.8-4.9c-1.8,0.3-3.6,0.8-5.3,1.2h0c-0.3,0.1-0.7,0.1-1,0.2l-4.6,1.6c-0.5,0.2-0.9,0.3-1.3,0.5
			c-0.4,0.2-0.8,0.4-1.3,0.6C54.8,23.5,46.3,31,40.4,41.5c-4.1,7.4-6.3,15.3-6.2,23.7c0,2.4,0.4,4.8,0.6,7.2c0,0.2,0.1,0.4,0,0.7
			c-0.5-0.9-1.1-1.7-1.6-2.6c-0.9-1.4-1.2-3-1.7-4.6c-1-3.7-2.6-7.1-5.7-9.5c-3.9-3.1-8.3-4.1-13.2-2.9c-3.8,1-5.9,3.7-6.7,7.4
			c-0.5,2.3-0.2,4.5,0.1,6.8c0.3,1.7,0.4,3.5-0.5,5.1c-0.3,0.6-0.7,1.1-1.1,1.6c-2,2.4-3.4,5-4.2,8c-0.9,3.4-0.3,6.6,1.6,9.5
			c1.8,2.8,4.2,4.9,7.2,6.2c4.5,1.9,8.9,0.8,11.9-3c1.2-1.5,2.3-3.2,3.4-4.8c0.3-0.4,0.5-0.4,0.9-0.3c6.8,2.1,13.5,4.2,20.3,6.2
			c0.6,0.2,1.3,0.3,1.9,0.5c0.2,0.1,0.3,0.1,0.5,0.2c1,0.9,2.1,1.7,3.1,2.6c0.2,0.2,0.4,0.5,0.3,0.8c-0.4,5.3,1.2,9.8,5.3,13.4
			c0,0,0,0,0,0l0,0c0.1,0.1,0,0,0,0c-4,3.8-8.1,7.7-12.1,11.5c-1.5,1.4-3.2,1.6-5,0.8c-2.2-1.1-4.5-1.8-7-1.9
			c-8-0.4-15.3,5.2-17.1,12.9c-0.4,1.7-0.4,3.5-0.1,5.2c0,0.1,0,0.2,0,0.4c0.3,0.9,0.6,1.8,0.9,2.7c0.5,0.7,0.9,1.4,1.4,2
			c2,2.5,4.5,3.9,7.7,4.1c0.2,0,0.4,0,0.5,0c2.6,0.2,4.3,1.5,5.3,4c1.1,2.8,2.9,5.1,5.4,6.8c2.6,1.7,5.4,2,8.4,1.5
			c3.7-0.7,7.2-2.2,10.2-4.4c3.5-2.6,4.8-6.8,3.4-11c-0.7-2.1-1.9-4-3.3-5.7c-0.1-0.1-0.2-0.3-0.4-0.5c1.2-1.2,2.4-2.3,3.5-3.4
			c2.8-2.7,5.6-5.4,8.3-8.1c0.3-0.3,0.7-0.5,1.2-0.6c3-0.5,5.6-1.9,8-3.6c0.5-0.4,1.1-0.8,1.7-1.2c0.4,1,0.7,2,1,2.9
			c0.5,1.4,1.3,2.6,2.4,3.7c3.7,3.6,11.2,3,13.7-2.9c0.2-0.4,0.3-0.8,0.5-1.3c0.5,0.2,1,0.5,1.4,0.7c4.7,2.2,12.3-0.1,13.7-7.3
			c0.2-1,0.3-2.1,0.5-3.1c0-0.3,0.2-0.5,0.5-0.7c0.8-0.3,1.6-0.8,2.4-1.1c0.2-0.1,0.5-0.1,0.8,0c6.1,2,12.2,4.1,18.3,6.1
			c4.7,1.6,9.4,3.1,14.1,4.6c0.4,0.1,0.8,0.3,1.2,0.5c0.9,0.5,1.4,1.4,1.5,2.4c0,1,0,2,0.1,3c0.6,4.3,3.6,7.2,8,7.8
			c2.3,0.3,4.6,0.2,6.8-0.4c0.1,0,0.3,0,0.5-0.1l2.2-0.8c0.8-0.4,1.7-0.8,2.5-1.3c4.8-2.9,6.8-7.2,5.9-12.8c-0.2-1-0.2-2.1-0.2-3.1
			c0.1-2,0.7-3.9,2.1-5.4c1.1-1.3,2.3-2.6,3.4-4c1-1.2,1.8-2.5,2.2-3.9c0.9-2.9,0.5-5.7-1.5-8C178.8,96.9,174.4,94.9,169.1,95.6z
			 M134.5,40.1c2.2-2.2,4.5-4.5,6.6-6.8c2.2-2.3,3.5-5,3.1-8.3c-0.2-1.5-0.8-3-1.1-4.5c-0.3-1.6-0.7-3.2-0.7-4.9
			c0-4,2.4-7.3,6.4-8.7c0.7-0.3,1.5-0.5,2.3-0.5c1.3-0.1,2.4,0.5,3,1.7c1.2,2.3,2.3,4.6,3.3,7c1.5,3.6,4.1,5.9,8,6.6
			c0.9,0.1,1.9,0.4,2.8,0.7c1.9,0.7,3.2,2.1,3.8,4c0.9,2.8,1,5.6-0.1,8.3c-0.6,1.3-1.3,2.6-2.6,3.4c-1.9,1.2-3.8,1.1-5.7,0
			c-1.3-0.8-2.6-1.4-4.1-1.5c-2.3-0.1-4.1,0.9-5.6,2.4c-3.7,3.5-7.4,7.1-11.1,10.7c-1.5,1.4-2.9,2.8-4.4,4.3
			c-0.1,0.1-0.2,0.2-0.4,0.3c-0.2-1.2-0.4-2.3-0.6-3.5c-0.6-3.3-1.6-6.4-3-9.5C134,40.9,134,40.6,134.5,40.1z M38.3,88.2
			c-3.9-1.2-7.7-2.4-11.6-3.6c-0.8-0.2-1.6-0.4-2.4-0.4c-1.9-0.2-3.9,0.8-4.8,2.5c-0.5,0.8-0.8,1.7-1.1,2.6c-0.4,1.2-1,2.3-1.9,3.1
			c-1.6,1.3-3.4,1.4-5.2,0.5c-2-1-3.7-2.4-4.9-4.3c-1.3-2.2-1.1-4.5-0.1-6.8c0.7-1.6,1.6-3.2,3-4.5c2.1-2.1,2.7-4.7,2.5-7.6
			c-0.1-1.6-0.4-3.1-0.4-4.7c-0.1-1.2,0-2.4,0.3-3.6c0.5-2,1.9-3.1,4-3.1c4.7,0.1,8.1,2.1,9.8,6.3c0.8,2.1,1.5,4.2,2,6.4
			c0.9,3.7,3.4,6.1,7,7.1c1.7,0.5,2.5,1.3,3,3c0.9,2.6,2.2,4.9,3.7,7.2c0.1,0.2,0.2,0.4,0.4,0.7C40.3,88.8,39.3,88.5,38.3,88.2z
			 M56.5,133.5c-1.7,1.7-3.5,3.4-5.2,5.2c-0.6,0.6-1.1,1.4-1.4,2.1c-0.8,2-0.2,3.6,1.1,5.1c0.9,1,1.8,2,2.4,3.1
			c1.2,2,0.6,4.6-1.2,6.1c-0.9,0.7-2,1.4-3,1.8c-1.7,0.6-3.5,1.2-5.2,1.6c-1.6,0.3-3.3-0.1-4.5-1.2c-1.9-1.8-3.1-4-4.1-6.3
			c-0.3-0.8-0.6-1.6-1-2.3c-0.8-1.4-2.1-2.1-3.7-2.2c-1-0.1-2.1-0.2-3.1-0.1c-4.8,0.1-7.3-3.9-6.5-7.8c0.7-3.5,2.8-6,5.9-7.7
			c3.3-1.7,6.6-1.6,9.9,0c1.7,0.8,3.5,1.5,5.4,1.4c2.2-0.1,4-1,5.6-2.5c3-2.9,6-5.9,9.1-8.8c0.1-0.1,0.3-0.2,0.5-0.4
			c-0.6,3.7,0.6,6.5,3.8,8.4C59.7,130.5,58.1,132,56.5,133.5z M91.7,128.4c-1,1.7-2.6,2.3-4.6,2.2c-1.9-0.1-3.3-0.9-4.1-2.6
			c-0.7-1.6-1.2-3.2-1.8-4.8c-0.2-0.5,0.6-1.2,1.2-1c2.2,0.6,4.4,0.9,6.7,0.8c1.2,0,2.4-0.1,3.7-0.2c0.2,0,0.4,0,0.7,0
			C93,124.8,92.7,126.7,91.7,128.4z M103.6,125.3c-3.1,1.2-5.7,0.4-8.2-2.6c4.1-1.1,8.2-2.3,12.4-3.5
			C108.1,121.3,106.1,124.4,103.6,125.3z M120.1,108.6c-3.1,2.6-6.6,4.4-10.3,6c-3.6,1.5-7.2,2.8-11,3.7c-4.4,1.1-8.9,1.7-13.5,1
			c-1.2-0.2-2.4-0.7-3.5-1.1c-0.4-0.2-0.7-0.2-1,0.2c-2.5,2.4-5.1,4.8-8.2,6.5c-1.7,1-3.4,1.7-5.4,1.9c-1.8,0.2-3.5-0.3-4.9-1.5
			c-1.1-0.9-1.6-2-1.4-3.3c0.3-1.5,0.8-3,1.2-4.5c0.4-1.2,0.9-2.4,1.4-3.7c-0.7-0.4-1.5-0.8-2.2-1.2c-3-1.7-5-4.1-5.9-7.4
			c-0.4-1.6-0.5-4.3-0.1-5.6c1.3,0.5,2.7,1,4,1.5l0-0.1c-0.2-0.1-0.3-0.2-0.5-0.3c-5.7-3.7-10.3-8.4-13.6-14.3
			c-5.9-10.6-6.5-21.7-2.1-32.9c3.6-9.1,9.9-16.1,17.9-21.6c4.3-2.9,8.9-5.1,13.8-6.6c11.2-3.5,22.5-3.6,33.6,0.6
			c7.9,3,14.4,7.8,19.1,14.9c5.2,7.9,7,16.6,5.9,26c-0.4,3.2-1.1,6.2-2.1,9.3c0.8-1.2,1.5-2.5,2.4-3.8c5,4.8,5.5,10.2,2.3,16.2
			c1.4,0.9,2.8,1.7,4.1,2.5c1.2,0.7,2.4,1.5,3.3,2.6c0.7,0.8,1,1.7,0.8,2.8c-0.4,2.7-2,4.4-4.4,5.4c-2.9,1.2-6.1,1.4-9.2,1.4
			c-1.8,0-3.6-0.2-5.3-0.3c-0.3,0-0.6,0.2-0.8,0.5C123.7,105.4,121.9,107,120.1,108.6z M129.2,115.7c-1.4-0.3-2.6-0.9-3.7-1.8
			c-1-0.8-1.9-1.7-2.9-2.6c0.9-0.9,1.8-1.7,2.6-2.5c0.4-0.4,0.9-0.9,1.2-1.4c0.4-0.7,0.9-0.8,1.7-0.8c2,0.1,4,0.1,6.2,0.2
			c0.3,1.3,0.9,2.6,1,4C135.5,113.9,132.4,116.4,129.2,115.7z M177.8,108.4c-1.4,1.9-2.9,3.7-4.5,5.5c-2.8,3.1-3.8,6.7-2.8,10.8
			c0.3,1.1,0.4,2.2,0.4,3.4c0,1.9-0.9,3.4-2.4,4.6c-2.2,1.6-4.7,2.9-7.5,2.8c-1,0-2.1-0.2-3.1-0.5c-1.4-0.4-2.1-1.4-2.3-2.8
			c-0.1-1.1,0-2.3-0.1-3.5c0-0.6-0.1-1.2-0.2-1.7c-0.3-1.8-1.3-3-2.9-3.6c-1.8-0.8-3.7-1.5-5.6-2.1c-3.6-1.2-7.2-2.2-10.8-3.4
			c-0.2-0.1-0.4-0.1-0.7-0.2c3.8-3.2,3.9-7.1,2.2-11.4c1.1,0.3,2.1,0.5,3.1,0.8c3.9,1,7.8,1.9,11.6,2.9c4.2,1,7.5-0.2,10.2-3.6
			c1.1-1.3,2.1-2.6,3.4-3.7c3.6-2.8,8.8-2.1,11.6,1.4C178.7,105.3,178.8,107.1,177.8,108.4z"/>
		<path class="st4" d="M57,113.8L57,113.8C57,113.8,57,113.9,57,113.8z"/>
		<path class="st3" d="M128.3,87.1c0.1-0.2,0.1-0.5,0.1-0.8c0.4-3.1,0.9-6.1,1.3-9.2c0.2-1.1,0-1.4-1.1-1.7
			c-2.2-0.7-4.3-1.4-6.5-2.1c-0.8-0.3-0.9-0.3-0.8-1.2c0.3-6,0.7-12,1-18c0.1-1.4-0.2-1.7-1.6-1.9c-3.8-0.5-7.7-1-11.5-1.6
			c-1-0.1-1.4,0.2-1.4,1.3c0,1.2-0.1,2.4-0.2,3.5c-0.3,3.8-0.8,7.5-1.2,11.3c-0.1,0.7-0.3,0.8-1,0.6c-0.2-0.1-0.3-0.1-0.4-0.2
			c-3.1-1.4-6.2-2.8-9.3-4.2c-0.3-0.1-0.6-0.1-0.9-0.2c-0.3,0.3-0.5,0.6-0.7,1c-1.3,2.5-2.5,5-3.8,7.5c-0.9,1.8-0.8,2,0.9,3
			c4.3,2.4,8.6,4.8,12.9,7.1c0.4,0.2,0.8,0.5,0.5,1.1c-0.9,1.9-1.7,3.9-2.6,5.9c-0.8,1.8-0.7,2.3,1.1,3c2.7,1.1,5.3,2.1,8,3.2
			c0.8,0.3,1,0.3,1.3-0.5c1.5-3.3,3.1-6.7,4.6-10.1c0.3-0.7,0.5-0.7,1.3-0.3c0.7,0.4,1.4,0.7,2.2,1c2.2,1,4.4,2,6.6,3
			C127.8,87.9,128.1,87.7,128.3,87.1z"/>
		<path class="st3" d="M84.2,74.7c-1.5-1.4-3.3-2.5-5.2-3.3c-3.9-1.6-7.9-2-12.2-0.6c-4.8,1.9-8.5,5.3-10.4,10.3
			c-1.5,3.8-1.5,7.6,0.5,11.3c2.7,4.9,6.8,8,12.2,9.4c3.2,0.9,6.4,0.7,9.4-1c5.4-3,8.6-7.6,9.9-13.6C89.3,82.3,87.9,78.1,84.2,74.7z
			"/>
		<path class="st3" d="M97.7,99.4c-0.9-0.7-1.8-1.4-2.8-2.1c-0.5,3.5-1,6.9-1.6,10.4l15.4-5.3c-3.3-2.7-6.6-5.4-9.9-8.1
			C98.4,96,98.1,97.7,97.7,99.4z"/>
	</g>
	<g class="st1">
		<g class="st4">
			<g>
				<rect x="96.3" y="83.3" class="st5" width="24.1" height="3"/>
				<rect x="122.2" y="83.3" class="st5" width="7.7" height="3"/>
				<rect x="102.7" y="88" class="st6" width="27.2" height="3"/>
				<rect x="99.5" y="102" class="st6" width="21" height="3"/>
				<rect x="122.2" y="102" class="st7" width="7.7" height="3"/>
				<rect x="114.2" y="106.7" class="st8" width="15.7" height="3"/>
				<rect x="101.2" y="106.7" class="st7" width="11.2" height="3"/>
				<rect x="105.8" y="92.7" class="st7" width="17.6" height="3"/>
				<rect x="125.1" y="92.7" class="st8" width="4.8" height="3"/>
				<rect x="98.4" y="92.7" class="st5" width="5.6" height="3"/>
				<rect x="110.1" y="97.3" class="st5" width="19.7" height="3"/>
				<rect x="99.5" y="120.7" class="st5" width="21" height="3"/>
				<rect x="122.2" y="120.7" class="st7" width="7.7" height="3"/>
				<rect x="96.3" y="125.4" class="st6" width="33.5" height="3"/>
				<rect x="105.8" y="111.4" class="st6" width="24.1" height="3"/>
				<rect x="98.4" y="111.4" class="st5" width="5.6" height="3"/>
				<rect x="110.1" y="116" class="st8" width="19.7" height="3"/>
				<rect x="106.7" y="116" class="st7" width="2.6" height="3"/>
				<rect x="96.3" y="36.6" class="st5" width="24.1" height="3"/>
				<rect x="122.2" y="36.6" class="st5" width="7.7" height="3"/>
				<rect x="102.7" y="41.2" class="st6" width="27.2" height="3"/>
				<rect x="99.5" y="55.3" class="st6" width="21" height="3"/>
				<rect x="122.2" y="55.3" class="st7" width="7.7" height="3"/>
				<rect x="114.2" y="60" class="st8" width="15.7" height="3"/>
				<rect x="101.2" y="60" class="st7" width="11.2" height="3"/>
				<rect x="105.8" y="45.9" class="st7" width="17.6" height="3"/>
				<rect x="125.1" y="45.9" class="st8" width="4.8" height="3"/>
				<rect x="98.4" y="45.9" class="st5" width="5.6" height="3"/>
				<rect x="110.1" y="50.6" class="st5" width="19.7" height="3"/>
				<rect x="99.5" y="74" class="st5" width="21" height="3"/>
				<rect x="122.2" y="74" class="st7" width="7.7" height="3"/>
				<rect x="96.3" y="78.6" class="st6" width="33.5" height="3"/>
				<rect x="105.8" y="64.6" class="st6" width="24.1" height="3"/>
				<rect x="98.4" y="64.6" class="st5" width="5.6" height="3"/>
				<rect x="110.1" y="69.3" class="st8" width="19.7" height="3"/>
				<rect x="106.7" y="69.3" class="st7" width="2.6" height="3"/>
			</g>
			<g>
				<rect x="55.7" y="83.3" class="st5" width="24.1" height="3"/>
				<rect x="81.5" y="83.3" class="st5" width="7.7" height="3"/>
				<rect x="62" y="88" class="st6" width="27.2" height="3"/>
				<rect x="58.9" y="102" class="st6" width="20.9" height="3"/>
				<rect x="81.5" y="102" class="st7" width="7.7" height="3"/>
				<rect x="73.5" y="106.7" class="st8" width="15.7" height="3"/>
				<rect x="60.6" y="106.7" class="st7" width="11.2" height="3"/>
				<rect x="65.1" y="92.7" class="st7" width="17.6" height="3"/>
				<rect x="84.4" y="92.7" class="st8" width="4.8" height="3"/>
				<rect x="57.8" y="92.7" class="st5" width="5.6" height="3"/>
				<rect x="69.5" y="97.3" class="st5" width="19.7" height="3"/>
				<rect x="58.9" y="120.7" class="st5" width="20.9" height="3"/>
				<rect x="81.5" y="120.7" class="st7" width="7.7" height="3"/>
				<rect x="55.7" y="125.4" class="st6" width="33.5" height="3"/>
				<rect x="65.1" y="111.4" class="st6" width="24.1" height="3"/>
				<rect x="57.8" y="111.4" class="st5" width="5.6" height="3"/>
				<rect x="69.5" y="116" class="st8" width="19.7" height="3"/>
				<rect x="66.1" y="116" class="st7" width="2.6" height="3"/>
				<rect x="55.7" y="36.6" class="st5" width="24.1" height="3"/>
				<rect x="81.5" y="36.6" class="st5" width="7.7" height="3"/>
				<rect x="62" y="41.2" class="st6" width="27.2" height="3"/>
				<rect x="58.9" y="55.3" class="st6" width="20.9" height="3"/>
				<rect x="81.5" y="55.3" class="st7" width="7.7" height="3"/>
				<rect x="73.5" y="60" class="st8" width="15.7" height="3"/>
				<rect x="60.6" y="60" class="st7" width="11.2" height="3"/>
				<rect x="65.1" y="45.9" class="st7" width="17.6" height="3"/>
				<rect x="84.4" y="45.9" class="st8" width="4.8" height="3"/>
				<rect x="57.8" y="45.9" class="st5" width="5.6" height="3"/>
				<rect x="69.5" y="50.6" class="st5" width="19.7" height="3"/>
				<rect x="58.9" y="74" class="st5" width="20.9" height="3"/>
				<rect x="81.5" y="74" class="st7" width="7.7" height="3"/>
				<rect x="55.7" y="78.6" class="st6" width="33.5" height="3"/>
				<rect x="65.1" y="64.6" class="st6" width="24.1" height="3"/>
				<rect x="57.8" y="64.6" class="st5" width="5.6" height="3"/>
				<rect x="69.5" y="69.3" class="st8" width="19.7" height="3"/>
				<rect x="66.1" y="69.3" class="st7" width="2.6" height="3"/>
			</g>
		</g>
		<g class="st4">
			<g>
				<rect x="96.3" y="83.3" class="st5" width="24.1" height="3"/>
				<rect x="122.2" y="83.3" class="st5" width="7.7" height="3"/>
				<rect x="102.7" y="88" class="st6" width="27.2" height="3"/>
				<rect x="99.5" y="102" class="st6" width="21" height="3"/>
				<rect x="122.2" y="102" class="st7" width="7.7" height="3"/>
				<rect x="114.2" y="106.7" class="st8" width="15.7" height="3"/>
				<rect x="101.2" y="106.7" class="st7" width="11.2" height="3"/>
				<rect x="105.8" y="92.7" class="st7" width="17.6" height="3"/>
				<rect x="125.1" y="92.7" class="st8" width="4.8" height="3"/>
				<rect x="98.4" y="92.7" class="st5" width="5.6" height="3"/>
				<rect x="110.1" y="97.3" class="st5" width="19.7" height="3"/>
				<rect x="99.5" y="120.7" class="st5" width="21" height="3"/>
				<rect x="122.2" y="120.7" class="st7" width="7.7" height="3"/>
				<rect x="96.3" y="125.4" class="st6" width="33.5" height="3"/>
				<rect x="105.8" y="111.4" class="st6" width="24.1" height="3"/>
				<rect x="98.4" y="111.4" class="st5" width="5.6" height="3"/>
				<rect x="110.1" y="116" class="st8" width="19.7" height="3"/>
				<rect x="106.7" y="116" class="st7" width="2.6" height="3"/>
				<rect x="96.3" y="36.6" class="st5" width="24.1" height="3"/>
				<rect x="122.2" y="36.6" class="st5" width="7.7" height="3"/>
				<rect x="102.7" y="41.2" class="st6" width="27.2" height="3"/>
				<rect x="99.5" y="55.3" class="st6" width="21" height="3"/>
				<rect x="122.2" y="55.3" class="st7" width="7.7" height="3"/>
				<rect x="114.2" y="60" class="st8" width="15.7" height="3"/>
				<rect x="101.2" y="60" class="st7" width="11.2" height="3"/>
				<rect x="105.8" y="45.9" class="st7" width="17.6" height="3"/>
				<rect x="125.1" y="45.9" class="st8" width="4.8" height="3"/>
				<rect x="98.4" y="45.9" class="st5" width="5.6" height="3"/>
				<rect x="110.1" y="50.6" class="st5" width="19.7" height="3"/>
				<rect x="99.5" y="74" class="st5" width="21" height="3"/>
				<rect x="122.2" y="74" class="st7" width="7.7" height="3"/>
				<rect x="96.3" y="78.6" class="st6" width="33.5" height="3"/>
				<rect x="105.8" y="64.6" class="st6" width="24.1" height="3"/>
				<rect x="98.4" y="64.6" class="st5" width="5.6" height="3"/>
				<rect x="110.1" y="69.3" class="st8" width="19.7" height="3"/>
				<rect x="106.7" y="69.3" class="st7" width="2.6" height="3"/>
			</g>
			<g>
				<rect x="55.7" y="83.3" class="st5" width="24.1" height="3"/>
				<rect x="81.5" y="83.3" class="st5" width="7.7" height="3"/>
				<rect x="62" y="88" class="st6" width="27.2" height="3"/>
				<rect x="58.9" y="102" class="st6" width="20.9" height="3"/>
				<rect x="81.5" y="102" class="st7" width="7.7" height="3"/>
				<rect x="73.5" y="106.7" class="st8" width="15.7" height="3"/>
				<rect x="60.6" y="106.7" class="st7" width="11.2" height="3"/>
				<rect x="65.1" y="92.7" class="st7" width="17.6" height="3"/>
				<rect x="84.4" y="92.7" class="st8" width="4.8" height="3"/>
				<rect x="57.8" y="92.7" class="st5" width="5.6" height="3"/>
				<rect x="69.5" y="97.3" class="st5" width="19.7" height="3"/>
				<rect x="58.9" y="120.7" class="st5" width="20.9" height="3"/>
				<rect x="81.5" y="120.7" class="st7" width="7.7" height="3"/>
				<rect x="55.7" y="125.4" class="st6" width="33.5" height="3"/>
				<rect x="65.1" y="111.4" class="st6" width="24.1" height="3"/>
				<rect x="57.8" y="111.4" class="st5" width="5.6" height="3"/>
				<rect x="69.5" y="116" class="st8" width="19.7" height="3"/>
				<rect x="66.1" y="116" class="st7" width="2.6" height="3"/>
				<rect x="55.7" y="36.6" class="st5" width="24.1" height="3"/>
				<rect x="81.5" y="36.6" class="st5" width="7.7" height="3"/>
				<rect x="62" y="41.2" class="st6" width="27.2" height="3"/>
				<rect x="58.9" y="55.3" class="st6" width="20.9" height="3"/>
				<rect x="81.5" y="55.3" class="st7" width="7.7" height="3"/>
				<rect x="73.5" y="60" class="st8" width="15.7" height="3"/>
				<rect x="60.6" y="60" class="st7" width="11.2" height="3"/>
				<rect x="65.1" y="45.9" class="st7" width="17.6" height="3"/>
				<rect x="84.4" y="45.9" class="st8" width="4.8" height="3"/>
				<rect x="57.8" y="45.9" class="st5" width="5.6" height="3"/>
				<rect x="69.5" y="50.6" class="st5" width="19.7" height="3"/>
				<rect x="58.9" y="74" class="st5" width="20.9" height="3"/>
				<rect x="81.5" y="74" class="st7" width="7.7" height="3"/>
				<rect x="55.7" y="78.6" class="st6" width="33.5" height="3"/>
				<rect x="65.1" y="64.6" class="st6" width="24.1" height="3"/>
				<rect x="57.8" y="64.6" class="st5" width="5.6" height="3"/>
				<rect x="69.5" y="69.3" class="st8" width="19.7" height="3"/>
				<rect x="66.1" y="69.3" class="st7" width="2.6" height="3"/>
			</g>
		</g>
		<g class="st4">
			<g>
				<rect x="96.3" y="25.8" class="st5" width="24.1" height="3"/>
				<rect x="122.2" y="25.8" class="st5" width="7.7" height="3"/>
				<rect x="102.7" y="30.5" class="st6" width="27.2" height="3"/>
				<rect x="99.5" y="44.5" class="st6" width="21" height="3"/>
				<rect x="122.2" y="44.5" class="st7" width="7.7" height="3"/>
				<rect x="114.2" y="49.2" class="st8" width="15.7" height="3"/>
				<rect x="101.2" y="49.2" class="st7" width="11.2" height="3"/>
				<rect x="105.8" y="35.2" class="st7" width="17.6" height="3"/>
				<rect x="125.1" y="35.2" class="st8" width="4.8" height="3"/>
				<rect x="98.4" y="35.2" class="st5" width="5.6" height="3"/>
				<rect x="110.1" y="39.8" class="st5" width="19.7" height="3"/>
				<rect x="99.5" y="63.2" class="st5" width="21" height="3"/>
				<rect x="122.2" y="63.2" class="st7" width="7.7" height="3"/>
				<rect x="96.3" y="67.9" class="st6" width="33.5" height="3"/>
				<rect x="105.8" y="53.9" class="st6" width="24.1" height="3"/>
				<rect x="98.4" y="53.9" class="st5" width="5.6" height="3"/>
				<rect x="110.1" y="58.5" class="st8" width="19.7" height="3"/>
				<rect x="106.7" y="58.5" class="st7" width="2.6" height="3"/>
				<rect x="114.2" y="2.4" class="st8" width="15.7" height="3"/>
				<rect x="101.2" y="2.4" class="st7" width="11.2" height="3"/>
				<rect x="99.5" y="16.5" class="st5" width="21" height="3"/>
				<rect x="122.2" y="16.5" class="st7" width="7.7" height="3"/>
				<rect x="96.3" y="21.1" class="st6" width="33.5" height="3"/>
				<rect x="105.8" y="7.1" class="st6" width="24.1" height="3"/>
				<rect x="98.4" y="7.1" class="st5" width="5.6" height="3"/>
				<rect x="110.1" y="11.8" class="st8" width="19.7" height="3"/>
				<rect x="106.7" y="11.8" class="st7" width="2.6" height="3"/>
			</g>
			<g>
				<rect x="55.7" y="25.8" class="st5" width="24.1" height="3"/>
				<rect x="81.5" y="25.8" class="st5" width="7.7" height="3"/>
				<rect x="62" y="30.5" class="st6" width="27.2" height="3"/>
				<rect x="58.9" y="44.5" class="st6" width="20.9" height="3"/>
				<rect x="81.5" y="44.5" class="st7" width="7.7" height="3"/>
				<rect x="73.5" y="49.2" class="st8" width="15.7" height="3"/>
				<rect x="60.6" y="49.2" class="st7" width="11.2" height="3"/>
				<rect x="65.1" y="35.2" class="st7" width="17.6" height="3"/>
				<rect x="84.4" y="35.2" class="st8" width="4.8" height="3"/>
				<rect x="57.8" y="35.2" class="st5" width="5.6" height="3"/>
				<rect x="69.5" y="39.8" class="st5" width="19.7" height="3"/>
				<rect x="58.9" y="63.2" class="st5" width="20.9" height="3"/>
				<rect x="81.5" y="63.2" class="st7" width="7.7" height="3"/>
				<rect x="55.7" y="67.9" class="st6" width="33.5" height="3"/>
				<rect x="65.1" y="53.9" class="st6" width="24.1" height="3"/>
				<rect x="57.8" y="53.9" class="st5" width="5.6" height="3"/>
				<rect x="69.5" y="58.5" class="st8" width="19.7" height="3"/>
				<rect x="66.1" y="58.5" class="st7" width="2.6" height="3"/>
				<rect x="73.5" y="2.4" class="st8" width="15.7" height="3"/>
				<rect x="60.6" y="2.4" class="st7" width="11.2" height="3"/>
				<rect x="58.9" y="16.5" class="st5" width="20.9" height="3"/>
				<rect x="81.5" y="16.5" class="st7" width="7.7" height="3"/>
				<rect x="55.7" y="21.1" class="st6" width="33.5" height="3"/>
				<rect x="65.1" y="7.1" class="st6" width="24.1" height="3"/>
				<rect x="57.8" y="7.1" class="st5" width="5.6" height="3"/>
				<rect x="69.5" y="11.8" class="st8" width="19.7" height="3"/>
				<rect x="66.1" y="11.8" class="st7" width="2.6" height="3"/>
			</g>
		</g>
	</g>
	<path class="st9" d="M0,0.9v163.2h184.1V0.9H0z M88.3,87.2c-1.2,6-4.5,10.6-9.9,13.6c-3,1.6-6.2,1.8-9.4,1
		c-5.3-1.4-9.5-4.5-12.2-9.4c-2-3.6-2-7.5-0.5-11.3c2-5.1,5.6-8.5,10.4-10.3c4.3-1.4,8.3-1,12.2,0.6c1.9,0.8,3.7,1.9,5.2,3.3
		C87.9,78.1,89.3,82.3,88.3,87.2z M129.8,77.2c-0.4,3.1-0.9,6.1-1.3,9.2c0,0.3-0.1,0.5-0.1,0.8c-0.1,0.6-0.4,0.8-1,0.5
		c-2.2-1-4.4-2-6.6-3c-0.7-0.3-1.5-0.7-2.2-1c-0.8-0.4-1-0.4-1.3,0.3c-1.5,3.3-3.1,6.7-4.6,10.1c-0.4,0.8-0.5,0.8-1.3,0.5
		c-2.7-1.1-5.3-2.1-8-3.2c-1.8-0.7-1.9-1.2-1.1-3c0.9-1.9,1.8-3.9,2.6-5.9c0.3-0.6-0.1-0.8-0.5-1.1c-4.3-2.4-8.6-4.8-12.9-7.1
		c-1.8-1-1.8-1.2-0.9-3c1.3-2.5,2.5-5,3.8-7.5c0.2-0.3,0.4-0.6,0.7-1c0.4,0.1,0.7,0.1,0.9,0.2c3.1,1.4,6.2,2.8,9.3,4.2
		c0.2,0.1,0.3,0.1,0.4,0.2c0.7,0.3,0.9,0.2,1-0.6c0.4-3.8,0.9-7.5,1.2-11.3c0.1-1.2,0.1-2.4,0.2-3.5c0-1.1,0.4-1.5,1.4-1.3
		c3.8,0.5,7.7,1,11.5,1.6c1.4,0.2,1.6,0.5,1.6,1.9c-0.3,6-0.7,12-1,18c-0.1,0.9,0,0.9,0.8,1.2c2.2,0.7,4.3,1.4,6.5,2.1
		C129.8,75.8,129.9,76.1,129.8,77.2z"/>
	<path class="st10" d="M182.1,100.9c-3.4-4-7.7-6-13-5.3c-3.6,0.4-6.5,2.3-8.8,5.1c-0.6,0.7-1.2,1.5-1.9,2.2
		c-1.6,1.5-3.5,2.1-5.6,1.7c-2.5-0.5-5-1.3-7.4-1.9c0.6-1,1.3-2,1.8-3c1-2.1,1.2-4.3,0.2-6.6c-0.7-1.5-1.8-2.7-3.1-3.6
		c-1.1-0.8-2.3-1.6-3.5-2.3c0.2-1,0.6-2.1,0.8-3.1c0.9-5.2-0.8-9.6-4.4-13.4c-0.4-0.4-0.4-0.7-0.3-1.2c0.4-2.3,0.8-4.6,1.2-6.9
		c0.1-0.3,0.2-0.6,0.4-0.8c6.1-6,12.1-12,18.2-17.9c1.5-1.4,2.8-1.6,4.6-0.6c6.1,3.2,13.1,0.4,15.6-6c1.4-3.8,1.8-7.6,0.6-11.5
		c0-0.1,0-0.2,0-0.3c-0.1-0.4-0.3-0.8-0.4-1.1c-0.4-0.8-0.9-1.7-1.4-2.5c-1.7-2.7-4.1-4.2-7.2-4.9c-1.2-0.2-2.4-0.6-3.4-1.2
		c-2-1-3-2.8-3.5-4.9c-0.7-2.5-1.8-4.7-3.5-6.6c-2.8-3.3-6.3-4.1-10.4-2.4c-2.9,1.2-5.4,2.9-7.4,5.2c-2.7,3-3.5,6.5-3.1,10.5
		c0.2,2.1,0.8,4.1,1.5,6.2c0.6,1.9,0.5,3.6-0.8,5.2c-1.3,1.6-2.5,3.3-3.8,4.9c-0.7,0.8-1.6,1.5-2.4,2.2c-0.8-1.1-1.4-2.1-2.1-3
		c-4.4-5.9-9.9-10.4-16.4-13.8c-10.7-5.4-22-6.9-33.8-4.9c-1.8,0.3-3.6,0.8-5.3,1.2h0c-0.3,0.1-0.7,0.1-1,0.2l-4.6,1.6
		c-0.5,0.2-0.9,0.3-1.3,0.5c-0.4,0.2-0.8,0.4-1.3,0.6C54.8,23.5,46.3,31,40.4,41.5c-4.1,7.4-6.3,15.3-6.2,23.7
		c0,2.4,0.4,4.8,0.6,7.2c0,0.2,0.1,0.4,0,0.7c-0.5-0.9-1.1-1.7-1.6-2.6c-0.9-1.4-1.2-3-1.7-4.6c-1-3.7-2.6-7.1-5.7-9.5
		c-3.9-3.1-8.3-4.1-13.2-2.9c-3.8,1-5.9,3.7-6.7,7.4c-0.5,2.3-0.2,4.5,0.1,6.8c0.3,1.7,0.4,3.5-0.5,5.1c-0.3,0.6-0.7,1.1-1.1,1.6
		c-2,2.4-3.4,5-4.2,8c-0.9,3.4-0.3,6.6,1.6,9.5c1.8,2.8,4.2,4.9,7.2,6.2c4.5,1.9,8.9,0.8,11.9-3c1.2-1.5,2.3-3.2,3.4-4.8
		c0.3-0.4,0.5-0.4,0.9-0.3c6.8,2.1,13.5,4.2,20.3,6.2c0.6,0.2,1.3,0.3,1.9,0.5c0.2,0.1,0.3,0.1,0.5,0.2c1,0.9,2.1,1.7,3.1,2.6
		c0.2,0.2,0.4,0.5,0.3,0.8c-0.4,5.3,1.2,9.8,5.3,13.4c0,0,0,0,0,0l0,0c0.1,0.1,0,0,0,0c-4,3.8-8.1,7.7-12.1,11.5
		c-1.5,1.4-3.2,1.6-5,0.8c-2.2-1.1-4.5-1.8-7-1.9c-8-0.4-15.3,5.2-17.1,12.9c-0.4,1.7-0.4,3.5-0.1,5.2c0,0.1,0,0.2,0,0.4
		c0.3,0.9,0.6,1.8,0.9,2.7c0.5,0.7,0.9,1.4,1.4,2c2,2.5,4.5,3.9,7.7,4.1c0.2,0,0.4,0,0.5,0c2.6,0.2,4.3,1.5,5.3,4
		c1.1,2.8,2.9,5.1,5.4,6.8c2.6,1.7,5.4,2,8.4,1.5c3.7-0.7,7.2-2.2,10.2-4.4c3.5-2.6,4.8-6.8,3.4-11c-0.7-2.1-1.9-4-3.3-5.7
		c-0.1-0.1-0.2-0.3-0.4-0.5c1.2-1.2,2.4-2.3,3.5-3.4c2.8-2.7,5.6-5.4,8.3-8.1c0.3-0.3,0.7-0.5,1.2-0.6c3-0.5,5.6-1.9,8-3.6
		c0.5-0.4,1.1-0.8,1.7-1.2c0.4,1,0.7,2,1,2.9c0.5,1.4,1.3,2.6,2.4,3.7c3.7,3.6,11.2,3,13.7-2.9c0.2-0.4,0.3-0.8,0.5-1.3
		c0.5,0.2,1,0.5,1.4,0.7c4.7,2.2,12.3-0.1,13.7-7.3c0.2-1,0.3-2.1,0.5-3.1c0-0.3,0.2-0.5,0.5-0.7c0.8-0.3,1.6-0.8,2.4-1.1
		c0.2-0.1,0.5-0.1,0.8,0c6.1,2,12.2,4.1,18.3,6.1c4.7,1.6,9.4,3.1,14.1,4.6c0.4,0.1,0.8,0.3,1.2,0.5c0.9,0.5,1.4,1.4,1.5,2.4
		c0,1,0,2,0.1,3c0.6,4.3,3.6,7.2,8,7.8c2.3,0.3,4.6,0.2,6.8-0.4c0.1,0,0.3,0,0.5-0.1l2.2-0.8c0.8-0.4,1.7-0.8,2.5-1.3
		c4.8-2.9,6.8-7.2,5.9-12.8c-0.2-1-0.2-2.1-0.2-3.1c0.1-2,0.7-3.9,2.1-5.4c1.1-1.3,2.3-2.6,3.4-4c1-1.2,1.8-2.5,2.2-3.9
		C184.6,106,184.1,103.2,182.1,100.9z"/>
	<g class="st1">
		<path class="st11" d="M128.7,75.4c-2.2-0.7-4.3-1.4-6.5-2.1c-0.8-0.3-0.9-0.3-0.8-1.2c0.3-6,0.7-12,1-18c0.1-1.4-0.2-1.7-1.6-1.9
			c-3.8-0.5-7.7-1-11.5-1.6c-1-0.1-1.4,0.2-1.4,1.3c0,1.2-0.1,2.4-0.2,3.5c-0.3,3.8-0.8,7.5-1.2,11.3c-0.1,0.7-0.3,0.8-1,0.6
			c-0.2-0.1-0.3-0.1-0.4-0.2c-3.1-1.4-6.2-2.8-9.3-4.2c-0.3-0.1-0.6-0.1-0.9-0.2c-0.3,0.3-0.5,0.6-0.7,1c-1.3,2.5-2.5,5-3.8,7.5
			c-0.9,1.8-0.8,2,0.9,3c4.3,2.4,8.6,4.8,12.9,7.1c0.4,0.2,0.8,0.5,0.5,1.1c-0.9,1.9-1.7,3.9-2.6,5.9c-0.8,1.8-0.7,2.3,1.1,3
			c2.7,1.1,5.3,2.1,8,3.2c0.8,0.3,1,0.3,1.3-0.5c1.5-3.3,3.1-6.7,4.6-10.1c0.3-0.7,0.5-0.7,1.3-0.3c0.7,0.4,1.4,0.7,2.2,1
			c2.2,1,4.4,2,6.6,3c0.6,0.3,0.9,0.1,1-0.5c0.1-0.2,0.1-0.5,0.1-0.8c0.4-3.1,0.9-6.1,1.3-9.2C129.9,76.1,129.8,75.8,128.7,75.4z"/>
		<path class="st11" d="M84.2,74.7c-1.5-1.4-3.3-2.5-5.2-3.3c-3.9-1.6-7.9-2-12.2-0.6c-4.8,1.9-8.5,5.3-10.4,10.3
			c-1.5,3.8-1.5,7.6,0.5,11.3c2.7,4.9,6.8,8,12.2,9.4c3.2,0.9,6.4,0.7,9.4-1c5.4-3,8.6-7.6,9.9-13.6C89.3,82.3,87.9,78.1,84.2,74.7z
			"/>
	</g>
	<g>
		<path class="st12" d="M181.4,101.6c-2.9-3.4-6.4-5.1-10.3-5.1c-0.6,0-1.2,0-1.8,0.1c-3.1,0.4-5.8,1.9-8.1,4.7l-0.4,0.4
			c-0.5,0.6-1,1.2-1.6,1.8c-1.4,1.4-3.1,2.1-5,2.1c-0.5,0-1-0.1-1.6-0.2c-1.8-0.4-3.6-0.9-5.3-1.3c-0.7-0.2-1.5-0.4-2.2-0.6
			l-1.3-0.3l0.7-1.2c0.2-0.3,0.4-0.7,0.6-1c0.4-0.7,0.8-1.3,1.1-1.9c1-2,1.1-3.9,0.2-5.7c-0.5-1.2-1.4-2.2-2.8-3.2
			c-0.8-0.6-1.6-1.1-2.4-1.6c-0.4-0.2-0.7-0.5-1.1-0.7l-0.6-0.4l0.2-0.7c0.1-0.3,0.2-0.7,0.3-1c0.2-0.7,0.4-1.4,0.5-2.1
			c0.8-4.7-0.6-8.8-4.1-12.5c-0.6-0.6-0.8-1.2-0.6-2.1c0.2-1.3,0.5-2.7,0.7-4.1c0.1-0.9,0.3-1.9,0.5-2.8c0-0.3,0.2-0.9,0.7-1.4
			c7.3-7.2,12.9-12.7,18.2-17.9c1-1,2.1-1.5,3.2-1.5c0.8,0,1.6,0.2,2.5,0.7c1.5,0.8,3.1,1.2,4.8,1.2c4.1,0,7.8-2.6,9.3-6.6
			c1.4-3.8,1.6-7.4,0.6-10.9c-0.1-0.2-0.1-0.3-0.1-0.4l-0.1-0.4l-0.2-0.5c-0.1-0.2-0.3-0.5-0.4-0.7c-0.3-0.6-0.6-1.1-0.9-1.6
			c-1.5-2.4-3.6-3.8-6.5-4.4c-1.4-0.3-2.6-0.7-3.7-1.3c-2-1-3.3-2.8-4.1-5.5c-0.6-2.3-1.7-4.4-3.3-6.2c-1.7-2-3.6-2.9-5.7-2.9
			c-1.1,0-2.3,0.3-3.6,0.8c-2.7,1.1-5.1,2.8-7.1,5c-2.3,2.6-3.3,5.7-2.9,9.7c0.2,2.1,0.8,4.1,1.5,6c0.8,2.3,0.4,4.4-1,6.2
			c-0.6,0.7-1.2,1.5-1.8,2.3c-0.6,0.9-1.3,1.8-2,2.6c-0.5,0.6-1.2,1.2-1.8,1.7c-0.3,0.2-0.5,0.4-0.8,0.7l-0.8,0.8l-0.6-0.9
			c-0.2-0.3-0.5-0.7-0.7-1c-0.5-0.7-0.9-1.3-1.4-2c-4.2-5.7-9.7-10.2-16.1-13.5c-7.4-3.8-15.2-5.6-23.3-5.6c-3.2,0-6.5,0.3-9.8,0.9
			c-1.2,0.2-2.4,0.5-3.5,0.8c-0.6,0.1-1.2,0.3-1.8,0.4l-0.2,0c-0.3,0.1-0.5,0.1-0.7,0.2l-4.6,1.6c-0.4,0.1-0.8,0.3-1.2,0.5
			c-0.4,0.2-0.9,0.4-1.3,0.6c-10.8,4.9-19.1,12.5-24.7,22.5c-4.1,7.3-6.1,15.1-6,23.2c0,1.6,0.2,3.3,0.4,4.9
			c0.1,0.8,0.2,1.5,0.2,2.3l0,0.1c0,0.2,0.1,0.6-0.1,1.1l-0.7,2L34,73.6l-0.5-0.8c-0.4-0.6-0.8-1.2-1.1-1.8
			c-0.9-1.4-1.3-2.9-1.7-4.4l-0.1-0.4c-1.1-4.1-2.8-7-5.3-9c-2.7-2.1-5.6-3.2-8.7-3.2c-1.2,0-2.4,0.2-3.6,0.5
			c-3.2,0.8-5.2,3-5.9,6.7c-0.4,2.2-0.2,4.4,0.1,6.5c0.3,1.8,0.5,3.8-0.6,5.7c-0.4,0.7-0.8,1.3-1.2,1.7c-1.9,2.3-3.2,4.9-4,7.6
			c-0.8,3.1-0.3,6,1.5,8.7C4.6,94,6.9,96,9.6,97.1c1.3,0.6,2.6,0.8,3.9,0.8c2.6,0,5-1.2,6.9-3.6c1-1.2,1.9-2.5,2.7-3.8
			c0.2-0.3,0.5-0.7,0.7-1c0.4-0.5,0.8-0.8,1.4-0.8c0.2,0,0.4,0,0.7,0.1c6.8,2.1,13.5,4.2,20.3,6.2c0.3,0.1,0.7,0.2,1,0.3
			c0.3,0.1,0.6,0.2,0.9,0.2c0.3,0.1,0.6,0.2,0.8,0.4l0.3,0.2c1,0.8,1.9,1.6,2.9,2.4c0.5,0.4,0.7,1.1,0.7,1.6
			c-0.4,5.2,1.2,9.3,5,12.6l0.1,0.1l0,0l0.7,0.7l-0.8,0.7l-3.4,3.3c-2.9,2.8-5.8,5.5-8.7,8.3c-1.1,1-2.3,1.6-3.6,1.6
			c-0.8,0-1.6-0.2-2.5-0.6c-2.3-1.1-4.5-1.7-6.6-1.8c-0.3,0-0.5,0-0.8,0c-7.1,0-13.7,5.2-15.2,12.2c-0.4,1.6-0.4,3.2-0.1,4.8l0,0
			c0,0.1,0,0.2,0,0.3c0.1,0.4,0.3,0.8,0.4,1.3c0.1,0.4,0.3,0.8,0.4,1.2c0.1,0.2,0.2,0.4,0.4,0.6c0.3,0.5,0.6,0.9,0.9,1.3
			c1.8,2.3,4.1,3.6,7,3.8l0.3,0l0.2,0c3,0.2,5,1.7,6.2,4.6c1.1,2.7,2.8,4.8,5.1,6.3c1.6,1.1,3.3,1.6,5.3,1.6c0.8,0,1.5-0.1,2.3-0.2
			c3.6-0.6,6.8-2.1,9.8-4.3c3.2-2.4,4.3-6.1,3-9.9c-0.6-1.9-1.6-3.6-3.1-5.4l-0.3-0.3l-0.2-0.2l-0.6-0.7l0.7-0.6l1.1-1.1
			c0.8-0.8,1.6-1.6,2.4-2.4l2.5-2.4c1.9-1.9,3.9-3.7,5.8-5.6c0.5-0.5,1-0.8,1.7-0.9c2.4-0.4,4.8-1.5,7.6-3.5
			c0.4-0.2,0.7-0.5,1.1-0.8l0.6-0.4l1.1-0.8l0.4,1.3l0.3,0.9c0.2,0.7,0.4,1.3,0.7,2c0.5,1.3,1.2,2.4,2.2,3.3
			c1.3,1.2,3.1,1.9,5.1,1.9c2.5,0,5.6-1.2,7-4.5c0.1-0.3,0.2-0.5,0.3-0.8l0.2-0.4l0.4-1l1,0.5l0.5,0.2c0.3,0.2,0.6,0.3,1,0.5
			c1,0.5,2.1,0.7,3.3,0.7c3.7,0,7.9-2.3,9-7.3c0.2-1,0.3-2,0.4-3.1c0.1-0.7,0.5-1.2,1.1-1.5c0.4-0.2,0.7-0.3,1.1-0.5
			c0.4-0.2,0.9-0.4,1.3-0.6c0.2-0.1,0.4-0.1,0.7-0.1c0.3,0,0.6,0.1,0.8,0.1c2.9,0.9,5.8,1.9,8.6,2.9c3.2,1.1,6.5,2.2,9.7,3.2
			c3.1,1,6.2,2,9.3,3.1c1.6,0.5,3.2,1,4.8,1.6c0.5,0.2,0.9,0.3,1.3,0.5c1.2,0.6,1.9,1.8,2,3.3c0,0.4,0,0.7,0,1.1
			c0,0.6,0,1.2,0.1,1.8c0.6,3.8,3.2,6.4,7.2,7c0.8,0.1,1.5,0.2,2.3,0.2c1.4,0,2.8-0.2,4.1-0.5c0.2-0.1,0.4-0.1,0.5-0.1l2-0.7
			c0.2-0.1,0.5-0.2,0.7-0.4c0.6-0.3,1.1-0.6,1.6-0.9c4.5-2.7,6.2-6.6,5.4-11.8c-0.2-1-0.2-2.1-0.2-3.3c0.1-2.3,0.9-4.3,2.3-6.1
			c1.2-1.4,2.3-2.7,3.4-4c1-1.2,1.7-2.4,2.1-3.6C183.5,106,183.1,103.6,181.4,101.6z M88.3,87.2c-1.2,6-4.5,10.6-9.9,13.6
			c-3,1.6-6.2,1.8-9.4,1c-5.3-1.4-9.5-4.5-12.2-9.4c-2-3.6-2-7.5-0.5-11.3c2-5.1,5.6-8.5,10.4-10.3c4.3-1.4,8.3-1,12.2,0.6
			c1.9,0.8,3.7,1.9,5.2,3.3C87.9,78.1,89.3,82.3,88.3,87.2z M129.8,77.2c-0.4,3.1-0.9,6.1-1.3,9.2c0,0.3-0.1,0.5-0.1,0.8
			c-0.1,0.6-0.4,0.8-1,0.5c-2.2-1-4.4-2-6.6-3c-0.7-0.3-1.5-0.7-2.2-1c-0.8-0.4-1-0.4-1.3,0.3c-1.5,3.3-3.1,6.7-4.6,10.1
			c-0.4,0.8-0.5,0.8-1.3,0.5c-2.7-1.1-5.3-2.1-8-3.2c-1.8-0.7-1.9-1.2-1.1-3c0.9-1.9,1.8-3.9,2.6-5.9c0.3-0.6-0.1-0.8-0.5-1.1
			c-4.3-2.4-8.6-4.8-12.9-7.1c-1.8-1-1.8-1.2-0.9-3c1.3-2.5,2.5-5,3.8-7.5c0.2-0.3,0.4-0.6,0.7-1c0.4,0.1,0.7,0.1,0.9,0.2
			c3.1,1.4,6.2,2.8,9.3,4.2c0.2,0.1,0.3,0.1,0.4,0.2c0.7,0.3,0.9,0.2,1-0.6c0.4-3.8,0.9-7.5,1.2-11.3c0.1-1.2,0.1-2.4,0.2-3.5
			c0-1.1,0.4-1.5,1.4-1.3c3.8,0.5,7.7,1,11.5,1.6c1.4,0.2,1.6,0.5,1.6,1.9c-0.3,6-0.7,12-1,18c-0.1,0.9,0,0.9,0.8,1.2
			c2.2,0.7,4.3,1.4,6.5,2.1C129.8,75.8,129.9,76.1,129.8,77.2z"/>
	</g>
	<path class="st13" d="M169.1,95.6c-3.6,0.4-6.5,2.3-8.8,5.1c-0.6,0.7-1.2,1.5-1.9,2.2c-1.6,1.5-3.5,2.1-5.6,1.7
		c-2.5-0.5-5-1.3-7.4-1.9c0.6-1,1.3-2,1.8-3c1-2.1,1.2-4.3,0.2-6.6c-0.7-1.5-1.8-2.7-3.1-3.6c-1.1-0.8-2.3-1.6-3.5-2.3
		c0.2-1,0.6-2.1,0.8-3.1c0.9-5.2-0.8-9.6-4.4-13.4c-0.4-0.4-0.4-0.7-0.3-1.2c0.4-2.3,0.8-4.6,1.2-6.9c0.1-0.3,0.2-0.6,0.4-0.8
		c6.1-6,12.1-12,18.2-17.9c1.5-1.4,2.8-1.6,4.6-0.6c6.1,3.2,13.1,0.4,15.6-6c1.4-3.8,1.8-7.6,0.6-11.5c0-0.1,0-0.2,0-0.3
		c-0.1-0.4-0.3-0.8-0.4-1.1c-0.4-0.8-0.9-1.7-1.4-2.5c-1.7-2.7-4.1-4.2-7.2-4.9c-1.2-0.2-2.4-0.6-3.4-1.2c-2-1-3-2.8-3.5-4.9
		c-0.7-2.5-1.8-4.7-3.5-6.6c-2.8-3.3-6.3-4.1-10.4-2.4c-2.9,1.2-5.4,2.9-7.4,5.2c-2.7,3-3.5,6.5-3.1,10.5c0.2,2.1,0.8,4.1,1.5,6.2
		c0.6,1.9,0.5,3.6-0.8,5.2c-1.3,1.6-2.5,3.3-3.8,4.9c-0.7,0.8-1.6,1.5-2.4,2.2c-0.8-1.1-1.4-2.1-2.1-3c-4.4-5.9-9.9-10.4-16.4-13.8
		c-10.7-5.4-22-6.9-33.8-4.9c-1.8,0.3-3.6,0.8-5.3,1.2h0c-0.3,0.1-0.7,0.1-1,0.2l-4.6,1.6c-0.5,0.2-0.9,0.3-1.3,0.5
		c-0.4,0.2-0.8,0.4-1.3,0.6C54.8,23.5,46.3,31,40.4,41.5c-4.1,7.4-6.3,15.3-6.2,23.7c0,2.4,0.4,4.8,0.6,7.2c0,0.2,0.1,0.4,0,0.7
		c-0.5-0.9-1.1-1.7-1.6-2.6c-0.9-1.4-1.2-3-1.7-4.6c-1-3.7-2.6-7.1-5.7-9.5c-3.9-3.1-8.3-4.1-13.2-2.9c-3.8,1-5.9,3.7-6.7,7.4
		c-0.5,2.3-0.2,4.5,0.1,6.8c0.3,1.7,0.4,3.5-0.5,5.1c-0.3,0.6-0.7,1.1-1.1,1.6c-2,2.4-3.4,5-4.2,8c-0.9,3.4-0.3,6.6,1.6,9.5
		c1.8,2.8,4.2,4.9,7.2,6.2c4.5,1.9,8.9,0.8,11.9-3c1.2-1.5,2.3-3.2,3.4-4.8c0.3-0.4,0.5-0.4,0.9-0.3c6.8,2.1,13.5,4.2,20.3,6.2
		c0.6,0.2,1.3,0.3,1.9,0.5c0.2,0.1,0.3,0.1,0.5,0.2c1,0.9,2.1,1.7,3.1,2.6c0.2,0.2,0.4,0.5,0.3,0.8c-0.4,5.3,1.2,9.8,5.3,13.4
		c0,0,0,0,0,0l0,0c0.1,0.1,0,0,0,0c-4,3.8-8.1,7.7-12.1,11.5c-1.5,1.4-3.2,1.6-5,0.8c-2.2-1.1-4.5-1.8-7-1.9
		c-8-0.4-15.3,5.2-17.1,12.9c-0.4,1.7-0.4,3.5-0.1,5.2c0,0.1,0,0.2,0,0.4c0.3,0.9,0.6,1.8,0.9,2.7c0.5,0.7,0.9,1.4,1.4,2
		c2,2.5,4.5,3.9,7.7,4.1c0.2,0,0.4,0,0.5,0c2.6,0.2,4.3,1.5,5.3,4c1.1,2.8,2.9,5.1,5.4,6.8c2.6,1.7,5.4,2,8.4,1.5
		c3.7-0.7,7.2-2.2,10.2-4.4c3.5-2.6,4.8-6.8,3.4-11c-0.7-2.1-1.9-4-3.3-5.7c-0.1-0.1-0.2-0.3-0.4-0.5c1.2-1.2,2.4-2.3,3.5-3.4
		c2.8-2.7,5.6-5.4,8.3-8.1c0.3-0.3,0.7-0.5,1.2-0.6c3-0.5,5.6-1.9,8-3.6c0.5-0.4,1.1-0.8,1.7-1.2c0.4,1,0.7,2,1,2.9
		c0.5,1.4,1.3,2.6,2.4,3.7c3.7,3.6,11.2,3,13.7-2.9c0.2-0.4,0.3-0.8,0.5-1.3c0.5,0.2,1,0.5,1.4,0.7c4.7,2.2,12.3-0.1,13.7-7.3
		c0.2-1,0.3-2.1,0.5-3.1c0-0.3,0.2-0.5,0.5-0.7c0.8-0.3,1.6-0.8,2.4-1.1c0.2-0.1,0.5-0.1,0.8,0c6.1,2,12.2,4.1,18.3,6.1
		c4.7,1.6,9.4,3.1,14.1,4.6c0.4,0.1,0.8,0.3,1.2,0.5c0.9,0.5,1.4,1.4,1.5,2.4c0,1,0,2,0.1,3c0.6,4.3,3.6,7.2,8,7.8
		c2.3,0.3,4.6,0.2,6.8-0.4c0.1,0,0.3,0,0.5-0.1l2.2-0.8c0.8-0.4,1.7-0.8,2.5-1.3c4.8-2.9,6.8-7.2,5.9-12.8c-0.2-1-0.2-2.1-0.2-3.1
		c0.1-2,0.7-3.9,2.1-5.4c1.1-1.3,2.3-2.6,3.4-4c1-1.2,1.8-2.5,2.2-3.9c0.9-2.9,0.5-5.7-1.5-8C178.8,96.9,174.4,94.9,169.1,95.6z
		 M134.5,40.1c2.2-2.2,4.5-4.5,6.6-6.8c2.2-2.3,3.5-5,3.1-8.3c-0.2-1.5-0.8-3-1.1-4.5c-0.3-1.6-0.7-3.2-0.7-4.9c0-4,2.4-7.3,6.4-8.7
		c0.7-0.3,1.5-0.5,2.3-0.5c1.3-0.1,2.4,0.5,3,1.7c1.2,2.3,2.3,4.6,3.3,7c1.5,3.6,4.1,5.9,8,6.6c0.9,0.1,1.9,0.4,2.8,0.7
		c1.9,0.7,3.2,2.1,3.8,4c0.9,2.8,1,5.6-0.1,8.3c-0.6,1.3-1.3,2.6-2.6,3.4c-1.9,1.2-3.8,1.1-5.7,0c-1.3-0.8-2.6-1.4-4.1-1.5
		c-2.3-0.1-4.1,0.9-5.6,2.4c-3.7,3.5-7.4,7.1-11.1,10.7c-1.5,1.4-2.9,2.8-4.4,4.3c-0.1,0.1-0.2,0.2-0.4,0.3
		c-0.2-1.2-0.4-2.3-0.6-3.5c-0.6-3.3-1.6-6.4-3-9.5C134,40.9,134,40.6,134.5,40.1z M38.3,88.2c-3.9-1.2-7.7-2.4-11.6-3.6
		c-0.8-0.2-1.6-0.4-2.4-0.4c-1.9-0.2-3.9,0.8-4.8,2.5c-0.5,0.8-0.8,1.7-1.1,2.6c-0.4,1.2-1,2.3-1.9,3.1c-1.6,1.3-3.4,1.4-5.2,0.5
		c-2-1-3.7-2.4-4.9-4.3c-1.3-2.2-1.1-4.5-0.1-6.8c0.7-1.6,1.6-3.2,3-4.5c2.1-2.1,2.7-4.7,2.5-7.6c-0.1-1.6-0.4-3.1-0.4-4.7
		c-0.1-1.2,0-2.4,0.3-3.6c0.5-2,1.9-3.1,4-3.1c4.7,0.1,8.1,2.1,9.8,6.3c0.8,2.1,1.5,4.2,2,6.4c0.9,3.7,3.4,6.1,7,7.1
		c1.7,0.5,2.5,1.3,3,3c0.9,2.6,2.2,4.9,3.7,7.2c0.1,0.2,0.2,0.4,0.4,0.7C40.3,88.8,39.3,88.5,38.3,88.2z M56.5,133.5
		c-1.7,1.7-3.5,3.4-5.2,5.2c-0.6,0.6-1.1,1.4-1.4,2.1c-0.8,2-0.2,3.6,1.1,5.1c0.9,1,1.8,2,2.4,3.1c1.2,2,0.6,4.6-1.2,6.1
		c-0.9,0.7-2,1.4-3,1.8c-1.7,0.6-3.5,1.2-5.2,1.6c-1.6,0.3-3.3-0.1-4.5-1.2c-1.9-1.8-3.1-4-4.1-6.3c-0.3-0.8-0.6-1.6-1-2.3
		c-0.8-1.4-2.1-2.1-3.7-2.2c-1-0.1-2.1-0.2-3.1-0.1c-4.8,0.1-7.3-3.9-6.5-7.8c0.7-3.5,2.8-6,5.9-7.7c3.3-1.7,6.6-1.6,9.9,0
		c1.7,0.8,3.5,1.5,5.4,1.4c2.2-0.1,4-1,5.6-2.5c3-2.9,6-5.9,9.1-8.8c0.1-0.1,0.3-0.2,0.5-0.4c-0.6,3.7,0.6,6.5,3.8,8.4
		C59.7,130.5,58.1,132,56.5,133.5z M91.7,128.4c-1,1.7-2.6,2.3-4.6,2.2c-1.9-0.1-3.3-0.9-4.1-2.6c-0.7-1.6-1.2-3.2-1.8-4.8
		c-0.2-0.5,0.6-1.2,1.2-1c2.2,0.6,4.4,0.9,6.7,0.8c1.2,0,2.4-0.1,3.7-0.2c0.2,0,0.4,0,0.7,0C93,124.8,92.7,126.7,91.7,128.4z
		 M103.6,125.3c-3.1,1.2-5.7,0.4-8.2-2.6c4.1-1.1,8.2-2.3,12.4-3.5C108.1,121.3,106.1,124.4,103.6,125.3z M120.1,108.6
		c-3.1,2.6-6.6,4.4-10.3,6c-3.6,1.5-7.2,2.8-11,3.7c-4.4,1.1-8.9,1.7-13.5,1c-1.2-0.2-2.4-0.7-3.5-1.1c-0.4-0.2-0.7-0.2-1,0.2
		c-2.5,2.4-5.1,4.8-8.2,6.5c-1.7,1-3.4,1.7-5.4,1.9c-1.8,0.2-3.5-0.3-4.9-1.5c-1.1-0.9-1.6-2-1.4-3.3c0.3-1.5,0.8-3,1.2-4.5
		c0.4-1.2,0.9-2.4,1.4-3.7c-0.7-0.4-1.5-0.8-2.2-1.2c-3-1.7-5-4.1-5.9-7.4c-0.4-1.6-0.5-4.3-0.1-5.6c1.3,0.5,2.7,1,4,1.5l0-0.1
		c-0.2-0.1-0.3-0.2-0.5-0.3c-5.7-3.7-10.3-8.4-13.6-14.3c-5.9-10.6-6.5-21.7-2.1-32.9c3.6-9.1,9.9-16.1,17.9-21.6
		c4.3-2.9,8.9-5.1,13.8-6.6c11.2-3.5,22.5-3.6,33.6,0.6c7.9,3,14.4,7.8,19.1,14.9c5.2,7.9,7,16.6,5.9,26c-0.4,3.2-1.1,6.2-2.1,9.3
		c0.8-1.2,1.5-2.5,2.4-3.8c5,4.8,5.5,10.2,2.3,16.2c1.4,0.9,2.8,1.7,4.1,2.5c1.2,0.7,2.4,1.5,3.3,2.6c0.7,0.8,1,1.7,0.8,2.8
		c-0.4,2.7-2,4.4-4.4,5.4c-2.9,1.2-6.1,1.4-9.2,1.4c-1.8,0-3.6-0.2-5.3-0.3c-0.3,0-0.6,0.2-0.8,0.5
		C123.7,105.4,121.9,107,120.1,108.6z M129.2,115.7c-1.4-0.3-2.6-0.9-3.7-1.8c-1-0.8-1.9-1.7-2.9-2.6c0.9-0.9,1.8-1.7,2.6-2.5
		c0.4-0.4,0.9-0.9,1.2-1.4c0.4-0.7,0.9-0.8,1.7-0.8c2,0.1,4,0.1,6.2,0.2c0.3,1.3,0.9,2.6,1,4C135.5,113.9,132.4,116.4,129.2,115.7z
		 M177.8,108.4c-1.4,1.9-2.9,3.7-4.5,5.5c-2.8,3.1-3.8,6.7-2.8,10.8c0.3,1.1,0.4,2.2,0.4,3.4c0,1.9-0.9,3.4-2.4,4.6
		c-2.2,1.6-4.7,2.9-7.5,2.8c-1,0-2.1-0.2-3.1-0.5c-1.4-0.4-2.1-1.4-2.3-2.8c-0.1-1.1,0-2.3-0.1-3.5c0-0.6-0.1-1.2-0.2-1.7
		c-0.3-1.8-1.3-3-2.9-3.6c-1.8-0.8-3.7-1.5-5.6-2.1c-3.6-1.2-7.2-2.2-10.8-3.4c-0.2-0.1-0.4-0.1-0.7-0.2c3.8-3.2,3.9-7.1,2.2-11.4
		c1.1,0.3,2.1,0.5,3.1,0.8c3.9,1,7.8,1.9,11.6,2.9c4.2,1,7.5-0.2,10.2-3.6c1.1-1.3,2.1-2.6,3.4-3.7c3.6-2.8,8.8-2.1,11.6,1.4
		C178.7,105.3,178.8,107.1,177.8,108.4z"/>
	<path class="st10" d="M128.3,87.1c0.1-0.2,0.1-0.5,0.1-0.8c0.4-3.1,0.9-6.1,1.3-9.2c0.2-1.1,0-1.4-1.1-1.7
		c-2.2-0.7-4.3-1.4-6.5-2.1c-0.8-0.3-0.9-0.3-0.8-1.2c0.3-6,0.7-12,1-18c0.1-1.4-0.2-1.7-1.6-1.9c-3.8-0.5-7.7-1-11.5-1.6
		c-1-0.1-1.4,0.2-1.4,1.3c0,1.2-0.1,2.4-0.2,3.5c-0.3,3.8-0.8,7.5-1.2,11.3c-0.1,0.7-0.3,0.8-1,0.6c-0.2-0.1-0.3-0.1-0.4-0.2
		c-3.1-1.4-6.2-2.8-9.3-4.2c-0.3-0.1-0.6-0.1-0.9-0.2c-0.3,0.3-0.5,0.6-0.7,1c-1.3,2.5-2.5,5-3.8,7.5c-0.9,1.8-0.8,2,0.9,3
		c4.3,2.4,8.6,4.8,12.9,7.1c0.4,0.2,0.8,0.5,0.5,1.1c-0.9,1.9-1.7,3.9-2.6,5.9c-0.8,1.8-0.7,2.3,1.1,3c2.7,1.1,5.3,2.1,8,3.2
		c0.8,0.3,1,0.3,1.3-0.5c1.5-3.3,3.1-6.7,4.6-10.1c0.3-0.7,0.5-0.7,1.3-0.3c0.7,0.4,1.4,0.7,2.2,1c2.2,1,4.4,2,6.6,3
		C127.8,87.9,128.1,87.7,128.3,87.1z"/>
	<path class="st10" d="M84.2,74.7c-1.5-1.4-3.3-2.5-5.2-3.3c-3.9-1.6-7.9-2-12.2-0.6c-4.8,1.9-8.5,5.3-10.4,10.3
		c-1.5,3.8-1.5,7.6,0.5,11.3c2.7,4.9,6.8,8,12.2,9.4c3.2,0.9,6.4,0.7,9.4-1c5.4-3,8.6-7.6,9.9-13.6C89.3,82.3,87.9,78.1,84.2,74.7z"
		/>
	<path class="st13" d="M97.7,99.4c-0.9-0.7-1.8-1.4-2.8-2.1c-0.5,3.5-1,6.9-1.6,10.4l15.4-5.3c-3.3-2.7-6.6-5.4-9.9-8.1
		C98.4,96,98.1,97.7,97.7,99.4z"/>
</g>
</svg>
