<svg id="Capa_1" data-name="Capa 1" xmlns="http://www.w3.org/2000/svg" viewBox="0 0 184.09 163.2"><defs><style>.cls-1{fill:#fff;}.cls-2{fill:#0f0f0f;}</style></defs><path class="cls-1" d="M95.39,121.82c2.57,3,5.1,3.76,8.23,2.57,2.45-.93,4.44-3.94,4.13-6Z"/><path class="cls-1" d="M89.11,122.13a23.33,23.33,0,0,1-6.7-.84c-.64-.18-1.43.45-1.24,1,.59,1.61,1.12,3.25,1.83,4.82a4.41,4.41,0,0,0,4.1,2.65,4.68,4.68,0,0,0,4.55-2.23c1-1.69,1.31-3.66,1.82-5.6l-.72,0C91.54,122,90.32,122.12,89.11,122.13Z"/><path class="cls-1" d="M37.34,80.35a4.06,4.06,0,0,0-3-3,9.59,9.59,0,0,1-7-7.14,49.8,49.8,0,0,0-2-6.45c-1.69-4.19-5.11-6.24-9.77-6.32a3.77,3.77,0,0,0-4,3.12,13.22,13.22,0,0,0-.26,3.56c.06,1.57.37,3.13.45,4.71.15,2.83-.41,5.51-2.51,7.56a14.4,14.4,0,0,0-3,4.47c-1,2.25-1.28,4.55.07,6.79A11.14,11.14,0,0,0,11.25,92a4.62,4.62,0,0,0,5.24-.52,6.62,6.62,0,0,0,1.94-3.12,16.51,16.51,0,0,1,1.06-2.62,4.9,4.9,0,0,1,4.78-2.5,13.18,13.18,0,0,1,2.43.45c3.87,1.17,7.73,2.37,11.6,3.56l3.08.94c-.17-.28-.27-.47-.39-.65A32.51,32.51,0,0,1,37.34,80.35Z"/><path class="cls-1" d="M57.51,119.6,57,120c-3,2.94-6,5.91-9.05,8.83a8.53,8.53,0,0,1-5.57,2.49,11,11,0,0,1-5.4-1.42,10.52,10.52,0,0,0-9.87,0,11,11,0,0,0-5.92,7.68,6.26,6.26,0,0,0,6.48,7.83,27.14,27.14,0,0,1,3.12.14,4.44,4.44,0,0,1,3.71,2.21,16.85,16.85,0,0,1,1,2.31,17,17,0,0,0,4.06,6.32,5,5,0,0,0,4.49,1.22,39.94,39.94,0,0,0,5.24-1.57,11.28,11.28,0,0,0,3-1.78,4.77,4.77,0,0,0,1.21-6.06,21.75,21.75,0,0,0-2.44-3.15c-1.31-1.51-2-3.18-1.15-5.13a7.42,7.42,0,0,1,1.39-2.15c1.67-1.77,3.42-3.47,5.16-5.19,1.57-1.55,3.17-3.08,4.8-4.66A7.48,7.48,0,0,1,57.51,119.6Z"/><path class="cls-1" d="M137.32,50c.23,1.13.4,2.27.61,3.45l.4-.34c1.46-1.42,2.91-2.86,4.38-4.27,3.7-3.57,7.39-7.13,11.11-10.68a7.49,7.49,0,0,1,5.63-2.4,8.91,8.91,0,0,1,4.13,1.5,5.13,5.13,0,0,0,5.68,0,6.93,6.93,0,0,0,2.6-3.38,11.72,11.72,0,0,0,.14-8.33,6.09,6.09,0,0,0-3.76-4,13.26,13.26,0,0,0-2.78-.74c-4-.65-6.5-2.95-8-6.6-1-2.37-2.16-4.68-3.32-7a2.88,2.88,0,0,0-3-1.66,9.42,9.42,0,0,0-2.32.54,9.06,9.06,0,0,0-6.35,8.7,25.94,25.94,0,0,0,.72,4.85c.3,1.51.87,3,1.06,4.49a9.84,9.84,0,0,1-3.1,8.3c-2.2,2.28-4.41,4.53-6.66,6.75a1,1,0,0,0-.21,1.33A41,41,0,0,1,137.32,50Z"/><path class="cls-1" d="M134.2,105.78c-2.19,0-4.19,0-6.18-.17a1.61,1.61,0,0,0-1.72.79,8.13,8.13,0,0,1-1.2,1.42c-.81.82-1.66,1.61-2.58,2.5,1,.89,1.93,1.79,2.93,2.61a9.05,9.05,0,0,0,3.74,1.84,4.81,4.81,0,0,0,6-5A26.51,26.51,0,0,0,134.2,105.78Z"/><path class="cls-1" d="M166.07,101.76a22.1,22.1,0,0,0-3.43,3.66c-2.68,3.34-6,4.59-10.21,3.55l-11.65-2.89-3.09-.78c1.7,4.33,1.58,8.23-2.22,11.44l.71.22c3.59,1.12,7.2,2.2,10.78,3.36,1.9.61,3.78,1.3,5.62,2.08a4.56,4.56,0,0,1,2.9,3.64,12.51,12.51,0,0,1,.17,1.73c0,1.15-.05,2.32.07,3.47A3,3,0,0,0,158,134a10.88,10.88,0,0,0,10.62-2.28,5.56,5.56,0,0,0,2.39-4.56,13.14,13.14,0,0,0-.43-3.37A11,11,0,0,1,173.31,113c1.57-1.76,3-3.62,4.46-5.49a3.49,3.49,0,0,0-.07-4.32A8.38,8.38,0,0,0,166.07,101.76Z"/><path class="cls-1" d="M125.51,101.87c1.78.15,3.56.32,5.34.35a22.14,22.14,0,0,0,9.19-1.36,6.79,6.79,0,0,0,4.44-5.39,3.25,3.25,0,0,0-.83-2.77,13.74,13.74,0,0,0-3.29-2.59l-4.12-2.54c3.2-5.93,2.76-11.33-2.26-16.16-.81,1.28-1.58,2.51-2.35,3.75a50.71,50.71,0,0,0,2.09-9.31,38.06,38.06,0,0,0-25.06-40.94c-11.11-4.16-22.32-4.06-33.56-.58A51.66,51.66,0,0,0,61.31,31C53.26,36.44,47,43.45,43.41,52.54a36.89,36.89,0,0,0,2.05,32.91A39.86,39.86,0,0,0,59,99.76c.16.1.31.21.46.32l-.06.09-4-1.46a12.28,12.28,0,0,0,.08,5.55,11.7,11.7,0,0,0,5.89,7.4l2.15,1.17c-.48,1.27-1,2.47-1.39,3.71a37.42,37.42,0,0,0-1.22,4.5,3.32,3.32,0,0,0,1.37,3.32,6.56,6.56,0,0,0,4.92,1.49,13.44,13.44,0,0,0,5.38-1.93,41.93,41.93,0,0,0,8.19-6.52.79.79,0,0,1,1-.17,20.3,20.3,0,0,0,3.54,1.07,33.07,33.07,0,0,0,13.49-1,79.88,79.88,0,0,0,11-3.69,40.18,40.18,0,0,0,10.35-6,16,16,0,0,0,4.61-5.3A.81.81,0,0,1,125.51,101.87ZM88.31,86.34A19.26,19.26,0,0,1,78.43,99.9a12.26,12.26,0,0,1-9.38.95,18.72,18.72,0,0,1-12.19-9.38,13,13,0,0,1-.51-11.26A17.46,17.46,0,0,1,66.78,69.88,16.92,16.92,0,0,1,79,70.49a17.58,17.58,0,0,1,5.17,3.3A12.7,12.7,0,0,1,88.31,86.34Zm5,20.49c.52-3.47,1-6.87,1.55-10.38l2.78,2.07c.4-1.74.79-3.4,1.21-5.17l9.88,8.13ZM120.7,83.71c-.73-.32-1.47-.67-2.18-1s-1-.39-1.35.32L112.58,93c-.36.79-.54.84-1.35.52-2.66-1-5.33-2.09-8-3.16-1.82-.73-2-1.23-1.1-3,.92-1.94,1.74-3.91,2.63-5.86.28-.6-.07-.82-.5-1.07-4.32-2.37-8.62-4.76-12.93-7.13-1.75-1-1.82-1.2-.91-3,1.26-2.48,2.5-5,3.76-7.45a8.45,8.45,0,0,1,.71-1,6.59,6.59,0,0,1,.94.22l9.31,4.18.44.2c.67.28.94.15,1-.56.44-3.76.9-7.52,1.2-11.29.09-1.18.12-2.36.16-3.54s.39-1.47,1.42-1.33l11.47,1.55c1.38.19,1.63.5,1.56,1.87l-1,18c0,.89,0,.92.81,1.19l6.46,2.09c1.07.34,1.23.61,1.07,1.71-.45,3.07-.89,6.13-1.34,9.2,0,.26-.08.51-.14.77-.14.59-.44.76-1,.51C125.07,85.74,122.9,84.69,120.7,83.71Z"/><path class="cls-2" d="M169.14,94.67a13.64,13.64,0,0,0-8.79,5.07c-.62.73-1.22,1.48-1.91,2.15a6,6,0,0,1-5.63,1.68c-2.52-.54-5-1.28-7.44-1.92.62-1,1.31-2,1.8-3a7.55,7.55,0,0,0,.25-6.56,8.94,8.94,0,0,0-3.11-3.59c-1.13-.82-2.32-1.56-3.49-2.34.25-1,.57-2.06.75-3.12a15,15,0,0,0-4.37-13.38,1.19,1.19,0,0,1-.34-1.21c.42-2.3.77-4.61,1.16-6.91a1.7,1.7,0,0,1,.39-.82q9.1-9,18.23-17.9a3.46,3.46,0,0,1,4.59-.64,11,11,0,0,0,15.55-5.94,17.47,17.47,0,0,0,.62-11.5.94.94,0,0,1,0-.29L177,23.32c-.45-.84-.86-1.7-1.36-2.51a10.55,10.55,0,0,0-7.17-4.88A13.51,13.51,0,0,1,165,14.76a7.23,7.23,0,0,1-3.54-4.91A16.51,16.51,0,0,0,158,3.23C155.13,0,151.64-.83,147.57.87a20.93,20.93,0,0,0-7.45,5.24A12.65,12.65,0,0,0,137,16.57a28.36,28.36,0,0,0,1.5,6.17,5.09,5.09,0,0,1-.84,5.24c-1.31,1.58-2.47,3.3-3.79,4.87a23.75,23.75,0,0,1-2.44,2.23c-.77-1.08-1.43-2.06-2.13-3a46.5,46.5,0,0,0-16.41-13.75,52.56,52.56,0,0,0-33.77-4.86c-1.79.32-3.55.8-5.32,1.2h0a7.31,7.31,0,0,0-1,.25l-4.6,1.59a12.14,12.14,0,0,0-1.34.55l-1.28.6a53.3,53.3,0,0,0-25.16,22.9,46.87,46.87,0,0,0-6.18,23.72c0,2.41.39,4.81.6,7.22a1.47,1.47,0,0,1,0,.71L33.17,69.6A16.52,16.52,0,0,1,31.51,65c-1-3.73-2.61-7.1-5.68-9.52a14.68,14.68,0,0,0-13.16-2.93C8.87,53.5,6.79,56.21,6,60a19.19,19.19,0,0,0,.12,6.8,7.78,7.78,0,0,1-.47,5.1,10,10,0,0,1-1.1,1.56,20.56,20.56,0,0,0-4.15,8A11.51,11.51,0,0,0,2,90.94a16.31,16.31,0,0,0,7.21,6.22,9.62,9.62,0,0,0,11.94-3c1.22-1.53,2.31-3.17,3.43-4.78a.68.68,0,0,1,.93-.3q10.13,3.14,20.26,6.23c.63.19,1.28.33,1.91.51a1.42,1.42,0,0,1,.47.25c1,.86,2.1,1.72,3.12,2.62a1.13,1.13,0,0,1,.35.8A15.21,15.21,0,0,0,57,112.89h0q-6.07,5.77-12.12,11.54a4.07,4.07,0,0,1-5,.78,18.18,18.18,0,0,0-7-1.92,16.73,16.73,0,0,0-17.06,12.92,12.39,12.39,0,0,0-.06,5.18,2,2,0,0,1,0,.35c.31.91.63,1.81.94,2.72.45.68.85,1.4,1.35,2a10.27,10.27,0,0,0,7.74,4.14l.53,0a5.78,5.78,0,0,1,5.33,4,14.76,14.76,0,0,0,5.43,6.79A11,11,0,0,0,45.55,163a24,24,0,0,0,10.2-4.45,9.48,9.48,0,0,0,3.38-11,17.72,17.72,0,0,0-3.28-5.68l-.41-.5L59,137.89c2.77-2.69,5.55-5.36,8.31-8.06a2.08,2.08,0,0,1,1.18-.61,20.24,20.24,0,0,0,8-3.62l1.69-1.18c.35,1,.67,2,1,2.94a10,10,0,0,0,2.39,3.7c3.68,3.63,11.24,3,13.73-2.87.18-.4.33-.81.52-1.26l1.44.71A10,10,0,0,0,111,120.33c.21-1,.34-2.1.46-3.15a.84.84,0,0,1,.51-.66c.8-.34,1.57-.75,2.38-1.09a1.26,1.26,0,0,1,.79,0c6.1,2,12.19,4.06,18.29,6.07,4.7,1.55,9.4,3.07,14.1,4.6a7.39,7.39,0,0,1,1.18.46,2.81,2.81,0,0,1,1.47,2.41c.05,1,0,2,.12,3a9,9,0,0,0,8,7.81,17.46,17.46,0,0,0,6.79-.39,2.32,2.32,0,0,1,.46,0l2.16-.75c.82-.44,1.66-.85,2.46-1.33,4.83-2.93,6.76-7.18,5.89-12.76a17.92,17.92,0,0,1-.19-3.11A8.41,8.41,0,0,1,178,116q1.71-2,3.38-4a11.83,11.83,0,0,0,2.24-3.95,8,8,0,0,0-1.46-8C178.77,96,174.44,94,169.14,94.67ZM134.5,39.21c2.25-2.22,4.46-4.47,6.66-6.75a9.84,9.84,0,0,0,3.1-8.3c-.19-1.52-.76-3-1.06-4.49a25.94,25.94,0,0,1-.72-4.85,9.06,9.06,0,0,1,6.35-8.7,9.42,9.42,0,0,1,2.32-.54,2.88,2.88,0,0,1,3,1.66c1.16,2.31,2.32,4.62,3.32,7,1.53,3.65,4.07,5.95,8,6.6a13.26,13.26,0,0,1,2.78.74,6.09,6.09,0,0,1,3.76,4,11.72,11.72,0,0,1-.14,8.33,6.93,6.93,0,0,1-2.6,3.38,5.13,5.13,0,0,1-5.68,0,8.91,8.91,0,0,0-4.13-1.5,7.49,7.49,0,0,0-5.63,2.4c-3.72,3.55-7.41,7.11-11.11,10.68-1.47,1.41-2.92,2.85-4.38,4.27l-.4.34c-.21-1.18-.38-2.32-.61-3.45a41,41,0,0,0-3-9.47A1,1,0,0,1,134.5,39.21ZM38.3,87.26c-3.87-1.19-7.73-2.39-11.6-3.56a13.18,13.18,0,0,0-2.43-.45,4.9,4.9,0,0,0-4.78,2.5,16.51,16.51,0,0,0-1.06,2.62,6.62,6.62,0,0,1-1.94,3.12,4.62,4.62,0,0,1-5.24.52,11.14,11.14,0,0,1-4.86-4.33C5,85.44,5.31,83.14,6.32,80.89a14.4,14.4,0,0,1,3-4.47c2.1-2,2.66-4.73,2.51-7.56-.08-1.58-.39-3.14-.45-4.71a13.22,13.22,0,0,1,.26-3.56,3.77,3.77,0,0,1,4-3.12c4.66.08,8.08,2.13,9.77,6.32a49.8,49.8,0,0,1,2,6.45,9.59,9.59,0,0,0,7,7.14,4.06,4.06,0,0,1,3,3A32.51,32.51,0,0,0,41,87.55c.12.18.22.37.39.65Zm18.2,45.37c-1.74,1.72-3.49,3.42-5.16,5.19A7.42,7.42,0,0,0,50,140c-.83,1.95-.16,3.62,1.15,5.13a21.75,21.75,0,0,1,2.44,3.15,4.77,4.77,0,0,1-1.21,6.06,11.28,11.28,0,0,1-3,1.78,39.94,39.94,0,0,1-5.24,1.57,5,5,0,0,1-4.49-1.22,17,17,0,0,1-4.06-6.32,16.85,16.85,0,0,0-1-2.31,4.44,4.44,0,0,0-3.71-2.21,27.14,27.14,0,0,0-3.12-.14,6.26,6.26,0,0,1-6.48-7.83A11,11,0,0,1,27.14,130a10.52,10.52,0,0,1,9.87,0,11,11,0,0,0,5.4,1.42A8.53,8.53,0,0,0,48,128.86C51,125.94,54,123,57,120l.48-.43A7.48,7.48,0,0,0,61.3,128C59.67,129.55,58.07,131.08,56.5,132.63Zm35.15-5.11a4.68,4.68,0,0,1-4.55,2.23A4.41,4.41,0,0,1,83,127.1c-.71-1.57-1.24-3.21-1.83-4.82-.19-.54.6-1.17,1.24-1a23.33,23.33,0,0,0,6.7.84c1.21,0,2.43-.11,3.64-.17l.72,0C93,123.86,92.7,125.83,91.65,127.52Zm12-3.13c-3.13,1.19-5.66.4-8.23-2.57l12.36-3.46C108.06,120.45,106.07,123.46,103.62,124.39Zm16.49-16.74a40.18,40.18,0,0,1-10.35,6,79.88,79.88,0,0,1-11,3.69,33.07,33.07,0,0,1-13.49,1,20.3,20.3,0,0,1-3.54-1.07.79.79,0,0,0-1,.17,41.93,41.93,0,0,1-8.19,6.52,13.44,13.44,0,0,1-5.38,1.93,6.56,6.56,0,0,1-4.92-1.49A3.32,3.32,0,0,1,60.91,121a37.42,37.42,0,0,1,1.22-4.5c.4-1.24.91-2.44,1.39-3.71l-2.15-1.17a11.7,11.7,0,0,1-5.89-7.4,12.28,12.28,0,0,1-.08-5.55l4,1.46.06-.09c-.15-.11-.3-.22-.46-.32A39.86,39.86,0,0,1,45.46,85.45a36.89,36.89,0,0,1-2.05-32.91C47,43.45,53.26,36.44,61.31,31A51.66,51.66,0,0,1,75.1,24.33c11.24-3.48,22.45-3.58,33.56.58a38.06,38.06,0,0,1,25.06,40.94,50.71,50.71,0,0,1-2.09,9.31c.77-1.24,1.54-2.47,2.35-3.75,5,4.83,5.46,10.23,2.26,16.16l4.12,2.54a13.74,13.74,0,0,1,3.29,2.59,3.25,3.25,0,0,1,.83,2.77,6.79,6.79,0,0,1-4.44,5.39,22.14,22.14,0,0,1-9.19,1.36c-1.78,0-3.56-.2-5.34-.35a.81.81,0,0,0-.79.48A16,16,0,0,1,120.11,107.65Zm9.08,7.12a9.05,9.05,0,0,1-3.74-1.84c-1-.82-1.94-1.72-2.93-2.61.92-.89,1.77-1.68,2.58-2.5a8.13,8.13,0,0,0,1.2-1.42,1.61,1.61,0,0,1,1.72-.79c2,.13,4,.12,6.18.17a26.51,26.51,0,0,1,1,4A4.81,4.81,0,0,1,129.19,114.77Zm48.58-7.26c-1.43,1.87-2.89,3.73-4.46,5.49a11,11,0,0,0-2.75,10.77,13.14,13.14,0,0,1,.43,3.37,5.56,5.56,0,0,1-2.39,4.56A10.88,10.88,0,0,1,158,134a3,3,0,0,1-2.26-2.74c-.12-1.15,0-2.32-.07-3.47a12.51,12.51,0,0,0-.17-1.73,4.56,4.56,0,0,0-2.9-3.64c-1.84-.78-3.72-1.47-5.62-2.08-3.58-1.16-7.19-2.24-10.78-3.36l-.71-.22c3.8-3.21,3.92-7.11,2.22-11.44l3.09.78L152.43,109c4.17,1,7.53-.21,10.21-3.55a22.1,22.1,0,0,1,3.43-3.66,8.38,8.38,0,0,1,11.63,1.43A3.49,3.49,0,0,1,177.77,107.51Z"/><path class="cls-2" d="M128.27,86.22c.06-.26.1-.51.14-.77.45-3.07.89-6.13,1.34-9.2.16-1.1,0-1.37-1.07-1.71l-6.46-2.09c-.84-.27-.86-.3-.81-1.19l1-18c.07-1.37-.18-1.68-1.56-1.87L109.4,49.82c-1-.14-1.38.19-1.42,1.33s-.07,2.36-.16,3.54c-.3,3.77-.76,7.53-1.2,11.29-.08.71-.35.84-1,.56l-.44-.2-9.31-4.18a6.59,6.59,0,0,0-.94-.22,8.45,8.45,0,0,0-.71,1c-1.26,2.48-2.5,5-3.76,7.45-.91,1.79-.84,2,.91,3,4.31,2.37,8.61,4.76,12.93,7.13.43.25.78.47.5,1.07-.89,1.95-1.71,3.92-2.63,5.86-.85,1.77-.72,2.27,1.1,3,2.65,1.07,5.32,2.11,8,3.16.81.32,1,.27,1.35-.52L117.17,83c.32-.71.54-.74,1.35-.32s1.45.72,2.18,1c2.2,1,4.37,2,6.56,3C127.83,87,128.13,86.81,128.27,86.22Z"/><path class="cls-2" d="M84.18,73.79A17.58,17.58,0,0,0,79,70.49a16.92,16.92,0,0,0-12.23-.61A17.46,17.46,0,0,0,56.35,80.21a13,13,0,0,0,.51,11.26,18.72,18.72,0,0,0,12.19,9.38,12.26,12.26,0,0,0,9.38-.95,19.26,19.26,0,0,0,9.88-13.56A12.7,12.7,0,0,0,84.18,73.79Z"/><path class="cls-2" d="M97.65,98.52l-2.78-2.07c-.52,3.51-1,6.91-1.55,10.38l15.42-5.35-9.88-8.13C98.44,95.12,98.05,96.78,97.65,98.52Z"/></svg>