<?xml version="1.0" encoding="utf-8"?>
<!-- Generator: Adobe Illustrator 25.4.1, SVG Export Plug-In . SVG Version: 6.00 Build 0)  -->
<svg version="1.1" id="Capa_1" xmlns="http://www.w3.org/2000/svg" xmlns:xlink="http://www.w3.org/1999/xlink" x="0px" y="0px"
	 viewBox="0 0 184.1 163.2" style="enable-background:new 0 0 184.1 163.2;" xml:space="preserve">
<style type="text/css">
	.st0{fill:none;}
	.st1{fill:#FFFFFF;}
	.st2{fill:#0F0F0F;}
</style>
<g>
	<path class="st0" d="M125.5,101.9C125.5,101.9,125.5,101.9,125.5,101.9c1.8,0.2,3.6,0.3,5.3,0.4c0.4,0,0.8,0,1.2,0
		c-0.4,0-0.8,0-1.2,0C129.1,102.2,127.3,102,125.5,101.9z"/>
	<path class="st0" d="M59,99.7c-5.7-3.7-10.3-8.4-13.6-14.3c-5.9-10.6-6.5-21.6-2-32.9C47,43.4,53.3,36.4,61.3,31
		c4.3-2.9,8.9-5.1,13.8-6.7c1.2-0.4,2.4-0.7,3.6-1c-1.2,0.3-2.4,0.6-3.6,1c-4.9,1.5-9.5,3.8-13.8,6.7c-8,5.5-14.3,12.5-17.9,21.6
		c-4.5,11.3-3.8,22.3,2.1,32.9C48.7,91.4,53.4,96.1,59,99.7c0.1,0.1,0.3,0.2,0.4,0.3l0,0C59.3,100,59.2,99.9,59,99.7z"/>
	<path class="st0" d="M134,71.4C134,71.4,134,71.4,134,71.4c-0.8,1.3-1.6,2.5-2.3,3.7c0,0,0,0,0,0C132.4,73.9,133.2,72.7,134,71.4z"
		/>
	<path class="st0" d="M103.6,124.4c2.5-0.9,4.4-3.9,4.1-6C108,120.4,106.1,123.5,103.6,124.4z"/>
	<path class="st0" d="M91.7,127.5c-1,1.7-2.6,2.3-4.5,2.2c-1.9-0.1-3.3-0.9-4.1-2.6c-0.1-0.3-0.3-0.6-0.4-0.9
		c0.1,0.3,0.2,0.6,0.4,0.9c0.8,1.7,2.2,2.6,4.1,2.6C89,129.8,90.6,129.2,91.7,127.5c1-1.7,1.3-3.7,1.8-5.6c0,0,0,0,0,0
		C93,123.9,92.7,125.8,91.7,127.5z"/>
	<path class="st0" d="M94.9,96.4c-0.5,3.5-1,6.9-1.6,10.4l0,0C93.8,103.4,94.3,100,94.9,96.4C94.9,96.5,94.9,96.5,94.9,96.4z"/>
	<path class="st0" d="M61.4,111.7c-3-1.7-5-4.1-5.9-7.4c-0.2-0.8-0.3-1.9-0.4-2.9c0,1,0.1,2.1,0.4,2.9
		C56.4,107.6,58.4,110,61.4,111.7c0.7,0.4,1.4,0.8,2.2,1.2c0,0,0,0,0,0C62.8,112.4,62.1,112,61.4,111.7z"/>
	<path class="st0" d="M108.5,49.9c0.1-0.1,0.3-0.1,0.5-0.1C108.8,49.8,108.7,49.8,108.5,49.9z"/>
	<path class="st0" d="M106.6,66c0.4-3.8,0.9-7.5,1.2-11.3C107.5,58.4,107,62.2,106.6,66z"/>
	<path class="st0" d="M98.9,93.4C98.9,93.4,98.9,93.4,98.9,93.4c-0.4,1.8-0.8,3.4-1.2,5.1c0,0,0,0,0,0C98,96.8,98.4,95.1,98.9,93.4z
		"/>
	<path class="st0" d="M81.1,122.1c0,0.1,0,0.1,0,0.2c0.1,0.3,0.2,0.5,0.3,0.8c-0.1-0.3-0.2-0.5-0.3-0.8
		C81.1,122.2,81.1,122.1,81.1,122.1z"/>
	<path class="st0" d="M137.3,50c0.2,1.1,0.4,2.3,0.6,3.5c0,0,0,0,0,0C137.7,52.3,137.5,51.1,137.3,50c-0.6-3.3-1.6-6.4-3-9.5
		c-0.2-0.5-0.2-0.9,0.2-1.3c2.2-2.2,4.5-4.5,6.6-6.8c2.2-2.3,3.5-5,3.1-8.3c-0.2-1.5-0.8-3-1.1-4.5c-0.3-1.6-0.7-3.2-0.7-4.8
		c0-4,2.4-7.3,6.4-8.7c0.7-0.3,1.5-0.5,2.3-0.5c0.2,0,0.3,0,0.5,0c-0.2,0-0.3,0-0.5,0c-0.8,0.1-1.6,0.3-2.3,0.5
		c-3.9,1.4-6.4,4.7-6.4,8.7c0,1.6,0.4,3.2,0.7,4.8c0.3,1.5,0.9,3,1.1,4.5c0.4,3.3-0.9,6-3.1,8.3c-2.2,2.3-4.4,4.5-6.7,6.8
		c-0.5,0.5-0.5,0.8-0.2,1.3C135.7,43.6,136.7,46.7,137.3,50z"/>
	<path class="st0" d="M163.6,37.3c-1.3-0.8-2.6-1.4-4.1-1.5c0,0,0,0,0,0C161,35.9,162.3,36.5,163.6,37.3c1.2,0.7,2.3,1,3.5,0.8
		C165.9,38.3,164.7,38,163.6,37.3z"/>
	<path class="st0" d="M57.4,120.9c-0.1,3,1.2,5.3,3.9,7c0,0,0,0,0,0C58.5,126.3,57.2,124,57.4,120.9z"/>
	<path class="st0" d="M166.8,21.1c0,0,0.1,0,0.1,0C166.8,21.1,166.8,21.1,166.8,21.1z"/>
	<path class="st0" d="M35.4,86.4c-2-0.6-3.9-1.2-5.9-1.8C31.5,85.2,33.5,85.8,35.4,86.4z"/>
	<path class="st0" d="M127.3,86.7c-2.2-1-4.4-2-6.6-3C122.9,84.7,125.1,85.7,127.3,86.7z"/>
	<path class="st0" d="M19.5,85.7c-0.5,0.8-0.8,1.7-1.1,2.6c-0.4,1.2-0.9,2.3-1.9,3.1c-1,0.8-2.1,1.2-3.2,1.1
		c1.1,0.1,2.2-0.3,3.2-1.1c1-0.8,1.5-1.9,1.9-3.1C18.7,87.5,19,86.6,19.5,85.7c0.7-1.3,2-2.2,3.4-2.4C21.4,83.6,20.2,84.5,19.5,85.7
		z"/>
	<path class="st0" d="M27.1,129.9c3.3-1.7,6.6-1.6,9.9,0c1.7,0.8,3.4,1.5,5.4,1.4c2.2-0.1,4-1,5.6-2.5c3.1-2.9,6-5.9,9.1-8.8
		c0.1-0.1,0.3-0.2,0.5-0.4c0,0,0,0,0,0c-0.2,0.2-0.4,0.3-0.5,0.4c-3,2.9-6,5.9-9.1,8.8c-1.5,1.5-3.4,2.4-5.6,2.5
		c-1.9,0.1-3.7-0.6-5.4-1.4C33.7,128.3,30.4,128.2,27.1,129.9c-3.1,1.6-5.2,4.2-5.9,7.7c-0.1,0.5-0.2,1-0.2,1.5c0-0.5,0.1-1,0.2-1.5
		C21.9,134.2,24,131.6,27.1,129.9z"/>
	<path class="st0" d="M51.1,145.1c0.9,1,1.8,2,2.4,3.1c0.4,0.8,0.6,1.6,0.6,2.4c0-0.8-0.2-1.7-0.6-2.4
		C52.9,147.1,52,146.1,51.1,145.1c-1-1.2-1.6-2.4-1.5-3.7C49.5,142.8,50.1,144,51.1,145.1z"/>
	<path class="st0" d="M37.3,80.4c-0.5-1.6-1.3-2.5-3-3c-3.6-1-6-3.5-7-7.1c-0.5-2.2-1.2-4.3-2-6.4c-1.7-4.2-5.1-6.2-9.8-6.3
		c0,0,0,0,0,0c4.7,0.1,8.1,2.1,9.8,6.3c0.8,2.1,1.5,4.2,2,6.5c0.9,3.7,3.4,6.1,7,7.1C36,77.9,36.8,78.7,37.3,80.4
		c0.9,2.5,2.2,4.9,3.6,7.2c0.1,0.2,0.2,0.4,0.4,0.7c-0.1,0-0.1,0-0.2-0.1c0.1,0,0.2,0,0.2,0.1c-0.2-0.3-0.3-0.5-0.4-0.7
		C39.5,85.3,38.2,82.9,37.3,80.4z"/>
	<path class="st0" d="M127.3,86.7c0.6,0.3,0.9,0.1,1-0.5C128.1,86.8,127.8,87,127.3,86.7z"/>
	<path class="st0" d="M134.2,105.8c0.3,1.3,0.9,2.6,1,4C135.1,108.4,134.5,107,134.2,105.8z"/>
	<path class="st0" d="M133.9,113.4c-0.3,0.3-0.5,0.5-0.8,0.7C133.4,113.9,133.7,113.7,133.9,113.4z"/>
	<path class="st0" d="M125.1,107.8c0.4-0.4,0.9-0.9,1.2-1.4C126,106.9,125.5,107.4,125.1,107.8z"/>
	<path class="st0" d="M120.1,107.6c-3.1,2.6-6.6,4.5-10.3,6c-3.6,1.5-7.2,2.8-11,3.7c-4.4,1.1-8.9,1.7-13.5,1
		c-1.2-0.2-2.4-0.7-3.5-1.1c-0.4-0.2-0.7-0.2-1,0.2c-2.5,2.5-5.1,4.8-8.2,6.5c-1.7,1-3.4,1.7-5.4,1.9c-1.8,0.2-3.5-0.3-4.9-1.5
		c-0.9-0.7-1.5-1.7-1.4-2.8c-0.1,1.1,0.5,2.1,1.4,2.8c1.4,1.2,3.1,1.7,4.9,1.5c1.9-0.2,3.7-1,5.4-1.9c3-1.8,5.7-4.1,8.2-6.5
		c0.3-0.3,0.6-0.3,1-0.2c1.2,0.4,2.3,0.9,3.5,1.1c4.6,0.7,9,0.1,13.5-1c3.8-0.9,7.4-2.2,11-3.7C113.5,112.1,117,110.2,120.1,107.6
		c1.6-1.3,3.1-2.7,4.2-4.5C123.2,104.9,121.7,106.3,120.1,107.6z"/>
	<path class="st0" d="M135.2,110.4c0,0.4-0.1,0.8-0.2,1.1C135.1,111.2,135.2,110.8,135.2,110.4z"/>
	<path class="st0" d="M128,105.6c-0.8-0.1-1.3,0.1-1.7,0.8C126.7,105.7,127.2,105.6,128,105.6z"/>
	<path class="st0" d="M155.7,131.2c-0.1-1.1,0-2.3-0.1-3.5c0-0.6-0.1-1.2-0.2-1.7c-0.1-0.4-0.2-0.9-0.4-1.2c0.2,0.4,0.3,0.8,0.3,1.2
		c0.1,0.6,0.1,1.1,0.2,1.7C155.7,128.9,155.6,130.1,155.7,131.2c0,0.5,0.2,1,0.4,1.4C155.9,132.2,155.8,131.8,155.7,131.2z"/>
	<path class="st0" d="M137.7,105.3c1.1,0.3,2.1,0.5,3.1,0.8c3.9,1,7.8,1.9,11.6,2.9c4.2,1,7.5-0.2,10.2-3.6c1-1.3,2.1-2.6,3.4-3.7
		c3.6-2.8,8.8-2.1,11.6,1.5c0.1,0.2,0.2,0.3,0.3,0.5c-0.1-0.2-0.2-0.4-0.4-0.5c-2.9-3.5-8.1-4.2-11.6-1.4c-1.3,1-2.4,2.4-3.4,3.7
		c-2.7,3.3-6,4.6-10.2,3.6c-3.9-1-7.8-1.9-11.6-2.9C139.8,105.8,138.8,105.6,137.7,105.3c1.7,4.3,1.6,8.2-2.2,11.4c0,0,0,0,0,0
		C139.3,113.5,139.4,109.6,137.7,105.3z"/>
	<path class="st0" d="M135,111.5c-0.1,0.4-0.3,0.7-0.4,1C134.8,112.2,134.9,111.9,135,111.5z"/>
	<path class="st0" d="M56.9,91.5c-2-3.6-2-7.5-0.5-11.3c2-5.1,5.6-8.5,10.4-10.3c4.3-1.4,8.3-1,12.2,0.6c1.9,0.8,3.7,1.9,5.2,3.3
		c0.2,0.2,0.4,0.4,0.7,0.6c-0.2-0.2-0.4-0.4-0.7-0.7c-1.5-1.4-3.3-2.5-5.2-3.3c-3.9-1.6-7.9-2-12.2-0.6c-4.8,1.9-8.5,5.3-10.4,10.3
		C54.9,84,54.9,87.8,56.9,91.5c1.5,2.8,3.5,4.9,5.9,6.5C60.3,96.4,58.4,94.2,56.9,91.5z"/>
	<path class="st0" d="M111.9,93.7c0.3,0,0.4-0.2,0.7-0.7C112.4,93.5,112.2,93.7,111.9,93.7z"/>
	<path class="st0" d="M121.4,71.6c0-0.1,0-0.2,0-0.3C121.4,71.4,121.4,71.5,121.4,71.6z"/>
	<path class="st0" d="M102.2,87.4c0.9-1.9,1.8-3.9,2.6-5.9C103.9,83.5,103.1,85.5,102.2,87.4z"/>
	<path class="st0" d="M129.8,75.6c0-0.6-0.3-0.8-1.1-1C129.5,74.8,129.8,75,129.8,75.6z"/>
	<path class="st0" d="M104.3,80.5c0.3,0.2,0.6,0.4,0.6,0.7C104.9,80.8,104.6,80.7,104.3,80.5z"/>
	<path class="st1" d="M107.8,118.4c-4.1,1.2-8.3,2.3-12.4,3.5c2.6,3,5.1,3.8,8.2,2.6C106.1,123.5,108,120.4,107.8,118.4z"/>
	<path class="st1" d="M87.1,129.7c1.9,0.1,3.5-0.5,4.5-2.2c1-1.7,1.3-3.6,1.8-5.6c-0.3,0-0.5,0-0.7,0c-1.2,0.1-2.4,0.2-3.7,0.2
		c-2.3,0-4.5-0.2-6.7-0.8c-0.6-0.2-1.2,0.3-1.3,0.8c0,0.1,0,0.1,0,0.2c0.1,0.3,0.2,0.5,0.3,0.8c0.4,1.1,0.8,2.1,1.2,3.2
		c0.1,0.3,0.2,0.6,0.4,0.9C83.8,128.8,85.2,129.7,87.1,129.7z"/>
	<path class="st1" d="M41,87.5c-1.5-2.3-2.8-4.6-3.6-7.2c-0.5-1.6-1.3-2.5-3-3c-3.6-1.1-6-3.5-7-7.1c-0.5-2.2-1.2-4.3-2-6.5
		c-1.7-4.2-5.1-6.2-9.8-6.3c-2,0-3.5,1.1-3.9,3.1c-0.3,1.2-0.3,2.4-0.3,3.6c0.1,1.6,0.4,3.1,0.5,4.7c0.2,2.8-0.4,5.5-2.5,7.6
		c-1.3,1.3-2.2,2.8-3,4.5c-1,2.3-1.3,4.6,0.1,6.8c1.2,1.9,2.8,3.4,4.9,4.3c0.7,0.3,1.4,0.5,2,0.6c1.1,0.1,2.2-0.3,3.2-1.1
		c1-0.8,1.5-1.9,1.9-3.1c0.3-0.9,0.6-1.8,1.1-2.6c0.7-1.3,2-2.2,3.4-2.4c0.5-0.1,1-0.1,1.4-0.1c0.8,0.1,1.6,0.2,2.4,0.5
		c1,0.3,1.9,0.6,2.9,0.9c2,0.6,3.9,1.2,5.9,1.8c1,0.3,1.9,0.6,2.9,0.9c0.9,0.3,1.8,0.6,2.9,0.9c0.1,0,0.1,0,0.2,0.1
		C41.2,87.9,41.1,87.7,41,87.5z"/>
	<path class="st1" d="M57.4,120.9c0-0.4,0.1-0.9,0.1-1.3c-0.2,0.2-0.3,0.3-0.5,0.4c-3,2.9-6,5.9-9.1,8.8c-1.5,1.5-3.4,2.4-5.6,2.5
		c-2,0.1-3.7-0.6-5.4-1.4c-3.3-1.6-6.6-1.7-9.9,0c-3.1,1.6-5.2,4.2-5.9,7.7c-0.1,0.5-0.2,1-0.2,1.5c0,3.4,2.4,6.5,6.6,6.4
		c1,0,2.1,0,3.1,0.1c1.6,0.1,2.9,0.8,3.7,2.2c0.4,0.7,0.7,1.5,1,2.3c0.9,2.4,2.2,4.6,4.1,6.3c1.2,1.1,2.9,1.6,4.5,1.2
		c1.8-0.4,3.5-0.9,5.2-1.6c1.1-0.4,2.1-1,3-1.8c1.1-0.9,1.8-2.3,1.8-3.6c0-0.8-0.2-1.7-0.6-2.4c-0.7-1.1-1.6-2.1-2.4-3.1
		c-1-1.1-1.6-2.4-1.5-3.7c0-0.5,0.1-0.9,0.4-1.4c0.3-0.8,0.8-1.5,1.4-2.2c1.7-1.8,3.4-3.5,5.1-5.2c1.6-1.5,3.2-3.1,4.8-4.7
		C58.5,126.3,57.2,124,57.4,120.9z"/>
	<path class="st1" d="M148.8,6.1c-3.9,1.4-6.4,4.7-6.4,8.7c0,1.6,0.4,3.2,0.7,4.8c0.3,1.5,0.9,3,1.1,4.5c0.4,3.3-0.9,6-3.1,8.3
		c-2.2,2.3-4.4,4.5-6.6,6.8c-0.5,0.5-0.5,0.8-0.2,1.3c1.4,3,2.4,6.2,3,9.5c0.2,1.1,0.4,2.3,0.6,3.4c0.2-0.1,0.3-0.2,0.4-0.3
		c1.5-1.4,2.9-2.9,4.4-4.3c3.7-3.6,7.4-7.1,11.1-10.7c1.6-1.5,3.4-2.5,5.6-2.4c0,0,0,0,0,0c0,0,0,0,0,0c1.5,0.1,2.8,0.7,4.1,1.5
		c1.2,0.7,2.4,1,3.5,0.8c0.7-0.1,1.4-0.4,2.1-0.8c1.3-0.8,2-2,2.6-3.4c1.2-2.8,1-5.5,0.1-8.3c-0.6-1.9-1.9-3.3-3.8-4
		c-0.4-0.2-0.9-0.3-1.4-0.4c0,0-0.1,0-0.1,0c-0.4-0.1-0.9-0.2-1.3-0.3c-4-0.7-6.5-3-8-6.6c-1-2.4-2.2-4.7-3.3-7
		c-0.5-1-1.4-1.6-2.5-1.7c-0.2,0-0.3,0-0.5,0C150.4,5.7,149.6,5.9,148.8,6.1z"/>
	<path class="st1" d="M134.2,105.8c-1.6,0-3.2,0-4.7-0.1c-0.5,0-1,0-1.5-0.1c-0.8,0-1.3,0.1-1.7,0.8c-0.3,0.5-0.8,1-1.2,1.4
		c-0.8,0.8-1.7,1.6-2.6,2.5c1,0.9,1.9,1.8,2.9,2.6c1.1,0.9,2.3,1.5,3.7,1.8c1.4,0.3,2.8,0,3.9-0.7c0.3-0.2,0.6-0.4,0.8-0.7
		c0.3-0.3,0.5-0.6,0.7-0.9s0.3-0.6,0.4-1c0.1-0.4,0.2-0.7,0.2-1.1c0-0.2,0-0.4,0-0.6C135.1,108.4,134.5,107,134.2,105.8z"/>
	<path class="st1" d="M155.7,127.8c0,1.2,0,2.3,0.1,3.5c0.1,0.5,0.2,1,0.4,1.4c0.4,0.7,1,1.1,1.8,1.4c1,0.3,2.1,0.5,3.1,0.5
		c2.9,0.1,5.3-1.1,7.5-2.8c1.5-1.1,2.4-2.7,2.4-4.6c0-1.1-0.1-2.3-0.4-3.4c-1.1-4.1,0-7.6,2.8-10.8c1.6-1.8,3-3.6,4.5-5.5
		c0.9-1.1,0.9-2.6,0.3-3.8c-0.1-0.2-0.2-0.3-0.3-0.5c-2.9-3.5-8.1-4.2-11.6-1.5c-1.3,1-2.4,2.4-3.4,3.7c-2.7,3.3-6,4.6-10.2,3.6
		c-3.9-1-7.8-1.9-11.6-2.9c-1-0.2-2-0.5-3.1-0.8c1.7,4.3,1.6,8.2-2.2,11.4c0.3,0.1,0.5,0.2,0.7,0.2c3.6,1.1,7.2,2.2,10.8,3.4
		c1.9,0.6,3.8,1.3,5.6,2.1c1.2,0.5,2.1,1.3,2.6,2.4c0.2,0.4,0.3,0.8,0.4,1.2C155.6,126.6,155.6,127.2,155.7,127.8z"/>
	<path class="st1" d="M62.3,124.4c1.5,1.2,3.1,1.7,4.9,1.5c1.9-0.2,3.7-1,5.4-1.9c3.1-1.8,5.7-4.1,8.2-6.5c0.3-0.3,0.6-0.3,1-0.2
		c1.2,0.4,2.3,0.9,3.5,1.1c4.6,0.7,9,0.1,13.5-1c3.8-0.9,7.4-2.2,11-3.7c3.7-1.5,7.2-3.4,10.3-6c1.6-1.3,3.1-2.7,4.2-4.5
		c0.1-0.3,0.3-0.5,0.4-0.8c0.2-0.3,0.5-0.5,0.8-0.5c0,0,0,0,0,0c0,0,0,0,0,0c1.8,0.2,3.6,0.3,5.3,0.4c0.4,0,0.8,0,1.2,0
		c2.7,0,5.4-0.3,8-1.4c2.4-1,4-2.7,4.4-5.4c0.2-1.1-0.1-2-0.8-2.8c-0.9-1.1-2.1-1.8-3.3-2.6c-1.4-0.8-2.7-1.7-4.1-2.5
		c3.2-5.9,2.8-11.3-2.3-16.2c-0.8,1.3-1.6,2.5-2.3,3.7c0,0,0,0,0,0c0,0,0,0,0,0c1-3.1,1.7-6.1,2.1-9.3c1.1-9.4-0.7-18.1-5.9-26
		c-4.7-7.1-11.2-12-19.1-14.9c-9.9-3.7-19.9-4-29.9-1.6c-1.2,0.3-2.4,0.6-3.6,1c-4.9,1.5-9.5,3.8-13.8,6.7
		c-8,5.5-14.3,12.5-17.9,21.6c-4.5,11.3-3.8,22.3,2,32.9c3.3,5.9,7.9,10.6,13.6,14.3c0.2,0.1,0.3,0.2,0.5,0.3l0,0c0,0,0,0,0,0l0,0.1
		c-1.3-0.5-2.7-1-4-1.5c-0.2,0.6-0.3,1.6-0.3,2.6c0,1,0.1,2.1,0.4,2.9c0.9,3.3,2.9,5.7,5.9,7.4c0.7,0.4,1.4,0.8,2.2,1.2c0,0,0,0,0,0
		c0,0,0,0,0,0c-0.5,1.3-1,2.5-1.4,3.7c-0.5,1.5-0.9,3-1.2,4.5c0,0.2,0,0.3-0.1,0.5C60.8,122.6,61.3,123.6,62.3,124.4z M93.3,106.8
		C93.3,106.8,93.3,106.8,93.3,106.8L93.3,106.8c0.5-3.5,1-6.9,1.5-10.4c0,0,0,0,0,0c0,0,0,0,0,0c1,0.7,1.8,1.4,2.8,2.1
		c0.4-1.7,0.8-3.4,1.2-5.2c0,0,0,0,0,0c0,0,0,0,0,0c3.3,2.7,6.6,5.4,9.9,8.1L93.3,106.8z M90.1,70.9c0.1-0.2,0.2-0.4,0.3-0.6
		c1.3-2.5,2.5-5,3.8-7.5c0.2-0.3,0.5-0.6,0.7-1c0.4,0.1,0.7,0.1,0.9,0.2c3.1,1.4,6.2,2.8,9.3,4.2c0.2,0.1,0.3,0.1,0.4,0.2
		c0.7,0.3,0.9,0.1,1-0.6c0.4-3.8,0.9-7.5,1.2-11.3c0.1-1.2,0.1-2.4,0.2-3.5c0-0.7,0.2-1.1,0.5-1.3c0.1-0.1,0.3-0.1,0.5-0.1
		c0.1,0,0.2,0,0.4,0c3.8,0.5,7.6,1,11.5,1.6c1.4,0.2,1.6,0.5,1.6,1.9c-0.3,6-0.7,12-1,18c0,0.1,0,0.2,0,0.3c0,0.6,0.1,0.7,0.8,0.9
		c2.2,0.7,4.3,1.4,6.5,2.1c0.8,0.3,1.1,0.5,1.1,1c0,0.2,0,0.4-0.1,0.7c-0.5,3.1-0.9,6.1-1.3,9.2c0,0.3-0.1,0.5-0.1,0.8
		c-0.1,0.6-0.4,0.8-1,0.5c-2.2-1-4.4-2-6.6-3c-0.7-0.3-1.5-0.7-2.2-1c-0.8-0.4-1-0.4-1.4,0.3c-1.5,3.4-3,6.7-4.6,10.1
		c-0.2,0.5-0.4,0.7-0.7,0.7c-0.2,0-0.4-0.1-0.7-0.2c-2.7-1-5.3-2.1-8-3.2c-1.8-0.7-2-1.2-1.1-3c0.9-1.9,1.8-3.9,2.6-5.9
		c0.1-0.2,0.1-0.3,0.1-0.4c0-0.3-0.3-0.5-0.6-0.7c-4.3-2.4-8.6-4.8-12.9-7.1c-0.4-0.2-0.8-0.4-1-0.6C89.7,72.2,89.7,71.8,90.1,70.9z
		 M56.9,91.5c-2-3.6-2-7.5-0.5-11.3c2-5.1,5.6-8.5,10.4-10.3c4.3-1.4,8.3-1,12.2,0.6c1.9,0.8,3.7,1.9,5.2,3.3
		c0.2,0.2,0.5,0.4,0.7,0.7c3.2,3.3,4.4,7.3,3.5,11.9c-1.2,6-4.5,10.6-9.9,13.5c-3,1.6-6.2,1.8-9.4,1c-2.4-0.6-4.5-1.6-6.3-2.9
		C60.3,96.4,58.4,94.2,56.9,91.5z"/>
	<path class="st2" d="M182.1,100c-3.4-4-7.7-6-13-5.4c-3.6,0.4-6.5,2.3-8.8,5.1c-0.6,0.7-1.2,1.5-1.9,2.2c-1.6,1.5-3.5,2.1-5.6,1.7
		c-2.5-0.5-5-1.3-7.4-1.9c0.6-1,1.3-2,1.8-3c1-2.1,1.2-4.3,0.2-6.6c-0.7-1.5-1.8-2.7-3.1-3.6c-1.1-0.8-2.3-1.6-3.5-2.3
		c0.2-1,0.6-2.1,0.8-3.1c0.9-5.2-0.8-9.6-4.4-13.4c-0.4-0.4-0.4-0.7-0.3-1.2c0.4-2.3,0.8-4.6,1.2-6.9c0-0.3,0.2-0.6,0.4-0.8
		c6.1-6,12.1-12,18.2-17.9c1.5-1.4,2.8-1.6,4.6-0.6c6.1,3.2,13.1,0.4,15.6-6c1.4-3.8,1.8-7.6,0.6-11.5c0-0.1,0-0.2,0-0.3
		c-0.1-0.4-0.3-0.8-0.4-1.1c-0.5-0.8-0.9-1.7-1.4-2.5c-1.7-2.7-4.1-4.2-7.2-4.9c-1.2-0.2-2.4-0.6-3.4-1.2c-2-1-3-2.8-3.5-4.9
		c-0.7-2.5-1.8-4.7-3.5-6.6c-2.8-3.3-6.3-4.1-10.4-2.4c-2.9,1.2-5.3,3-7.5,5.2c-2.7,3-3.5,6.5-3.1,10.5c0.2,2.1,0.8,4.2,1.5,6.2
		c0.6,1.9,0.5,3.6-0.8,5.2c-1.3,1.6-2.5,3.3-3.8,4.9c-0.7,0.8-1.6,1.5-2.4,2.2c-0.8-1.1-1.4-2.1-2.1-3c-4.4-5.9-9.9-10.4-16.4-13.8
		c-10.7-5.4-22-6.9-33.8-4.9c-1.8,0.3-3.5,0.8-5.3,1.2h0c-0.3,0.1-0.7,0.1-1,0.2l-4.6,1.6c-0.5,0.2-0.9,0.3-1.3,0.6
		c-0.4,0.2-0.8,0.4-1.3,0.6c-10.8,5-19.3,12.5-25.2,22.9c-4.1,7.4-6.3,15.3-6.2,23.7c0,2.4,0.4,4.8,0.6,7.2c0,0.2,0.1,0.4,0,0.7
		c-0.5-0.9-1.1-1.7-1.6-2.6c-0.9-1.4-1.2-3-1.7-4.6c-1-3.7-2.6-7.1-5.7-9.5c-3.9-3.1-8.3-4.1-13.2-2.9c-3.8,1-5.9,3.7-6.7,7.4
		c-0.5,2.3-0.2,4.5,0.1,6.8c0.3,1.7,0.4,3.5-0.5,5.1c-0.3,0.6-0.7,1.1-1.1,1.6c-1.9,2.4-3.4,5-4.1,8C-0.5,84.8,0.1,88,2,90.9
		c1.8,2.8,4.2,4.9,7.2,6.2c4.5,1.9,8.9,0.8,11.9-3c1.2-1.5,2.3-3.2,3.4-4.8c0.3-0.4,0.5-0.4,0.9-0.3c6.8,2.1,13.5,4.2,20.3,6.2
		c0.6,0.2,1.3,0.3,1.9,0.5c0.2,0,0.3,0.1,0.5,0.2c1.1,0.9,2.1,1.7,3.1,2.6c0.2,0.2,0.4,0.5,0.3,0.8c-0.4,5.3,1.2,9.8,5.3,13.4
		c0,0,0,0,0,0c-4,3.8-8.1,7.7-12.1,11.5c-1.5,1.4-3.2,1.6-5,0.8c-2.2-1.1-4.5-1.8-7-1.9c-8-0.4-15.3,5.1-17.1,12.9
		c-0.4,1.7-0.4,3.5-0.1,5.2c0,0.1,0,0.2,0,0.4c0.3,0.9,0.6,1.8,0.9,2.7c0.5,0.7,0.9,1.4,1.4,2c2,2.5,4.5,3.9,7.7,4.1
		c0.2,0,0.4,0,0.5,0c2.6,0.2,4.3,1.5,5.3,4c1.1,2.8,2.9,5.1,5.4,6.8c2.6,1.7,5.4,2,8.4,1.5c3.7-0.7,7.2-2.2,10.2-4.5
		c3.5-2.7,4.8-6.8,3.4-11c-0.7-2.1-1.9-4-3.3-5.7c-0.1-0.1-0.2-0.3-0.4-0.5c1.2-1.2,2.4-2.3,3.5-3.4c2.8-2.7,5.5-5.4,8.3-8.1
		c0.3-0.3,0.7-0.5,1.2-0.6c3-0.5,5.6-1.9,8-3.6c0.5-0.4,1.1-0.8,1.7-1.2c0.4,1,0.7,2,1,3c0.5,1.4,1.3,2.6,2.4,3.7
		c3.7,3.6,11.2,3,13.7-2.9c0.2-0.4,0.3-0.8,0.5-1.3c0.5,0.2,1,0.5,1.4,0.7c4.7,2.2,12.3-0.1,13.7-7.3c0.2-1,0.3-2.1,0.5-3.1
		c0-0.3,0.2-0.5,0.5-0.7c0.8-0.3,1.6-0.8,2.4-1.1c0.2-0.1,0.5-0.1,0.8,0c6.1,2,12.2,4.1,18.3,6.1c4.7,1.6,9.4,3.1,14.1,4.6
		c0.4,0.1,0.8,0.3,1.2,0.5c0.9,0.5,1.4,1.4,1.5,2.4c0,1,0,2,0.1,3c0.6,4.3,3.7,7.2,8,7.8c2.3,0.3,4.5,0.2,6.8-0.4c0.2,0,0.3,0,0.5,0
		l2.2-0.8c0.8-0.4,1.7-0.8,2.5-1.3c4.8-2.9,6.8-7.2,5.9-12.8c-0.2-1-0.2-2.1-0.2-3.1c0.1-2,0.7-3.9,2.1-5.4c1.1-1.3,2.3-2.6,3.4-4
		c1-1.2,1.8-2.5,2.2-4C184.5,105.1,184.1,102.4,182.1,100z M134.5,39.2c2.2-2.2,4.5-4.5,6.7-6.8c2.2-2.3,3.5-5,3.1-8.3
		c-0.2-1.5-0.8-3-1.1-4.5c-0.3-1.6-0.7-3.2-0.7-4.8c0-4,2.4-7.3,6.4-8.7c0.7-0.3,1.5-0.5,2.3-0.5c0.2,0,0.3,0,0.5,0
		c1.1,0.1,2,0.6,2.5,1.7c1.2,2.3,2.3,4.6,3.3,7c1.5,3.6,4.1,5.9,8,6.6c0.4,0.1,0.9,0.2,1.3,0.3c0,0,0.1,0,0.1,0
		c0.5,0.1,0.9,0.3,1.4,0.4c1.9,0.7,3.2,2.1,3.8,4c0.9,2.8,1,5.6-0.1,8.3c-0.6,1.3-1.3,2.6-2.6,3.4c-0.7,0.4-1.4,0.7-2.1,0.8
		c-1.2,0.2-2.4-0.1-3.6-0.8c-1.3-0.8-2.6-1.4-4.1-1.5c0,0,0,0,0,0c-2.3-0.1-4.1,0.9-5.6,2.4c-3.7,3.5-7.4,7.1-11.1,10.7
		c-1.5,1.4-2.9,2.8-4.4,4.3c-0.1,0.1-0.2,0.2-0.4,0.3c0,0,0,0,0,0c-0.2-1.2-0.4-2.3-0.6-3.5c-0.6-3.3-1.6-6.4-3-9.5
		C134,40,134,39.7,134.5,39.2z M41.2,88.1c-1-0.3-1.9-0.6-2.9-0.9c-1-0.3-1.9-0.6-2.9-0.9c-2-0.6-3.9-1.2-5.9-1.8
		c-1-0.3-1.9-0.6-2.9-0.9c-0.8-0.2-1.6-0.4-2.4-0.5c-0.5,0-1,0-1.4,0.1c-1.4,0.3-2.6,1.1-3.3,2.4c-0.5,0.8-0.8,1.7-1.1,2.6
		c-0.4,1.2-1,2.3-1.9,3.1c-1,0.8-2.1,1.2-3.2,1.1c-0.7,0-1.3-0.2-2-0.6c-2-1-3.7-2.4-4.9-4.3c-1.3-2.2-1.1-4.5-0.1-6.8
		c0.7-1.6,1.6-3.2,3-4.5c2.1-2.1,2.7-4.7,2.5-7.6c-0.1-1.6-0.4-3.1-0.5-4.7c0-1.2,0-2.4,0.3-3.6c0.5-2,1.9-3.1,3.9-3.1c0,0,0,0,0,0
		c4.7,0.1,8.1,2.1,9.8,6.3c0.8,2.1,1.5,4.2,2,6.4c0.9,3.7,3.4,6.1,7,7.1c1.7,0.5,2.5,1.4,3,3c0.9,2.5,2.2,4.9,3.7,7.2
		c0.1,0.2,0.2,0.4,0.4,0.7C41.3,88.2,41.2,88.2,41.2,88.1z M61.3,128c-1.6,1.6-3.2,3.1-4.8,4.7c-1.7,1.7-3.5,3.4-5.1,5.2
		c-0.6,0.6-1.1,1.4-1.4,2.2c-0.2,0.5-0.3,1-0.4,1.4c-0.1,1.4,0.5,2.6,1.5,3.7c0.9,1,1.8,2,2.4,3.1c0.4,0.8,0.6,1.6,0.6,2.4
		c0,1.4-0.7,2.7-1.8,3.6c-0.9,0.7-2,1.4-3,1.8c-1.7,0.6-3.5,1.2-5.2,1.6c-1.6,0.3-3.3-0.1-4.5-1.2c-1.9-1.8-3.1-3.9-4.1-6.3
		c-0.3-0.8-0.6-1.6-1-2.3c-0.8-1.4-2.1-2.1-3.7-2.2c-1-0.1-2.1-0.2-3.1-0.1c-4.2,0.1-6.7-3-6.6-6.4c0-0.5,0.1-1,0.2-1.5
		c0.7-3.5,2.8-6,5.9-7.7c3.3-1.7,6.6-1.6,9.9,0c1.7,0.8,3.5,1.5,5.4,1.4c2.2-0.1,4-1,5.6-2.5c3-2.9,6-5.9,9.1-8.8
		c0.1-0.1,0.3-0.2,0.5-0.4c0,0,0,0,0,0c-0.1,0.5-0.1,0.9-0.1,1.3C57.2,124,58.5,126.3,61.3,128C61.3,128,61.3,128,61.3,128z
		 M91.7,127.5c-1,1.7-2.6,2.3-4.6,2.2c-1.9-0.1-3.3-0.9-4.1-2.6c-0.1-0.3-0.3-0.6-0.4-0.9c-0.4-1-0.8-2.1-1.2-3.2
		c-0.1-0.3-0.2-0.5-0.3-0.8c0-0.1,0-0.1,0-0.2c0-0.5,0.7-0.9,1.3-0.8c2.2,0.6,4.4,0.9,6.7,0.8c1.2,0,2.4-0.1,3.7-0.2
		c0.2,0,0.4,0,0.7,0c0,0,0,0,0,0C93,123.9,92.7,125.8,91.7,127.5z M103.6,124.4c-3.1,1.2-5.7,0.4-8.2-2.6c4.1-1.1,8.2-2.3,12.4-3.5
		C108.1,120.4,106.1,123.5,103.6,124.4z M120.1,107.7c-3.1,2.6-6.6,4.5-10.3,6c-3.6,1.5-7.2,2.8-11,3.7c-4.4,1.1-8.9,1.7-13.5,1
		c-1.2-0.2-2.4-0.7-3.5-1.1c-0.4-0.1-0.7-0.1-1,0.2c-2.5,2.4-5.1,4.8-8.2,6.5c-1.7,1-3.4,1.7-5.4,1.9c-1.8,0.2-3.5-0.3-4.9-1.5
		c-0.9-0.8-1.5-1.7-1.4-2.8c0-0.2,0-0.3,0.1-0.5c0.3-1.5,0.8-3,1.2-4.5c0.4-1.2,0.9-2.4,1.4-3.7c0,0,0,0,0,0
		c-0.7-0.4-1.4-0.8-2.2-1.2c-3-1.6-5-4.1-5.9-7.4c-0.2-0.8-0.3-1.9-0.4-2.9c0-1,0.1-2,0.3-2.6c1.4,0.5,2.7,1,4,1.5l0-0.1
		c0,0,0,0,0,0c-0.1-0.1-0.3-0.2-0.4-0.3c-5.7-3.7-10.3-8.4-13.6-14.3c-5.9-10.6-6.6-21.7-2.1-32.9C47,43.4,53.3,36.4,61.3,31
		c4.3-2.9,8.9-5.1,13.8-6.7c1.2-0.4,2.4-0.7,3.6-1c10-2.5,20-2.1,29.9,1.6c7.9,3,14.4,7.8,19.1,14.9c5.2,7.9,7,16.6,5.9,26
		c-0.4,3.2-1.1,6.2-2.1,9.3c0,0,0,0,0,0c0.8-1.2,1.5-2.4,2.3-3.7c0,0,0,0,0,0c5,4.8,5.5,10.2,2.3,16.2c1.4,0.9,2.8,1.7,4.1,2.5
		c1.2,0.7,2.4,1.5,3.3,2.6c0.7,0.8,1,1.7,0.8,2.8c-0.4,2.7-2,4.4-4.4,5.4c-2.6,1.1-5.3,1.4-8,1.4c-0.4,0-0.8,0-1.2,0
		c-1.8,0-3.6-0.2-5.3-0.3c0,0,0,0,0,0c-0.3,0-0.6,0.2-0.8,0.5c-0.1,0.3-0.3,0.5-0.4,0.8C123.2,104.9,121.7,106.3,120.1,107.7z
		 M135,111.5c-0.1,0.4-0.3,0.7-0.4,1s-0.4,0.6-0.7,0.9c-0.3,0.3-0.5,0.5-0.8,0.7c-1.1,0.7-2.5,1-3.9,0.7c-1.4-0.3-2.6-0.9-3.7-1.8
		c-1-0.8-1.9-1.7-2.9-2.6c0.9-0.9,1.8-1.7,2.6-2.5c0.4-0.4,0.9-0.9,1.2-1.4c0.4-0.7,0.9-0.9,1.7-0.8c0.5,0,1,0.1,1.5,0.1
		c1.5,0.1,3,0.1,4.7,0.1c0.3,1.3,0.9,2.6,1,4c0,0.2,0,0.4,0,0.6C135.2,110.8,135.1,111.2,135,111.5z M155.6,127.8
		c0-0.6-0.1-1.2-0.2-1.7c-0.1-0.4-0.2-0.8-0.3-1.2c-0.5-1.1-1.4-1.9-2.6-2.4c-1.8-0.8-3.7-1.5-5.6-2.1c-3.6-1.2-7.2-2.2-10.8-3.4
		c-0.2-0.1-0.4-0.1-0.7-0.2c0,0,0,0,0,0c3.8-3.2,3.9-7.1,2.2-11.4c1.1,0.3,2.1,0.5,3.1,0.8c3.9,1,7.8,1.9,11.6,2.9
		c4.2,1,7.5-0.2,10.2-3.6c1-1.3,2.1-2.6,3.4-3.7c3.6-2.8,8.8-2.1,11.6,1.4c0.1,0.2,0.3,0.3,0.4,0.5c0.7,1.2,0.6,2.7-0.3,3.8
		c-1.4,1.9-2.9,3.7-4.5,5.5c-2.8,3.1-3.8,6.7-2.8,10.8c0.3,1.1,0.4,2.2,0.4,3.4c0,1.9-0.8,3.4-2.4,4.6c-2.2,1.7-4.7,2.9-7.5,2.8
		c-1,0-2.1-0.2-3.1-0.5c-0.8-0.2-1.5-0.7-1.8-1.4c-0.2-0.4-0.4-0.9-0.4-1.4C155.6,130.1,155.7,128.9,155.6,127.8z"/>
	<path class="st2" d="M90.3,72.7c0.2,0.2,0.6,0.4,1,0.6c4.3,2.4,8.6,4.8,12.9,7.1c0.3,0.2,0.6,0.3,0.6,0.7c0,0.1,0,0.2-0.1,0.4
		c-0.9,2-1.7,3.9-2.6,5.9c-0.9,1.8-0.7,2.3,1.1,3c2.7,1.1,5.3,2.1,8,3.2c0.3,0.1,0.5,0.2,0.7,0.2c0.3,0,0.4-0.2,0.7-0.7
		c1.5-3.4,3.1-6.7,4.6-10.1c0.3-0.7,0.5-0.7,1.4-0.3c0.7,0.4,1.4,0.7,2.2,1c2.2,1,4.4,2,6.6,3c0.6,0.3,0.9,0.1,1-0.5
		c0.1-0.3,0.1-0.5,0.1-0.8c0.4-3.1,0.9-6.1,1.3-9.2c0-0.3,0.1-0.5,0.1-0.7c0-0.6-0.3-0.8-1.1-1c-2.2-0.7-4.3-1.4-6.5-2.1
		c-0.7-0.2-0.8-0.3-0.8-0.9c0-0.1,0-0.2,0-0.3c0.3-6,0.7-12,1-18c0.1-1.4-0.2-1.7-1.6-1.9c-3.8-0.5-7.7-1-11.5-1.6
		c-0.1,0-0.2,0-0.4,0c-0.2,0-0.4,0-0.5,0.1c-0.4,0.2-0.5,0.6-0.5,1.3c0,1.2-0.1,2.4-0.2,3.5c-0.3,3.8-0.8,7.5-1.2,11.3
		c-0.1,0.7-0.3,0.8-1,0.6c-0.1-0.1-0.3-0.1-0.4-0.2c-3.1-1.4-6.2-2.8-9.3-4.2c-0.3-0.1-0.6-0.1-0.9-0.2c-0.3,0.3-0.5,0.6-0.7,1
		c-1.3,2.5-2.5,5-3.8,7.5c-0.1,0.2-0.2,0.4-0.3,0.6C89.7,71.8,89.7,72.2,90.3,72.7z"/>
	<path class="st2" d="M78.4,99.9c5.4-3,8.6-7.6,9.9-13.5c1-4.6-0.3-8.6-3.5-11.9c-0.2-0.2-0.4-0.4-0.7-0.6c-1.5-1.4-3.3-2.5-5.2-3.3
		c-3.9-1.6-7.9-2-12.2-0.6c-4.8,1.9-8.5,5.3-10.4,10.3c-1.5,3.8-1.4,7.6,0.5,11.3c1.5,2.8,3.5,4.9,5.9,6.5c1.9,1.3,4,2.2,6.3,2.9
		C72.3,101.7,75.5,101.5,78.4,99.9z"/>
	<path class="st2" d="M98.9,93.4c-0.4,1.8-0.8,3.4-1.2,5.2c0,0,0,0,0,0c-0.9-0.7-1.8-1.4-2.8-2.1c0,0,0,0,0,0
		c-0.5,3.5-1,6.9-1.6,10.4c0,0,0,0,0,0l15.4-5.4C105.4,98.7,102.2,96.1,98.9,93.4C98.9,93.4,98.9,93.4,98.9,93.4z"/>
</g>
</svg>
