<?xml version="1.0" encoding="utf-8"?>
<!-- Generator: Adobe Illustrator 25.4.1, SVG Export Plug-In . SVG Version: 6.00 Build 0)  -->
<svg version="1.1" id="Capa_1" xmlns="http://www.w3.org/2000/svg" xmlns:xlink="http://www.w3.org/1999/xlink" x="0px" y="0px"
	 viewBox="0 0 184.1 93.4" style="enable-background:new 0 0 184.1 93.4;" xml:space="preserve">
<style type="text/css">
	.st0{display:none;}
	.st1{display:inline;fill:#ED6D47;}
	.st2{display:inline;fill:#FFCD04;}
	.st3{display:inline;fill:#3DBCD3;}
	.st4{display:inline;fill:#51B36E;}
	.st5{fill:#0F0F0F;}
	.st6{fill:#ED6D47;}
	.st7{fill:#3DBCD3;}
	.st8{fill:#FFCD04;}
	.st9{fill:#51B36E;}
</style>
<g id="Capa_1_00000072975399406637779560000009722037137733128843_" class="st0">
	<rect x="96.3" y="48.3" class="st1" width="24.1" height="3"/>
	<rect x="122.2" y="48.3" class="st1" width="7.7" height="3"/>
	<rect x="102.7" y="53" class="st2" width="27.2" height="3"/>
	<rect x="99.5" y="67" class="st2" width="21" height="3"/>
	<rect x="122.2" y="67" class="st3" width="7.7" height="3"/>
	<rect x="114.2" y="71.7" class="st4" width="15.7" height="3"/>
	<rect x="101.2" y="71.7" class="st3" width="11.2" height="3"/>
	<rect x="105.8" y="57.7" class="st3" width="17.6" height="3"/>
	<rect x="125.1" y="57.7" class="st4" width="4.8" height="3"/>
	<rect x="98.4" y="57.7" class="st1" width="5.6" height="3"/>
	<rect x="110.1" y="62.3" class="st1" width="19.7" height="3"/>
	<rect x="99.5" y="85.7" class="st1" width="21" height="3"/>
	<rect x="122.2" y="85.7" class="st3" width="7.7" height="3"/>
	<rect x="96.3" y="90.4" class="st2" width="33.5" height="3"/>
	<rect x="105.8" y="76.4" class="st2" width="24.1" height="3"/>
	<rect x="98.4" y="76.4" class="st1" width="5.6" height="3"/>
	<rect x="110.1" y="81.1" class="st4" width="19.7" height="3"/>
	<rect x="106.7" y="81.1" class="st3" width="2.6" height="3"/>
	<rect x="96.3" y="1.6" class="st1" width="24.1" height="3"/>
	<rect x="122.2" y="1.6" class="st1" width="7.7" height="3"/>
	<rect x="102.7" y="6.3" class="st2" width="27.2" height="3"/>
	<rect x="99.5" y="20.3" class="st2" width="21" height="3"/>
	<rect x="122.2" y="20.3" class="st3" width="7.7" height="3"/>
	<rect x="114.2" y="25" class="st4" width="15.7" height="3"/>
	<rect x="101.2" y="25" class="st3" width="11.2" height="3"/>
	<rect x="105.8" y="10.9" class="st3" width="17.6" height="3"/>
	<rect x="125.1" y="10.9" class="st4" width="4.8" height="3"/>
	<rect x="98.4" y="10.9" class="st1" width="5.6" height="3"/>
	<rect x="110.1" y="15.6" class="st1" width="19.7" height="3"/>
	<rect x="99.5" y="39" class="st1" width="21" height="3"/>
	<rect x="122.2" y="39" class="st3" width="7.7" height="3"/>
	<rect x="96.3" y="43.7" class="st2" width="33.5" height="3"/>
	<rect x="105.8" y="29.6" class="st2" width="24.1" height="3"/>
	<rect x="98.4" y="29.6" class="st1" width="5.6" height="3"/>
	<rect x="55.7" y="48.3" class="st1" width="24.1" height="3"/>
	<rect x="81.5" y="48.3" class="st1" width="7.7" height="3"/>
	<rect x="62" y="53" class="st2" width="27.2" height="3"/>
	<rect x="102.7" y="34.3" class="st2" width="27.2" height="3"/>
	<rect x="62" y="34.3" class="st2" width="27.2" height="3"/>
	<rect x="58.9" y="67" class="st2" width="20.9" height="3"/>
	<rect x="81.5" y="67" class="st3" width="7.7" height="3"/>
	<rect x="73.5" y="71.7" class="st4" width="15.7" height="3"/>
	<rect x="60.6" y="71.7" class="st3" width="11.2" height="3"/>
	<rect x="65.1" y="57.7" class="st3" width="17.6" height="3"/>
	<rect x="84.4" y="57.7" class="st4" width="4.8" height="3"/>
	<rect x="57.8" y="57.7" class="st1" width="5.6" height="3"/>
	<rect x="69.5" y="62.3" class="st1" width="19.7" height="3"/>
	<rect x="58.9" y="85.7" class="st1" width="20.9" height="3"/>
	<rect x="81.5" y="85.7" class="st3" width="7.7" height="3"/>
	<rect x="55.7" y="90.4" class="st2" width="33.5" height="3"/>
	<rect x="65.1" y="76.4" class="st2" width="24.1" height="3"/>
	<rect x="57.8" y="76.4" class="st1" width="5.6" height="3"/>
	<rect x="69.5" y="81.1" class="st4" width="19.7" height="3"/>
	<rect x="66.1" y="81.1" class="st3" width="2.6" height="3"/>
	<rect x="55.7" y="1.6" class="st1" width="24.1" height="3"/>
	<rect x="81.5" y="1.6" class="st1" width="7.7" height="3"/>
	<rect x="62" y="6.3" class="st2" width="27.2" height="3"/>
	<rect x="58.9" y="20.3" class="st2" width="20.9" height="3"/>
	<rect x="81.5" y="20.3" class="st3" width="7.7" height="3"/>
	<rect x="73.5" y="25" class="st4" width="15.7" height="3"/>
	<rect x="60.6" y="25" class="st3" width="11.2" height="3"/>
	<rect x="65.1" y="10.9" class="st3" width="17.6" height="3"/>
	<rect x="84.4" y="10.9" class="st4" width="4.8" height="3"/>
	<rect x="57.8" y="10.9" class="st1" width="5.6" height="3"/>
	<rect x="69.5" y="15.6" class="st1" width="19.7" height="3"/>
	<rect x="58.9" y="39" class="st1" width="20.9" height="3"/>
	<rect x="81.5" y="39" class="st3" width="7.7" height="3"/>
	<rect x="55.7" y="43.7" class="st2" width="33.5" height="3"/>
	<rect x="65.1" y="29.6" class="st2" width="24.1" height="3"/>
	<rect x="57.8" y="29.6" class="st1" width="5.6" height="3"/>
</g>
<rect class="st5" width="184.1" height="93.4"/>
<g id="Capa_1_copia">
	<rect x="99.5" y="85.7" class="st6" width="21" height="3"/>
	<rect x="122.2" y="85.7" class="st7" width="7.7" height="3"/>
	<rect x="96.3" y="90.4" class="st8" width="33.5" height="3"/>
	<rect x="105.8" y="76.4" class="st8" width="24.1" height="3"/>
	<rect x="98.4" y="76.4" class="st6" width="5.6" height="3"/>
	<rect x="110.1" y="81.1" class="st9" width="19.7" height="3"/>
	<rect x="106.7" y="81.1" class="st7" width="2.6" height="3"/>
	<rect x="58.9" y="85.7" class="st6" width="20.9" height="3"/>
	<rect x="81.5" y="85.7" class="st7" width="7.7" height="3"/>
	<rect x="55.7" y="90.4" class="st8" width="33.5" height="3"/>
	<rect x="65.1" y="76.4" class="st8" width="24.1" height="3"/>
	<rect x="57.8" y="76.4" class="st6" width="5.6" height="3"/>
	<rect x="69.5" y="81.1" class="st9" width="19.7" height="3"/>
	<rect x="66.1" y="81.1" class="st7" width="2.6" height="3"/>
	<rect x="99.5" y="67" class="st6" width="21" height="3"/>
	<rect x="122.2" y="67" class="st7" width="7.7" height="3"/>
	<rect x="96.3" y="71.7" class="st8" width="33.5" height="3"/>
	<rect x="105.8" y="57.7" class="st8" width="24.1" height="3"/>
	<rect x="98.4" y="57.7" class="st6" width="5.6" height="3"/>
	<rect x="110.1" y="62.3" class="st9" width="19.7" height="3"/>
	<rect x="106.7" y="62.3" class="st7" width="2.6" height="3"/>
	<rect x="58.9" y="67" class="st6" width="20.9" height="3"/>
	<rect x="81.5" y="67" class="st7" width="7.7" height="3"/>
	<rect x="55.7" y="71.7" class="st8" width="33.5" height="3"/>
	<rect x="65.1" y="57.7" class="st8" width="24.1" height="3"/>
	<rect x="57.8" y="57.7" class="st6" width="5.6" height="3"/>
	<rect x="69.5" y="62.3" class="st9" width="19.7" height="3"/>
	<rect x="66.1" y="62.3" class="st7" width="2.6" height="3"/>
	<rect x="99.5" y="48.4" class="st6" width="21" height="3"/>
	<rect x="122.2" y="48.4" class="st7" width="7.7" height="3"/>
	<rect x="96.3" y="53.1" class="st8" width="33.5" height="3"/>
	<rect x="105.8" y="39" class="st8" width="24.1" height="3"/>
	<rect x="98.4" y="39" class="st6" width="5.6" height="3"/>
	<rect x="110.1" y="43.7" class="st9" width="19.7" height="3"/>
	<rect x="106.7" y="43.7" class="st7" width="2.6" height="3"/>
	<rect x="58.9" y="48.4" class="st6" width="20.9" height="3"/>
	<rect x="81.5" y="48.4" class="st7" width="7.7" height="3"/>
	<rect x="55.7" y="53.1" class="st8" width="33.5" height="3"/>
	<rect x="65.1" y="39" class="st8" width="24.1" height="3"/>
	<rect x="57.8" y="39" class="st6" width="5.6" height="3"/>
	<rect x="69.5" y="43.7" class="st9" width="19.7" height="3"/>
	<rect x="66.1" y="43.7" class="st7" width="2.6" height="3"/>
	<rect x="99.5" y="29.7" class="st6" width="21" height="3"/>
	<rect x="122.2" y="29.7" class="st7" width="7.7" height="3"/>
	<rect x="96.3" y="34.3" class="st8" width="33.5" height="3"/>
	<rect x="105.8" y="20.3" class="st8" width="24.1" height="3"/>
	<rect x="98.4" y="20.3" class="st6" width="5.6" height="3"/>
	<rect x="110.1" y="25" class="st9" width="19.7" height="3"/>
	<rect x="106.7" y="25" class="st7" width="2.6" height="3"/>
	<rect x="58.9" y="29.7" class="st6" width="20.9" height="3"/>
	<rect x="81.5" y="29.7" class="st7" width="7.7" height="3"/>
	<rect x="55.7" y="34.3" class="st8" width="33.5" height="3"/>
	<rect x="65.1" y="20.3" class="st8" width="24.1" height="3"/>
	<rect x="57.8" y="20.3" class="st6" width="5.6" height="3"/>
	<rect x="69.5" y="25" class="st9" width="19.7" height="3"/>
	<rect x="66.1" y="25" class="st7" width="2.6" height="3"/>
	<rect x="99.5" y="11" class="st6" width="21" height="3"/>
	<rect x="122.2" y="11" class="st7" width="7.7" height="3"/>
	<rect x="96.3" y="15.6" class="st8" width="33.5" height="3"/>
	<rect x="105.8" y="1.6" class="st8" width="24.1" height="3"/>
	<rect x="98.4" y="1.6" class="st6" width="5.6" height="3"/>
	<rect x="110.1" y="6.3" class="st9" width="19.7" height="3"/>
	<rect x="106.7" y="6.3" class="st7" width="2.6" height="3"/>
	<rect x="58.9" y="11" class="st6" width="20.9" height="3"/>
	<rect x="81.5" y="11" class="st7" width="7.7" height="3"/>
	<rect x="55.7" y="15.6" class="st8" width="33.5" height="3"/>
	<rect x="65.1" y="1.6" class="st8" width="24.1" height="3"/>
	<rect x="57.8" y="1.6" class="st6" width="5.6" height="3"/>
	<rect x="69.5" y="6.3" class="st9" width="19.7" height="3"/>
	<rect x="66.1" y="6.3" class="st7" width="2.6" height="3"/>
</g>
</svg>
