<?xml version="1.0" encoding="utf-8"?>
<!-- Generator: Adobe Illustrator 25.4.1, SVG Export Plug-In . SVG Version: 6.00 Build 0)  -->
<svg version="1.1" xmlns="http://www.w3.org/2000/svg" xmlns:xlink="http://www.w3.org/1999/xlink" x="0px" y="0px"
	 viewBox="0 0 184.09 163.2" style="enable-background:new 0 0 184.09 163.2;" xml:space="preserve">
<style type="text/css">
	.st0{display:none;}
	.st1{display:inline;fill:#4098D4;stroke:#000000;stroke-miterlimit:10;}
	.st2{display:inline;}
	.st3{opacity:0.65;fill:#FFFFFF;}
	.st4{fill:#151B1E;}
	.st5{fill:#ED6D47;}
	.st6{fill:#FFCD04;}
	.st7{fill:#3DBCD3;}
	.st8{fill:#51B36E;}
	.st9{display:none;fill:#FFFFFF;}
	.st10{display:none;fill:#0F0F0F;}
	.st11{fill:none;}
	.st12{fill:#FFFFFF;}
	.st13{fill:#0F0F0F;}
</style>
<g id="Capa_3" class="st0">
	<ellipse class="st1" cx="103.39" cy="81.6" rx="144.26" ry="103.94"/>
</g>
<g id="Capa_5" class="st0">
	<g class="st2">
		<polygon class="st3" points="85.28,111.68 79.79,114.43 82.05,41.84 87.54,39.08 		"/>
		<polygon class="st3" points="77.31,115.24 75.05,116.95 77.31,44.35 79.57,42.64 		"/>
	</g>
</g>
<g id="Capa_2">
	<g>
		<path class="st4" d="M0,0v163.2h184.09V0H0z M88.31,86.34c-1.25,5.97-4.48,10.59-9.88,13.55c-2.97,1.63-6.15,1.82-9.38,0.96
			c-5.35-1.43-9.53-4.46-12.19-9.39c-1.96-3.64-1.99-7.46-0.52-11.26c1.96-5.07,5.6-8.47,10.43-10.33
			c4.33-1.41,8.33-1.02,12.23,0.61c1.9,0.79,3.67,1.9,5.17,3.3C87.87,77.23,89.34,81.44,88.31,86.34z M129.75,76.25
			c-0.45,3.07-0.89,6.13-1.34,9.2c-0.04,0.26-0.08,0.51-0.14,0.77c-0.14,0.6-0.44,0.77-1.01,0.51c-2.2-0.99-4.36-2.04-6.56-3.02
			c-0.74-0.33-1.47-0.67-2.18-1.04c-0.81-0.42-1.03-0.39-1.35,0.32c-1.53,3.35-3.05,6.7-4.59,10.05c-0.36,0.79-0.53,0.84-1.35,0.52
			c-2.66-1.05-5.33-2.09-7.98-3.16c-1.82-0.73-1.95-1.23-1.1-3c0.92-1.93,1.75-3.91,2.64-5.86c0.27-0.6-0.07-0.82-0.51-1.07
			c-4.31-2.38-8.62-4.76-12.93-7.14c-1.75-0.97-1.82-1.2-0.91-2.99c1.26-2.48,2.5-4.97,3.76-7.45c0.17-0.34,0.45-0.62,0.71-0.96
			c0.38,0.09,0.68,0.11,0.94,0.23c3.11,1.38,6.21,2.78,9.31,4.18c0.15,0.07,0.29,0.13,0.44,0.19c0.67,0.28,0.94,0.16,1.02-0.56
			c0.43-3.76,0.9-7.52,1.2-11.29c0.09-1.18,0.12-2.36,0.16-3.54c0.04-1.14,0.39-1.47,1.42-1.33c3.82,0.52,7.65,1.04,11.47,1.56
			c1.38,0.19,1.63,0.5,1.56,1.87c-0.34,6.01-0.68,12.01-1.02,18.02c-0.05,0.9-0.03,0.92,0.81,1.19c2.15,0.7,4.3,1.39,6.46,2.08
			C129.75,74.88,129.91,75.15,129.75,76.25z"/>
	</g>
</g>
<g id="Capa_1">
	<g class="st0">
		<g>
			<g class="st2">
				<rect x="96.34" y="82.42" class="st5" width="24.12" height="3.03"/>
				<rect x="122.18" y="82.42" class="st5" width="7.7" height="3.03"/>
				<rect x="102.7" y="87.09" class="st6" width="27.18" height="3.03"/>
				<rect x="99.51" y="101.11" class="st6" width="20.95" height="3.03"/>
				<rect x="122.18" y="101.11" class="st7" width="7.7" height="3.03"/>
				<rect x="114.15" y="105.79" class="st8" width="15.73" height="3.03"/>
				<rect x="101.23" y="105.79" class="st7" width="11.25" height="3.03"/>
				<rect x="105.76" y="91.77" class="st7" width="17.6" height="3.03"/>
				<rect x="125.07" y="91.77" class="st8" width="4.81" height="3.03"/>
				<rect x="98.41" y="91.77" class="st5" width="5.62" height="3.03"/>
				<rect x="110.13" y="96.44" class="st5" width="19.74" height="3.03"/>
				<rect x="99.51" y="119.81" class="st5" width="20.95" height="3.03"/>
				<rect x="122.18" y="119.81" class="st7" width="7.7" height="3.03"/>
				<rect x="96.34" y="124.48" class="st6" width="33.54" height="3.03"/>
				<rect x="105.76" y="110.46" class="st6" width="24.12" height="3.03"/>
				<rect x="98.41" y="110.46" class="st5" width="5.62" height="3.03"/>
				<rect x="110.13" y="115.14" class="st8" width="19.74" height="3.03"/>
				<rect x="106.74" y="115.14" class="st7" width="2.64" height="3.03"/>
				<rect x="96.34" y="35.68" class="st5" width="24.12" height="3.03"/>
				<rect x="122.18" y="35.68" class="st5" width="7.7" height="3.03"/>
				<rect x="102.7" y="40.35" class="st6" width="27.18" height="3.03"/>
				<rect x="99.51" y="54.38" class="st6" width="20.95" height="3.03"/>
				<rect x="122.18" y="54.38" class="st7" width="7.7" height="3.03"/>
				<rect x="114.15" y="59.05" class="st8" width="15.73" height="3.03"/>
				<rect x="101.23" y="59.05" class="st7" width="11.25" height="3.03"/>
				<rect x="105.76" y="45.03" class="st7" width="17.6" height="3.03"/>
				<rect x="125.07" y="45.03" class="st8" width="4.81" height="3.03"/>
				<rect x="98.41" y="45.03" class="st5" width="5.62" height="3.03"/>
				<rect x="110.13" y="49.7" class="st5" width="19.74" height="3.03"/>
				<rect x="99.51" y="73.07" class="st5" width="20.95" height="3.03"/>
				<rect x="122.18" y="73.07" class="st7" width="7.7" height="3.03"/>
				<rect x="96.34" y="77.74" class="st6" width="33.54" height="3.03"/>
				<rect x="105.76" y="63.72" class="st6" width="24.12" height="3.03"/>
				<rect x="98.41" y="63.72" class="st5" width="5.62" height="3.03"/>
				<rect x="110.13" y="68.4" class="st8" width="19.74" height="3.03"/>
				<rect x="106.74" y="68.4" class="st7" width="2.64" height="3.03"/>
			</g>
			<g class="st2">
				<rect x="55.69" y="82.42" class="st5" width="24.12" height="3.03"/>
				<rect x="81.53" y="82.42" class="st5" width="7.7" height="3.03"/>
				<rect x="62.05" y="87.09" class="st6" width="27.18" height="3.03"/>
				<rect x="58.86" y="101.11" class="st6" width="20.95" height="3.03"/>
				<rect x="81.53" y="101.11" class="st7" width="7.7" height="3.03"/>
				<rect x="73.5" y="105.79" class="st8" width="15.73" height="3.03"/>
				<rect x="60.58" y="105.79" class="st7" width="11.25" height="3.03"/>
				<rect x="65.11" y="91.77" class="st7" width="17.6" height="3.03"/>
				<rect x="84.41" y="91.77" class="st8" width="4.81" height="3.03"/>
				<rect x="57.76" y="91.77" class="st5" width="5.62" height="3.03"/>
				<rect x="69.48" y="96.44" class="st5" width="19.74" height="3.03"/>
				<rect x="58.86" y="119.81" class="st5" width="20.95" height="3.03"/>
				<rect x="81.53" y="119.81" class="st7" width="7.7" height="3.03"/>
				<rect x="55.69" y="124.48" class="st6" width="33.54" height="3.03"/>
				<rect x="65.11" y="110.46" class="st6" width="24.12" height="3.03"/>
				<rect x="57.76" y="110.46" class="st5" width="5.62" height="3.03"/>
				<rect x="69.48" y="115.14" class="st8" width="19.74" height="3.03"/>
				<rect x="66.09" y="115.14" class="st7" width="2.64" height="3.03"/>
				<rect x="55.69" y="35.68" class="st5" width="24.12" height="3.03"/>
				<rect x="81.53" y="35.68" class="st5" width="7.7" height="3.03"/>
				<rect x="62.05" y="40.35" class="st6" width="27.18" height="3.03"/>
				<rect x="58.86" y="54.38" class="st6" width="20.95" height="3.03"/>
				<rect x="81.53" y="54.38" class="st7" width="7.7" height="3.03"/>
				<rect x="73.5" y="59.05" class="st8" width="15.73" height="3.03"/>
				<rect x="60.58" y="59.05" class="st7" width="11.25" height="3.03"/>
				<rect x="65.11" y="45.03" class="st7" width="17.6" height="3.03"/>
				<rect x="84.41" y="45.03" class="st8" width="4.81" height="3.03"/>
				<rect x="57.76" y="45.03" class="st5" width="5.62" height="3.03"/>
				<rect x="69.48" y="49.7" class="st5" width="19.74" height="3.03"/>
				<rect x="58.86" y="73.07" class="st5" width="20.95" height="3.03"/>
				<rect x="81.53" y="73.07" class="st7" width="7.7" height="3.03"/>
				<rect x="55.69" y="77.74" class="st6" width="33.54" height="3.03"/>
				<rect x="65.11" y="63.72" class="st6" width="24.12" height="3.03"/>
				<rect x="57.76" y="63.72" class="st5" width="5.62" height="3.03"/>
				<rect x="69.48" y="68.4" class="st8" width="19.74" height="3.03"/>
				<rect x="66.09" y="68.4" class="st7" width="2.64" height="3.03"/>
			</g>
		</g>
		<g>
			<g class="st2">
				<rect x="96.34" y="82.42" class="st5" width="24.12" height="3.03"/>
				<rect x="122.18" y="82.42" class="st5" width="7.7" height="3.03"/>
				<rect x="102.7" y="87.09" class="st6" width="27.18" height="3.03"/>
				<rect x="99.51" y="101.11" class="st6" width="20.95" height="3.03"/>
				<rect x="122.18" y="101.11" class="st7" width="7.7" height="3.03"/>
				<rect x="114.15" y="105.79" class="st8" width="15.73" height="3.03"/>
				<rect x="101.23" y="105.79" class="st7" width="11.25" height="3.03"/>
				<rect x="105.76" y="91.77" class="st7" width="17.6" height="3.03"/>
				<rect x="125.07" y="91.77" class="st8" width="4.81" height="3.03"/>
				<rect x="98.41" y="91.77" class="st5" width="5.62" height="3.03"/>
				<rect x="110.13" y="96.44" class="st5" width="19.74" height="3.03"/>
				<rect x="99.51" y="119.81" class="st5" width="20.95" height="3.03"/>
				<rect x="122.18" y="119.81" class="st7" width="7.7" height="3.03"/>
				<rect x="96.34" y="124.48" class="st6" width="33.54" height="3.03"/>
				<rect x="105.76" y="110.46" class="st6" width="24.12" height="3.03"/>
				<rect x="98.41" y="110.46" class="st5" width="5.62" height="3.03"/>
				<rect x="110.13" y="115.14" class="st8" width="19.74" height="3.03"/>
				<rect x="106.74" y="115.14" class="st7" width="2.64" height="3.03"/>
				<rect x="96.34" y="35.68" class="st5" width="24.12" height="3.03"/>
				<rect x="122.18" y="35.68" class="st5" width="7.7" height="3.03"/>
				<rect x="102.7" y="40.35" class="st6" width="27.18" height="3.03"/>
				<rect x="99.51" y="54.38" class="st6" width="20.95" height="3.03"/>
				<rect x="122.18" y="54.38" class="st7" width="7.7" height="3.03"/>
				<rect x="114.15" y="59.05" class="st8" width="15.73" height="3.03"/>
				<rect x="101.23" y="59.05" class="st7" width="11.25" height="3.03"/>
				<rect x="105.76" y="45.03" class="st7" width="17.6" height="3.03"/>
				<rect x="125.07" y="45.03" class="st8" width="4.81" height="3.03"/>
				<rect x="98.41" y="45.03" class="st5" width="5.62" height="3.03"/>
				<rect x="110.13" y="49.7" class="st5" width="19.74" height="3.03"/>
				<rect x="99.51" y="73.07" class="st5" width="20.95" height="3.03"/>
				<rect x="122.18" y="73.07" class="st7" width="7.7" height="3.03"/>
				<rect x="96.34" y="77.74" class="st6" width="33.54" height="3.03"/>
				<rect x="105.76" y="63.72" class="st6" width="24.12" height="3.03"/>
				<rect x="98.41" y="63.72" class="st5" width="5.62" height="3.03"/>
				<rect x="110.13" y="68.4" class="st8" width="19.74" height="3.03"/>
				<rect x="106.74" y="68.4" class="st7" width="2.64" height="3.03"/>
			</g>
			<g class="st2">
				<rect x="55.69" y="82.42" class="st5" width="24.12" height="3.03"/>
				<rect x="81.53" y="82.42" class="st5" width="7.7" height="3.03"/>
				<rect x="62.05" y="87.09" class="st6" width="27.18" height="3.03"/>
				<rect x="58.86" y="101.11" class="st6" width="20.95" height="3.03"/>
				<rect x="81.53" y="101.11" class="st7" width="7.7" height="3.03"/>
				<rect x="73.5" y="105.79" class="st8" width="15.73" height="3.03"/>
				<rect x="60.58" y="105.79" class="st7" width="11.25" height="3.03"/>
				<rect x="65.11" y="91.77" class="st7" width="17.6" height="3.03"/>
				<rect x="84.41" y="91.77" class="st8" width="4.81" height="3.03"/>
				<rect x="57.76" y="91.77" class="st5" width="5.62" height="3.03"/>
				<rect x="69.48" y="96.44" class="st5" width="19.74" height="3.03"/>
				<rect x="58.86" y="119.81" class="st5" width="20.95" height="3.03"/>
				<rect x="81.53" y="119.81" class="st7" width="7.7" height="3.03"/>
				<rect x="55.69" y="124.48" class="st6" width="33.54" height="3.03"/>
				<rect x="65.11" y="110.46" class="st6" width="24.12" height="3.03"/>
				<rect x="57.76" y="110.46" class="st5" width="5.62" height="3.03"/>
				<rect x="69.48" y="115.14" class="st8" width="19.74" height="3.03"/>
				<rect x="66.09" y="115.14" class="st7" width="2.64" height="3.03"/>
				<rect x="55.69" y="35.68" class="st5" width="24.12" height="3.03"/>
				<rect x="81.53" y="35.68" class="st5" width="7.7" height="3.03"/>
				<rect x="62.05" y="40.35" class="st6" width="27.18" height="3.03"/>
				<rect x="58.86" y="54.38" class="st6" width="20.95" height="3.03"/>
				<rect x="81.53" y="54.38" class="st7" width="7.7" height="3.03"/>
				<rect x="73.5" y="59.05" class="st8" width="15.73" height="3.03"/>
				<rect x="60.58" y="59.05" class="st7" width="11.25" height="3.03"/>
				<rect x="65.11" y="45.03" class="st7" width="17.6" height="3.03"/>
				<rect x="84.41" y="45.03" class="st8" width="4.81" height="3.03"/>
				<rect x="57.76" y="45.03" class="st5" width="5.62" height="3.03"/>
				<rect x="69.48" y="49.7" class="st5" width="19.74" height="3.03"/>
				<rect x="58.86" y="73.07" class="st5" width="20.95" height="3.03"/>
				<rect x="81.53" y="73.07" class="st7" width="7.7" height="3.03"/>
				<rect x="55.69" y="77.74" class="st6" width="33.54" height="3.03"/>
				<rect x="65.11" y="63.72" class="st6" width="24.12" height="3.03"/>
				<rect x="57.76" y="63.72" class="st5" width="5.62" height="3.03"/>
				<rect x="69.48" y="68.4" class="st8" width="19.74" height="3.03"/>
				<rect x="66.09" y="68.4" class="st7" width="2.64" height="3.03"/>
			</g>
		</g>
		<g>
			<g class="st2">
				<rect x="96.34" y="24.9" class="st5" width="24.12" height="3.03"/>
				<rect x="122.18" y="24.9" class="st5" width="7.7" height="3.03"/>
				<rect x="102.7" y="29.58" class="st6" width="27.18" height="3.03"/>
				<rect x="99.51" y="43.6" class="st6" width="20.95" height="3.03"/>
				<rect x="122.18" y="43.6" class="st7" width="7.7" height="3.03"/>
				<rect x="114.15" y="48.27" class="st8" width="15.73" height="3.03"/>
				<rect x="101.23" y="48.27" class="st7" width="11.25" height="3.03"/>
				<rect x="105.76" y="34.25" class="st7" width="17.6" height="3.03"/>
				<rect x="125.07" y="34.25" class="st8" width="4.81" height="3.03"/>
				<rect x="98.41" y="34.25" class="st5" width="5.62" height="3.03"/>
				<rect x="110.13" y="38.93" class="st5" width="19.74" height="3.03"/>
				<rect x="99.51" y="62.3" class="st5" width="20.95" height="3.03"/>
				<rect x="122.18" y="62.3" class="st7" width="7.7" height="3.03"/>
				<rect x="96.34" y="66.97" class="st6" width="33.54" height="3.03"/>
				<rect x="105.76" y="52.95" class="st6" width="24.12" height="3.03"/>
				<rect x="98.41" y="52.95" class="st5" width="5.62" height="3.03"/>
				<rect x="110.13" y="57.62" class="st8" width="19.74" height="3.03"/>
				<rect x="106.74" y="57.62" class="st7" width="2.64" height="3.03"/>
				<rect x="114.15" y="1.54" class="st8" width="15.73" height="3.03"/>
				<rect x="101.23" y="1.54" class="st7" width="11.25" height="3.03"/>
				<rect x="99.51" y="15.56" class="st5" width="20.95" height="3.03"/>
				<rect x="122.18" y="15.56" class="st7" width="7.7" height="3.03"/>
				<rect x="96.34" y="20.23" class="st6" width="33.54" height="3.03"/>
				<rect x="105.76" y="6.21" class="st6" width="24.12" height="3.03"/>
				<rect x="98.41" y="6.21" class="st5" width="5.62" height="3.03"/>
				<rect x="110.13" y="10.88" class="st8" width="19.74" height="3.03"/>
				<rect x="106.74" y="10.88" class="st7" width="2.64" height="3.03"/>
			</g>
			<g class="st2">
				<rect x="55.69" y="24.9" class="st5" width="24.12" height="3.03"/>
				<rect x="81.53" y="24.9" class="st5" width="7.7" height="3.03"/>
				<rect x="62.05" y="29.58" class="st6" width="27.18" height="3.03"/>
				<rect x="58.86" y="43.6" class="st6" width="20.95" height="3.03"/>
				<rect x="81.53" y="43.6" class="st7" width="7.7" height="3.03"/>
				<rect x="73.5" y="48.27" class="st8" width="15.73" height="3.03"/>
				<rect x="60.58" y="48.27" class="st7" width="11.25" height="3.03"/>
				<rect x="65.11" y="34.25" class="st7" width="17.6" height="3.03"/>
				<rect x="84.41" y="34.25" class="st8" width="4.81" height="3.03"/>
				<rect x="57.76" y="34.25" class="st5" width="5.62" height="3.03"/>
				<rect x="69.48" y="38.93" class="st5" width="19.74" height="3.03"/>
				<rect x="58.86" y="62.3" class="st5" width="20.95" height="3.03"/>
				<rect x="81.53" y="62.3" class="st7" width="7.7" height="3.03"/>
				<rect x="55.69" y="66.97" class="st6" width="33.54" height="3.03"/>
				<rect x="65.11" y="52.95" class="st6" width="24.12" height="3.03"/>
				<rect x="57.76" y="52.95" class="st5" width="5.62" height="3.03"/>
				<rect x="69.48" y="57.62" class="st8" width="19.74" height="3.03"/>
				<rect x="66.09" y="57.62" class="st7" width="2.64" height="3.03"/>
				<rect x="73.5" y="1.54" class="st8" width="15.73" height="3.03"/>
				<rect x="60.58" y="1.54" class="st7" width="11.25" height="3.03"/>
				<rect x="58.86" y="15.56" class="st5" width="20.95" height="3.03"/>
				<rect x="81.53" y="15.56" class="st7" width="7.7" height="3.03"/>
				<rect x="55.69" y="20.23" class="st6" width="33.54" height="3.03"/>
				<rect x="65.11" y="6.21" class="st6" width="24.12" height="3.03"/>
				<rect x="57.76" y="6.21" class="st5" width="5.62" height="3.03"/>
				<rect x="69.48" y="10.88" class="st8" width="19.74" height="3.03"/>
				<rect x="66.09" y="10.88" class="st7" width="2.64" height="3.03"/>
			</g>
		</g>
	</g>
	<path class="st9" d="M0,0v163.2h184.09V0H0z M88.31,86.34c-1.25,5.97-4.48,10.59-9.88,13.55c-2.97,1.63-6.15,1.82-9.38,0.96
		c-5.35-1.43-9.53-4.46-12.19-9.39c-1.96-3.64-1.99-7.46-0.52-11.26c1.96-5.07,5.6-8.47,10.43-10.33c4.33-1.41,8.33-1.02,12.23,0.61
		c1.9,0.79,3.67,1.9,5.17,3.3C87.87,77.23,89.34,81.44,88.31,86.34z M129.75,76.25c-0.45,3.07-0.89,6.13-1.34,9.2
		c-0.04,0.26-0.08,0.51-0.14,0.77c-0.14,0.6-0.44,0.77-1.01,0.51c-2.2-0.99-4.36-2.04-6.56-3.02c-0.74-0.33-1.47-0.67-2.18-1.04
		c-0.81-0.42-1.03-0.39-1.35,0.32c-1.53,3.35-3.05,6.7-4.59,10.05c-0.36,0.79-0.53,0.84-1.35,0.52c-2.66-1.05-5.33-2.09-7.98-3.16
		c-1.82-0.73-1.95-1.23-1.1-3c0.92-1.93,1.75-3.91,2.64-5.86c0.27-0.6-0.07-0.82-0.51-1.07c-4.31-2.38-8.62-4.76-12.93-7.14
		c-1.75-0.97-1.82-1.2-0.91-2.99c1.26-2.48,2.5-4.97,3.76-7.45c0.17-0.34,0.45-0.62,0.71-0.96c0.38,0.09,0.68,0.11,0.94,0.23
		c3.11,1.38,6.21,2.78,9.31,4.18c0.15,0.07,0.29,0.13,0.44,0.19c0.67,0.28,0.94,0.16,1.02-0.56c0.43-3.76,0.9-7.52,1.2-11.29
		c0.09-1.18,0.12-2.36,0.16-3.54c0.04-1.14,0.39-1.47,1.42-1.33c3.82,0.52,7.65,1.04,11.47,1.56c1.38,0.19,1.63,0.5,1.56,1.87
		c-0.34,6.01-0.68,12.01-1.02,18.02c-0.05,0.9-0.03,0.92,0.81,1.19c2.15,0.7,4.3,1.39,6.46,2.08
		C129.75,74.88,129.91,75.15,129.75,76.25z"/>
	<path class="st10" d="M182.15,100.02c-3.39-3.98-7.71-6-13.01-5.35c-3.6,0.44-6.46,2.33-8.79,5.07c-0.62,0.73-1.22,1.48-1.91,2.15
		c-1.58,1.52-3.51,2.14-5.63,1.68c-2.52-0.54-4.99-1.28-7.44-1.92c0.62-1.03,1.3-1.97,1.8-2.99c1.02-2.13,1.24-4.34,0.25-6.56
		c-0.67-1.5-1.79-2.65-3.11-3.59c-1.13-0.82-2.32-1.56-3.5-2.34c0.25-1.02,0.58-2.06,0.75-3.12c0.85-5.2-0.77-9.62-4.37-13.38
		c-0.37-0.38-0.43-0.7-0.34-1.21c0.42-2.3,0.77-4.61,1.17-6.91c0.05-0.29,0.18-0.62,0.39-0.82c6.07-5.98,12.14-11.95,18.23-17.9
		c1.46-1.42,2.79-1.57,4.59-0.63c6.06,3.16,13.12,0.44,15.55-5.95c1.43-3.77,1.79-7.59,0.62-11.5c-0.03-0.09,0-0.19,0-0.29
		c-0.13-0.38-0.26-0.76-0.39-1.14c-0.45-0.84-0.85-1.71-1.36-2.51c-1.67-2.68-4.08-4.24-7.18-4.88c-1.18-0.24-2.38-0.62-3.44-1.17
		c-1.97-1.02-2.98-2.83-3.54-4.91c-0.67-2.48-1.84-4.69-3.52-6.62c-2.84-3.27-6.34-4.06-10.4-2.37c-2.86,1.19-5.35,2.95-7.45,5.24
		c-2.74,2.98-3.53,6.54-3.11,10.47c0.23,2.12,0.83,4.15,1.51,6.17c0.64,1.89,0.48,3.63-0.84,5.24c-1.31,1.59-2.47,3.3-3.79,4.87
		c-0.69,0.83-1.6,1.48-2.44,2.23c-0.77-1.09-1.43-2.06-2.13-3c-4.39-5.87-9.89-10.44-16.41-13.75c-10.69-5.43-21.98-6.94-33.76-4.86
		c-1.79,0.32-3.55,0.8-5.33,1.2c0,0-0.01,0-0.01,0c-0.34,0.07-0.68,0.13-1,0.24l-4.6,1.59c-0.46,0.16-0.91,0.34-1.34,0.55
		c-0.43,0.2-0.85,0.4-1.28,0.6c-10.83,4.95-19.33,12.48-25.16,22.9c-4.11,7.36-6.27,15.27-6.18,23.72c0.03,2.41,0.39,4.81,0.6,7.22
		c0.02,0.22,0.06,0.43-0.04,0.71c-0.55-0.87-1.1-1.73-1.63-2.61c-0.88-1.42-1.24-3.03-1.66-4.61c-0.98-3.72-2.61-7.1-5.69-9.52
		c-3.89-3.06-8.34-4.14-13.16-2.93C8.87,53.5,6.79,56.21,6,59.97c-0.47,2.27-0.22,4.54,0.12,6.8c0.26,1.74,0.4,3.48-0.48,5.1
		c-0.3,0.56-0.69,1.07-1.1,1.56c-1.95,2.37-3.38,5.02-4.15,7.98c-0.88,3.39-0.29,6.6,1.63,9.53c1.81,2.75,4.17,4.91,7.21,6.22
		c4.48,1.93,8.89,0.83,11.94-3c1.22-1.53,2.31-3.17,3.42-4.78c0.27-0.38,0.51-0.44,0.94-0.3c6.75,2.09,13.5,4.16,20.26,6.23
		c0.63,0.19,1.28,0.33,1.91,0.51c0.17,0.05,0.33,0.14,0.46,0.25c1.05,0.86,2.11,1.72,3.12,2.62c0.2,0.18,0.37,0.54,0.35,0.8
		c-0.42,5.34,1.22,9.85,5.31,13.4c0.01,0,0.01,0.01,0.01,0.01c0,0,0,0,0,0c0.06,0.07,0.04,0.03,0,0
		c-4.05,3.85-8.09,7.68-12.12,11.54c-1.49,1.43-3.16,1.64-4.96,0.77c-2.21-1.06-4.49-1.78-6.95-1.92
		c-7.95-0.44-15.34,5.15-17.06,12.92c-0.38,1.72-0.4,3.45-0.06,5.18c0.02,0.11,0,0.23,0,0.35c0.31,0.91,0.63,1.82,0.94,2.73
		c0.45,0.68,0.85,1.39,1.35,2.04c1.96,2.53,4.54,3.92,7.74,4.14c0.18,0.01,0.36,0.03,0.54,0.04c2.62,0.18,4.32,1.5,5.33,3.97
		c1.13,2.77,2.92,5.1,5.43,6.79c2.57,1.73,5.43,2.05,8.41,1.51c3.74-0.67,7.15-2.17,10.2-4.45c3.55-2.65,4.8-6.81,3.38-11.01
		c-0.71-2.12-1.86-3.98-3.28-5.68c-0.13-0.15-0.25-0.3-0.41-0.49c1.19-1.16,2.36-2.3,3.53-3.44c2.77-2.68,5.55-5.36,8.31-8.06
		c0.34-0.34,0.69-0.53,1.18-0.61c2.98-0.52,5.58-1.91,8.03-3.61c0.54-0.37,1.07-0.75,1.68-1.18c0.36,1.03,0.67,1.99,1.03,2.95
		c0.52,1.41,1.32,2.64,2.39,3.7c3.68,3.63,11.24,2.97,13.74-2.87c0.17-0.4,0.33-0.81,0.51-1.26c0.49,0.24,0.96,0.48,1.44,0.71
		c4.67,2.22,12.28-0.1,13.73-7.31c0.21-1.04,0.33-2.09,0.46-3.14c0.03-0.3,0.23-0.54,0.5-0.66c0.8-0.34,1.58-0.76,2.38-1.09
		c0.22-0.09,0.54-0.06,0.79,0.02c6.1,2.02,12.19,4.06,18.3,6.07c4.69,1.55,9.4,3.07,14.1,4.6c0.4,0.13,0.8,0.26,1.17,0.46
		c0.9,0.46,1.43,1.41,1.48,2.41c0.04,0.99-0.02,1.99,0.12,2.96c0.63,4.26,3.65,7.19,8.01,7.81c2.28,0.33,4.55,0.18,6.78-0.39
		c0.15-0.04,0.31-0.03,0.46-0.05l2.16-0.75c0.82-0.44,1.67-0.84,2.46-1.33c4.83-2.93,6.76-7.18,5.89-12.76
		c-0.16-1.02-0.21-2.07-0.18-3.1c0.06-2.04,0.74-3.87,2.1-5.43c1.14-1.31,2.27-2.64,3.38-3.98c0.98-1.18,1.77-2.48,2.24-3.95
		C184.55,105.11,184.13,102.35,182.15,100.02z"/>
	<g class="st0">
		<path class="st11" d="M128.68,74.54c-2.15-0.69-4.31-1.38-6.46-2.08c-0.84-0.27-0.86-0.3-0.81-1.19
			c0.34-6.01,0.68-12.01,1.02-18.02c0.08-1.37-0.18-1.68-1.56-1.87c-3.82-0.52-7.65-1.04-11.47-1.56c-1.03-0.14-1.38,0.19-1.42,1.33
			c-0.04,1.18-0.07,2.36-0.16,3.54c-0.3,3.77-0.76,7.53-1.2,11.29c-0.08,0.71-0.35,0.84-1.02,0.56c-0.15-0.06-0.29-0.13-0.44-0.19
			c-3.1-1.39-6.2-2.79-9.31-4.18c-0.26-0.12-0.56-0.14-0.94-0.23c-0.26,0.34-0.54,0.62-0.71,0.96c-1.27,2.48-2.51,4.97-3.76,7.45
			c-0.91,1.79-0.84,2.02,0.91,2.99c4.31,2.38,8.62,4.76,12.93,7.14c0.44,0.24,0.78,0.46,0.51,1.07c-0.89,1.95-1.71,3.92-2.64,5.86
			c-0.85,1.77-0.72,2.27,1.1,3c2.65,1.07,5.32,2.11,7.98,3.16c0.81,0.32,0.99,0.27,1.35-0.52c1.53-3.35,3.06-6.7,4.59-10.05
			c0.32-0.71,0.54-0.74,1.35-0.32c0.71,0.37,1.45,0.71,2.18,1.04c2.2,0.97,4.36,2.03,6.56,3.02c0.57,0.26,0.87,0.08,1.01-0.51
			c0.06-0.25,0.1-0.51,0.14-0.77c0.45-3.07,0.89-6.13,1.34-9.2C129.91,75.15,129.75,74.88,128.68,74.54z"/>
		<path class="st11" d="M84.18,73.79c-1.51-1.4-3.27-2.5-5.17-3.3c-3.9-1.63-7.9-2.02-12.23-0.61c-4.84,1.86-8.48,5.26-10.43,10.33
			c-1.47,3.8-1.45,7.62,0.52,11.26c2.66,4.92,6.84,7.96,12.19,9.39c3.22,0.86,6.41,0.68,9.38-0.96c5.4-2.97,8.63-7.58,9.88-13.55
			C89.34,81.44,87.87,77.23,84.18,73.79z"/>
	</g>
	<g>
		<path class="st12" d="M181.39,100.67c-2.89-3.4-6.36-5.12-10.32-5.12c-0.59,0-1.2,0.04-1.81,0.11c-3.1,0.38-5.76,1.93-8.15,4.72
			l-0.37,0.44c-0.5,0.6-1.02,1.21-1.6,1.78c-1.43,1.38-3.15,2.11-4.98,2.11c-0.51,0-1.04-0.06-1.56-0.17
			c-1.78-0.38-3.56-0.87-5.27-1.33c-0.74-0.2-1.48-0.4-2.21-0.59l-1.3-0.34l0.7-1.15c0.2-0.33,0.41-0.65,0.61-0.97
			c0.42-0.66,0.83-1.29,1.14-1.93c0.97-2.03,1.05-3.9,0.24-5.72c-0.53-1.18-1.43-2.22-2.78-3.19c-0.77-0.55-1.59-1.09-2.38-1.6
			c-0.36-0.24-0.73-0.47-1.09-0.71l-0.58-0.39l0.17-0.68c0.08-0.33,0.17-0.66,0.26-0.99c0.19-0.71,0.37-1.37,0.48-2.05
			c0.77-4.74-0.57-8.83-4.1-12.53c-0.58-0.6-0.76-1.23-0.6-2.08c0.25-1.35,0.47-2.73,0.69-4.06c0.15-0.95,0.31-1.9,0.47-2.84
			c0.04-0.26,0.2-0.9,0.67-1.36c7.28-7.18,12.91-12.7,18.23-17.9c1.04-1.02,2.1-1.51,3.24-1.51c0.78,0,1.6,0.23,2.51,0.71
			c1.53,0.8,3.15,1.21,4.81,1.21c4.15,0,7.81-2.6,9.34-6.63c1.45-3.81,1.64-7.36,0.6-10.86c-0.05-0.17-0.06-0.32-0.05-0.44
			l-0.13-0.38l-0.17-0.49c-0.13-0.25-0.26-0.49-0.38-0.74c-0.3-0.58-0.58-1.13-0.9-1.65c-1.48-2.38-3.62-3.83-6.53-4.43
			c-1.39-0.29-2.64-0.71-3.7-1.26c-2-1.03-3.32-2.84-4.05-5.54c-0.63-2.33-1.74-4.42-3.31-6.22C155.53,1.95,153.66,1,151.52,1
			c-1.11,0-2.31,0.27-3.57,0.79c-2.7,1.13-5.09,2.81-7.1,4.99c-2.34,2.55-3.27,5.72-2.85,9.68c0.23,2.1,0.84,4.11,1.46,5.95
			c0.79,2.33,0.45,4.42-1.02,6.19c-0.61,0.74-1.2,1.53-1.77,2.29c-0.65,0.86-1.31,1.75-2.03,2.59c-0.53,0.63-1.16,1.16-1.76,1.67
			c-0.26,0.22-0.52,0.44-0.77,0.66l-0.84,0.75l-0.65-0.92c-0.25-0.35-0.49-0.7-0.72-1.03c-0.48-0.68-0.93-1.33-1.39-1.95
			c-4.25-5.67-9.65-10.2-16.07-13.46c-7.38-3.75-15.23-5.65-23.33-5.65c-3.2,0-6.5,0.3-9.81,0.88c-1.17,0.21-2.37,0.49-3.52,0.77
			c-0.59,0.14-1.17,0.28-1.76,0.42l-0.18,0.04c-0.26,0.05-0.51,0.1-0.72,0.18l-4.6,1.59c-0.43,0.15-0.84,0.32-1.24,0.51
			c-0.43,0.2-0.86,0.41-1.29,0.6c-10.81,4.93-19.12,12.5-24.7,22.48c-4.1,7.33-6.13,15.14-6.05,23.22c0.02,1.61,0.2,3.27,0.37,4.88
			c0.08,0.75,0.16,1.51,0.23,2.26l0.01,0.07c0.02,0.24,0.06,0.6-0.1,1.05l-0.68,1.98l-1.11-1.77l-0.51-0.8
			c-0.38-0.6-0.76-1.2-1.13-1.81c-0.87-1.41-1.27-2.95-1.66-4.44l-0.12-0.45c-1.08-4.11-2.77-6.97-5.34-8.98
			c-2.7-2.12-5.63-3.2-8.73-3.2c-1.16,0-2.36,0.15-3.57,0.46c-3.18,0.8-5.17,3.04-5.93,6.66c-0.45,2.16-0.18,4.37,0.13,6.45
			c0.26,1.76,0.46,3.79-0.59,5.73c-0.37,0.68-0.84,1.28-1.21,1.72c-1.92,2.33-3.25,4.89-3.95,7.59c-0.79,3.06-0.29,6,1.5,8.73
			c1.78,2.71,4.06,4.68,6.77,5.85c1.31,0.56,2.62,0.85,3.89,0.85c2.64,0,5.02-1.23,6.87-3.55c0.95-1.2,1.85-2.5,2.71-3.76
			c0.22-0.32,0.45-0.65,0.67-0.97c0.37-0.53,0.84-0.8,1.4-0.8c0.2,0,0.41,0.04,0.66,0.11c6.75,2.09,13.5,4.16,20.26,6.23
			c0.32,0.1,0.65,0.18,0.97,0.26c0.31,0.08,0.62,0.16,0.93,0.25c0.29,0.09,0.57,0.23,0.82,0.43l0.27,0.22
			c0.95,0.78,1.94,1.59,2.89,2.43c0.45,0.4,0.73,1.06,0.69,1.62c-0.41,5.2,1.22,9.31,4.96,12.56l0.06,0.05l0.02,0.03l0.72,0.7
			l-0.76,0.72l-3.44,3.28c-2.9,2.75-5.79,5.5-8.67,8.26c-1.08,1.04-2.29,1.57-3.59,1.57c-0.81,0-1.64-0.21-2.49-0.61
			c-2.31-1.11-4.46-1.7-6.58-1.82c-0.28-0.02-0.55-0.02-0.83-0.02c-7.13,0-13.67,5.23-15.2,12.16c-0.35,1.58-0.37,3.19-0.06,4.77
			l0.01,0.05c0.02,0.08,0.04,0.17,0.05,0.28c0.14,0.42,0.28,0.84,0.41,1.26c0.13,0.41,0.26,0.82,0.4,1.23
			c0.12,0.19,0.24,0.37,0.36,0.56c0.29,0.47,0.57,0.9,0.88,1.3c1.8,2.33,4.1,3.56,7.01,3.76l0.29,0.02l0.25,0.02
			c2.99,0.21,5.01,1.71,6.18,4.59c1.09,2.68,2.79,4.81,5.06,6.34c1.58,1.06,3.32,1.58,5.32,1.58c0.75,0,1.54-0.07,2.35-0.22
			c3.56-0.64,6.85-2.08,9.78-4.26c3.18-2.38,4.32-6.08,3.03-9.89c-0.63-1.86-1.64-3.62-3.1-5.36l-0.26-0.32l-0.15-0.18l-0.59-0.71
			l0.66-0.64l1.1-1.08c0.81-0.79,1.62-1.58,2.43-2.36l2.54-2.45c1.93-1.86,3.85-3.73,5.77-5.6c0.5-0.49,1.04-0.77,1.7-0.88
			c2.45-0.43,4.8-1.49,7.64-3.45c0.36-0.25,0.72-0.51,1.11-0.78l0.57-0.4l1.09-0.76l0.43,1.26l0.33,0.95
			c0.23,0.67,0.45,1.33,0.69,1.97c0.47,1.27,1.19,2.39,2.15,3.33c1.26,1.24,3.12,1.95,5.1,1.95c2.46,0,5.59-1.18,7.01-4.5
			c0.11-0.27,0.22-0.54,0.34-0.82l0.17-0.43l0.4-1l0.96,0.47l0.47,0.23c0.32,0.16,0.64,0.32,0.96,0.47
			c0.98,0.47,2.14,0.71,3.35,0.71c3.73,0,7.95-2.26,8.97-7.32c0.2-0.99,0.32-2.04,0.44-3.05c0.08-0.66,0.5-1.22,1.1-1.48
			c0.36-0.15,0.71-0.32,1.06-0.49c0.43-0.2,0.88-0.42,1.34-0.61c0.21-0.09,0.44-0.13,0.7-0.13c0.32,0,0.6,0.07,0.78,0.13
			c2.87,0.95,5.75,1.91,8.62,2.86c3.22,1.07,6.45,2.15,9.68,3.21c3.11,1.03,6.22,2.04,9.33,3.05c1.59,0.52,3.18,1.03,4.77,1.55
			c0.47,0.15,0.89,0.3,1.32,0.52c1.18,0.61,1.95,1.85,2.02,3.26c0.02,0.36,0.02,0.72,0.02,1.08c0,0.63,0.01,1.22,0.09,1.78
			c0.56,3.8,3.24,6.41,7.16,6.97c0.75,0.11,1.5,0.16,2.26,0.16c1.36,0,2.76-0.18,4.14-0.53c0.2-0.05,0.38-0.06,0.51-0.07l1.96-0.68
			c0.24-0.13,0.48-0.25,0.73-0.38c0.57-0.29,1.1-0.57,1.62-0.88c4.46-2.71,6.24-6.55,5.42-11.76c-0.16-1.03-0.23-2.13-0.2-3.28
			c0.06-2.31,0.85-4.35,2.34-6.06c1.2-1.38,2.3-2.67,3.37-3.96c0.99-1.2,1.66-2.38,2.06-3.61
			C183.52,105.05,183.1,102.67,181.39,100.67z M88.31,86.34c-1.25,5.97-4.48,10.59-9.88,13.55c-2.97,1.63-6.15,1.82-9.38,0.96
			c-5.35-1.43-9.53-4.46-12.19-9.39c-1.96-3.64-1.99-7.46-0.52-11.26c1.96-5.07,5.6-8.47,10.43-10.33
			c4.33-1.41,8.33-1.02,12.23,0.61c1.9,0.79,3.67,1.9,5.17,3.3C87.87,77.23,89.34,81.44,88.31,86.34z M129.75,76.25
			c-0.45,3.07-0.89,6.13-1.34,9.2c-0.04,0.26-0.08,0.51-0.14,0.77c-0.14,0.6-0.44,0.77-1.01,0.51c-2.2-0.99-4.36-2.04-6.56-3.02
			c-0.74-0.33-1.47-0.67-2.18-1.04c-0.81-0.42-1.03-0.39-1.35,0.32c-1.53,3.35-3.05,6.7-4.59,10.05c-0.36,0.79-0.53,0.84-1.35,0.52
			c-2.66-1.05-5.33-2.09-7.98-3.16c-1.82-0.73-1.95-1.23-1.1-3c0.92-1.93,1.75-3.91,2.64-5.86c0.27-0.6-0.07-0.82-0.51-1.07
			c-4.31-2.38-8.62-4.76-12.93-7.14c-1.75-0.97-1.82-1.2-0.91-2.99c1.26-2.48,2.5-4.97,3.76-7.45c0.17-0.34,0.45-0.62,0.71-0.96
			c0.38,0.09,0.68,0.11,0.94,0.23c3.11,1.38,6.21,2.78,9.31,4.18c0.15,0.07,0.29,0.13,0.44,0.19c0.67,0.28,0.94,0.16,1.02-0.56
			c0.43-3.76,0.9-7.52,1.2-11.29c0.09-1.18,0.12-2.36,0.16-3.54c0.04-1.14,0.39-1.47,1.42-1.33c3.82,0.52,7.65,1.04,11.47,1.56
			c1.38,0.19,1.63,0.5,1.56,1.87c-0.34,6.01-0.68,12.01-1.02,18.02c-0.05,0.9-0.03,0.92,0.81,1.19c2.15,0.7,4.3,1.39,6.46,2.08
			C129.75,74.88,129.91,75.15,129.75,76.25z"/>
	</g>
	<path class="st13" d="M169.14,94.67c-3.6,0.44-6.46,2.33-8.79,5.07c-0.62,0.73-1.22,1.48-1.91,2.15c-1.58,1.52-3.51,2.14-5.63,1.68
		c-2.52-0.54-4.99-1.28-7.44-1.92c0.62-1.03,1.3-1.97,1.8-2.99c1.02-2.13,1.24-4.34,0.25-6.56c-0.67-1.5-1.79-2.65-3.11-3.59
		c-1.13-0.82-2.32-1.56-3.5-2.34c0.25-1.02,0.58-2.06,0.75-3.12c0.85-5.2-0.77-9.62-4.37-13.38c-0.37-0.38-0.43-0.7-0.34-1.21
		c0.42-2.3,0.77-4.61,1.17-6.91c0.05-0.29,0.18-0.62,0.39-0.82c6.07-5.98,12.14-11.95,18.23-17.9c1.46-1.42,2.79-1.57,4.59-0.63
		c6.06,3.16,13.12,0.44,15.55-5.95c1.43-3.77,1.79-7.59,0.62-11.5c-0.03-0.09,0-0.19,0-0.29c-0.13-0.38-0.26-0.76-0.39-1.14
		c-0.45-0.84-0.85-1.71-1.36-2.51c-1.67-2.68-4.08-4.24-7.18-4.88c-1.18-0.24-2.38-0.62-3.44-1.17c-1.97-1.02-2.98-2.83-3.54-4.91
		c-0.67-2.48-1.84-4.69-3.52-6.62c-2.84-3.27-6.34-4.06-10.4-2.37c-2.86,1.19-5.35,2.95-7.45,5.24c-2.74,2.98-3.53,6.54-3.11,10.47
		c0.23,2.12,0.83,4.15,1.51,6.17c0.64,1.89,0.48,3.63-0.84,5.24c-1.31,1.59-2.47,3.3-3.79,4.87c-0.69,0.83-1.6,1.48-2.44,2.23
		c-0.77-1.09-1.43-2.06-2.13-3c-4.39-5.87-9.89-10.44-16.41-13.75c-10.69-5.43-21.98-6.94-33.76-4.86c-1.79,0.32-3.55,0.8-5.33,1.2
		c0,0-0.01,0-0.01,0c-0.34,0.07-0.68,0.13-1,0.24l-4.6,1.59c-0.46,0.16-0.91,0.34-1.34,0.55c-0.43,0.2-0.85,0.4-1.28,0.6
		c-10.83,4.95-19.33,12.48-25.16,22.9c-4.11,7.36-6.27,15.27-6.18,23.72c0.03,2.41,0.39,4.81,0.6,7.22
		c0.02,0.22,0.06,0.43-0.04,0.71c-0.55-0.87-1.1-1.73-1.63-2.61c-0.88-1.42-1.24-3.03-1.66-4.61c-0.98-3.72-2.61-7.1-5.69-9.52
		c-3.89-3.06-8.34-4.14-13.16-2.93C8.87,53.5,6.79,56.21,6,59.97c-0.47,2.27-0.22,4.54,0.12,6.8c0.26,1.74,0.4,3.48-0.48,5.1
		c-0.3,0.56-0.69,1.07-1.1,1.56c-1.95,2.37-3.38,5.02-4.15,7.98c-0.88,3.39-0.29,6.6,1.63,9.53c1.81,2.75,4.17,4.91,7.21,6.22
		c4.48,1.93,8.89,0.83,11.94-3c1.22-1.53,2.31-3.17,3.42-4.78c0.27-0.38,0.51-0.44,0.94-0.3c6.75,2.09,13.5,4.16,20.26,6.23
		c0.63,0.19,1.28,0.33,1.91,0.51c0.17,0.05,0.33,0.14,0.46,0.25c1.05,0.86,2.11,1.72,3.12,2.62c0.2,0.18,0.37,0.54,0.35,0.8
		c-0.42,5.34,1.22,9.85,5.31,13.4c0.01,0,0.01,0.01,0.01,0.01c0,0,0,0,0,0c0.06,0.07,0.04,0.03,0,0
		c-4.05,3.85-8.09,7.68-12.12,11.54c-1.49,1.43-3.16,1.64-4.96,0.77c-2.21-1.06-4.49-1.78-6.95-1.92
		c-7.95-0.44-15.34,5.15-17.06,12.92c-0.38,1.72-0.4,3.45-0.06,5.18c0.02,0.11,0,0.23,0,0.35c0.31,0.91,0.63,1.82,0.94,2.73
		c0.45,0.68,0.85,1.39,1.35,2.04c1.96,2.53,4.54,3.92,7.74,4.14c0.18,0.01,0.36,0.03,0.54,0.04c2.62,0.18,4.32,1.5,5.33,3.97
		c1.13,2.77,2.92,5.1,5.43,6.79c2.57,1.73,5.43,2.05,8.41,1.51c3.74-0.67,7.15-2.17,10.2-4.45c3.55-2.65,4.8-6.81,3.38-11.01
		c-0.71-2.12-1.86-3.98-3.28-5.68c-0.13-0.15-0.25-0.3-0.41-0.49c1.19-1.16,2.36-2.3,3.53-3.44c2.77-2.68,5.55-5.36,8.31-8.06
		c0.34-0.34,0.69-0.53,1.18-0.61c2.98-0.52,5.58-1.91,8.03-3.61c0.54-0.37,1.07-0.75,1.68-1.18c0.36,1.03,0.67,1.99,1.03,2.95
		c0.52,1.41,1.32,2.64,2.39,3.7c3.68,3.63,11.24,2.97,13.74-2.87c0.17-0.4,0.33-0.81,0.51-1.26c0.49,0.24,0.96,0.48,1.44,0.71
		c4.67,2.22,12.28-0.1,13.73-7.31c0.21-1.04,0.33-2.09,0.46-3.14c0.03-0.3,0.23-0.54,0.5-0.66c0.8-0.34,1.58-0.76,2.38-1.09
		c0.22-0.09,0.54-0.06,0.79,0.02c6.1,2.02,12.19,4.06,18.3,6.07c4.69,1.55,9.4,3.07,14.1,4.6c0.4,0.13,0.8,0.26,1.17,0.46
		c0.9,0.46,1.43,1.41,1.48,2.41c0.04,0.99-0.02,1.99,0.12,2.96c0.63,4.26,3.65,7.19,8.01,7.81c2.28,0.33,4.55,0.18,6.78-0.39
		c0.15-0.04,0.31-0.03,0.46-0.05l2.16-0.75c0.82-0.44,1.67-0.84,2.46-1.33c4.83-2.93,6.76-7.18,5.89-12.76
		c-0.16-1.02-0.21-2.07-0.18-3.1c0.06-2.04,0.74-3.87,2.1-5.43c1.14-1.31,2.27-2.64,3.38-3.98c0.98-1.18,1.77-2.48,2.24-3.95
		c0.94-2.93,0.52-5.69-1.46-8.02C178.76,96.04,174.44,94.02,169.14,94.67z M134.5,39.21c2.25-2.22,4.46-4.48,6.65-6.75
		c2.23-2.31,3.52-5.04,3.11-8.31c-0.19-1.52-0.77-2.98-1.07-4.48c-0.32-1.6-0.71-3.23-0.72-4.85c-0.02-4.04,2.44-7.31,6.35-8.71
		c0.74-0.27,1.54-0.46,2.32-0.53c1.32-0.11,2.37,0.49,2.96,1.66c1.16,2.3,2.32,4.61,3.31,6.99c1.53,3.65,4.07,5.95,8.04,6.6
		c0.94,0.15,1.89,0.39,2.77,0.74c1.87,0.73,3.16,2.08,3.76,4.02c0.87,2.79,1.03,5.58-0.15,8.33c-0.57,1.34-1.32,2.59-2.59,3.38
		c-1.88,1.15-3.81,1.11-5.68-0.03c-1.28-0.78-2.6-1.42-4.13-1.5c-2.26-0.11-4.06,0.9-5.63,2.4c-3.72,3.54-7.42,7.11-11.12,10.68
		c-1.47,1.41-2.92,2.85-4.38,4.27c-0.11,0.11-0.24,0.2-0.4,0.34c-0.21-1.19-0.38-2.32-0.6-3.45c-0.64-3.27-1.63-6.44-3.04-9.47
		C134.04,40.01,134.04,39.67,134.5,39.21z M38.3,87.26c-3.86-1.19-7.72-2.39-11.59-3.56c-0.79-0.24-1.62-0.37-2.44-0.45
		c-1.94-0.19-3.85,0.78-4.78,2.5c-0.45,0.82-0.75,1.73-1.06,2.62c-0.41,1.2-0.95,2.31-1.94,3.12c-1.62,1.32-3.43,1.39-5.24,0.52
		c-2.02-0.97-3.7-2.39-4.86-4.33c-1.34-2.23-1.08-4.53-0.06-6.79c0.74-1.64,1.63-3.17,2.96-4.46c2.1-2.06,2.66-4.73,2.51-7.57
		c-0.08-1.57-0.39-3.14-0.45-4.71c-0.05-1.18-0.01-2.41,0.26-3.56c0.46-2,1.92-3.14,3.96-3.11c4.66,0.07,8.08,2.13,9.76,6.32
		c0.84,2.1,1.5,4.25,2.05,6.45c0.92,3.68,3.38,6.08,6.95,7.13c1.68,0.5,2.47,1.35,3.02,2.97c0.86,2.55,2.18,4.93,3.66,7.21
		c0.12,0.18,0.22,0.36,0.39,0.65C40.28,87.87,39.29,87.56,38.3,87.26z M56.49,132.63c-1.74,1.71-3.48,3.41-5.15,5.19
		c-0.58,0.61-1.06,1.38-1.39,2.15c-0.83,1.95-0.16,3.61,1.14,5.13c0.87,1.01,1.79,2,2.44,3.15c1.15,2.03,0.61,4.6-1.21,6.06
		c-0.9,0.73-1.95,1.37-3.03,1.77c-1.71,0.64-3.46,1.19-5.24,1.57c-1.6,0.34-3.3-0.09-4.49-1.22c-1.88-1.77-3.12-3.95-4.06-6.32
		c-0.31-0.78-0.56-1.6-0.97-2.32c-0.81-1.41-2.13-2.07-3.72-2.21c-1.03-0.09-2.08-0.17-3.11-0.14c-4.81,0.14-7.32-3.91-6.49-7.83
		c0.73-3.46,2.79-6.04,5.92-7.68c3.26-1.71,6.6-1.59,9.88-0.02c1.72,0.82,3.45,1.52,5.39,1.42c2.18-0.11,4.03-1.01,5.57-2.49
		c3.04-2.92,6.04-5.89,9.06-8.83c0.12-0.12,0.26-0.23,0.48-0.43c-0.64,3.71,0.63,6.47,3.79,8.37
		C59.67,129.55,58.07,131.08,56.49,132.63z M91.65,127.52c-1.04,1.68-2.63,2.32-4.55,2.23c-1.87-0.09-3.33-0.93-4.1-2.65
		c-0.7-1.56-1.24-3.2-1.83-4.82c-0.19-0.53,0.6-1.16,1.24-0.98c2.19,0.62,4.43,0.86,6.7,0.84c1.22-0.01,2.43-0.11,3.65-0.17
		c0.21-0.01,0.43-0.03,0.72-0.04C92.96,123.86,92.7,125.83,91.65,127.52z M103.62,124.39c-3.14,1.19-5.66,0.4-8.24-2.57
		c4.09-1.14,8.23-2.3,12.37-3.46C108.06,120.45,106.07,123.46,103.62,124.39z M120.11,107.65c-3.12,2.57-6.64,4.45-10.35,5.98
		c-3.57,1.47-7.22,2.75-10.97,3.69c-4.43,1.11-8.92,1.73-13.48,0.99c-1.21-0.2-2.38-0.66-3.54-1.07c-0.42-0.15-0.66-0.15-0.99,0.17
		c-2.51,2.45-5.14,4.75-8.19,6.52c-1.68,0.97-3.43,1.73-5.38,1.93c-1.84,0.18-3.48-0.33-4.92-1.48c-1.08-0.86-1.62-2-1.37-3.32
		c0.29-1.52,0.76-3.02,1.23-4.5c0.39-1.24,0.91-2.44,1.39-3.71c-0.73-0.4-1.45-0.78-2.16-1.18c-2.98-1.65-4.99-4.08-5.89-7.39
		c-0.43-1.61-0.5-4.28-0.08-5.56c1.35,0.49,2.69,0.97,4.03,1.46l0.05-0.08c-0.15-0.11-0.3-0.22-0.45-0.33
		c-5.68-3.67-10.31-8.37-13.58-14.3C39.6,74.83,38.91,63.8,43.4,52.54c3.63-9.09,9.86-16.1,17.9-21.56
		c4.27-2.9,8.87-5.13,13.79-6.65c11.24-3.48,22.46-3.58,33.56,0.58c7.92,2.97,14.43,7.84,19.12,14.94c5.22,7.9,7,16.64,5.94,26
		c-0.36,3.17-1.14,6.25-2.09,9.31c0.77-1.23,1.54-2.46,2.35-3.75c5.02,4.83,5.46,10.23,2.26,16.16c1.41,0.87,2.76,1.7,4.12,2.54
		c1.19,0.74,2.36,1.51,3.29,2.58c0.7,0.81,0.99,1.72,0.82,2.78c-0.43,2.66-2.02,4.37-4.43,5.39c-2.94,1.24-6.06,1.41-9.19,1.36
		c-1.78-0.03-3.57-0.2-5.34-0.35c-0.34-0.03-0.64,0.17-0.79,0.47C123.68,104.54,121.94,106.14,120.11,107.65z M129.19,114.77
		c-1.39-0.31-2.64-0.94-3.74-1.84c-1-0.82-1.94-1.72-2.93-2.61c0.92-0.89,1.76-1.68,2.57-2.5c0.43-0.44,0.88-0.89,1.2-1.42
		c0.42-0.69,0.93-0.85,1.73-0.79c1.99,0.13,3.99,0.12,6.18,0.17c0.32,1.26,0.86,2.63,0.99,4.04
		C135.48,113.04,132.42,115.49,129.19,114.77z M177.77,107.51c-1.43,1.87-2.89,3.73-4.46,5.49c-2.8,3.14-3.83,6.65-2.75,10.77
		c0.29,1.09,0.44,2.25,0.43,3.37c-0.01,1.88-0.85,3.44-2.38,4.56c-2.23,1.65-4.66,2.85-7.51,2.8c-1.04-0.02-2.1-0.24-3.12-0.52
		c-1.35-0.37-2.12-1.38-2.26-2.75c-0.12-1.15-0.04-2.31-0.08-3.47c-0.02-0.58-0.07-1.16-0.16-1.73c-0.28-1.75-1.32-2.97-2.9-3.64
		c-1.84-0.77-3.72-1.46-5.63-2.08c-3.58-1.16-7.18-2.24-10.78-3.36c-0.21-0.06-0.42-0.13-0.71-0.22c3.8-3.21,3.93-7.1,2.22-11.44
		c1.12,0.29,2.1,0.54,3.09,0.78c3.88,0.97,7.77,1.93,11.65,2.89c4.18,1.03,7.53-0.22,10.21-3.56c1.05-1.3,2.13-2.64,3.43-3.66
		c3.56-2.79,8.76-2.09,11.63,1.43C178.72,104.44,178.75,106.23,177.77,107.51z"/>
	<path class="st10" d="M128.27,86.22c0.06-0.25,0.1-0.51,0.14-0.77c0.45-3.07,0.89-6.13,1.34-9.2c0.16-1.1,0-1.37-1.07-1.72
		c-2.15-0.69-4.31-1.38-6.46-2.08c-0.84-0.27-0.86-0.3-0.81-1.19c0.34-6.01,0.68-12.01,1.02-18.02c0.08-1.37-0.18-1.68-1.56-1.87
		c-3.82-0.52-7.65-1.04-11.47-1.56c-1.03-0.14-1.38,0.19-1.42,1.33c-0.04,1.18-0.07,2.36-0.16,3.54c-0.3,3.77-0.76,7.53-1.2,11.29
		c-0.08,0.71-0.35,0.84-1.02,0.56c-0.15-0.06-0.29-0.13-0.44-0.19c-3.1-1.39-6.2-2.79-9.31-4.18c-0.26-0.12-0.56-0.14-0.94-0.23
		c-0.26,0.34-0.54,0.62-0.71,0.96c-1.27,2.48-2.51,4.97-3.76,7.45c-0.91,1.79-0.84,2.02,0.91,2.99c4.31,2.38,8.62,4.76,12.93,7.14
		c0.44,0.24,0.78,0.46,0.51,1.07c-0.89,1.95-1.71,3.92-2.64,5.86c-0.85,1.77-0.72,2.27,1.1,3c2.65,1.07,5.32,2.11,7.98,3.16
		c0.81,0.32,0.99,0.27,1.35-0.52c1.53-3.35,3.06-6.7,4.59-10.05c0.32-0.71,0.54-0.74,1.35-0.32c0.71,0.37,1.45,0.71,2.18,1.04
		c2.2,0.97,4.36,2.03,6.56,3.02C127.83,86.98,128.13,86.81,128.27,86.22z"/>
	<path class="st10" d="M84.18,73.79c-1.51-1.4-3.27-2.5-5.17-3.3c-3.9-1.63-7.9-2.02-12.23-0.61c-4.84,1.86-8.48,5.26-10.43,10.33
		c-1.47,3.8-1.45,7.62,0.52,11.26c2.66,4.92,6.84,7.96,12.19,9.39c3.22,0.86,6.41,0.68,9.38-0.96c5.4-2.97,8.63-7.58,9.88-13.55
		C89.34,81.44,87.87,77.23,84.18,73.79z"/>
	<path class="st13" d="M97.65,98.52c-0.94-0.71-1.81-1.36-2.77-2.07c-0.53,3.5-1.04,6.91-1.56,10.38l15.43-5.35
		c-3.32-2.73-6.58-5.41-9.88-8.13C98.44,95.12,98.05,96.78,97.65,98.52z"/>
</g>
<g id="Capa_4" class="st0">
	<g class="st2">
		<path class="st12" d="M95.38,121.82c2.58,2.97,5.1,3.76,8.24,2.57c2.45-0.93,4.43-3.94,4.13-6.03
			C103.61,119.52,99.47,120.68,95.38,121.82z"/>
		<path class="st12" d="M89.11,122.13c-2.27,0.03-4.51-0.22-6.7-0.84c-0.64-0.18-1.43,0.45-1.24,0.98c0.58,1.62,1.12,3.26,1.83,4.82
			c0.77,1.72,2.23,2.56,4.1,2.65c1.92,0.1,3.51-0.55,4.55-2.23c1.05-1.7,1.31-3.66,1.82-5.6c-0.29,0.02-0.51,0.03-0.72,0.04
			C91.54,122.02,90.32,122.12,89.11,122.13z"/>
		<path class="st12" d="M37.33,80.35c-0.55-1.62-1.34-2.47-3.02-2.97c-3.57-1.06-6.03-3.46-6.95-7.13c-0.55-2.2-1.2-4.35-2.05-6.45
			c-1.68-4.19-5.1-6.25-9.76-6.32c-2.04-0.03-3.49,1.12-3.96,3.11c-0.27,1.15-0.3,2.38-0.26,3.56c0.06,1.57,0.37,3.14,0.45,4.71
			c0.15,2.84-0.41,5.51-2.51,7.57c-1.33,1.3-2.22,2.82-2.96,4.46c-1.02,2.26-1.28,4.56,0.06,6.79c1.17,1.94,2.84,3.36,4.86,4.33
			c1.81,0.87,3.62,0.8,5.24-0.52c0.99-0.81,1.54-1.92,1.94-3.12c0.3-0.89,0.61-1.79,1.06-2.62c0.93-1.72,2.84-2.68,4.78-2.5
			c0.82,0.08,1.65,0.21,2.44,0.45c3.87,1.16,7.73,2.37,11.59,3.56c0.99,0.3,1.98,0.61,3.09,0.94c-0.17-0.29-0.27-0.47-0.39-0.65
			C39.52,85.28,38.2,82.9,37.33,80.35z"/>
		<path class="st12" d="M57.51,119.6c-0.22,0.2-0.35,0.31-0.48,0.43c-3.02,2.95-6.01,5.91-9.06,8.83c-1.55,1.48-3.4,2.38-5.57,2.49
			c-1.95,0.1-3.67-0.59-5.39-1.42c-3.28-1.57-6.61-1.69-9.88,0.02c-3.13,1.64-5.19,4.22-5.92,7.68c-0.83,3.92,1.68,7.98,6.49,7.83
			c1.04-0.03,2.08,0.05,3.11,0.14c1.59,0.13,2.91,0.8,3.72,2.21c0.42,0.72,0.66,1.54,0.97,2.32c0.94,2.36,2.18,4.55,4.06,6.32
			c1.19,1.12,2.89,1.56,4.49,1.22c1.78-0.38,3.53-0.93,5.24-1.57c1.09-0.4,2.13-1.05,3.03-1.77c1.82-1.46,2.36-4.04,1.21-6.06
			c-0.65-1.15-1.57-2.14-2.44-3.15c-1.3-1.52-1.97-3.18-1.14-5.13c0.33-0.78,0.81-1.54,1.39-2.15c1.67-1.77,3.42-3.48,5.15-5.19
			c1.58-1.55,3.18-3.08,4.8-4.66C58.14,126.06,56.87,123.31,57.51,119.6z"/>
		<path class="st12" d="M137.32,50.01c0.22,1.13,0.4,2.27,0.6,3.45c0.16-0.14,0.29-0.23,0.4-0.34c1.46-1.42,2.91-2.86,4.38-4.27
			c3.7-3.56,7.4-7.13,11.12-10.68c1.57-1.49,3.37-2.51,5.63-2.4c1.53,0.08,2.84,0.72,4.13,1.5c1.87,1.13,3.8,1.18,5.68,0.03
			c1.28-0.78,2.02-2.04,2.59-3.38c1.18-2.75,1.02-5.54,0.15-8.33c-0.61-1.94-1.89-3.29-3.76-4.02c-0.89-0.35-1.83-0.58-2.77-0.74
			c-3.97-0.65-6.51-2.95-8.04-6.6c-1-2.38-2.16-4.68-3.31-6.99c-0.59-1.17-1.64-1.77-2.96-1.66c-0.79,0.07-1.58,0.27-2.32,0.53
			c-3.91,1.4-6.37,4.67-6.35,8.71c0.01,1.62,0.4,3.24,0.72,4.85c0.3,1.51,0.87,2.97,1.07,4.48c0.41,3.27-0.88,5.99-3.11,8.31
			c-2.19,2.27-4.41,4.53-6.65,6.75c-0.46,0.46-0.47,0.79-0.22,1.33C135.7,43.57,136.68,46.74,137.32,50.01z"/>
		<path class="st12" d="M134.2,105.78c-2.19-0.05-4.19-0.04-6.18-0.17c-0.8-0.05-1.3,0.11-1.73,0.79c-0.32,0.52-0.76,0.98-1.2,1.42
			c-0.81,0.82-1.65,1.61-2.57,2.5c0.99,0.89,1.92,1.79,2.93,2.61c1.09,0.9,2.35,1.53,3.74,1.84c3.23,0.72,6.29-1.73,6-4.95
			C135.06,108.41,134.52,107.05,134.2,105.78z"/>
		<path class="st12" d="M166.07,101.76c-1.3,1.02-2.39,2.36-3.43,3.66c-2.68,3.34-6.04,4.59-10.21,3.56
			c-3.88-0.96-7.77-1.92-11.65-2.89c-0.98-0.24-1.96-0.5-3.09-0.78c1.71,4.33,1.58,8.23-2.22,11.44c0.3,0.09,0.5,0.16,0.71,0.22
			c3.59,1.11,7.2,2.2,10.78,3.36c1.9,0.62,3.78,1.3,5.63,2.08c1.58,0.67,2.62,1.89,2.9,3.64c0.09,0.57,0.14,1.15,0.16,1.73
			c0.04,1.16-0.04,2.32,0.08,3.47c0.14,1.37,0.91,2.38,2.26,2.75c1.01,0.28,2.07,0.5,3.12,0.52c2.84,0.04,5.27-1.15,7.51-2.8
			c1.53-1.13,2.37-2.68,2.38-4.56c0.01-1.12-0.15-2.28-0.43-3.37c-1.08-4.12-0.05-7.63,2.75-10.77c1.57-1.76,3.03-3.62,4.46-5.49
			c0.98-1.28,0.95-3.07-0.07-4.32C174.83,99.66,169.63,98.96,166.07,101.76z"/>
		<path class="st12" d="M125.51,101.87c1.78,0.15,3.56,0.32,5.34,0.35c3.13,0.05,6.25-0.12,9.19-1.36c2.42-1.02,4.01-2.74,4.43-5.39
			c0.17-1.05-0.12-1.97-0.82-2.78c-0.93-1.07-2.1-1.84-3.29-2.58c-1.36-0.84-2.72-1.67-4.12-2.54c3.2-5.93,2.77-11.33-2.26-16.16
			c-0.8,1.28-1.58,2.52-2.35,3.75c0.94-3.06,1.73-6.14,2.09-9.31c1.05-9.36-0.72-18.09-5.94-26c-4.69-7.1-11.2-11.97-19.12-14.94
			c-11.1-4.16-22.32-4.07-33.56-0.58c-4.92,1.52-9.53,3.76-13.79,6.65c-8.04,5.46-14.27,12.47-17.9,21.56
			c-4.49,11.26-3.81,22.28,2.05,32.91c3.27,5.93,7.9,10.63,13.58,14.3c0.16,0.1,0.3,0.22,0.45,0.33l-0.05,0.08
			c-1.34-0.49-2.69-0.97-4.03-1.46c-0.42,1.27-0.35,3.95,0.08,5.56c0.9,3.32,2.91,5.74,5.89,7.39c0.71,0.39,1.42,0.78,2.16,1.18
			c-0.48,1.27-0.99,2.47-1.39,3.71c-0.47,1.48-0.94,2.98-1.23,4.5c-0.25,1.32,0.29,2.46,1.37,3.32c1.45,1.16,3.08,1.67,4.92,1.48
			c1.95-0.2,3.71-0.96,5.38-1.93c3.05-1.77,5.68-4.07,8.19-6.52c0.33-0.32,0.57-0.32,0.99-0.17c1.16,0.41,2.33,0.88,3.54,1.07
			c4.56,0.74,9.05,0.12,13.48-0.99c3.75-0.94,7.4-2.21,10.97-3.69c3.71-1.53,7.24-3.42,10.35-5.98c1.83-1.51,3.57-3.1,4.61-5.3
			C124.86,102.04,125.17,101.85,125.51,101.87z M88.31,86.34c-1.25,5.97-4.48,10.59-9.88,13.55c-2.97,1.63-6.15,1.82-9.38,0.96
			c-5.35-1.43-9.53-4.46-12.19-9.39c-1.96-3.64-1.99-7.46-0.52-11.26c1.96-5.07,5.6-8.47,10.43-10.33
			c4.33-1.41,8.33-1.02,12.23,0.61c1.9,0.79,3.67,1.9,5.17,3.3C87.87,77.23,89.34,81.44,88.31,86.34z M93.31,106.83
			c0.52-3.47,1.03-6.87,1.56-10.38c0.96,0.72,1.83,1.37,2.77,2.07c0.41-1.74,0.8-3.4,1.21-5.17c3.3,2.72,6.56,5.4,9.88,8.13
			L93.31,106.83z M120.7,83.71c-0.74-0.33-1.47-0.67-2.18-1.04c-0.81-0.42-1.03-0.39-1.35,0.32c-1.53,3.35-3.05,6.7-4.59,10.05
			c-0.36,0.79-0.53,0.84-1.35,0.52c-2.66-1.05-5.33-2.09-7.98-3.16c-1.82-0.73-1.95-1.23-1.1-3c0.92-1.93,1.75-3.91,2.64-5.86
			c0.27-0.6-0.07-0.82-0.51-1.07c-4.31-2.38-8.62-4.76-12.93-7.14c-1.75-0.97-1.82-1.2-0.91-2.99c1.26-2.48,2.5-4.97,3.76-7.45
			c0.17-0.34,0.45-0.62,0.71-0.96c0.38,0.09,0.68,0.11,0.94,0.23c3.11,1.38,6.21,2.78,9.31,4.18c0.15,0.07,0.29,0.13,0.44,0.19
			c0.67,0.28,0.94,0.16,1.02-0.56c0.43-3.76,0.9-7.52,1.2-11.29c0.09-1.18,0.12-2.36,0.16-3.54c0.04-1.14,0.39-1.47,1.42-1.33
			c3.82,0.52,7.65,1.04,11.47,1.56c1.38,0.19,1.63,0.5,1.56,1.87c-0.34,6.01-0.68,12.01-1.02,18.02c-0.05,0.9-0.03,0.92,0.81,1.19
			c2.15,0.7,4.3,1.39,6.46,2.08c1.07,0.35,1.23,0.61,1.07,1.72c-0.45,3.07-0.89,6.13-1.34,9.2c-0.04,0.26-0.08,0.51-0.14,0.77
			c-0.14,0.6-0.44,0.77-1.01,0.51C125.07,85.74,122.9,84.69,120.7,83.71z"/>
		<path class="st13" d="M169.14,94.67c-3.6,0.44-6.46,2.33-8.79,5.07c-0.62,0.73-1.22,1.48-1.91,2.15
			c-1.58,1.52-3.51,2.14-5.63,1.68c-2.52-0.54-4.99-1.28-7.44-1.92c0.62-1.03,1.3-1.97,1.8-2.99c1.02-2.13,1.24-4.34,0.25-6.56
			c-0.67-1.5-1.79-2.65-3.11-3.59c-1.13-0.82-2.32-1.56-3.5-2.34c0.25-1.02,0.58-2.06,0.75-3.12c0.85-5.2-0.77-9.62-4.37-13.38
			c-0.37-0.38-0.43-0.7-0.34-1.21c0.42-2.3,0.77-4.61,1.17-6.91c0.05-0.29,0.18-0.62,0.39-0.82c6.07-5.98,12.14-11.95,18.23-17.9
			c1.46-1.42,2.79-1.57,4.59-0.63c6.06,3.16,13.12,0.44,15.55-5.95c1.43-3.77,1.79-7.59,0.62-11.5c-0.03-0.09,0-0.19,0-0.29
			c-0.13-0.38-0.26-0.76-0.39-1.14c-0.45-0.84-0.85-1.71-1.36-2.51c-1.67-2.68-4.08-4.24-7.18-4.88c-1.18-0.24-2.38-0.62-3.44-1.17
			c-1.97-1.02-2.98-2.83-3.54-4.91c-0.67-2.48-1.84-4.69-3.52-6.62c-2.84-3.27-6.34-4.06-10.4-2.37c-2.86,1.19-5.35,2.95-7.45,5.24
			c-2.74,2.98-3.53,6.54-3.11,10.47c0.23,2.12,0.83,4.15,1.51,6.17c0.64,1.89,0.48,3.63-0.84,5.24c-1.31,1.59-2.47,3.3-3.79,4.87
			c-0.69,0.83-1.6,1.48-2.44,2.23c-0.77-1.09-1.43-2.06-2.13-3c-4.39-5.87-9.89-10.44-16.41-13.75
			c-10.69-5.43-21.98-6.94-33.76-4.86c-1.79,0.32-3.55,0.8-5.33,1.2c0,0-0.01,0-0.01,0c-0.34,0.07-0.68,0.13-1,0.24l-4.6,1.59
			c-0.46,0.16-0.91,0.34-1.34,0.55c-0.43,0.2-0.85,0.4-1.28,0.6c-10.83,4.95-19.33,12.48-25.16,22.9
			c-4.11,7.36-6.27,15.27-6.18,23.72c0.03,2.41,0.39,4.81,0.6,7.22c0.02,0.22,0.06,0.43-0.04,0.71c-0.55-0.87-1.1-1.73-1.63-2.61
			c-0.88-1.42-1.24-3.03-1.66-4.61c-0.98-3.72-2.61-7.1-5.69-9.52c-3.89-3.06-8.34-4.14-13.16-2.93C8.87,53.5,6.79,56.21,6,59.97
			c-0.47,2.27-0.22,4.54,0.12,6.8c0.26,1.74,0.4,3.48-0.48,5.1c-0.3,0.56-0.69,1.07-1.1,1.56c-1.95,2.37-3.38,5.02-4.15,7.98
			c-0.88,3.39-0.29,6.6,1.63,9.53c1.81,2.75,4.17,4.91,7.21,6.22c4.48,1.93,8.89,0.83,11.94-3c1.22-1.53,2.31-3.17,3.42-4.78
			c0.27-0.38,0.51-0.44,0.94-0.3c6.75,2.09,13.5,4.16,20.26,6.23c0.63,0.19,1.28,0.33,1.91,0.51c0.17,0.05,0.33,0.14,0.46,0.25
			c1.05,0.86,2.11,1.72,3.12,2.62c0.2,0.18,0.37,0.54,0.35,0.8c-0.42,5.34,1.22,9.85,5.31,13.4c0.01,0,0.01,0.01,0.01,0.01
			c0,0,0,0,0,0c0.06,0.07,0.04,0.03,0,0c-4.05,3.85-8.09,7.68-12.12,11.54c-1.49,1.43-3.16,1.64-4.96,0.77
			c-2.21-1.06-4.49-1.78-6.95-1.92c-7.95-0.44-15.34,5.15-17.06,12.92c-0.38,1.72-0.4,3.45-0.06,5.18c0.02,0.11,0,0.23,0,0.35
			c0.31,0.91,0.63,1.82,0.94,2.73c0.45,0.68,0.85,1.39,1.35,2.04c1.96,2.53,4.54,3.92,7.74,4.14c0.18,0.01,0.36,0.03,0.54,0.04
			c2.62,0.18,4.32,1.5,5.33,3.97c1.13,2.77,2.92,5.1,5.43,6.79c2.57,1.73,5.43,2.05,8.41,1.51c3.74-0.67,7.15-2.17,10.2-4.45
			c3.55-2.65,4.8-6.81,3.38-11.01c-0.71-2.12-1.86-3.98-3.28-5.68c-0.13-0.15-0.25-0.3-0.41-0.49c1.19-1.16,2.36-2.3,3.53-3.44
			c2.77-2.68,5.55-5.36,8.31-8.06c0.34-0.34,0.69-0.53,1.18-0.61c2.98-0.52,5.58-1.91,8.03-3.61c0.54-0.37,1.07-0.75,1.68-1.18
			c0.36,1.03,0.67,1.99,1.03,2.95c0.52,1.41,1.32,2.64,2.39,3.7c3.68,3.63,11.24,2.97,13.74-2.87c0.17-0.4,0.33-0.81,0.51-1.26
			c0.49,0.24,0.96,0.48,1.44,0.71c4.67,2.22,12.28-0.1,13.73-7.31c0.21-1.04,0.33-2.09,0.46-3.14c0.03-0.3,0.23-0.54,0.5-0.66
			c0.8-0.34,1.58-0.76,2.38-1.09c0.22-0.09,0.54-0.06,0.79,0.02c6.1,2.02,12.19,4.06,18.3,6.07c4.69,1.55,9.4,3.07,14.1,4.6
			c0.4,0.13,0.8,0.26,1.17,0.46c0.9,0.46,1.43,1.41,1.48,2.41c0.04,0.99-0.02,1.99,0.12,2.96c0.63,4.26,3.65,7.19,8.01,7.81
			c2.28,0.33,4.55,0.18,6.78-0.39c0.15-0.04,0.31-0.03,0.46-0.05l2.16-0.75c0.82-0.44,1.67-0.84,2.46-1.33
			c4.83-2.93,6.76-7.18,5.89-12.76c-0.16-1.02-0.21-2.07-0.18-3.1c0.06-2.04,0.74-3.87,2.1-5.43c1.14-1.31,2.27-2.64,3.38-3.98
			c0.98-1.18,1.77-2.48,2.24-3.95c0.94-2.93,0.52-5.69-1.46-8.02C178.76,96.04,174.44,94.02,169.14,94.67z M134.5,39.21
			c2.25-2.22,4.46-4.48,6.65-6.75c2.23-2.31,3.52-5.04,3.11-8.31c-0.19-1.52-0.77-2.98-1.07-4.48c-0.32-1.6-0.71-3.23-0.72-4.85
			c-0.02-4.04,2.44-7.31,6.35-8.71c0.74-0.27,1.54-0.46,2.32-0.53c1.32-0.11,2.37,0.49,2.96,1.66c1.16,2.3,2.32,4.61,3.31,6.99
			c1.53,3.65,4.07,5.95,8.04,6.6c0.94,0.15,1.89,0.39,2.77,0.74c1.87,0.73,3.16,2.08,3.76,4.02c0.87,2.79,1.03,5.58-0.15,8.33
			c-0.57,1.34-1.32,2.59-2.59,3.38c-1.88,1.15-3.81,1.11-5.68-0.03c-1.28-0.78-2.6-1.42-4.13-1.5c-2.26-0.11-4.06,0.9-5.63,2.4
			c-3.72,3.54-7.42,7.11-11.12,10.68c-1.47,1.41-2.92,2.85-4.38,4.27c-0.11,0.11-0.24,0.2-0.4,0.34c-0.21-1.19-0.38-2.32-0.6-3.45
			c-0.64-3.27-1.63-6.44-3.04-9.47C134.04,40.01,134.04,39.67,134.5,39.21z M38.3,87.26c-3.86-1.19-7.72-2.39-11.59-3.56
			c-0.79-0.24-1.62-0.37-2.44-0.45c-1.94-0.19-3.85,0.78-4.78,2.5c-0.45,0.82-0.75,1.73-1.06,2.62c-0.41,1.2-0.95,2.31-1.94,3.12
			c-1.62,1.32-3.43,1.39-5.24,0.52c-2.02-0.97-3.7-2.39-4.86-4.33c-1.34-2.23-1.08-4.53-0.06-6.79c0.74-1.64,1.63-3.17,2.96-4.46
			c2.1-2.06,2.66-4.73,2.51-7.57c-0.08-1.57-0.39-3.14-0.45-4.71c-0.05-1.18-0.01-2.41,0.26-3.56c0.46-2,1.92-3.14,3.96-3.11
			c4.66,0.07,8.08,2.13,9.76,6.32c0.84,2.1,1.5,4.25,2.05,6.45c0.92,3.68,3.38,6.08,6.95,7.13c1.68,0.5,2.47,1.35,3.02,2.97
			c0.86,2.55,2.18,4.93,3.66,7.21c0.12,0.18,0.22,0.36,0.39,0.65C40.28,87.87,39.29,87.56,38.3,87.26z M56.49,132.63
			c-1.74,1.71-3.48,3.41-5.15,5.19c-0.58,0.61-1.06,1.38-1.39,2.15c-0.83,1.95-0.16,3.61,1.14,5.13c0.87,1.01,1.79,2,2.44,3.15
			c1.15,2.03,0.61,4.6-1.21,6.06c-0.9,0.73-1.95,1.37-3.03,1.77c-1.71,0.64-3.46,1.19-5.24,1.57c-1.6,0.34-3.3-0.09-4.49-1.22
			c-1.88-1.77-3.12-3.95-4.06-6.32c-0.31-0.78-0.56-1.6-0.97-2.32c-0.81-1.41-2.13-2.07-3.72-2.21c-1.03-0.09-2.08-0.17-3.11-0.14
			c-4.81,0.14-7.32-3.91-6.49-7.83c0.73-3.46,2.79-6.04,5.92-7.68c3.26-1.71,6.6-1.59,9.88-0.02c1.72,0.82,3.45,1.52,5.39,1.42
			c2.18-0.11,4.03-1.01,5.57-2.49c3.04-2.92,6.04-5.89,9.06-8.83c0.12-0.12,0.26-0.23,0.48-0.43c-0.64,3.71,0.63,6.47,3.79,8.37
			C59.67,129.55,58.07,131.08,56.49,132.63z M91.65,127.52c-1.04,1.68-2.63,2.32-4.55,2.23c-1.87-0.09-3.33-0.93-4.1-2.65
			c-0.7-1.56-1.24-3.2-1.83-4.82c-0.19-0.53,0.6-1.16,1.24-0.98c2.19,0.62,4.43,0.86,6.7,0.84c1.22-0.01,2.43-0.11,3.65-0.17
			c0.21-0.01,0.43-0.03,0.72-0.04C92.96,123.86,92.7,125.83,91.65,127.52z M103.62,124.39c-3.14,1.19-5.66,0.4-8.24-2.57
			c4.09-1.14,8.23-2.3,12.37-3.46C108.06,120.45,106.07,123.46,103.62,124.39z M120.11,107.65c-3.12,2.57-6.64,4.45-10.35,5.98
			c-3.57,1.47-7.22,2.75-10.97,3.69c-4.43,1.11-8.92,1.73-13.48,0.99c-1.21-0.2-2.38-0.66-3.54-1.07c-0.42-0.15-0.66-0.15-0.99,0.17
			c-2.51,2.45-5.14,4.75-8.19,6.52c-1.68,0.97-3.43,1.73-5.38,1.93c-1.84,0.18-3.48-0.33-4.92-1.48c-1.08-0.86-1.62-2-1.37-3.32
			c0.29-1.52,0.76-3.02,1.23-4.5c0.39-1.24,0.91-2.44,1.39-3.71c-0.73-0.4-1.45-0.78-2.16-1.18c-2.98-1.65-4.99-4.08-5.89-7.39
			c-0.43-1.61-0.5-4.28-0.08-5.56c1.35,0.49,2.69,0.97,4.03,1.46l0.05-0.08c-0.15-0.11-0.3-0.22-0.45-0.33
			c-5.68-3.67-10.31-8.37-13.58-14.3C39.6,74.83,38.91,63.8,43.4,52.54c3.63-9.09,9.86-16.1,17.9-21.56
			c4.27-2.9,8.87-5.13,13.79-6.65c11.24-3.48,22.46-3.58,33.56,0.58c7.92,2.97,14.43,7.84,19.12,14.94c5.22,7.9,7,16.64,5.94,26
			c-0.36,3.17-1.14,6.25-2.09,9.31c0.77-1.23,1.54-2.46,2.35-3.75c5.02,4.83,5.46,10.23,2.26,16.16c1.41,0.87,2.76,1.7,4.12,2.54
			c1.19,0.74,2.36,1.51,3.29,2.58c0.7,0.81,0.99,1.72,0.82,2.78c-0.43,2.66-2.02,4.37-4.43,5.39c-2.94,1.24-6.06,1.41-9.19,1.36
			c-1.78-0.03-3.57-0.2-5.34-0.35c-0.34-0.03-0.64,0.17-0.79,0.47C123.68,104.54,121.94,106.14,120.11,107.65z M129.19,114.77
			c-1.39-0.31-2.64-0.94-3.74-1.84c-1-0.82-1.94-1.72-2.93-2.61c0.92-0.89,1.76-1.68,2.57-2.5c0.43-0.44,0.88-0.89,1.2-1.42
			c0.42-0.69,0.93-0.85,1.73-0.79c1.99,0.13,3.99,0.12,6.18,0.17c0.32,1.26,0.86,2.63,0.99,4.04
			C135.48,113.04,132.42,115.49,129.19,114.77z M177.77,107.51c-1.43,1.87-2.89,3.73-4.46,5.49c-2.8,3.14-3.83,6.65-2.75,10.77
			c0.29,1.09,0.44,2.25,0.43,3.37c-0.01,1.88-0.85,3.44-2.38,4.56c-2.23,1.65-4.66,2.85-7.51,2.8c-1.04-0.02-2.1-0.24-3.12-0.52
			c-1.35-0.37-2.12-1.38-2.26-2.75c-0.12-1.15-0.04-2.31-0.08-3.47c-0.02-0.58-0.07-1.16-0.16-1.73c-0.28-1.75-1.32-2.97-2.9-3.64
			c-1.84-0.77-3.72-1.46-5.63-2.08c-3.58-1.16-7.18-2.24-10.78-3.36c-0.21-0.06-0.42-0.13-0.71-0.22c3.8-3.21,3.93-7.1,2.22-11.44
			c1.12,0.29,2.1,0.54,3.09,0.78c3.88,0.97,7.77,1.93,11.65,2.89c4.18,1.03,7.53-0.22,10.21-3.56c1.05-1.3,2.13-2.64,3.43-3.66
			c3.56-2.79,8.76-2.09,11.63,1.43C178.72,104.44,178.75,106.23,177.77,107.51z"/>
		<path class="st0" d="M56.97,112.9C56.97,112.9,56.97,112.9,56.97,112.9C57,112.94,57.03,112.97,56.97,112.9z"/>
		<path class="st13" d="M128.27,86.22c0.06-0.25,0.1-0.51,0.14-0.77c0.45-3.07,0.89-6.13,1.34-9.2c0.16-1.1,0-1.37-1.07-1.72
			c-2.15-0.69-4.31-1.38-6.46-2.08c-0.84-0.27-0.86-0.3-0.81-1.19c0.34-6.01,0.68-12.01,1.02-18.02c0.08-1.37-0.18-1.68-1.56-1.87
			c-3.82-0.52-7.65-1.04-11.47-1.56c-1.03-0.14-1.38,0.19-1.42,1.33c-0.04,1.18-0.07,2.36-0.16,3.54c-0.3,3.77-0.76,7.53-1.2,11.29
			c-0.08,0.71-0.35,0.84-1.02,0.56c-0.15-0.06-0.29-0.13-0.44-0.19c-3.1-1.39-6.2-2.79-9.31-4.18c-0.26-0.12-0.56-0.14-0.94-0.23
			c-0.26,0.34-0.54,0.62-0.71,0.96c-1.27,2.48-2.51,4.97-3.76,7.45c-0.91,1.79-0.84,2.02,0.91,2.99c4.31,2.38,8.62,4.76,12.93,7.14
			c0.44,0.24,0.78,0.46,0.51,1.07c-0.89,1.95-1.71,3.92-2.64,5.86c-0.85,1.77-0.72,2.27,1.1,3c2.65,1.07,5.32,2.11,7.98,3.16
			c0.81,0.32,0.99,0.27,1.35-0.52c1.53-3.35,3.06-6.7,4.59-10.05c0.32-0.71,0.54-0.74,1.35-0.32c0.71,0.37,1.45,0.71,2.18,1.04
			c2.2,0.97,4.36,2.03,6.56,3.02C127.83,86.98,128.13,86.81,128.27,86.22z"/>
		<path class="st13" d="M84.18,73.79c-1.51-1.4-3.27-2.5-5.17-3.3c-3.9-1.63-7.9-2.02-12.23-0.61c-4.84,1.86-8.48,5.26-10.43,10.33
			c-1.47,3.8-1.45,7.62,0.52,11.26c2.66,4.92,6.84,7.96,12.19,9.39c3.22,0.86,6.41,0.68,9.38-0.96c5.4-2.97,8.63-7.58,9.88-13.55
			C89.34,81.44,87.87,77.23,84.18,73.79z"/>
		<path class="st13" d="M97.65,98.52c-0.94-0.71-1.81-1.36-2.77-2.07c-0.53,3.5-1.04,6.91-1.56,10.38l15.43-5.35
			c-3.32-2.73-6.58-5.41-9.88-8.13C98.44,95.12,98.05,96.78,97.65,98.52z"/>
	</g>
</g>
</svg>
