<?xml version="1.0" encoding="utf-8"?>
<!-- Generator: Adobe Illustrator 25.4.1, SVG Export Plug-In . SVG Version: 6.00 Build 0)  -->
<svg version="1.1" id="Capa_1" xmlns="http://www.w3.org/2000/svg" xmlns:xlink="http://www.w3.org/1999/xlink" x="0px" y="0px"
	 viewBox="0 0 357.2 390.2" style="enable-background:new 0 0 357.2 390.2;" xml:space="preserve">
<style type="text/css">
	.st0{fill:#E8E8E8;}
</style>
<path class="st0" d="M319.4,364.8c0.7-2.4,1.1-5,1.1-7.6c0-12.8-9.3-23.4-21.5-25.6c0.9-2.6,1.4-5.4,1.4-8.4
	c0-14.8-12.5-26.8-28-26.8c-9.8,0-18.3,4.8-23.3,12.1c-4.1-8.8-13.1-15-23.5-15c-14.3,0-25.9,11.6-25.9,25.9c0,0.8,0,1.5,0.1,2.3
	c-1.5-0.3-3.1-0.4-4.6-0.4c-12.6,0-23.1,9-25.5,21c-9.2,0.9-16.4,8.7-16.4,18.2c0,1.5,0.2,2.9,0.5,4.3H319.4z"/>
</svg>
