<?xml version="1.0" encoding="utf-8"?>
<!-- Generator: Adobe Illustrator 25.4.1, SVG Export Plug-In . SVG Version: 6.00 Build 0)  -->
<svg version="1.1" id="Capa_1" xmlns="http://www.w3.org/2000/svg" xmlns:xlink="http://www.w3.org/1999/xlink" x="0px" y="0px"
	 viewBox="0 0 357.2 390.2" style="enable-background:new 0 0 357.2 390.2;" xml:space="preserve">
<style type="text/css">
	.st0{fill:#FFFFFF;}
</style>
<path class="st0" d="M199.4,331.8c-0.9,0-1.8,0.1-2.7,0.2c-2.5-6.8-9-11.7-16.7-11.7c-1.4,0-2.8,0.2-4.2,0.5
	c-0.6-9.2-8.3-16.5-17.7-16.5c-7,0-13.1,4.1-16,10.1c-4-5.1-10.3-8.4-17.3-8.4c-9,0-16.7,5.4-20.1,13.2
	c-3.7-7.1-11.1-11.9-19.7-11.9c-12.2,0-22.2,9.9-22.2,22c0,3.1,0.7,6.1,1.8,8.8c-0.5,0-1-0.1-1.5-0.1c-9.8,0-17.7,8.4-17.7,18.7
	c0,2.9,0.7,5.7,1.8,8.2H204c7.5-1.9,13.1-8.4,13.1-16.2C217.2,339.3,209.2,331.8,199.4,331.8z"/>
</svg>
