<?xml version="1.0" encoding="utf-8"?>
<!-- Generator: Adobe Illustrator 25.4.1, SVG Export Plug-In . SVG Version: 6.00 Build 0)  -->
<svg version="1.1" id="Capa_1" xmlns="http://www.w3.org/2000/svg" xmlns:xlink="http://www.w3.org/1999/xlink" x="0px" y="0px"
	 viewBox="0 0 327.17 472" style="enable-background:new 0 0 327.17 472;" xml:space="preserve">
<style type="text/css">
	.st0{fill:#FFFFFF;}
	.st1{fill:#EDEDEB;}
	.st2{fill:#DE413A;}
	.st3{fill-rule:evenodd;clip-rule:evenodd;fill:#323230;}
	.st4{fill:#323230;}
	.st5{font-family:'MyriadPro-Regular';}
	.st6{font-size:35.6798px;}
	.st7{font-family:'MyriadPro-Semibold';}
	.st8{fill:#5285C4;}
	.st9{fill:#F6D258;}
</style>
<g>
	<g>
		<rect x="0.5" y="0.5" class="st0" width="326.17" height="471"/>
		<path class="st1" d="M326.17,1v470H1V1H326.17 M327.17,0h-1H1H0v1v470v1h1h325.17h1v-1V1V0L327.17,0z"/>
	</g>
	<rect x="1" y="1" class="st2" width="325.17" height="322.44"/>
	<g>
		<path class="st3" d="M26.41,335.11v28.67h6.88v-9.87h5.61c3.39,0,10.41-0.61,10.41-9.54c0-7.09-4.62-9.26-10.27-9.26H26.41
			L26.41,335.11z M33.29,340.68h4.52c1.32,0,4.15-0.12,4.15,3.73c0,2.74-1.27,3.93-4.15,3.93h-4.52V340.68L33.29,340.68z"/>
		<path class="st3" d="M56.76,335.11l-9.89,28.67h7.21l1.65-5.37h8.95l1.7,5.37h7.21l-9.89-28.67H56.76L56.76,335.11z M57.09,353.55
			l3.11-10.73l3.11,10.73H57.09L57.09,353.55z"/>
		<polygon class="st3" points="84.81,346.66 94.28,363.79 101.25,363.79 101.25,335.11 94.37,335.11 94.37,352.11 93.95,352.11 
			84.48,335.11 77.55,335.11 77.55,363.79 84.43,363.79 84.43,346.66 84.81,346.66 		"/>
		<polygon class="st3" points="112.42,340.68 112.42,363.79 119.3,363.79 119.3,340.68 127.21,340.68 127.21,335.11 104.41,335.11 
			104.41,340.68 112.42,340.68 		"/>
		<path class="st3" d="M141.56,364.61c11.21,0,13.66-8.44,13.66-15.16c0-6.72-2.45-15.16-13.66-15.16
			c-12.48,0-13.66,10.86-13.66,15.16C127.9,353.75,129.08,364.61,141.56,364.61L141.56,364.61z M141.56,359.03
			c-2.78,0-6.27-1.02-6.27-9.59c0-8.68,3.58-9.59,6.27-9.59c2.59,0,6.31,0.94,6.31,9.59C147.87,358.01,144.39,359.03,141.56,359.03
			L141.56,359.03z"/>
		<polygon class="st3" points="166.95,346.66 176.42,363.79 183.39,363.79 183.39,335.11 176.51,335.11 176.51,352.11 
			176.09,352.11 166.62,335.11 159.69,335.11 159.69,363.79 166.57,363.79 166.57,346.66 166.95,346.66 		"/>
		<polygon class="st3" points="195.63,346.5 195.63,340.68 206.68,340.68 206.68,335.11 188.76,335.11 188.76,363.79 207.05,363.79 
			207.05,358.21 195.63,358.21 195.63,351.78 205.69,351.78 205.69,346.5 195.63,346.5 		"/>
		<path class="st3" d="M209.2,337.19c0,1.36,1.11,2.47,2.47,2.47c1.38,0,2.47-1.11,2.47-2.47c0-1.36-1.09-2.47-2.47-2.47
			C210.3,334.72,209.2,335.83,209.2,337.19L209.2,337.19z M209.8,337.19c0-1.11,0.83-1.96,1.87-1.96c1.04,0,1.88,0.86,1.88,1.96
			c0,1.1-0.84,1.96-1.88,1.96C210.63,339.16,209.8,338.3,209.8,337.19L209.8,337.19z M210.76,338.41h0.59v-0.97h0.12
			c0.88,0,0.32,0.59,0.64,0.97h0.61c-0.11-0.13-0.09-0.22-0.11-0.56c-0.01-0.2-0.03-0.54-0.35-0.62v-0.01
			c0.16-0.06,0.4-0.21,0.4-0.59c0-0.31-0.18-0.69-0.8-0.69h-1.1V338.41L210.76,338.41z M211.35,336.37h0.25
			c0.28,0,0.46,0.06,0.46,0.3c0,0.29-0.27,0.33-0.4,0.33h-0.31V336.37L211.35,336.37z"/>
	</g>
	<text transform="matrix(1 0 0 1 25.9662 445.4463)" class="st4 st5 st6">Grenadine</text>
	<text transform="matrix(1 0 0 1 25.9662 398.9932)" class="st4 st7 st6">17-1558</text>
</g>
<g>
	<g>
		<rect x="0.5" y="0.5" class="st0" width="326.17" height="471"/>
		<path class="st1" d="M326.17,1v470H1V1H326.17 M327.17,0h-1H1H0v1v470v1h1h325.17h1v-1V1V0L327.17,0z"/>
	</g>
	<rect x="1" y="1" class="st8" width="325.17" height="322.44"/>
	<g>
		<path class="st3" d="M26.41,335.11v28.67h6.88v-9.87h5.61c3.39,0,10.41-0.61,10.41-9.54c0-7.09-4.62-9.26-10.27-9.26H26.41
			L26.41,335.11z M33.29,340.68h4.52c1.32,0,4.15-0.12,4.15,3.73c0,2.74-1.27,3.93-4.15,3.93h-4.52V340.68L33.29,340.68z"/>
		<path class="st3" d="M56.76,335.11l-9.89,28.67h7.21l1.65-5.37h8.95l1.7,5.37h7.21l-9.89-28.67H56.76L56.76,335.11z M57.09,353.55
			l3.11-10.73l3.11,10.73H57.09L57.09,353.55z"/>
		<polygon class="st3" points="84.81,346.66 94.28,363.79 101.25,363.79 101.25,335.11 94.37,335.11 94.37,352.11 93.95,352.11 
			84.48,335.11 77.55,335.11 77.55,363.79 84.43,363.79 84.43,346.66 84.81,346.66 		"/>
		<polygon class="st3" points="112.42,340.68 112.42,363.79 119.3,363.79 119.3,340.68 127.21,340.68 127.21,335.11 104.41,335.11 
			104.41,340.68 112.42,340.68 		"/>
		<path class="st3" d="M141.56,364.61c11.21,0,13.66-8.44,13.66-15.16c0-6.72-2.45-15.16-13.66-15.16
			c-12.48,0-13.66,10.86-13.66,15.16C127.9,353.75,129.08,364.61,141.56,364.61L141.56,364.61z M141.56,359.03
			c-2.78,0-6.27-1.02-6.27-9.59c0-8.68,3.58-9.59,6.27-9.59c2.59,0,6.31,0.94,6.31,9.59C147.87,358.01,144.39,359.03,141.56,359.03
			L141.56,359.03z"/>
		<polygon class="st3" points="166.95,346.66 176.42,363.79 183.39,363.79 183.39,335.11 176.51,335.11 176.51,352.11 
			176.09,352.11 166.62,335.11 159.69,335.11 159.69,363.79 166.57,363.79 166.57,346.66 166.95,346.66 		"/>
		<polygon class="st3" points="195.63,346.5 195.63,340.68 206.68,340.68 206.68,335.11 188.76,335.11 188.76,363.79 207.05,363.79 
			207.05,358.21 195.63,358.21 195.63,351.78 205.69,351.78 205.69,346.5 195.63,346.5 		"/>
		<path class="st3" d="M209.2,337.19c0,1.36,1.11,2.47,2.47,2.47c1.38,0,2.47-1.11,2.47-2.47c0-1.36-1.09-2.47-2.47-2.47
			C210.3,334.72,209.2,335.83,209.2,337.19L209.2,337.19z M209.8,337.19c0-1.11,0.83-1.96,1.87-1.96c1.04,0,1.88,0.86,1.88,1.96
			c0,1.1-0.84,1.96-1.88,1.96C210.63,339.16,209.8,338.3,209.8,337.19L209.8,337.19z M210.76,338.41h0.59v-0.97h0.12
			c0.88,0,0.32,0.59,0.64,0.97h0.61c-0.11-0.13-0.09-0.22-0.11-0.56c-0.01-0.2-0.03-0.54-0.35-0.62v-0.01
			c0.16-0.06,0.4-0.21,0.4-0.59c0-0.31-0.18-0.69-0.8-0.69h-1.1V338.41L210.76,338.41z M211.35,336.37h0.25
			c0.28,0,0.46,0.06,0.46,0.3c0,0.29-0.27,0.33-0.4,0.33h-0.31V336.37L211.35,336.37z"/>
	</g>
	<text transform="matrix(1 0 0 1 25.9662 445.4463)" class="st4 st5 st6">Marina</text>
	<text transform="matrix(1 0 0 1 25.9662 398.9932)" class="st4 st7 st6">17-4041</text>
</g>
<g>
	<g>
		<rect x="0.5" y="0.5" class="st0" width="326.17" height="471"/>
		<path class="st1" d="M326.17,1v470H1V1H326.17 M327.17,0h-1H1H0v1v470v1h1h325.17h1v-1V1V0L327.17,0z"/>
	</g>
	<rect x="1" y="1" class="st9" width="325.17" height="322.44"/>
	<g>
		<path class="st3" d="M26.41,335.11v28.67h6.88v-9.87h5.61c3.39,0,10.41-0.61,10.41-9.54c0-7.09-4.62-9.26-10.27-9.26H26.41
			L26.41,335.11z M33.29,340.68h4.52c1.32,0,4.15-0.12,4.15,3.73c0,2.74-1.27,3.93-4.15,3.93h-4.52V340.68L33.29,340.68z"/>
		<path class="st3" d="M56.76,335.11l-9.89,28.67h7.21l1.65-5.37h8.95l1.7,5.37h7.21l-9.89-28.67H56.76L56.76,335.11z M57.09,353.55
			l3.11-10.73l3.11,10.73H57.09L57.09,353.55z"/>
		<polygon class="st3" points="84.81,346.66 94.28,363.79 101.25,363.79 101.25,335.11 94.37,335.11 94.37,352.11 93.95,352.11 
			84.48,335.11 77.55,335.11 77.55,363.79 84.43,363.79 84.43,346.66 84.81,346.66 		"/>
		<polygon class="st3" points="112.42,340.68 112.42,363.79 119.3,363.79 119.3,340.68 127.21,340.68 127.21,335.11 104.41,335.11 
			104.41,340.68 112.42,340.68 		"/>
		<path class="st3" d="M141.56,364.61c11.21,0,13.66-8.44,13.66-15.16c0-6.72-2.45-15.16-13.66-15.16
			c-12.48,0-13.66,10.86-13.66,15.16C127.9,353.75,129.08,364.61,141.56,364.61L141.56,364.61z M141.56,359.03
			c-2.78,0-6.27-1.02-6.27-9.59c0-8.68,3.58-9.59,6.27-9.59c2.59,0,6.31,0.94,6.31,9.59C147.87,358.01,144.39,359.03,141.56,359.03
			L141.56,359.03z"/>
		<polygon class="st3" points="166.95,346.66 176.42,363.79 183.39,363.79 183.39,335.11 176.51,335.11 176.51,352.11 
			176.09,352.11 166.62,335.11 159.69,335.11 159.69,363.79 166.57,363.79 166.57,346.66 166.95,346.66 		"/>
		<polygon class="st3" points="195.63,346.5 195.63,340.68 206.68,340.68 206.68,335.11 188.76,335.11 188.76,363.79 207.05,363.79 
			207.05,358.21 195.63,358.21 195.63,351.78 205.69,351.78 205.69,346.5 195.63,346.5 		"/>
		<path class="st3" d="M209.2,337.19c0,1.36,1.11,2.47,2.47,2.47c1.38,0,2.47-1.11,2.47-2.47c0-1.36-1.09-2.47-2.47-2.47
			C210.3,334.72,209.2,335.83,209.2,337.19L209.2,337.19z M209.8,337.19c0-1.11,0.83-1.96,1.87-1.96c1.04,0,1.88,0.86,1.88,1.96
			c0,1.1-0.84,1.96-1.88,1.96C210.63,339.16,209.8,338.3,209.8,337.19L209.8,337.19z M210.76,338.41h0.59v-0.97h0.12
			c0.88,0,0.32,0.59,0.64,0.97h0.61c-0.11-0.13-0.09-0.22-0.11-0.56c-0.01-0.2-0.03-0.54-0.35-0.62v-0.01
			c0.16-0.06,0.4-0.21,0.4-0.59c0-0.31-0.18-0.69-0.8-0.69h-1.1V338.41L210.76,338.41z M211.35,336.37h0.25
			c0.28,0,0.46,0.06,0.46,0.3c0,0.29-0.27,0.33-0.4,0.33h-0.31V336.37L211.35,336.37z"/>
	</g>
	<text transform="matrix(1 0 0 1 25.9662 445.4463)" class="st4 st5 st6">Primrose Yellow</text>
	<text transform="matrix(1 0 0 1 25.9662 398.9932)" class="st4 st7 st6">13-0755</text>
</g>
</svg>
