<?xml version="1.0" encoding="utf-8"?>
<!-- Generator: Adobe Illustrator 25.4.1, SVG Export Plug-In . SVG Version: 6.00 Build 0)  -->
<svg version="1.1" xmlns="http://www.w3.org/2000/svg" xmlns:xlink="http://www.w3.org/1999/xlink" x="0px" y="0px"
	 viewBox="0 0 476 710" style="enable-background:new 0 0 476 710;" xml:space="preserve">
<style type="text/css">
	.st0{fill:#1E1D2B;}
	.st1{fill:#D4EEED;}
	.st2{fill:#2C2C36;}
	.st3{fill:#C8E6E6;}
	.st4{fill:#C17ACA;}
	.st5{fill:#F1766F;}
	.st6{fill:#F6D061;}
	.st7{fill:#E2FB61;}
	.st8{fill:#9CC57F;}
	.st9{fill:#82A6C6;}
	.st10{fill:#666060;}
	.st11{fill:#1C1E2B;}
	.st12{fill:#675B5D;}
	.st13{fill:#D3625C;}
	.st14{fill:#EC7A7A;}
	.st15{fill:#363642;}
	.st16{fill:#666062;}
	.st17{fill:#2D2C34;}
	.st18{fill:#373542;}
	.st19{fill:#84A5C6;}
	.st20{fill:#5B8BB9;}
	.st21{fill:#1F1F27;}
	.st22{fill:none;stroke:#3F3F49;stroke-width:0.75;stroke-miterlimit:10;}
	.st23{opacity:0.19;fill:none;stroke:#3F3F49;stroke-width:2;stroke-miterlimit:10;}
	.st24{fill:#5B8AB6;}
	.st25{fill:#3F3E50;}
	.st26{opacity:0.16;fill:#FFFFFF;}
	.st27{opacity:0.15;fill:#2C2C36;}
	.st28{clip-path:url(#SVGID_00000094618729906849008680000002617988086942390455_);}
	.st29{fill:#F2F2F2;}
	.st30{fill:url(#SVGID_00000163059613318672197950000013698385984445218749_);stroke:#CCCCCC;stroke-miterlimit:10;}
	.st31{display:none;opacity:0.79;}
	.st32{display:inline;fill:#F2F2F2;}
	.st33{opacity:0.18;fill:#1C1E2B;}
</style>
<g id="Capa_1">
</g>
<g id="Capa_2">
	<path class="st0" d="M342,40H132V18.72C132,8.38,140.38,0,150.72,0h172.56C333.62,0,342,8.38,342,18.72V40z"/>
	<path class="st1" d="M453.5,269.5H21V59.73C21,35.58,40.58,16,64.73,16h345.04c24.15,0,43.73,19.58,43.73,43.73V269.5z"/>
	<path class="st2" d="M102,114.5H60c-11.6,0-21-9.4-21-21v-4c0-11.6,9.4-21,21-21h42c11.6,0,21,9.4,21,21v4
		C123,105.1,113.6,114.5,102,114.5z"/>
	<polygon class="st3" points="453,261 21,262 0,348 475,348 	"/>
	<rect x="0" y="348" class="st1" width="475" height="29"/>
	<rect x="209.5" y="237.5" class="st4" width="10" height="147"/>
	<rect x="219.5" y="237.5" class="st5" width="10" height="147"/>
	<rect x="229.5" y="237.5" class="st6" width="10" height="147"/>
	<rect x="239.5" y="237.5" class="st7" width="10" height="147"/>
	<rect x="249.5" y="237.5" class="st8" width="10" height="147"/>
	<rect x="259.5" y="237.5" class="st9" width="10" height="147"/>
	<path class="st2" d="M475,377H0v90.26C0,488.65,17.35,506,38.74,506h397.52c21.4,0,38.74-17.35,38.74-38.74V377z"/>
	<rect x="41" y="413" class="st10" width="391" height="26"/>
	<rect x="41" y="439" class="st11" width="391" height="37"/>
	<circle class="st12" cx="79.5" cy="191.5" r="40"/>
	<circle class="st13" cx="79.5" cy="191.5" r="33"/>
	<ellipse class="st14" cx="79.5" cy="195" rx="33" ry="29.5"/>
	<circle class="st0" cx="379.5" cy="213.5" r="24"/>
	<circle class="st15" cx="379.5" cy="213.5" r="15"/>
	<path class="st16" d="M429.26,122.5h-71.52c-4.55,0-8.24-3.69-8.24-8.24V42.74c0-4.55,3.69-8.24,8.24-8.24h71.52
		c4.55,0,8.24,3.69,8.24,8.24v71.52C437.5,118.81,433.81,122.5,429.26,122.5z"/>
	<circle class="st17" cx="393" cy="78" r="35"/>
	<ellipse class="st18" cx="393" cy="81.25" rx="35" ry="31.75"/>
	<path class="st19" d="M400.98,91.5h-15.96c-3.05,0-5.52-2.47-5.52-5.52V70.02c0-3.05,2.47-5.52,5.52-5.52h15.96
		c3.05,0,5.52,2.47,5.52,5.52v15.96C406.5,89.03,404.03,91.5,400.98,91.5z"/>
	<circle class="st20" cx="236.5" cy="140.5" r="50"/>
	<circle class="st21" cx="237" cy="141" r="104.5"/>
	<circle class="st22" cx="237" cy="141" r="95"/>
	<circle class="st23" cx="237" cy="141" r="86"/>
	<circle class="st23" cx="237" cy="141" r="78.5"/>
	<circle class="st23" cx="237" cy="141" r="71.5"/>
	<circle class="st23" cx="237" cy="141" r="63.5"/>
	<circle class="st23" cx="237" cy="141" r="55.5"/>
	<circle class="st24" cx="237" cy="141" r="49.5"/>
	<circle class="st25" cx="237" cy="141" r="24.88"/>
	<path class="st26" d="M132.5,141c0,57.55,46.52,104.22,104,104.49V36.51C179.02,36.78,132.5,83.45,132.5,141z"/>
	<rect x="209.5" y="261.5" class="st27" width="60" height="87"/>
	<g>
		<defs>
			<rect id="SVGID_1_" x="40.5" y="438.5" width="392" height="463"/>
		</defs>
		<clipPath id="SVGID_00000007398325670194435340000014271245166566924457_">
			<use xlink:href="#SVGID_1_"  style="overflow:visible;"/>
		</clipPath>
		<g style="clip-path:url(#SVGID_00000007398325670194435340000014271245166566924457_);">
			<rect x="67.75" y="299.5" class="st29" width="337" height="406.54"/>
			
				<linearGradient id="SVGID_00000111907270837230585510000001466500650126453933_" gradientUnits="userSpaceOnUse" x1="145.5787" y1="360.3839" x2="333.7738" y2="586.5255">
				<stop  offset="0" style="stop-color:#39383E"/>
				<stop  offset="1" style="stop-color:#15141A"/>
			</linearGradient>
			
				<rect x="89.15" y="318.22" style="fill:url(#SVGID_00000111907270837230585510000001466500650126453933_);stroke:#CCCCCC;stroke-miterlimit:10;" width="294.21" height="302.23"/>
			<g class="st31">
				<path class="st32" d="M312.25,559.63c-0.1,41.96-34.18,75.94-76.09,75.87c-42.01-0.07-76.09-34.29-75.91-76.21
					c0.18-41.99,34.29-75.93,76.17-75.79C278.39,483.64,312.35,517.73,312.25,559.63z M236.18,624.64
					c35.82,0.06,65.09-29.11,65.21-64.99c0.11-35.88-29.16-65.25-65.08-65.29c-35.84-0.04-65.1,29.12-65.21,64.99
					C171,595.23,200.25,624.58,236.18,624.64z"/>
				<path class="st32" d="M236.27,608.52c-22.22-0.17-42.13-14.99-48.5-36.26c-0.94-3.14,0.44-6.09,3.28-6.99
					c3.17-1.01,5.9,0.41,7,3.76c3.71,11.33,10.86,19.64,21.63,24.8c15.06,7.23,34.27,3.38,45.58-8.97
					c4.33-4.72,7.32-10.12,9.3-16.16c0.78-2.36,2.95-3.88,5.25-3.78c2.53,0.11,4.71,1.84,5.15,4.36c0.18,1.06,0.05,2.29-0.3,3.31
					c-6.6,19.14-19.88,30.77-39.65,34.95C242.16,608.15,239.18,608.21,236.27,608.52z"/>
				<path class="st32" d="M268.81,538.01c-0.18,4.24-0.96,8.62-3.92,12.24c-4.52,5.55-11.28,5.02-14.77-1.26
					c-4.09-7.36-4.11-14.91-0.05-22.3c1.67-3.05,4.27-5.21,7.99-5.16c3.71,0.05,6.12,2.34,7.92,5.32
					C267.99,530.19,268.7,533.88,268.81,538.01z"/>
				<path class="st32" d="M225.38,537.97c-0.19,4.32-0.98,8.65-3.87,12.23c-4.51,5.59-11.26,5.12-14.78-1.14
					c-4.16-7.4-4.21-15.04-0.05-22.45c3.86-6.87,11.98-6.69,15.85,0.18C224.39,530.08,225.39,533.97,225.38,537.97z"/>
			</g>
		</g>
	</g>
	<rect x="41" y="439" class="st33" width="391" height="37"/>
</g>
</svg>
