<?xml version="1.0" encoding="utf-8"?>
<!-- Generator: Adobe Illustrator 25.4.1, SVG Export Plug-In . SVG Version: 6.00 Build 0)  -->
<svg version="1.1" id="Capa_1" xmlns="http://www.w3.org/2000/svg" xmlns:xlink="http://www.w3.org/1999/xlink" x="0px" y="0px"
	 viewBox="0 0 357.2 390.2" style="enable-background:new 0 0 357.2 390.2;" xml:space="preserve">
<style type="text/css">
	.st0{fill:url(#SVGID_1_);}
	.st1{fill:#E62A41;}
	.st2{opacity:0.33;fill:#FFFFFF;enable-background:new    ;}
	.st3{fill:url(#SVGID_00000001629846758183176440000001102701589858687631_);}
	.st4{fill:url(#SVGID_00000131352065526904230010000001186282276194292132_);}
	.st5{opacity:9.000000e-02;fill:none;stroke:#020203;stroke-width:1.8919;stroke-miterlimit:10;enable-background:new    ;}
	.st6{fill:#A5A4A4;}
	.st7{fill:url(#SVGID_00000096045036245109695560000015805147841354030228_);}
	.st8{fill:none;stroke:#020203;stroke-width:1.8919;stroke-miterlimit:10;}
	.st9{clip-path:url(#SVGID_00000070818271033851464310000011438121728116446133_);fill:#E62A41;}
	.st10{clip-path:url(#SVGID_00000176039152590714652830000013022853159923285398_);fill:#E62A41;}
	.st11{fill:url(#SVGID_00000042735788337066492360000017673110905283726474_);}
	.st12{fill:#D4D4D4;}
	.st13{fill:#76C9F0;}
	.st14{fill:#0F0F0F;}
	.st15{clip-path:url(#SVGID_00000139978615105904056110000007903796186288856755_);}
	.st16{fill:none;}
	.st17{fill:#FFFFFF;}
	.st18{opacity:0.3;fill:#76C9F0;enable-background:new    ;}
	
		.st19{clip-path:url(#SVGID_00000085969738333881688260000008805909479403266953_);fill:url(#SVGID_00000039852546567916846840000002018813974830960007_);}
	
		.st20{clip-path:url(#SVGID_00000036941689144118407300000002780231025634937216_);fill:url(#SVGID_00000154412367479030678540000008738057349389353370_);}
	.st21{opacity:0.48;}
	
		.st22{clip-path:url(#SVGID_00000127024426765575174290000000980200284152785798_);fill:url(#SVGID_00000106828704483922240430000003280808374578400190_);}
	.st23{fill:url(#SVGID_00000081630922052222533340000001881645433658668977_);}
</style>
<g>
	
		<linearGradient id="SVGID_1_" gradientUnits="userSpaceOnUse" x1="-214.2326" y1="-511.1749" x2="-265.816" y2="-426.8558" gradientTransform="matrix(0.7071 -0.7071 -0.7071 -0.7071 21.6182 -254.4974)">
		<stop  offset="0" style="stop-color:#717378"/>
		<stop  offset="1" style="stop-color:#A3A2A2"/>
	</linearGradient>
	<polygon class="st0" points="202.6,251.8 151.9,252.1 151.9,238.9 202.6,238.6 	"/>
	<path class="st1" d="M130.7,195.9c0,0-25.4,20.6-25.4,38.9c0.1,19.7,4.3,40,15.7,63.9c6.1,12.7,5.8-6.1,6.4-17.8
		c1-20.6,6.9-25.7,20.3-33.6C147.7,247.2,141.5,230.3,130.7,195.9z"/>
	<path class="st2" d="M130.7,195.9c0,0-25.4,20.6-25.4,38.9c0.1,19.7,4.3,40,15.7,63.9c1.1,2.4,2.1,3.7,2.8,4.1
		c0,0-13.3-31.4-13.7-52.5C109.8,229.2,112.9,218.2,130.7,195.9"/>
	<path class="st1" d="M223.8,195.4c0,0,25.6,20.3,25.6,38.6c0.1,19.7-4,40-15.3,64c-6,12.8-5.8-6-6.5-17.8
		c-1.1-20.6-7-25.6-20.5-33.4C207.1,246.9,213.2,230,223.8,195.4z"/>
	
		<linearGradient id="SVGID_00000033360475363487142690000004716880285929512883_" gradientUnits="userSpaceOnUse" x1="-184.1783" y1="-343.7612" x2="-124.6673" y2="-484.3148" gradientTransform="matrix(0.7071 -0.7071 -0.7071 -0.7071 21.6182 -254.4974)">
		<stop  offset="3.558720e-03" style="stop-color:#EEF4FA"/>
		<stop  offset="1" style="stop-color:#CCDEED"/>
	</linearGradient>
	<path style="fill:url(#SVGID_00000033360475363487142690000004716880285929512883_);" d="M209.2,41.8
		c-21.6-27.6-32.6-28.6-32.6-28.6s-11,1-32.4,28.9c-22.6,29.4-23.1,61.1-23.3,82.8c-0.2,28.2,9.3,83.7,26.8,122.2l29.7-0.3h29.7
		c17.2-38.6,26.3-94.3,26-122.4C232.8,102.7,232.1,71,209.2,41.8z"/>
	
		<linearGradient id="SVGID_00000153697382817740289650000014391487393940705190_" gradientUnits="userSpaceOnUse" x1="-175.4401" y1="-360.8587" x2="-125.7942" y2="-478.113" gradientTransform="matrix(0.7071 -0.7071 -0.7071 -0.7071 21.6182 -254.4974)">
		<stop  offset="3.558720e-03" style="stop-color:#EEF4FA"/>
		<stop  offset="1" style="stop-color:#CCDEED"/>
	</linearGradient>
	<path style="fill:url(#SVGID_00000153697382817740289650000014391487393940705190_);" d="M155.2,247.1l22.2-0.2h29.7
		c17.2-38.6,26.3-94.3,26-122.4c-0.3-21.8-1-53.4-23.8-82.6c-21.6-27.6-32.6-28.6-32.6-28.6"/>
	<line class="st5" x1="151.9" y1="247.1" x2="202.7" y2="246.9"/>
	<path class="st6" d="M147.7,247.2l29.7-0.3h29.7c3.5-7.8,6.6-16.3,9.4-25.1l-78.4,0.4C141,230.9,144.2,239.4,147.7,247.2z"/>
	
		<linearGradient id="SVGID_00000012465339225622460690000008553386237304097196_" gradientUnits="userSpaceOnUse" x1="-229.1612" y1="-447.8844" x2="-218.1516" y2="-481.8307" gradientTransform="matrix(0.7071 -0.7071 -0.7071 -0.7071 21.6182 -254.4974)">
		<stop  offset="0" style="stop-color:#1D262D"/>
		<stop  offset="1" style="stop-color:#1E262D;stop-opacity:0"/>
	</linearGradient>
	<polygon style="fill:url(#SVGID_00000012465339225622460690000008553386237304097196_);" points="178.9,201.3 207.1,246.9 
		202.3,247.8 202.6,251.8 182.9,251.9 	"/>
	<line class="st8" x1="129" y1="69.5" x2="224.6" y2="69"/>
	<path class="st1" d="M176.6,13.3c0,0-11,1-32.4,28.9c-6.9,9-11.8,18.3-15.2,27.4l95.6-0.5c-3.5-9.1-8.4-18.2-15.4-27.2
		C187.7,14.2,176.6,13.3,176.6,13.3z"/>
	<g>
		<g>
			<defs>
				<path id="SVGID_00000038397590277843543190000013396008736120145049_" d="M209.2,41.8c-21.6-27.6-32.6-28.6-32.6-28.6
					s-11,1-32.4,28.9c-22.6,29.4-23.1,61.1-23.3,82.8c-0.2,28.2,9.3,83.7,26.8,122.2l29.7-0.3h29.7c17.2-38.6,26.3-94.3,26-122.4
					C232.8,102.7,232.1,71,209.2,41.8z"/>
			</defs>
			<clipPath id="SVGID_00000030463228257412875550000002996761070210867630_">
				<use xlink:href="#SVGID_00000038397590277843543190000013396008736120145049_"  style="overflow:visible;"/>
			</clipPath>
			<polygon style="clip-path:url(#SVGID_00000030463228257412875550000002996761070210867630_);fill:#E62A41;" points="235.1,78.5 
				120.5,79.6 120.5,75 235,73.8 			"/>
		</g>
		<g>
			<defs>
				<path id="SVGID_00000163770774405210608250000007917990428669376684_" d="M209.2,41.8c-21.6-27.6-32.6-28.6-32.6-28.6
					s-11,1-32.4,28.9c-22.6,29.4-23.1,61.1-23.3,82.8c-0.2,28.2,9.3,83.7,26.8,122.2l29.7-0.3h29.7c17.2-38.6,26.3-94.3,26-122.4
					C232.8,102.7,232.1,71,209.2,41.8z"/>
			</defs>
			<clipPath id="SVGID_00000067955272857664007490000009572603794806425269_">
				<use xlink:href="#SVGID_00000163770774405210608250000007917990428669376684_"  style="overflow:visible;"/>
			</clipPath>
			<polygon style="clip-path:url(#SVGID_00000067955272857664007490000009572603794806425269_);fill:#E62A41;" points="236.1,86.1 
				121.6,87.2 121.6,84.1 236.1,83 			"/>
		</g>
	</g>
	<line class="st5" x1="138.1" y1="222.1" x2="216.5" y2="221.7"/>
	<path class="st1" d="M177.2,200.2c0,0-5.6-1.1-5.5,38.9s2.5,76.3,5.9,76.3s5.5-36.3,5.4-76.3C182.8,199,177.2,200.2,177.2,200.2z"
		/>
	<path class="st2" d="M177.2,200.2c0,0-5.6-1.1-5.5,38.9s2.5,76.3,5.9,76.3c0,0-2.6-13.6-3.6-44.5
		C173,239.9,172.7,205.3,177.2,200.2z"/>
	<g>
		
			<linearGradient id="SVGID_00000101063988110705523950000002822335166444428973_" gradientUnits="userSpaceOnUse" x1="-162.4305" y1="-404.8503" x2="-139.1331" y2="-453.6291" gradientTransform="matrix(0.7071 -0.7071 -0.7071 -0.7071 21.6182 -254.4974)">
			<stop  offset="0" style="stop-color:#1D262D"/>
			<stop  offset="0.6767" style="stop-color:#1E262D;stop-opacity:0.3233"/>
			<stop  offset="1" style="stop-color:#1E262D;stop-opacity:0"/>
		</linearGradient>
		
			<ellipse style="fill:url(#SVGID_00000101063988110705523950000002822335166444428973_);" cx="177.4" cy="141.1" rx="37.4" ry="35.1"/>
		<ellipse class="st12" cx="176.4" cy="140.6" rx="37.2" ry="34.9"/>
		<ellipse class="st6" cx="177.1" cy="140.6" rx="36.8" ry="34.5"/>
		<ellipse class="st13" cx="176.3" cy="140.7" rx="28.7" ry="27"/>
		<ellipse class="st14" cx="176.8" cy="140.9" rx="27.6" ry="25.9"/>
		<g>
			<g>
				<defs>
					<ellipse id="SVGID_00000029742852561028790850000016029833737125791920_" cx="176.8" cy="140.9" rx="27.6" ry="25.9"/>
				</defs>
				<clipPath id="SVGID_00000103953784545297823620000004661468331201221273_">
					<use xlink:href="#SVGID_00000029742852561028790850000016029833737125791920_"  style="overflow:visible;"/>
				</clipPath>
				<g style="clip-path:url(#SVGID_00000103953784545297823620000004661468331201221273_);">
					<path class="st16" d="M193.3,153L193.3,153c0.8,0.1,1.6,0.1,2.4,0.2c0.2,0,0.4,0,0.5,0c-0.2,0-0.4,0-0.5,0
						C194.9,153.1,194.1,153,193.3,153z"/>
					<path class="st16" d="M163.4,152c-2.6-1.6-4.6-3.5-6.1-6c-2.6-4.5-2.9-9.1-0.9-13.8c1.6-3.8,4.4-6.8,8-9c1.9-1.2,4-2.1,6.2-2.8
						c0.5-0.2,1.1-0.3,1.6-0.4c-0.5,0.1-1.1,0.3-1.6,0.4c-2.2,0.6-4.3,1.6-6.2,2.8c-3.6,2.3-6.4,5.3-8,9.1c-2,4.8-1.7,9.4,0.9,13.8
						C158.8,148.5,160.9,150.5,163.4,152c0,0,0.1,0.1,0.2,0.1l0,0C163.6,152.2,163.5,152.1,163.4,152z"/>
					<path class="st16" d="M197.1,140.1L197.1,140.1c-0.4,0.5-0.7,1.1-1,1.6l0,0C196.4,141.2,196.7,140.7,197.1,140.1z"/>
					<path class="st16" d="M183.4,162.4c1.1-0.4,2-1.6,1.8-2.5C185.4,160.8,184.6,162.1,183.4,162.4z"/>
					<path class="st16" d="M178.1,163.7c-0.4,0.7-1.2,1-2,0.9c-0.9,0-1.5-0.4-1.8-1.1c0-0.1-0.1-0.3-0.2-0.4c0,0.1,0.1,0.3,0.2,0.4
						c0.4,0.7,1,1.1,1.8,1.1C176.9,164.7,177.6,164.5,178.1,163.7c0.4-0.7,0.6-1.6,0.8-2.4l0,0C178.7,162.2,178.6,163,178.1,163.7z"
						/>
					<path class="st16" d="M179.5,150.7c-0.2,1.5-0.4,2.9-0.7,4.4l0,0C179.1,153.6,179.3,152.2,179.5,150.7L179.5,150.7z"/>
					<path class="st16" d="M164.5,157.1c-1.3-0.7-2.2-1.7-2.6-3.1c-0.1-0.3-0.1-0.8-0.2-1.2c0,0.4,0,0.9,0.2,1.2
						C162.3,155.4,163.2,156.4,164.5,157.1c0.3,0.2,0.6,0.3,1,0.5l0,0C165.1,157.4,164.8,157.2,164.5,157.1z"/>
					<path class="st16" d="M185.6,131.1c0,0,0.1,0,0.2,0C185.8,131,185.7,131,185.6,131.1z"/>
					<path class="st16" d="M184.8,137.9c0.2-1.6,0.4-3.2,0.5-4.8C185.2,134.7,185,136.3,184.8,137.9z"/>
					<path class="st16" d="M181.3,149.4L181.3,149.4c-0.2,0.8-0.4,1.4-0.5,2.1l0,0C180.9,150.8,181.1,150.1,181.3,149.4z"/>
					<path class="st16" d="M173.4,161.5L173.4,161.5c0,0.2,0.1,0.3,0.1,0.4C173.4,161.8,173.4,161.7,173.4,161.5L173.4,161.5z"/>
					<path class="st16" d="M198.6,131.1c0.1,0.5,0.2,1,0.3,1.5l0,0C198.7,132.1,198.7,131.6,198.6,131.1c-0.3-1.4-0.7-2.7-1.3-4
						c-0.1-0.2-0.1-0.4,0.1-0.5c1-0.9,2-1.9,3-2.9s1.6-2.1,1.4-3.5c-0.1-0.6-0.4-1.3-0.5-1.9c-0.1-0.7-0.3-1.3-0.3-2
						c0-1.7,1.1-3.1,2.9-3.7c0.3-0.1,0.7-0.2,1-0.2c0.1,0,0.1,0,0.2,0c-0.1,0-0.1,0-0.2,0c-0.4,0-0.7,0.1-1,0.2
						c-1.7,0.6-2.9,2-2.9,3.7c0,0.7,0.2,1.3,0.3,2c0.1,0.6,0.4,1.3,0.5,1.9c0.2,1.4-0.4,2.5-1.4,3.5s-2,1.9-3,2.9
						c-0.2,0.2-0.2,0.3-0.1,0.5C197.8,128.4,198.3,129.7,198.6,131.1z"/>
					<path class="st16" d="M210.4,125.8c-0.6-0.3-1.2-0.6-1.8-0.6l0,0C209.2,125.2,209.8,125.4,210.4,125.8c0.5,0.3,1,0.4,1.6,0.3
						C211.4,126.2,210.9,126.1,210.4,125.8z"/>
					<path class="st16" d="M162.7,161c0,1.3,0.5,2.2,1.7,2.9l0,0C163.2,163.2,162.6,162.3,162.7,161z"/>
					<path class="st16" d="M211.8,119L211.8,119L211.8,119z"/>
					<path class="st16" d="M152.9,146.4c-0.9-0.3-1.7-0.5-2.6-0.8C151.1,145.9,152,146.2,152.9,146.4z"/>
					<path class="st16" d="M194.1,146.6c-1-0.4-2-0.8-3-1.3C192.1,145.7,193.1,146.2,194.1,146.6z"/>
					<path class="st16" d="M145.7,146.2c-0.2,0.3-0.4,0.7-0.5,1.1c-0.2,0.5-0.4,1-0.9,1.3c-0.4,0.3-0.9,0.5-1.4,0.5
						c0.5,0,1-0.1,1.4-0.5c0.4-0.3,0.7-0.8,0.9-1.3C145.4,146.9,145.5,146.5,145.7,146.2c0.3-0.5,0.9-0.9,1.5-1
						C146.6,145.3,146,145.6,145.7,146.2z"/>
					<path class="st16" d="M149.1,164.8c1.5-0.7,3-0.7,4.4,0c0.8,0.3,1.5,0.6,2.4,0.6c1,0,1.8-0.4,2.5-1.1c1.4-1.2,2.7-2.5,4.1-3.7
						c0,0,0.1-0.1,0.2-0.2l0,0c-0.1,0.1-0.2,0.1-0.2,0.2c-1.3,1.2-2.7,2.5-4.1,3.7c-0.7,0.6-1.5,1-2.5,1.1c-0.9,0-1.7-0.3-2.4-0.6
						C152.1,164.1,150.6,164,149.1,164.8c-1.4,0.7-2.3,1.8-2.6,3.2c0,0.2-0.1,0.4-0.1,0.6c0-0.2,0-0.4,0.1-0.6
						C146.8,166.6,147.7,165.5,149.1,164.8z"/>
					<path class="st16" d="M159.9,171.1c0.4,0.4,0.8,0.8,1.1,1.3c0.2,0.3,0.3,0.7,0.3,1c0-0.3-0.1-0.7-0.3-1
						C160.7,172,160.3,171.6,159.9,171.1c-0.4-0.5-0.7-1-0.7-1.6C159.2,170.2,159.4,170.7,159.9,171.1z"/>
					<path class="st16" d="M153.7,143.9c-0.2-0.7-0.6-1.1-1.3-1.3c-1.6-0.4-2.7-1.5-3.1-3c-0.2-0.9-0.5-1.8-0.9-2.7
						c-0.8-1.8-2.3-2.6-4.4-2.7l0,0c2.1,0,3.6,0.9,4.4,2.7c0.4,0.9,0.7,1.8,0.9,2.7c0.4,1.6,1.5,2.6,3.1,3
						C153.1,142.9,153.5,143.2,153.7,143.9c0.4,1.1,1,2.1,1.6,3c0,0.1,0.1,0.2,0.2,0.3c0,0,0,0-0.1,0h0.1c-0.1-0.1-0.1-0.2-0.2-0.3
						C154.7,146,154.1,145,153.7,143.9z"/>
					<path class="st16" d="M194.1,146.6c0.3,0.1,0.4,0,0.4-0.2C194.4,146.6,194.3,146.7,194.1,146.6z"/>
					<path class="st16" d="M197.2,154.6c0.1,0.5,0.4,1.1,0.4,1.7C197.6,155.7,197.3,155.1,197.2,154.6z"/>
					<path class="st16" d="M197,157.8c-0.1,0.1-0.2,0.2-0.4,0.3C196.8,158,197,157.9,197,157.8z"/>
					<path class="st16" d="M193.1,155.5c0.2-0.2,0.4-0.4,0.5-0.6C193.5,155.1,193.3,155.3,193.1,155.5z"/>
					<path class="st16" d="M190.8,155.4c-1.4,1.1-3,1.9-4.6,2.5s-3.2,1.2-4.9,1.6c-2,0.5-4,0.7-6.1,0.4c-0.5-0.1-1.1-0.3-1.6-0.5
						c-0.2-0.1-0.3-0.1-0.4,0.1c-1.1,1.1-2.3,2-3.7,2.7c-0.8,0.4-1.5,0.7-2.4,0.8c-0.8,0.1-1.6-0.1-2.2-0.6
						c-0.4-0.3-0.7-0.7-0.6-1.2c0,0.5,0.2,0.9,0.6,1.2c0.6,0.5,1.4,0.7,2.2,0.6c0.9-0.1,1.7-0.4,2.4-0.8c1.3-0.8,2.6-1.7,3.7-2.7
						c0.1-0.1,0.3-0.1,0.4-0.1c0.5,0.2,1,0.4,1.6,0.5c2.1,0.3,4,0,6.1-0.4c1.7-0.4,3.3-0.9,4.9-1.6
						C187.9,157.3,189.5,156.5,190.8,155.4c0.7-0.5,1.4-1.1,1.9-1.9C192.2,154.2,191.6,154.8,190.8,155.4z"/>
					<path class="st16" d="M197.6,156.5c0,0.2,0,0.3-0.1,0.5C197.6,156.9,197.6,156.7,197.6,156.5z"/>
					<path class="st16" d="M194.4,154.5c-0.4,0-0.6,0-0.8,0.3C193.8,154.6,194,154.5,194.4,154.5z"/>
					<path class="st16" d="M206.8,165.3c0-0.5,0-1,0-1.5c0-0.3,0-0.5-0.1-0.7c0-0.2-0.1-0.4-0.2-0.5c0.1,0.2,0.1,0.3,0.1,0.5
						c0,0.3,0,0.5,0.1,0.7C206.8,164.3,206.8,164.8,206.8,165.3c0,0.2,0.1,0.4,0.2,0.6C206.9,165.7,206.9,165.6,206.8,165.3z"/>
					<path class="st16" d="M198.7,154.4c0.5,0.1,0.9,0.2,1.4,0.3c1.7,0.4,3.5,0.8,5.2,1.2c1.9,0.4,3.4-0.1,4.6-1.5
						c0.4-0.5,0.9-1.1,1.5-1.6c1.6-1.2,3.9-0.9,5.2,0.6c0,0.1,0.1,0.1,0.1,0.2c0-0.1-0.1-0.2-0.2-0.2c-1.3-1.5-3.6-1.8-5.2-0.6
						c-0.6,0.4-1.1,1-1.5,1.6c-1.2,1.4-2.7,1.9-4.6,1.5c-1.7-0.4-3.5-0.8-5.2-1.2C199.7,154.6,199.2,154.5,198.7,154.4
						c0.8,1.8,0.7,3.5-1,4.8l0,0C199.5,157.8,199.5,156.2,198.7,154.4z"/>
					<path class="st16" d="M197.5,157c0,0.2-0.1,0.3-0.2,0.4C197.4,157.3,197.5,157.2,197.5,157z"/>
					<path class="st16" d="M162.5,148.6c-0.9-1.5-0.9-3.2-0.2-4.8c0.9-2.1,2.5-3.6,4.7-4.3c1.9-0.6,3.7-0.4,5.5,0.3
						c0.9,0.3,1.7,0.8,2.3,1.4c0.1,0.1,0.2,0.2,0.3,0.3c-0.1-0.1-0.2-0.2-0.3-0.3c-0.7-0.6-1.5-1.1-2.3-1.4
						c-1.7-0.7-3.5-0.8-5.5-0.3c-2.2,0.8-3.8,2.2-4.7,4.3C161.6,145.4,161.6,147,162.5,148.6c0.7,1.2,1.6,2.1,2.6,2.7
						C164,150.7,163.2,149.7,162.5,148.6z"/>
					<path class="st16" d="M187.2,149.5c0.1,0,0.2-0.1,0.3-0.3C187.4,149.4,187.3,149.5,187.2,149.5z"/>
					<path class="st16" d="M191.4,140.2v-0.1C191.4,140.1,191.4,140.2,191.4,140.2z"/>
					<path class="st16" d="M182.8,146.9c0.4-0.8,0.8-1.6,1.2-2.5C183.6,145.2,183.2,146.1,182.8,146.9z"/>
					<path class="st16" d="M195.2,141.9c0-0.3-0.1-0.3-0.5-0.4C195.1,141.6,195.2,141.6,195.2,141.9z"/>
					<path class="st16" d="M183.8,144c0.1,0.1,0.3,0.2,0.3,0.3C184,144.1,183.9,144,183.8,144z"/>
					<path class="st17" d="M185.3,159.9c-1.8,0.5-3.7,1-5.6,1.5c1.2,1.3,2.3,1.6,3.7,1.1C184.6,162.1,185.4,160.8,185.3,159.9z"/>
					<path class="st17" d="M176,164.7c0.9,0,1.6-0.2,2-0.9s0.6-1.5,0.8-2.4c-0.1,0-0.2,0-0.3,0c-0.5,0-1.1,0.1-1.7,0.1
						c-1,0-2-0.1-3-0.3c-0.3-0.1-0.5,0.1-0.6,0.3c0,0,0,0,0,0.1s0.1,0.2,0.1,0.3c0.2,0.5,0.4,0.9,0.5,1.3c0,0.1,0.1,0.3,0.2,0.4
						C174.6,164.3,175.2,164.7,176,164.7z"/>
					<path class="st17" d="M155.4,146.9c-0.7-1-1.3-1.9-1.6-3c-0.2-0.7-0.6-1.1-1.3-1.3c-1.6-0.5-2.7-1.5-3.1-3
						c-0.2-0.9-0.5-1.8-0.9-2.7c-0.8-1.8-2.3-2.6-4.4-2.7c-0.9,0-1.6,0.5-1.7,1.3c-0.1,0.5-0.1,1-0.1,1.5c0,0.7,0.2,1.3,0.2,2
						c0.1,1.2-0.2,2.3-1.1,3.2c-0.6,0.5-1,1.2-1.3,1.9c-0.4,1-0.6,1.9,0,2.9c0.5,0.8,1.3,1.4,2.2,1.8c0.3,0.1,0.6,0.2,0.9,0.3
						c0.5,0,1-0.1,1.4-0.5s0.7-0.8,0.9-1.3c0.1-0.4,0.3-0.8,0.5-1.1c0.3-0.5,0.9-0.9,1.5-1c0.2,0,0.4,0,0.6,0c0.4,0,0.7,0.1,1.1,0.2
						c0.4,0.1,0.9,0.3,1.3,0.4c0.9,0.3,1.7,0.5,2.6,0.8c0.4,0.1,0.9,0.3,1.3,0.4c0.4,0.1,0.8,0.3,1.3,0.4c0,0,0,0,0.1,0
						C155.5,147.1,155.4,147,155.4,146.9z"/>
					<path class="st17" d="M162.7,161c0-0.2,0-0.4,0-0.5c-0.1,0.1-0.1,0.1-0.2,0.2c-1.3,1.2-2.7,2.5-4.1,3.7c-0.7,0.6-1.5,1-2.5,1.1
						c-0.9,0-1.7-0.3-2.4-0.6c-1.5-0.7-3-0.7-4.4,0s-2.3,1.8-2.6,3.2c0,0.2-0.1,0.4-0.1,0.6c0,1.4,1.1,2.7,3,2.7c0.4,0,0.9,0,1.4,0
						c0.7,0,1.3,0.3,1.7,0.9c0.2,0.3,0.3,0.6,0.4,1c0.4,1,1,1.9,1.8,2.7c0.5,0.5,1.3,0.7,2,0.5c0.8-0.2,1.6-0.4,2.3-0.7
						c0.5-0.2,0.9-0.4,1.3-0.8c0.5-0.4,0.8-1,0.8-1.5c0-0.3-0.1-0.7-0.3-1c-0.3-0.5-0.7-0.9-1.1-1.3c-0.4-0.5-0.7-1-0.7-1.6
						c0-0.2,0-0.4,0.2-0.6c0.1-0.3,0.4-0.6,0.6-0.9c0.8-0.8,1.5-1.5,2.3-2.2c0.7-0.6,1.4-1.3,2.2-2
						C163.2,163.2,162.6,162.3,162.7,161z"/>
					<path class="st17" d="M203.7,112.7c-1.7,0.6-2.9,2-2.9,3.7c0,0.7,0.2,1.3,0.3,2c0.1,0.6,0.4,1.3,0.5,1.9
						c0.2,1.4-0.4,2.5-1.4,3.5s-2,1.9-3,2.9c-0.2,0.2-0.2,0.3-0.1,0.5c0.6,1.3,1.1,2.6,1.3,4c0.1,0.5,0.2,1,0.3,1.4
						c0.1,0,0.1-0.1,0.2-0.1c0.7-0.6,1.3-1.2,2-1.8c1.7-1.5,3.3-3,5-4.5c0.7-0.6,1.5-1.1,2.5-1l0,0l0,0c0.7,0,1.3,0.3,1.8,0.6
						c0.5,0.3,1.1,0.4,1.6,0.3c0.3,0,0.6-0.2,0.9-0.3c0.6-0.3,0.9-0.8,1.2-1.4c0.5-1.2,0.4-2.3,0-3.5c-0.3-0.8-0.9-1.4-1.7-1.7
						c-0.2-0.1-0.4-0.1-0.6-0.2l0,0c-0.2,0-0.4-0.1-0.6-0.1c-1.8-0.3-2.9-1.3-3.6-2.8c-0.4-1-1-2-1.5-2.9c-0.2-0.4-0.6-0.7-1.1-0.7
						c-0.1,0-0.1,0-0.2,0C204.4,112.5,204.1,112.6,203.7,112.7z"/>
					<path class="st17" d="M197.2,154.6c-0.7,0-1.4,0-2.1,0c-0.2,0-0.4,0-0.7,0c-0.4,0-0.6,0-0.8,0.3c-0.1,0.2-0.4,0.4-0.5,0.6
						c-0.4,0.3-0.8,0.7-1.2,1.1c0.4,0.4,0.9,0.8,1.3,1.1c0.5,0.4,1,0.6,1.7,0.8s1.3,0,1.7-0.3c0.1-0.1,0.3-0.2,0.4-0.3
						c0.1-0.1,0.2-0.3,0.3-0.4c0.1-0.1,0.1-0.3,0.2-0.4s0.1-0.3,0.1-0.5c0-0.1,0-0.2,0-0.3C197.6,155.7,197.3,155.1,197.2,154.6z"/>
					<path class="st17" d="M206.8,163.9c0,0.5,0,1,0,1.5c0,0.2,0.1,0.4,0.2,0.6c0.2,0.3,0.4,0.5,0.8,0.6c0.4,0.1,0.9,0.2,1.4,0.2
						c1.3,0,2.4-0.5,3.4-1.2c0.7-0.5,1.1-1.1,1.1-1.9c0-0.5,0-1-0.2-1.4c-0.5-1.7,0-3.2,1.3-4.5c0.7-0.8,1.3-1.5,2-2.3
						c0.4-0.5,0.4-1.1,0.1-1.6c0-0.1-0.1-0.1-0.1-0.2c-1.3-1.5-3.6-1.8-5.2-0.6c-0.6,0.4-1.1,1-1.5,1.6c-1.2,1.4-2.7,1.9-4.6,1.5
						c-1.7-0.4-3.5-0.8-5.2-1.2c-0.4-0.1-0.9-0.2-1.4-0.3c0.8,1.8,0.7,3.5-1,4.8c0.1,0,0.2,0.1,0.3,0.1c1.6,0.5,3.2,0.9,4.8,1.4
						c0.9,0.3,1.7,0.5,2.5,0.9c0.5,0.2,0.9,0.5,1.2,1c0.1,0.2,0.1,0.3,0.2,0.5C206.8,163.4,206.8,163.6,206.8,163.9z"/>
					<path class="st17" d="M164.9,162.4c0.7,0.5,1.4,0.7,2.2,0.6c0.9-0.1,1.7-0.4,2.4-0.8c1.4-0.8,2.6-1.7,3.7-2.7
						c0.1-0.1,0.3-0.1,0.4-0.1c0.5,0.2,1,0.4,1.6,0.5c2.1,0.3,4,0,6.1-0.4c1.7-0.4,3.3-0.9,4.9-1.6c1.7-0.6,3.2-1.4,4.6-2.5
						c0.7-0.5,1.4-1.1,1.9-1.9c0-0.1,0.1-0.2,0.2-0.3c0.1-0.1,0.2-0.2,0.4-0.2l0,0l0,0c0.8,0.1,1.6,0.1,2.4,0.2c0.2,0,0.4,0,0.5,0
						c1.2,0,2.4-0.1,3.6-0.6c1.1-0.4,1.8-1.1,2-2.3c0.1-0.5,0-0.8-0.4-1.2c-0.4-0.5-0.9-0.8-1.5-1.1s-1.2-0.7-1.8-1.1
						c1.4-2.5,1.3-4.8-1-6.8c-0.4,0.5-0.7,1.1-1,1.6l0,0l0,0c0.4-1.3,0.8-2.6,0.9-3.9c0.5-4-0.3-7.6-2.6-10.9c-2.1-3-5-5.1-8.6-6.3
						c-4.4-1.6-8.9-1.7-13.4-0.7c-0.5,0.1-1.1,0.3-1.6,0.4c-2.2,0.6-4.3,1.6-6.2,2.8c-3.6,2.3-6.4,5.3-8,9.1
						c-2,4.8-1.7,9.4,0.9,13.8c1.5,2.5,3.5,4.5,6.1,6c0.1,0,0.1,0.1,0.2,0.1l0,0l0,0l0,0c-0.6-0.2-1.2-0.4-1.8-0.6
						c-0.1,0.3-0.1,0.7-0.1,1.1s0,0.9,0.2,1.2c0.4,1.4,1.3,2.4,2.6,3.1c0.3,0.2,0.6,0.3,1,0.5l0,0l0,0c-0.2,0.5-0.4,1.1-0.6,1.6
						c-0.2,0.6-0.4,1.3-0.5,1.9c0,0.1,0,0.1,0,0.2C164.2,161.7,164.5,162.1,164.9,162.4z M178.8,155L178.8,155L178.8,155
						c0.2-1.5,0.4-2.9,0.7-4.4l0,0l0,0c0.4,0.3,0.8,0.6,1.3,0.9c0.2-0.7,0.4-1.4,0.5-2.2l0,0l0,0c1.5,1.1,3,2.3,4.4,3.4L178.8,155z
						 M177.4,139.9c0-0.1,0.1-0.2,0.1-0.3c0.6-1.1,1.1-2.1,1.7-3.2c0.1-0.1,0.2-0.3,0.3-0.4c0.2,0,0.3,0,0.4,0.1
						c1.4,0.6,2.8,1.2,4.2,1.8c0.1,0,0.1,0,0.2,0.1c0.3,0.1,0.4,0,0.4-0.3c0.2-1.6,0.4-3.2,0.5-4.8c0-0.5,0-1,0.1-1.5
						c0-0.3,0.1-0.5,0.2-0.5c0,0,0.1,0,0.2,0c0,0,0.1,0,0.2,0c1.7,0.2,3.4,0.4,5.2,0.7c0.6,0.1,0.7,0.2,0.7,0.8
						c-0.1,2.5-0.3,5.1-0.4,7.6v0.1c0,0.3,0,0.3,0.4,0.4c1,0.3,1.9,0.6,2.9,0.9c0.4,0.1,0.5,0.2,0.5,0.4c0,0.1,0,0.2,0,0.3
						c-0.2,1.3-0.4,2.6-0.6,3.9c0,0.1,0,0.2,0,0.3c0,0.3-0.2,0.3-0.4,0.2c-1-0.4-2-0.8-3-1.3c-0.3-0.1-0.7-0.3-1-0.4
						c-0.4-0.2-0.4-0.2-0.6,0.1c-0.7,1.4-1.3,2.8-2.1,4.3c-0.1,0.2-0.2,0.3-0.3,0.3s-0.2,0-0.3-0.1c-1.2-0.4-2.4-0.9-3.6-1.3
						c-0.8-0.3-0.9-0.5-0.5-1.3s0.8-1.6,1.2-2.5c0-0.1,0-0.1,0-0.2c0-0.1-0.1-0.2-0.3-0.3c-1.9-1-3.9-2-5.8-3
						c-0.2-0.1-0.4-0.2-0.4-0.3C177.2,140.5,177.2,140.3,177.4,139.9z M162.5,148.6c-0.9-1.5-0.9-3.2-0.2-4.8
						c0.9-2.1,2.5-3.6,4.7-4.3c1.9-0.6,3.7-0.4,5.5,0.3c0.9,0.3,1.7,0.8,2.3,1.4c0.1,0.1,0.2,0.2,0.3,0.3c1.4,1.4,2,3.1,1.6,5
						c-0.5,2.5-2,4.5-4.4,5.7c-1.3,0.7-2.8,0.8-4.2,0.4c-1.1-0.3-2-0.7-2.8-1.2C164,150.7,163.2,149.7,162.5,148.6z"/>
					<path class="st14" d="M218.7,152.2c-1.5-1.7-3.5-2.5-5.8-2.3c-1.6,0.2-2.9,1-3.9,2.1c-0.3,0.3-0.5,0.6-0.9,0.9
						c-0.7,0.6-1.6,0.9-2.5,0.7c-1.1-0.2-2.2-0.5-3.3-0.8c0.3-0.4,0.6-0.8,0.8-1.3c0.4-0.9,0.5-1.8,0.1-2.8
						c-0.3-0.6-0.8-1.1-1.4-1.5c-0.5-0.3-1-0.7-1.6-1c0.1-0.4,0.3-0.9,0.4-1.3c0.4-2.2-0.4-4-2-5.6c-0.2-0.2-0.2-0.3-0.1-0.5
						c0.2-1,0.4-1.9,0.5-2.9c0-0.1,0.1-0.3,0.2-0.3c2.7-2.5,5.4-5.1,8.2-7.5c0.7-0.6,1.3-0.7,2.1-0.3c2.7,1.3,5.9,0.2,7-2.5
						c0.6-1.6,0.8-3.2,0.3-4.8v-0.1c0-0.2-0.1-0.3-0.2-0.5c-0.2-0.3-0.4-0.7-0.6-1.1c-0.8-1.1-1.8-1.8-3.2-2.1
						c-0.5-0.1-1.1-0.3-1.5-0.5c-0.9-0.4-1.3-1.2-1.6-2.1c-0.3-1.1-0.8-2-1.6-2.8c-1.3-1.4-2.8-1.7-4.7-1c-1.3,0.5-2.4,1.3-3.4,2.2
						c-1.2,1.3-1.6,2.7-1.4,4.4c0.1,0.9,0.4,1.8,0.7,2.6c0.3,0.8,0.2,1.5-0.4,2.2c-0.6,0.7-1.1,1.4-1.7,2.1
						c-0.3,0.3-0.7,0.6-1.1,0.9c-0.4-0.5-0.6-0.9-0.9-1.3c-2-2.5-4.4-4.4-7.4-5.8c-4.8-2.3-9.9-2.9-15.2-2.1
						c-0.8,0.1-1.6,0.3-2.4,0.5l0,0c-0.1,0-0.3,0-0.4,0.1l-2.1,0.7c-0.2,0.1-0.4,0.1-0.6,0.3c-0.2,0.1-0.4,0.2-0.6,0.3
						c-4.8,2.1-8.7,5.3-11.3,9.6c-1.8,3.1-2.8,6.4-2.8,10c0,1,0.2,2,0.3,3c0,0.1,0,0.2,0,0.3c-0.2-0.4-0.5-0.7-0.7-1.1
						c-0.4-0.6-0.5-1.3-0.8-1.9c-0.4-1.6-1.2-3-2.6-4c-1.7-1.3-3.7-1.7-5.9-1.2c-1.7,0.4-2.6,1.6-3,3.1c-0.2,1-0.1,1.9,0,2.9
						c0.1,0.7,0.2,1.5-0.2,2.1c-0.1,0.3-0.3,0.5-0.5,0.7c-0.9,1-1.5,2.1-1.8,3.4c-0.4,1.4-0.2,2.8,0.7,4c0.8,1.2,1.9,2.1,3.2,2.6
						c2,0.8,4,0.3,5.3-1.3c0.5-0.6,1-1.3,1.5-2c0.1-0.2,0.2-0.2,0.4-0.1c3.1,0.9,6.1,1.8,9.1,2.6c0.3,0.1,0.6,0.1,0.9,0.2
						c0.1,0,0.1,0,0.2,0.1c0.5,0.4,0.9,0.7,1.4,1.1c0.1,0.1,0.2,0.2,0.1,0.3c-0.2,2.2,0.5,4.1,2.4,5.6l0,0c-1.8,1.6-3.6,3.2-5.4,4.8
						c-0.7,0.6-1.4,0.7-2.2,0.3c-1-0.5-2-0.8-3.1-0.8c-3.6-0.2-6.9,2.1-7.7,5.4c-0.2,0.7-0.2,1.5,0,2.2c0,0,0,0.1,0,0.2
						c0.1,0.4,0.3,0.8,0.4,1.1c0.2,0.3,0.4,0.6,0.6,0.8c0.9,1.1,2,1.6,3.5,1.7c0.1,0,0.2,0,0.2,0c1.2,0.1,1.9,0.6,2.4,1.7
						c0.5,1.2,1.3,2.1,2.4,2.9c1.2,0.7,2.4,0.8,3.8,0.6c1.7-0.3,3.2-0.9,4.6-1.9c1.6-1.1,2.2-2.9,1.5-4.6c-0.3-0.9-0.9-1.7-1.5-2.4
						c0,0-0.1-0.1-0.2-0.2c0.5-0.5,1.1-1,1.6-1.4c1.3-1.1,2.5-2.3,3.7-3.4c0.1-0.1,0.3-0.2,0.5-0.3c1.3-0.2,2.5-0.8,3.6-1.5
						c0.2-0.2,0.5-0.3,0.8-0.5c0.2,0.4,0.3,0.8,0.4,1.3c0.2,0.6,0.6,1.1,1.1,1.6c1.7,1.5,5,1.3,6.1-1.2c0.1-0.2,0.1-0.3,0.2-0.5
						c0.2,0.1,0.4,0.2,0.6,0.3c2.1,0.9,5.5,0,6.1-3.1c0.1-0.4,0.1-0.9,0.2-1.3c0-0.1,0.1-0.2,0.2-0.3c0.4-0.1,0.7-0.3,1.1-0.5
						c0.1,0,0.2,0,0.4,0c2.7,0.8,5.5,1.7,8.2,2.6c2.1,0.7,4.2,1.3,6.3,1.9c0.2,0,0.4,0.1,0.5,0.2c0.4,0.2,0.6,0.6,0.7,1
						c0,0.4,0,0.8,0,1.3c0.3,1.8,1.7,3,3.6,3.3c1,0.1,2,0.1,3.1-0.2c0.1,0,0.1,0,0.2,0l1-0.3c0.4-0.2,0.8-0.3,1.1-0.5
						c2.2-1.2,3.1-3,2.6-5.4c-0.1-0.4-0.1-0.9-0.1-1.3c0-0.8,0.3-1.6,0.9-2.3c0.5-0.5,1-1.1,1.5-1.7c0.4-0.5,0.8-1.1,1-1.7
						C219.7,154.3,219.6,153.2,218.7,152.2z M197.3,126.6c1-0.9,2-1.9,3-2.9s1.6-2.1,1.4-3.5c-0.1-0.6-0.4-1.3-0.5-1.9
						c-0.1-0.7-0.3-1.3-0.3-2c0-1.7,1.1-3.1,2.9-3.7c0.3-0.1,0.7-0.2,1-0.2c0.1,0,0.1,0,0.2,0c0.5,0,0.9,0.3,1.1,0.7
						c0.5,1,1,1.9,1.5,2.9c0.7,1.5,1.8,2.5,3.6,2.8c0.2,0,0.4,0.1,0.6,0.1l0,0c0.2,0,0.4,0.1,0.6,0.2c0.9,0.3,1.4,0.9,1.7,1.7
						c0.4,1.2,0.4,2.4,0,3.5c-0.3,0.5-0.6,1.1-1.2,1.4c-0.3,0.2-0.6,0.3-0.9,0.3c-0.5,0.1-1.1,0-1.6-0.3c-0.6-0.3-1.2-0.6-1.8-0.6
						l0,0c-1,0-1.8,0.4-2.5,1c-1.7,1.5-3.3,3-5,4.5c-0.7,0.6-1.3,1.2-2,1.8c0,0-0.1,0.1-0.2,0.1l0,0c-0.1-0.5-0.2-1-0.3-1.5
						c-0.3-1.4-0.7-2.7-1.3-4C197.1,126.9,197.1,126.8,197.3,126.6z M155.5,147.2c-0.4-0.1-0.9-0.3-1.3-0.4
						c-0.4-0.1-0.9-0.3-1.3-0.4c-0.9-0.3-1.7-0.5-2.6-0.8c-0.4-0.1-0.9-0.3-1.3-0.4c-0.4-0.1-0.7-0.2-1.1-0.2c-0.2,0-0.4,0-0.6,0
						c-0.6,0.1-1.2,0.5-1.5,1c-0.2,0.3-0.4,0.7-0.5,1.1c-0.2,0.5-0.4,1-0.9,1.3c-0.4,0.3-0.9,0.5-1.4,0.5c-0.3,0-0.6-0.1-0.9-0.3
						c-0.9-0.4-1.7-1-2.2-1.8c-0.6-0.9-0.5-1.9,0-2.9c0.3-0.7,0.7-1.3,1.3-1.9c0.9-0.9,1.2-2,1.1-3.2c0-0.7-0.2-1.3-0.2-2
						c0-0.5,0-1,0.1-1.5c0.2-0.8,0.9-1.3,1.7-1.3l0,0c2.1,0,3.6,0.9,4.4,2.7c0.4,0.9,0.7,1.8,0.9,2.7c0.4,1.6,1.5,2.6,3.1,3
						c0.8,0.2,1.1,0.6,1.3,1.3c0.4,1.1,1,2.1,1.7,3C155.4,146.9,155.5,146.9,155.5,147.2L155.5,147.2z M164.5,164
						c-0.7,0.7-1.4,1.3-2.2,2s-1.6,1.4-2.3,2.2c-0.3,0.3-0.5,0.6-0.6,0.9c-0.1,0.2-0.1,0.4-0.2,0.6c0,0.6,0.2,1.1,0.7,1.6
						c0.4,0.4,0.8,0.8,1.1,1.3c0.2,0.3,0.3,0.7,0.3,1c0,0.6-0.3,1.1-0.8,1.5c-0.4,0.3-0.9,0.6-1.3,0.8c-0.8,0.3-1.6,0.5-2.3,0.7
						c-0.7,0.1-1.5,0-2-0.5c-0.9-0.8-1.4-1.6-1.8-2.7c-0.1-0.3-0.3-0.7-0.4-1c-0.4-0.6-0.9-0.9-1.7-0.9c-0.4,0-0.9-0.1-1.4,0
						c-1.9,0-3-1.3-3-2.7c0-0.2,0-0.4,0.1-0.6c0.3-1.5,1.3-2.5,2.6-3.2c1.5-0.7,3-0.7,4.4,0c0.8,0.3,1.6,0.6,2.4,0.6
						c1,0,1.8-0.4,2.5-1.1c1.3-1.2,2.7-2.5,4.1-3.7c0,0,0.1-0.1,0.2-0.2l0,0c0,0.2,0,0.4,0,0.5C162.6,162.3,163.2,163.2,164.5,164
						L164.5,164z M178.1,163.7c-0.4,0.7-1.2,1-2.1,0.9c-0.9,0-1.5-0.4-1.8-1.1c0-0.1-0.1-0.3-0.2-0.4c-0.2-0.4-0.4-0.9-0.5-1.3
						c0-0.1-0.1-0.2-0.1-0.3c0,0,0,0,0-0.1c0-0.2,0.3-0.4,0.6-0.3c1,0.3,2,0.4,3,0.3c0.5,0,1.1,0,1.7-0.1c0.1,0,0.2,0,0.3,0l0,0
						C178.7,162.2,178.6,163,178.1,163.7z M183.4,162.4c-1.4,0.5-2.6,0.2-3.7-1.1c1.8-0.5,3.7-1,5.6-1.5
						C185.5,160.8,184.6,162.1,183.4,162.4z M190.8,155.4c-1.4,1.1-3,1.9-4.6,2.5s-3.2,1.2-4.9,1.6c-2,0.5-4,0.7-6.1,0.4
						c-0.5-0.1-1.1-0.3-1.6-0.5c-0.2,0-0.3,0-0.4,0.1c-1.1,1-2.3,2-3.7,2.7c-0.8,0.4-1.5,0.7-2.4,0.8c-0.8,0.1-1.6-0.1-2.2-0.6
						c-0.4-0.3-0.7-0.7-0.6-1.2c0-0.1,0-0.1,0-0.2c0.1-0.6,0.4-1.3,0.5-1.9c0.2-0.5,0.4-1,0.6-1.6l0,0c-0.3-0.2-0.6-0.3-1-0.5
						c-1.3-0.7-2.2-1.7-2.6-3.1c-0.1-0.3-0.1-0.8-0.2-1.2c0-0.4,0-0.8,0.1-1.1c0.6,0.2,1.2,0.4,1.8,0.6l0,0l0,0c0,0-0.1-0.1-0.2-0.1
						c-2.6-1.6-4.6-3.5-6.1-6c-2.6-4.5-3-9.1-0.9-13.8c1.7-3.9,4.5-6.9,8.1-9.1c1.9-1.2,4-2.1,6.2-2.8c0.5-0.2,1.1-0.3,1.6-0.4
						c4.5-1.1,9-0.9,13.4,0.7c3.5,1.3,6.5,3.3,8.6,6.3c2.3,3.3,3.1,7,2.6,10.9c-0.2,1.3-0.5,2.6-0.9,3.9l0,0c0.4-0.5,0.7-1,1-1.6
						l0,0c2.2,2,2.5,4.3,1,6.8c0.6,0.4,1.3,0.7,1.8,1.1c0.5,0.3,1.1,0.6,1.5,1.1c0.3,0.3,0.4,0.7,0.4,1.2c-0.2,1.1-0.9,1.9-2,2.3
						c-1.2,0.5-2.4,0.6-3.6,0.6c-0.2,0-0.4,0-0.5,0c-0.8,0-1.6-0.1-2.4-0.1l0,0c-0.1,0-0.3,0.1-0.4,0.2c0,0.1-0.1,0.2-0.2,0.3
						C192.2,154.2,191.6,154.8,190.8,155.4z M197.5,157c0,0.2-0.1,0.3-0.2,0.4s-0.2,0.3-0.3,0.4c-0.1,0.1-0.2,0.2-0.4,0.3
						c-0.5,0.3-1.1,0.4-1.7,0.3s-1.2-0.4-1.7-0.8c-0.4-0.3-0.9-0.7-1.3-1.1c0.4-0.4,0.8-0.7,1.2-1.1c0.2-0.2,0.4-0.4,0.5-0.6
						c0.2-0.3,0.4-0.4,0.8-0.3c0.2,0,0.4,0,0.7,0c0.7,0,1.3,0,2.1,0c0.1,0.5,0.4,1.1,0.4,1.7c0,0.1,0,0.2,0,0.3
						C197.6,156.7,197.6,156.9,197.5,157z M206.8,163.9c0-0.3,0-0.5-0.1-0.7c0-0.2-0.1-0.3-0.1-0.5c-0.2-0.5-0.6-0.8-1.2-1
						c-0.8-0.3-1.7-0.6-2.5-0.9c-1.6-0.5-3.2-0.9-4.8-1.4c-0.1,0-0.2,0-0.3-0.1l0,0c1.7-1.3,1.7-3,1-4.8c0.5,0.1,0.9,0.2,1.4,0.3
						c1.7,0.4,3.5,0.8,5.2,1.2c1.9,0.4,3.4-0.1,4.6-1.5c0.4-0.5,0.9-1.1,1.5-1.6c1.6-1.2,3.9-0.9,5.2,0.6c0,0.1,0.1,0.1,0.2,0.2
						c0.3,0.5,0.3,1.1-0.1,1.6c-0.6,0.8-1.3,1.6-2,2.3c-1.3,1.3-1.7,2.8-1.3,4.5c0.1,0.5,0.2,0.9,0.2,1.4c0,0.8-0.4,1.4-1.1,1.9
						c-1,0.7-2.1,1.2-3.4,1.2c-0.4,0-0.9-0.1-1.4-0.2c-0.4-0.1-0.7-0.3-0.8-0.6c-0.1-0.2-0.2-0.4-0.2-0.6
						C206.8,164.8,206.8,164.3,206.8,163.9z"/>
					<path class="st14" d="M177.5,140.7c0.1,0.1,0.3,0.2,0.4,0.3c1.9,1,3.9,2,5.8,3c0.1,0.1,0.3,0.1,0.3,0.3c0,0,0,0.1,0,0.2
						c-0.4,0.8-0.8,1.6-1.2,2.5c-0.4,0.8-0.3,1,0.5,1.3c1.2,0.5,2.4,0.9,3.6,1.3c0.1,0,0.2,0.1,0.3,0.1s0.2-0.1,0.3-0.3
						c0.7-1.4,1.4-2.8,2.1-4.3c0.1-0.3,0.2-0.3,0.6-0.1c0.3,0.2,0.6,0.3,1,0.4c1,0.4,2,0.8,3,1.3c0.3,0.1,0.4,0,0.4-0.2
						c0-0.1,0-0.2,0-0.3c0.2-1.3,0.4-2.6,0.6-3.9c0-0.1,0-0.2,0-0.3c0-0.3-0.1-0.3-0.5-0.4c-1-0.3-1.9-0.6-2.9-0.9
						c-0.3-0.1-0.4-0.1-0.4-0.4v-0.1c0.1-2.5,0.3-5.1,0.4-7.6c0-0.6-0.1-0.7-0.7-0.8c-1.7-0.2-3.5-0.4-5.2-0.7c0,0-0.1,0-0.2,0
						s-0.2,0-0.2,0c-0.2,0.1-0.2,0.3-0.2,0.5c0,0.5,0,1-0.1,1.5c-0.1,1.6-0.4,3.2-0.5,4.8c0,0.3-0.1,0.3-0.4,0.3c0,0-0.1,0-0.2-0.1
						c-1.4-0.6-2.8-1.2-4.2-1.8c-0.1,0-0.3,0-0.4-0.1c-0.1,0.1-0.2,0.3-0.3,0.4c-0.6,1.1-1.1,2.1-1.7,3.2c0,0.1-0.1,0.2-0.1,0.3
						C177.2,140.3,177.2,140.5,177.5,140.7z"/>
					<path class="st14" d="M172.1,152.1c2.4-1.3,3.9-3.2,4.4-5.7c0.4-1.9-0.1-3.6-1.6-5c-0.1-0.1-0.2-0.2-0.3-0.3
						c-0.7-0.6-1.5-1.1-2.3-1.4c-1.7-0.7-3.5-0.8-5.5-0.3c-2.2,0.8-3.8,2.2-4.7,4.3c-0.7,1.6-0.6,3.2,0.2,4.8
						c0.7,1.2,1.6,2.1,2.6,2.7c0.9,0.5,1.8,0.9,2.8,1.2C169.4,152.9,170.8,152.8,172.1,152.1z"/>
					<path class="st14" d="M181.3,149.4c-0.2,0.8-0.4,1.4-0.5,2.2l0,0c-0.4-0.3-0.8-0.6-1.3-0.9l0,0c-0.2,1.5-0.4,2.9-0.7,4.4l0,0
						l6.9-2.3C184.3,151.6,182.8,150.5,181.3,149.4L181.3,149.4z"/>
				</g>
			</g>
		</g>
		<ellipse class="st18" cx="176.3" cy="140.7" rx="28.7" ry="27"/>
	</g>
	<g>
		<g>
			<defs>
				<ellipse id="SVGID_00000147189663354985100520000011281469529715112070_" cx="176.7" cy="141" rx="27.6" ry="25.9"/>
			</defs>
			<clipPath id="SVGID_00000122705927138964462650000013338816781307519911_">
				<use xlink:href="#SVGID_00000147189663354985100520000011281469529715112070_"  style="overflow:visible;"/>
			</clipPath>
			
				<linearGradient id="SVGID_00000016043290551077181800000011053852736817662868_" gradientUnits="userSpaceOnUse" x1="-151.9159" y1="-356.3775" x2="-206.6641" y2="-392.6295" gradientTransform="matrix(0.7071 -0.7071 -0.7071 -0.7071 21.6182 -254.4974)">
				<stop  offset="0" style="stop-color:#FAFCFD"/>
				<stop  offset="1" style="stop-color:#FAFCFD;stop-opacity:0"/>
			</linearGradient>
			
				<polygon style="clip-path:url(#SVGID_00000122705927138964462650000013338816781307519911_);fill:url(#SVGID_00000016043290551077181800000011053852736817662868_);" points="
				166.6,106.5 142.4,165 152.5,168.7 176.7,110.2 			"/>
		</g>
		<g>
			<defs>
				<ellipse id="SVGID_00000031192895847166912540000007072017514388558777_" cx="176.7" cy="141" rx="27.6" ry="25.9"/>
			</defs>
			<clipPath id="SVGID_00000034085668646104146000000002562072081346246299_">
				<use xlink:href="#SVGID_00000031192895847166912540000007072017514388558777_"  style="overflow:visible;"/>
			</clipPath>
			
				<linearGradient id="SVGID_00000065766120842228483260000010775534977966254732_" gradientUnits="userSpaceOnUse" x1="-144.3326" y1="-367.4663" x2="-199.1369" y2="-403.7556" gradientTransform="matrix(0.7071 -0.7071 -0.7071 -0.7071 21.6182 -254.4974)">
				<stop  offset="0" style="stop-color:#FAFCFD"/>
				<stop  offset="1" style="stop-color:#FAFCFD;stop-opacity:0"/>
			</linearGradient>
			
				<polygon style="clip-path:url(#SVGID_00000034085668646104146000000002562072081346246299_);fill:url(#SVGID_00000065766120842228483260000010775534977966254732_);" points="
				181.7,112.7 157.6,171.1 162.7,173 186.8,114.5 			"/>
		</g>
	</g>
	<path class="st2" d="M176.6,13.3c0,0-11,1-32.4,28.9c-22.6,29.4-23.1,61.1-23.3,82.8c-0.2,28.2,9.3,83.7,26.8,122.2l0,0
		C147.7,247.2,88.1,89.4,176.6,13.3z"/>
	<polygon class="st2" points="153.8,247.1 153.8,252.1 151.9,252.1 151.9,247.1 	"/>
	<g class="st21">
		<g>
			<defs>
				<path id="SVGID_00000001656764602152604860000010064305530038755263_" d="M209.2,41.8c-21.6-27.6-32.6-28.6-32.6-28.6
					s-11,1-32.4,28.9c-22.6,29.4-23.1,61.1-23.3,82.8c-0.1,22.5,5.9,62.4,17.2,97.1c2.9,8.8,6.1,17.3,9.6,25.1l29.7-0.3h29.7
					c17.2-38.6,26.3-94.3,26-122.4C232.8,102.7,232.1,71,209.2,41.8z"/>
			</defs>
			<clipPath id="SVGID_00000083797298272596705170000010746052462474144945_">
				<use xlink:href="#SVGID_00000001656764602152604860000010064305530038755263_"  style="overflow:visible;"/>
			</clipPath>
			
				<linearGradient id="SVGID_00000137816206212929800050000001105786758047139992_" gradientUnits="userSpaceOnUse" x1="-36.8311" y1="-465.3558" x2="-155.988" y2="-390.9478" gradientTransform="matrix(0.7071 -0.7071 -0.7071 -0.7071 21.6182 -254.4974)">
				<stop  offset="0" style="stop-color:#1D262D"/>
				<stop  offset="1" style="stop-color:#1E262D;stop-opacity:0"/>
			</linearGradient>
			
				<path style="clip-path:url(#SVGID_00000083797298272596705170000010746052462474144945_);fill:url(#SVGID_00000137816206212929800050000001105786758047139992_);" d="
				M207.1,246.9c0,0,53.4-153.1-30.5-233.6l44-16.1l54.6,241.1C275.3,238.3,247.2,250.2,207.1,246.9z"/>
		</g>
	</g>
	
		<linearGradient id="SVGID_00000070117032734565742430000007469517710731079560_" gradientUnits="userSpaceOnUse" x1="-205.8019" y1="-460.6658" x2="-193.9435" y2="-487.2319" gradientTransform="matrix(0.7071 -0.7071 -0.7071 -0.7071 21.6182 -254.4974)">
		<stop  offset="0" style="stop-color:#1D262D"/>
		<stop  offset="1" style="stop-color:#1E262D;stop-opacity:0"/>
	</linearGradient>
	<path style="fill:url(#SVGID_00000070117032734565742430000007469517710731079560_);" d="M207.1,246.9l9.9,5.3
		c0,0,10.6-29.2,6.7-56.7l0,0C223.8,195.4,214.5,230,207.1,246.9z"/>
	<path class="st2" d="M228.9,285c0.1-11.9-3.5-19.8-4.3-21.3c0.1,0.3,0.4,1,0.7,2.2c1.2,3.8,1.9,8.5,2.2,14.4
		c0.4,7.6,0.5,18.1,2.1,21.2c0.4,0.6,0.8,0.9,1.2,0.8l0,0C231,302.3,228.8,298.2,228.9,285z"/>
</g>
</svg>
