<?xml version="1.0" encoding="utf-8"?>
<!-- Generator: Adobe Illustrator 25.4.1, SVG Export Plug-In . SVG Version: 6.00 Build 0)  -->
<svg version="1.1" id="Capa_1" xmlns="http://www.w3.org/2000/svg" xmlns:xlink="http://www.w3.org/1999/xlink" x="0px" y="0px"
	 viewBox="0 0 496.23 496.86" style="enable-background:new 0 0 496.23 496.86;" xml:space="preserve">
<style type="text/css">
	.st0{fill:#FFFFFF;}
</style>
<path class="st0" d="M495.73,248.16c0,8.26,0.7,16.59-0.15,24.77c-1.66,15.86-14.03,26.38-29.98,26.5
	c-6.41,0.05-12.82,0.01-19.23,0.02c-11.79,0.02-22.5,7.41-27.17,18.78c-4.55,11.07-2.24,23.12,6.15,31.53
	c4.31,4.32,8.75,8.5,13.09,12.79c13.47,13.32,13.62,33.07,0.27,46.55c-9.24,9.33-18.54,18.59-27.93,27.77
	c-12.83,12.56-32.99,12.57-45.89,0.09c-4.53-4.38-8.84-8.99-13.44-13.31c-8.36-7.85-18.23-10.51-29.22-7.12
	c-11.11,3.43-18.29,10.97-20.94,22.43c-0.55,2.38-0.52,4.92-0.58,7.39c-0.16,7.13,0.23,14.3-0.43,21.37
	c-1.46,15.6-13.4,27.75-28.99,28.56c-14.53,0.76-29.17,0.84-43.7,0.01c-16.93-0.97-29.33-15.05-29.6-32.09
	c-0.1-6.61,0.03-13.23-0.04-19.85c-0.13-11.92-7.5-22.67-18.98-26.96c-11.78-4.41-22.58-2.55-31.81,6.32
	c-4.25,4.08-8.34,8.32-12.56,12.44c-13.79,13.48-33.75,13.36-47.43-0.24c-9.16-9.11-18.33-18.21-27.49-27.33
	c-12.41-12.35-12.7-32.09-0.56-44.71c4.3-4.47,8.78-8.76,13.2-13.11c9.12-8.98,11.81-21,7.22-32.44
	c-4.66-11.62-14.97-18.73-27.64-18.99c-7.75-0.16-15.54,0.24-23.23-0.45c-16.33-1.46-28.61-15.25-28.66-31.59
	c-0.04-12.51,0-25.02,0.02-37.52c0.03-18.23,13.76-32.23,32.02-32.56c6.41-0.12,12.82-0.03,19.23-0.03
	c12.83,0,23.5-7.16,28.29-18.97c4.64-11.45,1.98-23.46-7.13-32.43c-4.35-4.28-8.68-8.57-12.94-12.93
	c-12.38-12.67-12.36-32.4,0.18-44.92c9.65-9.64,19.42-19.18,29.28-28.6c12.57-12.01,32.67-11.78,45.18,0.38
	c4.45,4.32,8.78,8.77,13.25,13.06c9.3,8.93,20.13,10.98,32.05,6.39c11.49-4.43,18.85-15.29,18.96-27.37
	c0.06-6.41-0.03-12.82,0.03-19.23c0.18-18.59,14.12-32.46,32.71-32.51c12.2-0.04,24.4-0.05,36.59-0.02
	c19.08,0.04,33.09,13.95,33.25,33.02c0.05,6.2-0.03,12.41,0.02,18.61c0.11,12.41,7.42,23.04,18.97,27.69
	c11.6,4.67,23.91,2,32.78-7.06c4.12-4.21,8.27-8.4,12.5-12.5c12.92-12.51,33.04-12.5,45.86,0.05c9.53,9.33,19.01,18.7,28.43,28.14
	c12.67,12.69,12.73,32.37,0.15,45.14c-4.35,4.42-8.83,8.71-13.29,13.02c-8.85,8.57-11.49,20.51-7.02,31.9
	c4.47,11.4,15.2,18.96,27.27,19.12c6.3,0.08,12.61-0.01,18.92,0.01c17.47,0.06,30.13,12.4,30.57,29.93
	c0.18,7.02,0.03,14.06,0.03,21.09C496.03,248.15,495.88,248.16,495.73,248.16z M249.07,351.59
	c57.72-0.12,103.88-46.15,103.85-103.56c-0.03-56.84-46.47-103.2-103.33-103.15c-57.53,0.05-103.93,46.45-103.7,103.72
	C146.11,305.4,192.5,351.71,249.07,351.59z"/>
</svg>
