<?xml version="1.0" encoding="utf-8"?>
<!-- Generator: Adobe Illustrator 25.4.1, SVG Export Plug-In . SVG Version: 6.00 Build 0)  -->
<svg version="1.1" id="Capa_1" xmlns="http://www.w3.org/2000/svg" xmlns:xlink="http://www.w3.org/1999/xlink" x="0px" y="0px"
	 viewBox="0 0 419.19 419.03" style="enable-background:new 0 0 419.19 419.03;" xml:space="preserve">
<style type="text/css">
	.st0{display:none;}
	.st1{display:inline;fill:#9D9D9D;}
	.st2{display:none;fill:#FFFFFF;}
	.st3{fill:#FFFFFF;}
</style>
<g class="st0">
	<ellipse class="st1" cx="250.88" cy="207.6" rx="432.5" ry="303"/>
</g>
<path class="st2" d="M154.55,0c-28.8,52.92-33.88,107.5-13.03,163.22c20.64,55.17,59.38,93.83,114.63,114.35
	c55.72,20.69,110.23,15.5,163.04-12.49c-7.81,30.3-22.46,56.67-42.61,79.7c-40.13,45.87-91.18,71.68-151.91,74.08
	C98.98,423.81-4.09,323.93,0.12,195.4C2.12,134.63,27.73,83.67,73.38,43.03C98.39,20.75,139.31,0.63,154.55,0z"/>
<g>
	<path class="st3" d="M119.57,210.08c-0.09-50.52,40.85-91.57,91.52-91.77c50.44-0.2,91.61,40.82,91.78,91.48
		c0.18,50.49-40.72,91.49-91.5,91.74C160.94,301.78,119.66,260.65,119.57,210.08z"/>
	<path class="st3" d="M403.59,223.51h-39c-8.01,0-14.5-6.49-14.5-14.5v0c0-8.01,6.49-14.5,14.5-14.5h39c8.01,0,14.5,6.49,14.5,14.5
		v0C418.09,217.02,411.6,223.51,403.59,223.51z"/>
	<path class="st3" d="M54.59,223.51h-39c-8.01,0-14.5-6.49-14.5-14.5v0c0-8.01,6.49-14.5,14.5-14.5h39c8.01,0,14.5,6.49,14.5,14.5v0
		C69.09,217.02,62.6,223.51,54.59,223.51z"/>
	<path class="st3" d="M355.14,83.48l-27.58,27.58c-5.66,5.66-14.84,5.66-20.51,0v0c-5.66-5.66-5.66-14.84,0-20.51l27.58-27.58
		c5.66-5.66,14.84-5.66,20.51,0l0,0C360.8,68.63,360.8,77.82,355.14,83.48z"/>
	<path class="st3" d="M223.09,19.01v39c0,8.01-6.49,14.5-14.5,14.5h0c-8.01,0-14.5-6.49-14.5-14.5v-39c0-8.01,6.49-14.5,14.5-14.5h0
		C216.6,4.51,223.09,11.01,223.09,19.01z"/>
	<path class="st3" d="M81.57,61.74l29.24,25.81c6,5.3,6.57,14.46,1.27,20.47l0,0c-5.3,6-14.46,6.57-20.47,1.27L62.38,83.48
		c-6-5.3-6.57-14.46-1.27-20.47l0,0C66.4,57.01,75.57,56.44,81.57,61.74z"/>
	<path class="st3" d="M63.05,335.55l27.58-27.58c5.66-5.66,14.84-5.66,20.51,0l0,0c5.66,5.66,5.66,14.84,0,20.51l-27.58,27.58
		c-5.66,5.66-14.84,5.66-20.51,0h0C57.39,350.39,57.39,341.21,63.05,335.55z"/>
	<path class="st3" d="M195.09,400.01v-39c0-8.01,6.49-14.5,14.5-14.5h0c8.01,0,14.5,6.49,14.5,14.5v39c0,8.01-6.49,14.5-14.5,14.5h0
		C201.59,414.51,195.09,408.02,195.09,400.01z"/>
	<path class="st3" d="M336.62,357.29l-29.24-25.81c-6-5.3-6.57-14.46-1.27-20.47v0c5.3-6,14.46-6.57,20.47-1.27l29.24,25.81
		c6,5.3,6.57,14.46,1.27,20.47l0,0C351.78,362.02,342.62,362.59,336.62,357.29z"/>
</g>
</svg>
