<?xml version="1.0" encoding="utf-8"?>
<!-- Generator: Adobe Illustrator 25.4.1, SVG Export Plug-In . SVG Version: 6.00 Build 0)  -->
<svg version="1.1" id="Capa_1" xmlns="http://www.w3.org/2000/svg" xmlns:xlink="http://www.w3.org/1999/xlink" x="0px" y="0px"
	 viewBox="0 0 357.2 390.2" style="enable-background:new 0 0 357.2 390.2;" xml:space="preserve">
<style type="text/css">
	.st0{fill:#FFFFFF;}
</style>
<g>
	<path class="st0" d="M350.9,203.8c-0.2,0.5-0.9,0.5-1.1,0c-0.3-0.9-0.6-1.9-0.9-2.8c-0.2-0.5-0.4-0.7-0.9-0.9
		c-0.9-0.3-1.8-0.7-2.8-1.1c-0.4-0.2-0.4-0.9,0-1l0,0c0.9-0.4,1.8-0.7,2.7-1.1c0.4-0.2,0.8-0.6,0.9-1c0.4-1.2,0.6-1.9,1.1-3.1
		c0.2-0.6,0.6-0.6,0.8,0l0,0c0.4,1.3,0.8,2.1,1.2,3.3c0.1,0.4,0.3,0.6,0.7,0.8c0.9,0.3,1.9,0.7,2.9,1.1c0.4,0.2,0.4,0.9,0,1
		c-0.9,0.4-1.8,0.7-2.7,1c-0.5,0.2-0.8,0.6-1,1.1C351.5,202,351.2,202.9,350.9,203.8z"/>
	<path class="st0" d="M105.9,128.9c-0.2,0.5-0.9,0.5-1.1,0c-0.3-0.9-0.6-1.9-0.9-2.8c-0.2-0.5-0.4-0.7-0.9-0.9
		c-0.9-0.3-1.8-0.7-2.8-1.1c-0.4-0.2-0.4-0.9,0-1l0,0c0.9-0.4,1.8-0.7,2.7-1.1c0.4-0.2,0.8-0.6,0.9-1c0.4-1.2,0.6-1.9,1.1-3.1
		c0.2-0.6,0.6-0.6,0.8,0l0,0c0.4,1.3,0.8,2.1,1.2,3.3c0.1,0.4,0.3,0.6,0.7,0.8c0.9,0.3,1.9,0.7,2.9,1.1c0.4,0.2,0.4,0.9,0,1
		c-0.9,0.4-1.8,0.7-2.7,1c-0.5,0.2-0.8,0.6-1,1.1C106.5,127.1,106.2,128,105.9,128.9z"/>
	<path class="st0" d="M27.6,238.4c-0.2,0.5-0.9,0.5-1.1,0c-0.3-0.9-0.6-1.8-0.9-2.6c-0.1-0.5-0.4-0.7-0.8-0.9
		c-0.9-0.3-1.7-0.7-2.6-1c-0.4-0.2-0.4-0.8,0-1l0,0c0.9-0.3,1.7-0.7,2.6-1c0.3-0.1,0.7-0.6,0.9-0.9c0.4-1.1,0.6-1.8,1-3
		c0.2-0.6,0.5-0.6,0.7,0l0,0c0.4,1.2,0.7,2,1.1,3.1c0.1,0.4,0.3,0.6,0.7,0.8c0.9,0.3,1.8,0.7,2.7,1.1c0.4,0.2,0.4,0.8,0,1
		c-0.9,0.3-1.7,0.7-2.5,1c-0.4,0.2-0.8,0.5-1,1C28.2,236.7,27.9,237.5,27.6,238.4z"/>
	<path class="st0" d="M286.1,94.8c-0.3,0.9-1.6,0.9-1.9,0c-0.6-1.6-1.1-3.2-1.6-4.8c-0.3-0.8-0.7-1.3-1.5-1.5
		c-1.6-0.6-3.1-1.2-4.7-1.8c-0.8-0.3-0.8-1.5,0-1.8l0,0c1.6-0.6,3.1-1.2,4.7-1.8c0.6-0.3,1.3-1,1.5-1.7c0.8-2,1.1-3.3,1.8-5.4
		c0.4-1,1-1,1.3,0l0,0c0.8,2.2,1.3,3.5,2,5.6c0.2,0.7,0.6,1.1,1.3,1.4c1.6,0.6,3.2,1.2,4.9,1.9c0.8,0.3,0.8,1.5,0,1.8
		c-1.6,0.6-3.1,1.2-4.6,1.8c-0.8,0.3-1.4,1-1.7,1.8C287.2,91.7,286.7,93.2,286.1,94.8z"/>
</g>
</svg>
