<?xml version="1.0" encoding="utf-8"?>
<!-- Generator: Adobe Illustrator 25.4.1, SVG Export Plug-In . SVG Version: 6.00 Build 0)  -->
<svg version="1.1" id="Capa_1" xmlns="http://www.w3.org/2000/svg" xmlns:xlink="http://www.w3.org/1999/xlink" x="0px" y="0px"
	 viewBox="0 0 357.2 390.2" style="enable-background:new 0 0 357.2 390.2;" xml:space="preserve">
<style type="text/css">
	.st0{fill:#FFFFFF;}
</style>
<g>
	<path class="st0" d="M294.7,254.8c-0.1,0.4-0.7,0.4-0.9,0c-0.3-0.7-0.5-1.5-0.7-2.2c-0.1-0.4-0.3-0.6-0.7-0.7
		c-0.7-0.3-1.4-0.5-2.2-0.8c-0.4-0.1-0.4-0.7,0-0.8l0,0c0.7-0.3,1.4-0.5,2.1-0.8c0.3-0.1,0.6-0.5,0.7-0.8c0.3-0.9,0.5-1.5,0.8-2.4
		c0.2-0.5,0.4-0.5,0.6,0l0,0c0.3,1,0.6,1.6,0.9,2.6c0.1,0.3,0.3,0.5,0.6,0.6c0.7,0.3,1.5,0.6,2.2,0.9c0.4,0.1,0.4,0.7,0,0.8
		c-0.7,0.3-1.4,0.6-2.1,0.8c-0.4,0.1-0.7,0.4-0.8,0.8C295.2,253.4,294.9,254.1,294.7,254.8z"/>
	<path class="st0" d="M256.9,193c-0.3,0.7-1.3,0.7-1.5,0c-0.5-1.3-0.9-2.6-1.3-3.8c-0.2-0.7-0.6-1-1.2-1.2c-1.3-0.5-2.5-0.9-3.8-1.5
		c-0.6-0.2-0.6-1.2,0-1.4l0,0c1.3-0.5,2.5-0.9,3.8-1.5c0.5-0.2,1-0.8,1.2-1.3c0.6-1.6,0.9-2.6,1.5-4.3c0.3-0.8,0.8-0.8,1.1,0l0,0
		c0.6,1.8,1,2.8,1.6,4.5c0.2,0.6,0.5,0.9,1,1.1c1.3,0.5,2.6,1,4,1.5c0.6,0.2,0.6,1.2,0,1.4c-1.3,0.5-2.5,1-3.7,1.4
		c-0.6,0.2-1.2,0.8-1.4,1.5C257.8,190.5,257.4,191.7,256.9,193z"/>
	<path class="st0" d="M13.6,99.9c-0.2,0.7-1.2,0.7-1.4,0c-0.4-1.2-0.8-2.4-1.2-3.5c-0.2-0.6-0.5-0.9-1.1-1.1
		c-1.2-0.4-2.3-0.9-3.5-1.4c-0.6-0.2-0.6-1.1,0-1.3l0,0c1.2-0.5,2.3-0.9,3.5-1.4c0.5-0.2,1-0.8,1.1-1.2c0.6-1.5,0.8-2.4,1.4-4
		c0.3-0.8,0.7-0.8,1,0l0,0c0.6,1.6,1,2.6,1.5,4.2c0.2,0.5,0.4,0.8,0.9,1c1.2,0.4,2.4,0.9,3.6,1.4c0.6,0.2,0.6,1.1,0,1.3
		c-1.2,0.5-2.3,0.9-3.4,1.3c-0.6,0.2-1.1,0.7-1.3,1.3C14.4,97.6,14,98.8,13.6,99.9z"/>
	<path class="st0" d="M207.6,20.6c-0.3,0.9-1.5,0.9-1.8,0c-0.5-1.6-1.1-3.1-1.6-4.6c-0.3-0.8-0.7-1.2-1.4-1.5
		c-1.5-0.5-3-1.1-4.6-1.8c-0.7-0.3-0.7-1.4,0-1.7l0,0c1.5-0.6,3-1.1,4.5-1.8c0.6-0.3,1.3-1,1.5-1.6c0.7-2,1.1-3.2,1.8-5.2
		c0.4-1,0.9-1,1.3,0l0,0c0.7,2.1,1.2,3.4,1.9,5.4c0.2,0.7,0.6,1.1,1.2,1.3c1.6,0.6,3.1,1.2,4.7,1.8c0.7,0.3,0.7,1.4,0,1.7
		c-1.5,0.6-3,1.2-4.4,1.7c-0.8,0.3-1.4,0.9-1.6,1.7C208.6,17.7,208.1,19.1,207.6,20.6z"/>
	<path class="st0" d="M100.2,233.5c-0.3,0.7-1.3,0.7-1.5,0c-0.5-1.3-0.9-2.5-1.3-3.8c-0.2-0.7-0.6-1-1.2-1.2
		c-1.2-0.5-2.5-0.9-3.8-1.5c-0.6-0.2-0.6-1.2,0-1.4l0,0c1.2-0.5,2.5-0.9,3.7-1.5c0.5-0.2,1-0.8,1.2-1.3c0.6-1.6,0.9-2.6,1.5-4.3
		c0.3-0.8,0.8-0.8,1.1,0l0,0c0.6,1.8,1,2.8,1.6,4.5c0.2,0.6,0.5,0.9,1,1.1c1.3,0.5,2.6,1,3.9,1.5c0.6,0.2,0.6,1.2,0,1.4
		c-1.3,0.5-2.4,1-3.7,1.4c-0.6,0.2-1.1,0.8-1.4,1.4C101.1,231,100.6,232.2,100.2,233.5z"/>
</g>
</svg>
