<?xml version="1.0" encoding="utf-8"?>
<!-- Generator: Adobe Illustrator 25.4.1, SVG Export Plug-In . SVG Version: 6.00 Build 0)  -->
<svg version="1.1" id="Capa_2_00000151534779820709239800000017466000367330364848_" opacity="0.5"
	 xmlns="http://www.w3.org/2000/svg" xmlns:xlink="http://www.w3.org/1999/xlink" x="0px" y="0px" viewBox="0 0 475.9 412.2"
	 style="enable-background:new 0 0 475.9 412.2;" xml:space="preserve">
<style type="text/css">
	.st0{fill:#585858;}
</style>
<g>
	<path class="st0" d="M261.5,214.4c0-72,0-142.6,0-214c71.1,0,142.1,0,213.6,0c0.1,1.3,0.4,2.5,0.4,3.7c0,73,0.9,146-0.3,219
		c-1.2,71.6-34.6,124.6-97.6,158.9c-33.4,18.1-69.2,27.7-107,30.3c-2.7,0.2-5.4,0-8.6,0c0-33.9,0-67.4,0-100.9
		c10.9-2,21.8-3.3,32.4-6c22.2-5.5,42.7-14.7,59-31.4c16-16.3,20.1-36.8,20-59.6C336,214.4,299.2,214.4,261.5,214.4z"/>
	<path class="st0" d="M0,0c71.3,0,142,0,213.2,0c0.2,2.4,0.6,4.6,0.6,6.7c0,70.2,0.4,140.5-0.1,210.7
		c-0.6,83.3-41.3,140.2-116.4,173.6C67,404.5,25.6,413.3,0.5,412c0-33.6,0-67.3,0-99.9c15.4-3.6,30.8-6.2,45.4-11
		c10.6-3.4,20.7-8.9,30.3-14.6c25.7-15.5,35.5-39.6,35.5-68.7c0-0.9-0.4-1.9-0.8-3.6c-36.8,0-73.6,0-110.8,0C0,142.5,0,71.7,0,0z"/>
</g>
</svg>
