<?xml version="1.0" encoding="utf-8"?>
<!-- Generator: Adobe Illustrator 25.4.1, SVG Export Plug-In . SVG Version: 6.00 Build 0)  -->
<svg version="1.1" id="Capa_2" xmlns="http://www.w3.org/2000/svg" xmlns:xlink="http://www.w3.org/1999/xlink" x="0px" y="0px"
	 viewBox="0 0 475.86 412.25" style="enable-background:new 0 0 475.86 412.25;" xml:space="preserve">
<style type="text/css">
	.st0{fill:#585858;}
</style>
<g>
	<path class="st0" d="M261.54,214.4c0-71.99,0-142.64,0-214.01c71.11,0,142.13,0,213.6,0c0.14,1.29,0.39,2.48,0.39,3.67
		c-0.01,72.99,0.9,146-0.32,218.97c-1.2,71.57-34.58,124.63-97.58,158.85c-33.37,18.13-69.18,27.7-106.96,30.27
		c-2.7,0.18-5.41,0.02-8.63,0.02c0-33.9,0-67.37,0-100.88c10.85-1.96,21.77-3.34,32.37-5.97c22.2-5.52,42.69-14.73,59.01-31.35
		c16.04-16.34,20.1-36.81,19.97-59.59C336.03,214.4,299.25,214.4,261.54,214.4z"/>
	<path class="st0" d="M0,0c71.31,0,141.97,0,213.25,0c0.24,2.4,0.64,4.56,0.64,6.71c0.02,70.24,0.37,140.48-0.11,210.71
		c-0.56,83.29-41.28,140.16-116.44,173.57c-30.29,13.46-71.71,22.31-96.88,21.05c0-33.62,0-67.27,0-99.93
		c15.42-3.62,30.75-6.25,45.41-10.97c10.6-3.41,20.73-8.87,30.33-14.65c25.73-15.5,35.54-39.65,35.46-68.68
		c0-0.94-0.43-1.88-0.84-3.61c-36.79,0-73.56,0-110.81,0C0,142.51,0,71.65,0,0z"/>
</g>
</svg>
