<?xml version="1.0" encoding="utf-8"?>
<!-- Generator: Adobe Illustrator 25.4.1, SVG Export Plug-In . SVG Version: 6.00 Build 0)  -->
<svg version="1.1" id="Capa_1" xmlns="http://www.w3.org/2000/svg" xmlns:xlink="http://www.w3.org/1999/xlink" x="0px" y="0px"
	 viewBox="0 0 496.23 496.86" style="enable-background:new 0 0 496.23 496.86;" xml:space="preserve">
<style type="text/css">
	.st0{display:none;}
	.st1{display:inline;}
	.st2{fill:#FFFFFF;}
	.st3{display:none;fill-rule:evenodd;clip-rule:evenodd;fill:#DBCC12;}
	.st4{fill-rule:evenodd;clip-rule:evenodd;fill:#FFFFFF;}
</style>
<g class="st0">
	<g class="st1">
		<path class="st2" d="M170.67,165.35c35.45,0,70.76,0,106.35,0c0,15.19,0,30.32,0,45.45l0.46,0.15c1.8-2.46,3.59-4.93,5.4-7.37
			c9.23-12.43,19.87-23.37,33.23-31.43c14.72-8.88,30.82-13.27,47.83-14.3c19.62-1.18,38.84,0.97,57.29,8.19
			c24.28,9.5,42.51,25.9,55.15,48.6c10.22,18.35,15.77,38.19,17.9,58.94c1.19,11.61,1.81,23.34,1.84,35.01
			c0.18,61.56,0.08,123.12,0.08,184.68c0,1,0,1.99,0,3.16c-35.55,0-70.92,0-106.54,0c0-1.06,0-2.05,0-3.04
			c0-59.7,0.03-119.4-0.03-179.1c-0.01-13.71-1.5-27.24-6.57-40.13c-5.45-13.86-14.38-24.5-29.02-29.01
			c-25.73-7.93-52.75,0.37-68.26,26.25c-6.54,10.92-8.73,22.67-8.73,35.12c0.03,62.26,0.01,124.52,0.01,186.77c0,0.99,0,1.99,0,3.14
			c-35.57,0-70.94,0-106.41,0C170.67,386.04,170.67,275.75,170.67,165.35z"/>
		<path class="st2" d="M0.28,165.36c35.37,0,70.68,0,106.12,0c0,110.36,0,220.57,0,331c-35.3,0-70.6,0-106.12,0
			C0.28,386.13,0.28,275.81,0.28,165.36z"/>
		<path class="st2" d="M0,58.93c0.2-16.74,4.72-30.4,15.43-41.64C22.44,9.92,31.01,5.12,40.85,2.62C53.4-0.57,65.92-0.36,78.18,3.84
			c13.38,4.57,23.41,13.27,29.58,26c8.2,16.9,9.28,34.37,1.91,51.74c-8.58,20.23-24.69,30.55-46.2,32.82
			c-11.46,1.21-22.64-0.14-33.05-5.34C13.14,100.44,3.78,86.02,0.76,67.23C0.24,64.03,0.16,60.76,0,58.93z"/>
	</g>
</g>
<rect x="-137.92" y="-98.26" class="st3" width="810.05" height="742.63"/>
<g>
	<path class="st4" d="M423.24,72.23C376.72,25.68,314.87,0.03,248.97,0C113.18,0,2.67,110.47,2.61,246.26
		c-0.02,43.4,11.33,85.77,32.88,123.12L0.55,497l130.6-34.25c35.98,19.62,76.49,29.96,117.73,29.98h0.1
		c135.77,0,246.3-110.49,246.35-246.27C495.35,180.65,469.75,118.77,423.24,72.23 M248.97,451.14h-0.08
		c-36.74-0.01-72.78-9.88-104.22-28.53l-7.48-4.44l-77.5,20.32l20.69-75.54l-4.87-7.74c-20.5-32.59-31.32-70.26-31.31-108.94
		c0.04-112.86,91.9-204.68,204.84-204.68c54.69,0.02,106.1,21.34,144.76,60.03s59.94,90.12,59.92,144.81
		C453.68,359.31,361.83,451.14,248.97,451.14 M361.28,297.83c-6.16-3.08-36.42-17.97-42.06-20.02c-5.64-2.05-9.75-3.08-13.85,3.08
		c-4.1,6.16-15.9,20.02-19.49,24.13c-3.59,4.11-7.18,4.62-13.34,1.54c-6.16-3.08-25.99-9.58-49.5-30.54
		c-18.3-16.32-30.65-36.47-34.24-42.63c-3.59-6.16-0.38-9.49,2.7-12.56c2.77-2.76,6.16-7.19,9.23-10.78
		c3.08-3.59,4.1-6.16,6.15-10.27c2.05-4.11,1.03-7.7-0.51-10.78c-1.54-3.08-13.85-33.37-18.98-45.69c-5-12-10.07-10.38-13.85-10.56
		c-3.59-0.18-7.69-0.22-11.8-0.22c-4.1,0-10.77,1.54-16.41,7.7c-5.64,6.16-21.54,21.05-21.54,51.34s22.06,59.55,25.13,63.66
		c3.08,4.11,43.4,66.26,105.15,92.92c14.69,6.34,26.15,10.13,35.09,12.96c14.75,4.68,28.17,4.02,38.77,2.44
		c11.83-1.77,36.42-14.89,41.55-29.26c5.13-14.37,5.13-26.69,3.59-29.26C371.54,302.45,367.44,300.91,361.28,297.83"/>
</g>
</svg>
